<?xml version="1.0" encoding="utf-8"?>
<!-- Generator: Adobe Illustrator 27.4.0, SVG Export Plug-In . SVG Version: 6.00 Build 0)  -->
<svg version="1.1" id="OBJECTS" xmlns="http://www.w3.org/2000/svg" xmlns:xlink="http://www.w3.org/1999/xlink" x="0px" y="0px"
	 viewBox="0 0 463.4 339.4" style="enable-background:new 0 0 463.4 339.4;" xml:space="preserve">
<style type="text/css">
	.st0{fill:#BBE2F2;}
	.st1{fill:#1C31B5;}
	.st2{fill:#009CF8;}
	.st3{fill:#006BDE;}
	.st4{fill:#18315B;}
	.st5{fill:#000B29;}
	.st6{fill:#F97853;}
	.st7{fill:#EA5143;}
	.st8{fill:#FFA681;}
	.st9{fill:#FFFFFF;}
	.st10{fill:#264CBE;}
	.st11{fill:#E3E3E3;}
	.st12{fill:#1D567E;}
	.st13{opacity:0.15;stroke:#000000;stroke-miterlimit:10;}
</style>
<g>
	<path class="st0" d="M201.1,72.8C185.4,16.1,115-2.2,74.7,40.2c-0.6,0.6-1.2,1.2-1.7,1.9c-57.9,62.9-30.5,217.9,90.2,257.2
		s246.4-32.5,253.4-96.6c7.1-64.1-48.6-84.3-135.1-66.3C232.6,146.4,210.8,108.1,201.1,72.8L201.1,72.8z"/>
	<path class="st0" d="M301.5,82.5c-16.2,2.6-20.6,16.9-8.2,27.1c4.1,3.4,10,6.1,18.4,7.5c32,5.3,48.9-8.8,36.1-27.2
		C339.9,78.6,317.5,79.9,301.5,82.5z"/>
	<path class="st0" d="M43.9,197c-10-12.9-24.8-10-27.7,5.8c-1,5.2-0.6,11.7,2.2,19.8c10.6,30.6,31.2,38.7,41.1,18.7
		C65.7,228.9,53.9,209.8,43.9,197z"/>
	<path class="st0" d="M427.9,210.1c-1.5,7.8,5,13.3,12.2,10.3c2.4-1,4.8-2.9,7-6.3c8.2-12.8,4.1-23.8-7.4-22.7
		C432.7,192.1,429.4,202.4,427.9,210.1L427.9,210.1z"/>
	<path class="st0" d="M387.1,127.9c7.8,1.6,13.4-4.7,10.5-12.1c-1-2.4-2.8-4.9-6.1-7.1c-12.7-8.4-23.7-4.5-22.8,7
		C369.2,122.8,379.4,126.3,387.1,127.9L387.1,127.9z"/>
	<path class="st0" d="M198.4,44.5c6.1,5,14.1,2,14.9-5.9c0.3-2.6-0.3-5.6-2.2-9.1c-7.4-13.3-19-14.9-23.5-4.3
		C184.8,31.8,192.3,39.5,198.4,44.5L198.4,44.5z"/>
</g>
<g>
	<path class="st1" d="M447.2,249.1c12.3-12.4,21.7-26.4,12.4-28.6c-9.4-2.2-25,22.2-27.8,44.4l-2.7,7.3c2.3-16.2-3.3-35.8-11.4-36.6
		c-8-0.8-3.2,12,3.2,22.9c4.9,8.3,6.1,14.9,6.5,18.2l-12.9,34.6c3.5-25.6-5.2-56.6-18.1-57.9c-12.8-1.3-5,19,5.1,36.3
		c7.7,13.1,9.7,23.4,10.3,28.9l-2.6,6.9c1.1,0.6,2.3,1.3,3.4,1.9l15.4-41.2c3-2.2,7.5-4.9,13.9-7.1c12-4,24-10.5,17.4-15.2
		c-5.7-4-19.2,3.8-28.5,14.8l5.3-14.2C438.5,260.3,441.9,254.4,447.2,249.1L447.2,249.1z"/>
	<path class="st1" d="M58.5,87.4c1.6-15,0.3-29.4-7.1-25.9c-7.5,3.6-4.8,28.4,5.3,44.8l2.1,6.4c-7.2-12.1-21.5-22.3-27.4-18.5
		C25.6,98,35.8,104,46,107.9c7.8,3,12.2,6.7,14.2,8.8l10,30.2c-11.4-19.1-34-35.2-43.4-29.2c-9.3,6,6.8,15.5,23,21.6
		C62,144,69,149.8,72.2,153.2l2,6c1.1-0.2,2.2-0.4,3.3-0.6l-11.9-36c0.8-3.1,2.4-7.3,5.5-12.2c5.9-9.2,10.5-20,3.5-19.6
		c-6,0.4-10.9,12.9-11.2,25.3l-4.1-12.4C58.7,99.6,57.9,93.8,58.5,87.4z"/>
	<g>
		<path class="st2" d="M364,290.2c0.2,0.9,0.3,1.8,0.5,2.8l0,0c2.2,10.3,7.7,27.2,19.9,30.5c0,0-6.7-34.8,17.1-43.9
			c23.8-9.1,21.2-17.7,19.8-33.1s-6.6-18.3,9.9-32.7c16.5-14.4,13.4-35.8,13.4-35.8s-15.6,24.5-32.3,25
			c-16.7,0.6-19.6,14.8-18.9,25.4s-13.5,11.8-21.1,17.9s-9.1,38.4-9.1,38.4S363.4,287,364,290.2L364,290.2z"/>
		<path class="st3" d="M364,290.2c0.2,0.9,0.3,1.8,0.5,2.8c1.7-5.2,4.1-9.5,6.4-12.9c5.3-7.9,12.9-14.4,19.6-17
			c10.8-4.1,16-14.6,17-34.2c0.6-11.4,12.5-18.1,12.6-18.2c0.4-0.2,0.5-0.6,0.3-1c-0.2-0.4-0.6-0.5-1-0.3
			c-0.5,0.3-12.7,7.2-13.4,19.4c-1,19-6,29.1-16.1,32.9c-7.1,2.7-14.7,9.2-20.3,17.5C367.7,282.2,365.6,285.9,364,290.2z"/>
	</g>
	<g>
		<path class="st3" d="M100.6,323.4h16.7c-9-1.5-31.4-11.1-33.4-30.4c-2.5-24.4-11.2-24.1-25.9-26.7c-14.7-2.5-18.7,1.6-28-17.3
			S0,227.6,0,227.6s18.9,20.6,15.3,36.3s8.9,22,19,23.9s7.6,15.5,11.5,24.1c1.7,4,8.9,8.1,16.1,11.4L100.6,323.4L100.6,323.4z"/>
		<path class="st1" d="M64.4,299.3c0.7,7.3,4.9,16,11.2,23.3c0.2,0.3,0.4,0.5,0.7,0.8h1.9c-0.5-0.6-1.1-1.1-1.5-1.7
			c-6-6.9-10.2-15.5-10.9-22.5c-1.1-11-9.6-18.6-27.7-24.4c-10.5-3.4-13.8-16.1-13.8-16.3c-0.1-0.4-0.5-0.6-0.8-0.5
			s-0.6,0.5-0.5,0.8c0.1,0.6,3.5,13.6,14.7,17.3C55.1,281.7,63.4,288.9,64.4,299.3L64.4,299.3z"/>
	</g>
	<g>
		<path class="st2" d="M109.7,278c-0.3,1.2-0.8,2.5-1.2,3.9l0,0c-4.8,14.4-14.5,38.6-32.5,41.5c0,0,14.2-49.6-18.3-66.2
			c-32.5-16.6-27.5-28.5-23.2-50.2c4.3-21.7,12.2-25.1-9.1-48.2c-21.3-23.1-13.5-53.2-13.5-53.2s18.5,37.3,42.2,40.7
			s25.7,24.1,23,39.1c-2.6,15,17.4,18.9,27.4,28.8s7.1,56.2,7.1,56.2S111,273.5,109.7,278L109.7,278z"/>
		<path class="st3" d="M109.7,278c-0.3,1.2-0.8,2.5-1.2,3.9c-1.6-7.6-4.4-14.2-7.1-19.3C94.9,250.5,85.2,240,76,235.4
			c-14.7-7.4-20.6-23.3-19-51.4c0.9-16.3-15-27.8-15.2-27.9c-0.5-0.3-0.6-1-0.2-1.4c0.3-0.5,1-0.6,1.4-0.2
			C43.6,154.8,60,166.5,59,184c-1.5,27.2,4,42.5,17.9,49.5c9.8,4.9,19.6,15.4,26.3,28.1C105.5,266.1,107.9,271.6,109.7,278
			L109.7,278z"/>
	</g>
</g>
<g>
	<g>
		<path class="st4" d="M122.6,311.7c0.1,3.8,0.1,7.7,0.2,11.7h36.4c0.1-4.3,0.1-8.5,0.2-12.4c0.1-10.6,0.1-19.3,0.1-24.7
			c0-3.8,0-6,0-6l-37.1-0.4c0,0,0,3.2,0,8.4C122.3,294.1,122.4,302.4,122.6,311.7L122.6,311.7z"/>
		<path class="st5" d="M122.3,288.3c0,5.8,0.1,14.2,0.2,23.4c11.4,0.9,23.9,0.9,36.7-0.8c0.1-10.6,0.1-19.3,0.1-24.7L122.3,288.3
			L122.3,288.3z"/>
	</g>
	<g>
		<path class="st4" d="M76.7,303.3c0,5.9,0.1,12.7,0.2,20h36.4c0.1-4.3,0.2-8.5,0.2-12.5c0.1-8.7,0.2-16.5,0.2-22.1
			c0-5.5,0-8.9,0-8.9l-37.1,0.4c0,0,0,3.9,0,10.5C76.7,294.3,76.7,298.5,76.7,303.3L76.7,303.3z"/>
		<path class="st5" d="M76.7,290.8c0,3.5,0,7.7,0.1,12.6c7.4,2.2,20.6,5.6,36.8,7.5c0.1-8.7,0.2-16.5,0.2-22.1L76.7,290.8z"/>
	</g>
	<g>
		<path class="st4" d="M137.6,84.8c0,0,5.8-5.6,5.8-11.2c0-5.6-3.8-3.9-5.8-9.1s-8.1-8.3-11.3-7.7c-3.3,0.6-10.3-12.2-19.7-10
			S97.9,61.2,93.8,63s-2.9,9-0.8,10.6s3.1,8.2,4.3,8.1C98.5,81.5,137.6,84.8,137.6,84.8L137.6,84.8z"/>
		<g>
			<path class="st6" d="M98.3,84.6c0,0-3.7-4.9-6.4-0.8s1.1,16,7.8,13.1L98.3,84.6L98.3,84.6z"/>
			<path class="st7" d="M98.3,93.2c-0.2,0-0.5-0.2-0.5-0.4c-1-3.7-4.9-5.2-4.9-5.2c-0.3-0.1-0.4-0.4-0.3-0.7s0.4-0.4,0.7-0.3
				c0.2,0.1,4.4,1.7,5.6,6c0.1,0.3-0.1,0.6-0.4,0.7C98.4,93.2,98.3,93.2,98.3,93.2L98.3,93.2z"/>
			<path class="st7" d="M94.4,91.3c-0.1,0-0.2,0-0.3-0.1c-0.3-0.2-0.3-0.5-0.2-0.8c0,0,0.7-1.1,2.1-1.7c0.3-0.1,0.6,0,0.8,0.3
				c0.1,0.3,0,0.6-0.3,0.8c-1.1,0.5-1.6,1.3-1.6,1.3C94.8,91.2,94.6,91.3,94.4,91.3L94.4,91.3z"/>
		</g>
		<g>
			<path class="st6" d="M136.2,84.6c0,0,3.7-4.9,6.4-0.8s-1.1,16-7.8,13.1L136.2,84.6L136.2,84.6z"/>
			<path class="st7" d="M136.2,93.2c0.2,0,0.5-0.2,0.5-0.4c1-3.7,4.9-5.2,4.9-5.2c0.3-0.1,0.4-0.4,0.3-0.7s-0.4-0.4-0.7-0.3
				c-0.2,0.1-4.4,1.7-5.6,6c-0.1,0.3,0.1,0.6,0.4,0.7C136.1,93.2,136.2,93.2,136.2,93.2L136.2,93.2z"/>
			<path class="st7" d="M140.1,91.3c0.1,0,0.2,0,0.3-0.1c0.3-0.2,0.3-0.5,0.2-0.8c0,0-0.7-1.1-2.1-1.7c-0.3-0.1-0.6,0-0.8,0.3
				c-0.1,0.3,0,0.6,0.3,0.8c1.1,0.5,1.6,1.3,1.6,1.3C139.7,91.2,139.9,91.3,140.1,91.3L140.1,91.3z"/>
		</g>
		<path class="st8" d="M126.3,107v11.9c0,0-3.6,6.1-8.3,6.5c-4.8,0.4-9.1-5.2-9.1-5.2v-12.3C108.9,107.9,126.3,107,126.3,107z"/>
		<path class="st6" d="M126.3,107v5.3c-3.2,3.6-8.9,4.5-17.4,3.2v-7.7C108.9,107.9,126.3,107,126.3,107z"/>
		<path class="st8" d="M138.8,76.5c-0.2,4.6-0.7,10.4-1.5,15c-0.2,1.2-0.5,2.2-0.8,3.2c-2.5,8.8-8.8,23.8-26.3,17.5
			c-7.7-2.8-11.3-11.4-12.9-20.2c-1.1-6-1.2-12-1.2-16.3c0.1-4.4,2.5-8.4,6.3-10.6c10.3-5.9,21.3-3.7,28.5-0.9
			C135.9,66.2,139.1,71.1,138.8,76.5z"/>
		<path class="st4" d="M97.3,92.1c0,0,1.7,10.1,3.3,13.8s6,4.4,7.7,7.5c2.3,4.4,5.9,8,11.8,5.8c4.9-1.8,4.7-4.3,7.4-6.2
			c4.7-3.3,7-7,7.2-10s2.5-11.5,2.5-11.5l-2.5-0.2c0,0-1.4,3-3.6,6.3c-2.1-4.7-12.4-1.3-12.4-1.3l-2,0.6l-2-0.6
			c0,0-10.4-3.2-12.4,1.6c-1.2-1.9-2.3-4.1-2.7-6.4L97.3,92.1L97.3,92.1z M116.9,98.5c11.8-2,9.7,4.9,9.6,5.1l0,0
			c-0.8,0.8-1.6,1.4-2.4,1.8c-4.6,2.5-5,2.1-6.8,2.2c-1.8,0.1-4.3-0.4-6.9-1.9c-0.8-0.4-2-1.3-3.3-2.5
			C107,103.2,105.2,96.9,116.9,98.5L116.9,98.5z"/>
		<path class="st4" d="M109.8,86.2c0,1.3-0.7,2.3-1.5,2.3s-1.5-1-1.5-2.3s0.7-2.3,1.5-2.3S109.8,84.9,109.8,86.2z"/>
		<path class="st4" d="M127.2,86.2c0,1.3-0.7,2.3-1.5,2.3s-1.5-1-1.5-2.3s0.7-2.3,1.5-2.3S127.2,84.9,127.2,86.2z"/>
		<path class="st4" d="M131.5,78.6c0,0-6-2.4-10.7-0.4l0.5,2.6c0,0,6.8-0.6,10.3,0.8C131.9,80.6,131.9,79.6,131.5,78.6L131.5,78.6z"
			/>
		<path class="st4" d="M102.8,78.6c0,0,6.1-2.4,10.8-0.4l-0.5,2.6c0,0-6.9-0.6-10.3,0.8C102.4,80.7,102.4,79.6,102.8,78.6z"/>
		<path class="st6" d="M117.4,95.8c0.9,0,1.9-0.4,2.1-0.4c0.3-0.1,0.4-0.4,0.3-0.7s-0.4-0.4-0.7-0.3c-0.5,0.2-1.7,0.5-2.3,0.2
			c-0.1-0.1-0.2-0.2-0.3-0.5c-0.2-2,0.3-8.6,0.3-8.7c0-0.3-0.2-0.6-0.5-0.6s-0.6,0.2-0.6,0.5c0,0.3-0.6,6.8-0.3,8.9
			c0.1,0.8,0.5,1.2,0.8,1.4C116.6,95.7,117,95.8,117.4,95.8L117.4,95.8z"/>
		<path class="st9" d="M110.2,99.6c0.4,2.2,1.8,6.1,6.7,6.1s6.2-3.6,6.6-6.1C123.5,99.6,110.2,99.6,110.2,99.6z"/>
		<path class="st4" d="M138.8,76.5c-0.2,4.6-0.7,10.4-1.5,15l-2.5-0.2c0,0,0.6-3.9,0.9-6.4c0.3-2.5,0.8-7.3-1.4-7.9
			c-2.2-0.6-0.9-6-3.9-8.4c-3-2.4-9.7-4.4-14.2-1.7c-4.4,2.7-9.5,1.2-11.5,1.7c-2.1,0.5-4.8,3.3-4.1,5.9c0.8,2.6-1.5,4.2-2.1,7
			s1.2,10.1,1.2,10.1l-2.4,0.5c-1.1-6-1.2-12-1.2-16.3c0.1-4.4,2.5-8.4,6.3-10.6c10.3-5.9,21.3-3.7,28.5-0.9
			C135.9,66.2,139.1,71.1,138.8,76.5L138.8,76.5z"/>
	</g>
	<g>
		<path class="st3" d="M167.1,298.1c-11.4,2.9-22.9,4.8-34.3,5.6c-0.5,0-1,0.1-1.6,0.1c-1.6,0.1-3.1,0.2-4.7,0.3
			c-7.8,0.3-15.6,0.2-23.3-0.4c-1.6-0.1-3.1-0.3-4.7-0.4c-0.5,0-1-0.1-1.5-0.2c-9.3-1-18.6-2.7-27.9-5c-0.1-8.6,0-35.7,0.5-65
			c0.1-3.5,0.1-7.1,0.2-10.7c0.8-38.7,2.4-78,5.3-82c2.7-3.8,11-8.6,18.9-12.9c0.5-0.3,0.9-0.5,1.4-0.8c1.8-1,3.5-1.9,5.2-2.8
			c3.5-1.9,6.5-3.6,8.4-4.9v1.1c0,0,4.2,5.6,9.1,5.2c4.4-0.4,7.7-5.4,8.3-6.3c2.1,1.4,5.8,3.4,10.1,5.7c1.2,0.6,2.4,1.3,3.7,1.9
			c0.5,0.2,0.9,0.5,1.4,0.7c8.7,4.6,18.2,9.9,21,13.7c0.2,0.3,0.4,0.8,0.6,1.4c1.7,5.7,2.7,24.5,3.3,47.2c0,0.1,0,0.2,0,0.2
			c0,0.9,0.1,1.9,0.1,2.8c0,0.1,0,0.2,0,0.4c0.2,8,0.4,16.4,0.5,24.8c0,0.7,0,1.3,0,2c0,0.3,0,0.7,0,1c0,1.7,0.1,3.3,0.1,5
			c0,1.2,0,2.4,0,3.7C167.3,260.3,167.2,289.1,167.1,298.1L167.1,298.1z"/>
		<path class="st10" d="M166.4,192.9c-2.8-4.5-5.7-9.1-8.5-13.1c0,0,0,0,0,0c-1.2-1.7-2.3-3.3-3.4-4.8c0,0,0-0.1-0.1-0.1
			c-0.3-0.5-0.7-0.9-1-1.4c-0.1-0.1-0.1-0.1-0.1-0.2l0,0c-0.1-0.3,0-0.6,0.3-0.8c0.3-0.2,0.8-0.2,1.1,0.1
			c3.3,4.4,7.6,10.8,11.7,17.3c0,0.1,0,0.2,0,0.2C166.3,191,166.3,192,166.4,192.9L166.4,192.9z"/>
		<path class="st3" d="M162.4,140.6c0,0,17.2,31.6,27.8,47.6c0,0,6-5.5,13.8-12.8c8.4-8,20-21.3,20-21.3l6.4,7.6
			c0,0-25.9,46.6-37.5,52.5c-11.6,5.9-33-35.6-33-35.6L162.4,140.6L162.4,140.6z"/>
		<path class="st10" d="M89.4,265.1C89.4,265.1,89.4,265.1,89.4,265.1c-0.5,0-0.8-0.4-0.8-0.8c0.9-25.5-12.3-33.8-12.5-33.9
			c-0.4-0.2-0.5-0.7-0.3-1.1c0.2-0.4,0.7-0.5,1.1-0.3c0.2,0.1,3.6,2.2,7,7.7c3.1,5,6.7,13.8,6.2,27.6
			C90.2,264.8,89.9,265.1,89.4,265.1z"/>
		<path class="st10" d="M145.9,241.1c-0.4,0-0.7-0.3-0.8-0.7c-0.4-5.4,1.4-9.3,3.6-14.2c0.7-1.4,1.3-2.9,2-4.6
			c4.4-10.6,2.2-22.6,2.1-22.7c-0.1-0.4,0.2-0.8,0.6-0.9s0.8,0.2,0.9,0.6c0.1,0.5,2.3,12.6-2.2,23.6c-0.7,1.7-1.4,3.2-2.1,4.7
			c-2.2,4.9-3.9,8.5-3.5,13.5C146.7,240.6,146.4,241,145.9,241.1C145.9,241,145.9,241,145.9,241.1L145.9,241.1z"/>
		<g>
			<path class="st9" d="M100.5,124c0.3,2.5,0.8,5.8,1.4,9.5c0.2,1.1,0.3,2.2,0.5,3.4c0.5,3.8,1.1,8,1.6,12.2
				c0.1,1.1,0.2,2.3,0.4,3.4c0.4,4.2,0.7,8.3,0.8,12.1c0,1.2,0.1,2.3,0.1,3.4c0,2.9-0.2,5.6-0.5,7.9c-0.2,1.5-0.4,2.9-0.6,4.3
				c-0.2,1.2-0.3,2.3-0.4,3.4c-0.4,4.3-0.7,8.4-0.8,12.2c0,1.2,0,2.3,0,3.4c0,4.3,0.3,8.4,0.6,12.2c0.1,1.1,0.2,2.3,0.3,3.4
				c0.5,4.2,1,8.2,1.6,12.1c0.2,1.1,0.3,2.2,0.4,3.4c0.2,1.8,0.4,3.6,0.6,5.4c0.2,1.9,0.3,4.2,0.4,6.7c0,1.1,0.1,2.2,0.1,3.4
				c0,3.7-0.1,7.9-0.2,12.2c-0.1,1.1-0.1,2.3-0.2,3.4c-0.2,4-0.4,8.1-0.7,12.2c-0.1,1.1-0.2,2.3-0.2,3.4c-0.3,4.2-0.7,8.4-1,12.2
				c-0.1,1.2-0.2,2.3-0.3,3.4c-0.4,4.2-0.8,8-1.1,11c7.8,0.6,15.6,0.7,23.4,0.4c0.2-3.2,0.7-8.4,1.2-14.4c0.1-1.1,0.2-2.2,0.3-3.4
				c0.3-3.9,0.6-8,0.7-12.1c0.1-1.1,0.1-2.3,0.1-3.4c0.1-4.1,0.1-8.3-0.1-12.1c-0.1-1.2-0.1-2.3-0.2-3.4c-0.1-1.1-0.2-2.3-0.3-3.3
				c-0.4-3-0.5-6-0.5-8.8c0-1.1,0-2.3,0.1-3.4c0.2-4,0.6-7.9,1.1-12.1c0.1-1.1,0.3-2.2,0.4-3.4c0.4-3.7,0.9-7.7,1.3-12.1
				c0.1-1.1,0.2-2.2,0.3-3.4c0.3-3.7,0.4-7.7,0.5-12.1c0-1.1,0-2.3,0-3.4c0-3.8-0.2-7.8-0.5-12.2c0-0.4-0.1-0.8-0.1-1.2
				c-0.1-0.8-0.1-1.5-0.1-2.3c-0.2-4-0.1-8.1,0.1-12.1c0.1-1.1,0.1-2.3,0.2-3.4c0.3-4.1,0.8-8.1,1.3-12c0.2-1.1,0.3-2.3,0.5-3.4
				c0.6-4.2,1.3-8.2,1.9-11.8c0.2-1.2,0.4-2.3,0.6-3.4c0.4-2.4,0.8-4.6,1.1-6.4c-4.3-2.3-8-4.3-10.1-5.7c-0.6,0.9-3.9,5.9-8.3,6.3
				c-4.8,0.4-9.1-5.2-9.1-5.2v-1.1C107,120.4,104,122.1,100.5,124L100.5,124z"/>
			<g>
				<path class="st11" d="M101.9,133.5c0.2,1.1,0.3,2.2,0.5,3.4c4.3,0.1,9.3-0.6,15.4-1.9c6.5-1.5,12.3-1.2,16.8-0.4
					c0.2-1.2,0.4-2.3,0.6-3.4c-4.9-0.9-11.1-1.2-18.2,0.5C111,133,106,133.6,101.9,133.5L101.9,133.5z"/>
				<path class="st11" d="M103.9,149.1c0.1,1.1,0.2,2.3,0.4,3.4c3.9-0.1,8.3-0.8,13.5-1.9c5.4-1.2,10.3-1.3,14.4-0.8
					c0.2-1.1,0.3-2.3,0.5-3.4c-4.4-0.6-9.7-0.5-15.6,0.9C112,148.4,107.6,149,103.9,149.1L103.9,149.1z"/>
				<path class="st11" d="M105.2,164.6c0,1.2,0.1,2.3,0.1,3.4c3.7-0.2,7.8-0.8,12.6-1.9c4.7-1.1,9.1-1.2,12.8-0.9
					c0.1-1.1,0.1-2.3,0.2-3.4c-4.1-0.3-8.7-0.1-13.8,1C112.5,163.8,108.6,164.4,105.2,164.6z"/>
				<path class="st11" d="M103.7,183.6c4-0.1,8.7-0.7,14.1-2c4.8-1.1,9.2-1.2,13-0.9c0-0.4-0.1-0.8-0.1-1.2
					c-0.1-0.8-0.1-1.5-0.1-2.3c-4-0.3-8.5-0.1-13.5,1.1s-9.3,1.8-13,1.9C103.9,181.4,103.8,182.5,103.7,183.6L103.7,183.6z"/>
				<path class="st11" d="M102.9,199.2c4.2,0,9.1-0.6,14.9-2c5-1.2,9.6-1.3,13.5-0.9c0-1.1,0-2.3,0-3.4c-4.2-0.4-9-0.2-14.2,1
					c-5.5,1.3-10.2,1.9-14.1,1.9C102.9,197,102.9,198.1,102.9,199.2z"/>
				<path class="st11" d="M103.5,211.4c0.1,1.1,0.2,2.3,0.3,3.4c4-0.1,8.5-0.7,13.9-1.9c4.7-1.1,9-1.2,12.8-0.9
					c0.1-1.1,0.2-2.2,0.3-3.4c-4.1-0.3-8.7-0.1-13.8,1C111.8,210.7,107.3,211.4,103.5,211.4L103.5,211.4z"/>
				<path class="st11" d="M105.5,226.9c0.2,1.1,0.3,2.2,0.4,3.4c3.5-0.2,7.4-0.8,11.9-1.9c4-0.9,7.7-1.2,11.1-1.1
					c0.1-1.1,0.3-2.2,0.4-3.4c-3.7-0.2-7.8,0.1-12.2,1.1C112.6,226.1,108.8,226.7,105.5,226.9L105.5,226.9z"/>
				<path class="st11" d="M106.9,242.4c0,1.1,0.1,2.2,0.1,3.4c3.2-0.3,6.8-0.9,10.8-1.8c3.5-0.8,6.9-1.1,9.9-1.1
					c0-1.1,0-2.3,0.1-3.4c-3.3,0-6.9,0.3-10.7,1.2C113.3,241.5,109.9,242.1,106.9,242.4L106.9,242.4z"/>
				<path class="st11" d="M106.6,261.4c3.3-0.2,7-0.9,11.2-1.8c3.9-0.9,7.6-1.2,10.9-1c-0.1-1.2-0.1-2.3-0.2-3.4
					c-3.5-0.1-7.3,0.2-11.5,1.2c-3.8,0.9-7.2,1.5-10.3,1.7C106.7,259.1,106.6,260.3,106.6,261.4L106.6,261.4z"/>
				<path class="st11" d="M105.6,277.1c3.6-0.2,7.6-0.8,12.2-1.9c3.9-0.9,7.6-1.2,10.8-1c0.1-1.1,0.1-2.3,0.1-3.4
					c-3.5-0.1-7.5,0.2-11.7,1.2c-4.2,1-7.9,1.6-11.2,1.8C105.8,274.8,105.7,275.9,105.6,277.1L105.6,277.1z"/>
				<path class="st11" d="M104.3,292.7c3.9-0.1,8.3-0.8,13.5-2c3.5-0.8,6.8-1.1,9.9-1.1c0.1-1.1,0.2-2.2,0.3-3.4
					c-3.3,0-7,0.3-10.9,1.2c-4.8,1.1-8.9,1.7-12.4,1.9C104.5,290.5,104.4,291.6,104.3,292.7L104.3,292.7z"/>
			</g>
		</g>
		<g>
			<path class="st10" d="M131.2,303.8c0.5,0,1-0.1,1.6-0.1c3.1-18,1.3-44.5,0.6-52.6c-0.7-8.4,0.6-19.3,3.6-29.7
				c2.3-8.1,0.9-27-0.2-42.1c-0.3-4.2-0.6-8.3-0.8-11.6c-0.6-10.6,3.3-30.4,5.4-40.2c-0.5-0.2-0.9-0.5-1.4-0.7
				c-2.1,9.8-6.1,30-5.5,41.1c0.2,3.3,0.5,7.3,0.8,11.6c1.1,15,2.5,33.7,0.3,41.6c-3,10.6-4.4,21.7-3.6,30.3
				C132.5,259.4,134.3,286,131.2,303.8L131.2,303.8z"/>
			<path class="st10" d="M99.8,230.4c1.8,11.1,1.2,18.3,0.6,26.6c-0.2,2.7-0.4,5.5-0.6,8.6c-0.5,9.6-2.1,29.1-2.8,37.5
				c0.5,0.1,1,0.1,1.5,0.2c0.7-8.4,2.4-27.9,2.8-37.6c0.2-3,0.4-5.8,0.6-8.5c0.7-8.4,1.2-15.7-0.6-27c-0.4-2.4-0.8-4.9-1.2-7.3
				c-2-12.1-4.2-24.6-3.2-30.6c0.2-1.5,0.6-3.1,0.9-4.9c1.4-7.2,3.1-16.2,2.5-24c-0.5-7.7-3.7-28.7-4.9-36.6
				c-0.5,0.2-0.9,0.5-1.4,0.8c1.3,8.3,4.3,28.4,4.8,35.9c0.5,7.6-1.2,16.5-2.5,23.6c-0.3,1.8-0.7,3.4-0.9,4.9
				c-1,6.2,1,18.3,3.2,31.1C99,225.6,99.4,228,99.8,230.4L99.8,230.4z"/>
		</g>
	</g>
	<g>
		<path class="st8" d="M69.9,153.3c0,0-15.4,51.5-19.3,69.8c-3.8,18.4-4.1,56.5-4.1,56.5s-6.8,14-6.9,20.2
			c-0.2,6.6,3.3,11.9,2.9,16.3s4.9,2,3.4-6.8s2.8-16.8,4.6-16.5s-1.5,9.6,0.1,13s3.7-3.2,5.8-7.2c2.2-4.1,2-13.1,1.1-19.6
			c-1-6.4,10.7-45.5,10.7-56.8L83,172.3C83,172.3,78.2,151.5,69.9,153.3L69.9,153.3z"/>
		<path class="st3" d="M84.9,171.1c-0.5,3.3-2.3,9-4.7,16.1l0,0c-0.2,0.6-0.4,1.2-0.6,1.9c0,0,0,0.1,0,0.1c-0.6,1.8-1.2,3.6-1.8,5.6
			c0,0,0,0,0,0c-2.6,7.9-5.5,17-7.9,26.4c-0.8,3.2-1.6,6.4-2.3,9.6c-0.9,4.1-1.6,8.2-2.2,12.2c-2,14.5-5.8,32.8-5.8,32.8
			C54,278,45.3,275,45.3,275s-0.2-26.4,1-36.6c1.5-12.7,3.5-21.7,5.9-32c6.6-28.5,18.3-56.4,21.5-63.8c0.2-0.6,0.4-1.1,0.6-1.4h2.8
			C82.5,144.7,86.3,162.2,84.9,171.1L84.9,171.1z"/>
		<path class="st2" d="M44.9,269.8l0.4,6.1c0,0,8.2,2.7,14.4,0.8l1.6-5.4C55.4,271.5,49.9,271.4,44.9,269.8z"/>
		<path class="st10" d="M80.2,187.2L80.2,187.2c0,0.1,0,0.2-0.1,0.3c-0.2,0.5-0.4,1-0.6,1.6c0,0,0,0.1,0,0.1
			c-0.6,1.7-1.2,3.6-1.8,5.6c0,0,0,0,0,0c-3.2,10.2-6.5,23.1-8,31.4c0-1.7,0-3.3,0.1-5c-0.8,3.2-1.6,6.4-2.3,9.6
			c0.3-3,1.2-7.5,2.3-12.7c2.4-10.4,6-23.2,8.9-31.1c0.1-0.4,0.6-0.6,1-0.4C80,186.6,80.2,186.9,80.2,187.2L80.2,187.2z"/>
	</g>
</g>
<g>
	<g>
		<path class="st4" d="M356.4,323.4h36.5c-0.1-2.5-0.2-5-0.4-7.2c-0.6-12.5-1.2-21-1.2-21l-29.7,1.3l-2.5,0.1l-4.4,0.2
			c0,0,0.4,7.6,1.1,18.7C356,318,356.2,320.6,356.4,323.4L356.4,323.4z"/>
		<path class="st5" d="M359.2,296.5l-4.4,0.2c0,0,0.4,7.6,1.1,18.7c11.4,1,23.8,1.3,36.6,0.6c-0.6-12.5-1.2-21-1.2-21l-29.7,1.3
			L359.2,296.5L359.2,296.5z"/>
		<path class="st5" d="M363.1,323.4c-0.7-11.6-1.2-21.4-1.5-26.9l-2.5,0.1c0.3,5.5,0.8,15.3,1.5,26.8L363.1,323.4L363.1,323.4z"/>
	</g>
	<g>
		<path class="st4" d="M345.6,323.4c0.2-3.1,0.4-6.1,0.5-8.8c0.6-10.6,1-17.8,1-17.8l-4.7-0.2l-2.5-0.1l-29.3-1.3
			c0,0-0.3,5.1-0.8,13.1c-0.2,4.3-0.5,9.4-0.8,15.1L345.6,323.4L345.6,323.4z"/>
		<path class="st5" d="M310,308.2c8,1.9,20.8,4.5,36.2,6.3c0.6-10.6,1-17.8,1-17.8l-4.7-0.2l-2.5-0.1l-29.3-1.3
			C310.7,295.1,310.4,300.2,310,308.2L310,308.2z"/>
		<path class="st5" d="M341,323.4c0.7-11.5,1.2-21.4,1.5-26.8l-2.5-0.1c-0.3,5.5-0.9,15.4-1.5,26.9H341L341,323.4z"/>
	</g>
	<g>
		<path class="st3" d="M396.6,300.8c-7.4,2-14.9,3.6-22.3,4.6c-2.6,0.4-5.2,0.7-7.8,0.9c-3.5,0.3-7,0.5-10.4,0.6
			c-5.8,0.2-11.5,0-17.3-0.4c-11.1-0.8-22.2-2.8-33.4-5.8c-0.1-10.4,0-47.6,0.8-83.5c0-1.6,0.1-3.2,0.1-4.8c0-0.3,0-0.7,0-1
			c0-0.4,0-0.7,0-1.1c0-1.1,0.1-2.3,0.1-3.4c0.1-2.3,0.1-4.6,0.2-6.9c0-1.4,0.1-2.7,0.1-4c0-0.3,0-0.6,0-0.8c0-0.9,0.1-1.8,0.1-2.6
			l0,0c0-0.3,0-0.5,0-0.8c0-0.8,0-1.6,0.1-2.4c0-0.7,0-1.3,0.1-2c0.9-24.2,2.1-43.3,3.9-46c3.1-4.6,13.5-10.6,21.9-15.6
			c3-1.8,6.5-3.6,8.6-4.9c3,2.4,5.1,4.6,9.5,4.4c4.9-0.2,6.1-3.1,8-5.7c1.1,0.8,4.1,3.1,5.6,4c1.3,0.8,2.7,1.6,4.2,2.4
			c2.3,1.3,4.7,2.7,7.1,4.1c3.5,2.1,7,4.2,9.9,6.3c2.9,2.1,5.2,4,6.3,5.7c1.6,2.5,2.7,18.4,3.4,39.4c0,0.7,0,1.5,0.1,2.2
			c0,0.1,0,0.2,0,0.3c0,0.8,0,1.5,0.1,2.3c0.1,2.4,0.1,4.8,0.2,7.2c0,0.5,0,1,0,1.6c0,0.4,0,0.8,0,1.2c0,1,0,2,0.1,3
			c0,0.2,0,0.4,0,0.6c0.1,2.7,0.1,5.4,0.2,8.2c0,0.8,0,1.6,0,2.4C396.9,248.3,396.7,289.7,396.6,300.8L396.6,300.8z"/>
		<path class="st10" d="M396.2,210.6l-11.8,11.9l-11-11.1l-11,11.1l-11-11.2l-11,11.2l-11.1-11.2l-11.1,11.2l-12-12.1
			c0-1.1,0.1-2.3,0.1-3.4c0.1-2.3,0.1-4.6,0.2-6.9l11.7-11.9l11.1,11.2l11.1-11.2l11,11.2l11-11.2l11,11.1l11-11.1L396,200
			c0.1,2.7,0.1,5.4,0.2,8.2C396.2,208.9,396.2,209.8,396.2,210.6L396.2,210.6z"/>
		<path class="st10" d="M375.9,272.1L375.9,272.1c-15.8-0.1-29.2-7.2-37.7-13.2c-9.2-6.5-14.8-13.1-14.8-13.1
			c-0.3-0.3-0.2-0.8,0.1-1.1s0.8-0.2,1.1,0.1c0,0.1,5.5,6.5,14.6,12.9c8.3,5.9,21.5,12.9,36.8,12.9c0.4,0,0.8,0.3,0.8,0.8
			C376.7,271.7,376.3,272,375.9,272.1L375.9,272.1z"/>
		<path class="st10" d="M366.1,262.8c-13.4-2.6-25.3-12.9-25.8-13.4c-0.3-0.3-0.4-0.8-0.1-1.1s0.8-0.4,1.1-0.1
			c0.1,0.1,14.1,12.2,28.3,13.5c0.4,0,0.7,0.4,0.7,0.8c0,0.4-0.4,0.7-0.8,0.7C368.4,263.1,367.2,263,366.1,262.8L366.1,262.8z"/>
		<path class="st10" d="M339.2,146.2c-0.4,0-0.7-0.2-0.7-0.6c-0.1-0.4,0.2-0.8,0.6-0.9c19.2-3.6,25-16,25-16.1
			c0.2-0.4,0.6-0.6,1-0.4s0.5,0.6,0.4,1c-0.2,0.5-6.2,13.2-26.1,17C339.4,146.2,339.3,146.2,339.2,146.2L339.2,146.2z"/>
		<path class="st10" d="M315.8,179.4L315.8,179.4c0,0.1-0.1,0.2-0.1,0.2c-0.3,0.5-0.6,0.9-0.9,1.4c0,0,0,0.1,0,0.1c-1,1.6-2,3.2-3,5
			c0,0,0,0,0,0c-1.6,2.8-3.3,5.9-4.9,9c0-0.9,0.1-1.8,0.1-2.6l0,0c0-0.3,0-0.5,0-0.8c2.6-4.9,5.3-9.5,7.5-12.9
			c0.2-0.4,0.7-0.5,1-0.2C315.7,178.8,315.9,179.2,315.8,179.4L315.8,179.4z"/>
	</g>
	<g>
		<path class="st8" d="M412.6,151.4c0,0,24.5-7.9,31.8-24c2.1-4.7-15.2-52.1-15.2-52.1l-8.4,0.4c0,0,2.4,16.4,3.8,25.8
			c1.2,7.7,3.1,16.8,3.8,19.8c0.1,0.7,0.2,1,0.2,1c-0.4,0.1-0.8,0.2-1.2,0.2c-11.5,2.3-26.1,9.8-26.1,9.8L412.6,151.4L412.6,151.4z"
			/>
		<path class="st6" d="M434.8,126.8c0.4,0.2,0.9,0.2,1.1-0.2c0.3-0.4,0.2-0.8-0.2-1.1c-1.8-1.3-4.5-2.8-7.3-4.3c0.1,0.7,0.2,1,0.2,1
			c-0.4,0.1-0.8,0.2-1.2,0.2C430.3,124,433,125.5,434.8,126.8L434.8,126.8z"/>
		<path class="st3" d="M375,129.7c0,0-7.4,17.4,11.5,27.1c13.1,6.7,42.9-10.8,42.9-10.8l-10.6-22.6
			C418.8,123.4,391.5,134.7,375,129.7z"/>
		<path class="st8" d="M424.9,48.7c-0.7,0.5-0.6,3.7-0.3,6.7c-0.1,0-0.2,0-0.3,0c-0.9-4-2.6-10.9-4.1-9.6c-1,0.9,0.3,6.8,1.2,10.3
			c-0.2,0.1-0.4,0.1-0.5,0.2c-1.1-4.2-3.6-12.3-5.2-10.7c-1.1,1,1,8.1,2.1,11.8c-0.2,0.1-0.3,0.1-0.5,0.2c-1.1-3.5-3.5-10.2-5.1-8.6
			c-1.5,1.4,2.7,11.5,2.7,11.5l0,0l1.1,3.9c0,0-1.3,0.6-3.3-1.7s-4.5-2.7-2.8,0.6c1.9,3.8,4.7,6.4,6,9.1s5.1,3.5,5.1,3.5l7.9-0.4
			c0,0,1.5-13.3-1.4-19.6l0,0C427.1,52.3,426.2,47.8,424.9,48.7L424.9,48.7z"/>
	</g>
	<g>
		<path class="st4" d="M327.8,79.3c0,13.4,8.2,22.6,21.6,22.6s22.7-9.9,22.7-23.3c0-3.7-0.6-7.1-1.8-10.2c-0.1-0.2-0.1-0.4-0.2-0.5
			c-0.1-0.3-0.3-0.7-0.5-1c-0.2-0.5-0.5-1-0.8-1.5c-3.5-6.3-9.7-10.2-18.1-10.2C334.8,55.1,327.8,65.9,327.8,79.3L327.8,79.3z"/>
		<g>
			<path class="st6" d="M330.8,85c0,0-3.7-4.9-6.5-0.9c-2.8,4.1,1.1,16.2,7.9,13.2L330.8,85L330.8,85z"/>
			<path class="st7" d="M330.8,93.7c-0.2,0-0.5-0.2-0.5-0.4c-1-3.7-4.9-5.2-5-5.3c-0.3-0.1-0.4-0.4-0.3-0.7c0.1-0.3,0.4-0.4,0.7-0.3
				c0.2,0.1,4.4,1.7,5.6,6c0.1,0.3-0.1,0.6-0.4,0.7C330.9,93.6,330.8,93.6,330.8,93.7L330.8,93.7z"/>
			<path class="st7" d="M326.9,91.8c-0.1,0-0.2,0-0.3-0.1c-0.3-0.2-0.3-0.5-0.2-0.8c0,0,0.7-1.1,2.1-1.7c0.3-0.1,0.6,0,0.8,0.3
				c0.1,0.3,0,0.6-0.3,0.8c-1.1,0.5-1.6,1.3-1.6,1.3C327.2,91.7,327,91.8,326.9,91.8L326.9,91.8z"/>
		</g>
		<g>
			<path class="st6" d="M369.1,85c0,0,3.7-4.9,6.5-0.9c2.8,4.1-1.1,16.2-7.9,13.2L369.1,85L369.1,85z"/>
			<path class="st7" d="M369.1,93.7c0.2,0,0.5-0.2,0.5-0.4c1-3.7,4.9-5.2,5-5.3c0.3-0.1,0.4-0.4,0.3-0.7c-0.1-0.3-0.4-0.4-0.7-0.3
				c-0.2,0.1-4.4,1.7-5.6,6c-0.1,0.3,0.1,0.6,0.4,0.7C369,93.6,369.1,93.6,369.1,93.7L369.1,93.7z"/>
			<path class="st7" d="M373,91.8c0.1,0,0.2,0,0.3-0.1c0.3-0.2,0.3-0.5,0.2-0.8c0,0-0.7-1.1-2.1-1.7c-0.3-0.1-0.6,0-0.8,0.3
				c-0.1,0.3,0,0.6,0.3,0.8c1.1,0.5,1.6,1.3,1.6,1.3C372.7,91.7,372.9,91.8,373,91.8L373,91.8z"/>
		</g>
		<path class="st8" d="M359.1,107.7v12c0,0-3.6,6.1-8.4,6.5c-4.8,0.4-9.1-5.3-9.1-5.3v-12.4L359.1,107.7L359.1,107.7z"/>
		<path class="st6" d="M359.1,107.7v5.3c-3.2,3.6-9,4.5-17.6,3.2v-7.7C341.5,108.5,359.1,107.7,359.1,107.7z"/>
		<path class="st8" d="M371.8,76.8c-0.2,4.7-0.7,10.5-1.6,15.2c-0.2,1.2-0.5,2.3-0.8,3.2c-2.5,8.9-8.9,24.1-26.6,17.7
			c-7.8-2.8-11.5-11.5-13.1-20.4c-1.1-6-1.3-12.1-1.2-16.5c0.1-4.4,2.5-8.5,6.4-10.7c10.5-5.9,21.5-3.7,28.8-0.9
			C368.8,66.4,372,71.4,371.8,76.8L371.8,76.8z"/>
		<path class="st4" d="M342.4,86.6c0,1.3-0.7,2.3-1.5,2.3s-1.5-1-1.5-2.3s0.7-2.3,1.5-2.3S342.4,85.3,342.4,86.6z"/>
		<path class="st4" d="M359.8,86.5c0,1.3-0.7,2.3-1.5,2.3s-1.5-1-1.5-2.3s0.7-2.3,1.5-2.3S359.8,85.3,359.8,86.5z"/>
		<path class="st4" d="M363.1,78.6c0,0-4.7-1.8-8.2-0.3l0.4,2c0,0,5.3-0.4,7.9,0.6C363.4,80.1,363.4,79.3,363.1,78.6L363.1,78.6z"/>
		<path class="st4" d="M336,78.6c0,0,4.7-1.8,8.2-0.3l-0.4,2c0,0-5.3-0.4-7.9,0.6C335.7,80.1,335.7,79.3,336,78.6L336,78.6z"/>
		<path class="st6" d="M350.2,96.3c1,0,1.9-0.4,2.1-0.4c0.3-0.1,0.4-0.4,0.3-0.7s-0.5-0.4-0.7-0.3c-0.5,0.2-1.8,0.5-2.3,0.2
			c-0.1-0.1-0.2-0.2-0.3-0.5c-0.2-2,0.3-8.7,0.4-8.8c0-0.3-0.2-0.6-0.5-0.6c-0.3,0-0.6,0.2-0.6,0.5c0,0.3-0.6,6.9-0.3,9
			c0.1,0.8,0.5,1.2,0.8,1.4C349.3,96.2,349.7,96.3,350.2,96.3L350.2,96.3z"/>
		<path class="st9" d="M342.5,99.2c1,3.3,3.6,6.6,7.4,6.6c3.7-0.1,6.4-3.3,7.4-6.6H342.5L342.5,99.2z"/>
		<path class="st6" d="M349.5,109.4c1.5,0,2.7-0.8,2.8-0.8c0.3-0.2,0.4-0.5,0.2-0.8c-0.2-0.3-0.5-0.4-0.8-0.2c0,0-1,0.6-2.2,0.6
			c-1.1,0-2.1-0.6-2.1-0.6c-0.3-0.2-0.6-0.1-0.8,0.2c-0.2,0.3-0.1,0.6,0.2,0.8C346.9,108.7,348.1,109.5,349.5,109.4L349.5,109.4z"/>
		<path class="st4" d="M371.2,85.1h-2.6c0.3-2.6,0.7-7.2-1.4-7.8c-6.8-2.1,2-6.8-1-9.2c-3-2.4-10.6-1.4-15.9-1.5
			c-5.3-0.2-13.8-0.1-15.9,0.4c-2.1,0.5-0.9,3.9-0.2,6.6c0.8,2.7-2.5,5.6-3.1,8.4c-0.2,0.8-0.1,2,0,3.2h-2.2c-0.3-3.4-0.3-6.5-0.2-9
			c0.1-4.4,2.5-8.5,6.4-10.7c10.5-5.9,21.5-3.7,28.8-0.9c5,1.9,8.3,6.9,8,12.3C371.6,79.3,371.5,82.2,371.2,85.1L371.2,85.1z"/>
		<g>
			<path class="st9" d="M340.6,93.3c-3.6,0-6.5-2.9-6.5-6.5s2.9-6.5,6.5-6.5s6.5,2.9,6.5,6.5S344.2,93.3,340.6,93.3z M340.6,81.4
				c-3,0-5.5,2.4-5.5,5.5s2.5,5.5,5.5,5.5s5.5-2.4,5.5-5.5S343.6,81.4,340.6,81.4z"/>
			<path class="st9" d="M358.3,93.3c-3.6,0-6.5-2.9-6.5-6.5s2.9-6.5,6.5-6.5s6.5,2.9,6.5,6.5S361.9,93.3,358.3,93.3z M358.3,81.4
				c-3,0-5.5,2.4-5.5,5.5s2.5,5.5,5.5,5.5s5.5-2.4,5.5-5.5S361.3,81.4,358.3,81.4z"/>
			<path class="st9" d="M335.2,84.8c-0.1,0-0.3-0.1-0.4-0.2l0,0c0,0-3-2.9-6.8-2c-0.3,0.1-0.5-0.1-0.6-0.4c-0.1-0.3,0.1-0.5,0.4-0.6
				c4.4-1,7.6,2.1,7.8,2.2c0.2,0.2,0.2,0.5,0,0.7C335.5,84.7,335.4,84.8,335.2,84.8L335.2,84.8z"/>
			<path class="st9" d="M363.8,84.8c-0.2,0-0.3-0.1-0.4-0.2c-0.1-0.2-0.1-0.6,0.1-0.7c0.2-0.1,4.8-3.1,8.7-2.4
				c0.3,0.1,0.5,0.3,0.4,0.6c0,0.3-0.3,0.5-0.6,0.4c-3.5-0.6-7.9,2.3-8,2.3C364,84.7,363.9,84.8,363.8,84.8L363.8,84.8z"/>
			<path class="st9" d="M352.2,85.4c0,0-1.2-1.6-2.8-1.6s-2.6,1.6-2.6,1.6l-0.8-0.6c0.1-0.1,1.4-2.1,3.5-2.1s3.5,2,3.6,2.1
				L352.2,85.4L352.2,85.4z"/>
		</g>
	</g>
	<g>
		<path class="st8" d="M313.7,178.5c0,0-6.8,13.2-14.8,23.6c-2.4,3.1-4.8,5.9-7.3,8.1c-3.9,3.6-7.8,5.4-10.9,3.8
			c-11.6-5.9-37.5-52.5-37.5-52.5l6.4-7.6c0,0,11.5,13.3,20,21.3c7.8,7.4,13.8,12.8,13.8,12.8c1.1-1.6,2.2-3.4,3.4-5.3
			c1.3-2,2.6-4.1,3.9-6.4c9.7-15.9,20.5-35.1,20.5-35.1L313.7,178.5L313.7,178.5z"/>
		<path class="st6" d="M298.9,202.1c-2.4,3.1-4.8,5.9-7.3,8.1l-4.9-27.4c1.3-2,2.6-4.1,3.9-6.4L298.9,202.1L298.9,202.1z"/>
		<path class="st3" d="M311,141.4L287.8,178l7.8,32.2l19.3-31.4C314.8,178.9,317.2,157.4,311,141.4z"/>
	</g>
</g>
<g>
	<g>
		<path class="st3" d="M281.8,323.4c-1.7-9.2-3.3-19.6-4.8-29.7c-0.3-2.2-0.6-4.5-1-6.6c-1.2-8.4-2.3-16.3-3.1-22.8
			c-0.3-2.5-0.6-4.8-0.9-6.8c-0.8-6.6-1.3-10.6-1.3-10.6l-36.8,1.4l-36.9-1.4c0,0-0.9,8.1-2.5,19.7c-0.3,2.1-0.6,4.4-0.9,6.7
			c-0.8,6.1-1.8,12.9-2.8,19.8c0,0.1,0,0.2-0.1,0.3c-0.3,2.2-0.6,4.3-1,6.5c0,0,0,0.1,0,0.1l0,0c-0.8,5.2-1.6,10.5-2.5,15.5
			c-0.4,2.1-0.7,4.1-1.1,6.1c-0.1,0.6-0.2,1.2-0.3,1.8L281.8,323.4L281.8,323.4z"/>
		<g>
			<path class="st10" d="M205.5,257.8c0,1.9-1.6,3.5-3.5,3.5s-3.5-1.5-3.5-3.5s1.6-3.5,3.5-3.5S205.5,255.9,205.5,257.8z"/>
			<path class="st10" d="M214.1,271.2c0,1.9-1.6,3.5-3.5,3.5s-3.5-1.5-3.5-3.5s1.6-3.5,3.5-3.5S214.1,269.3,214.1,271.2z"/>
			<path class="st10" d="M231,264.3c0,1.9-1.6,3.5-3.5,3.5s-3.5-1.5-3.5-3.5s1.6-3.5,3.5-3.5S231,262.4,231,264.3z"/>
			<path class="st10" d="M204.3,285.5c0,1.9-1.6,3.5-3.5,3.5s-3.5-1.5-3.5-3.5s1.6-3.5,3.5-3.5S204.3,283.6,204.3,285.5z"/>
			<path class="st10" d="M225.5,284c0,1.9-1.6,3.5-3.5,3.5s-3.5-1.5-3.5-3.5s1.6-3.5,3.5-3.5S225.5,282.1,225.5,284z"/>
			<path class="st10" d="M196.8,269.7c0,1.8-1.4,3.3-3.1,3.5c0.3-2.3,0.6-4.6,0.9-6.7C195.9,266.9,196.8,268.2,196.8,269.7z"/>
			<path class="st10" d="M259.9,304.4c0,1.9-1.5,3.5-3.5,3.5s-3.5-1.5-3.5-3.5s1.6-3.5,3.5-3.5C258.4,300.9,259.9,302.4,259.9,304.4
				z"/>
			<path class="st10" d="M258.3,285.5c0,1.9-1.5,3.5-3.5,3.5s-3.5-1.5-3.5-3.5s1.6-3.5,3.5-3.5C256.8,282,258.3,283.6,258.3,285.5z"
				/>
			<path class="st10" d="M277,293.6c-0.4,0.2-0.9,0.3-1.4,0.3c-1.9,0-3.5-1.5-3.5-3.5s1.5-3.5,3.5-3.5c0.1,0,0.3,0,0.4,0
				C276.3,289.2,276.7,291.4,277,293.6L277,293.6z"/>
			<path class="st10" d="M261.8,318.2c0,1.9-1.5,3.5-3.5,3.5s-3.5-1.5-3.5-3.5s1.5-3.5,3.5-3.5S261.8,316.3,261.8,318.2z"/>
			<path class="st10" d="M276.6,312.7c0,1.9-1.5,3.5-3.5,3.5s-3.5-1.5-3.5-3.5s1.5-3.5,3.5-3.5S276.6,310.7,276.6,312.7z"/>
			<path class="st10" d="M245.7,323.4c-0.6-0.9-1.7-1.5-2.9-1.5s-2.2,0.6-2.9,1.5H245.7L245.7,323.4z"/>
			<path class="st10" d="M202.1,307.4c0,1.9-1.6,3.5-3.5,3.5s-3.5-1.5-3.5-3.5s1.6-3.5,3.5-3.5S202.1,305.4,202.1,307.4z"/>
			<path class="st10" d="M192.9,296.4c0,1.8-1.3,3.2-3,3.4c0,0,0-0.1,0-0.1c0.3-2.2,0.6-4.3,1-6.5
				C192.1,293.8,192.9,295,192.9,296.4z"/>
			<path class="st10" d="M188.9,318.2c0,1.6-1,2.9-2.5,3.3c0.4-2,0.7-4,1.1-6.1C188.3,316,188.9,317,188.9,318.2z"/>
			<path class="st10" d="M210.7,319.6c0,1.9-1.6,3.5-3.5,3.5s-3.5-1.5-3.5-3.5s1.6-3.5,3.5-3.5S210.7,317.7,210.7,319.6z"/>
			<path class="st10" d="M228.9,316.9c0,1.9-1.6,3.5-3.5,3.5s-3.5-1.5-3.5-3.5s1.6-3.5,3.5-3.5S228.9,315,228.9,316.9z"/>
			<path class="st10" d="M215.9,299.9c0,1.9-1.6,3.5-3.5,3.5s-3.5-1.5-3.5-3.5s1.6-3.5,3.5-3.5S215.9,298,215.9,299.9z"/>
			<path class="st10" d="M234.5,296.4c0,1.9-1.6,3.5-3.5,3.5s-3.5-1.5-3.5-3.5s1.6-3.5,3.5-3.5S234.5,294.5,234.5,296.4z"/>
			<path class="st10" d="M242.9,278.1c0,1.9-1.6,3.5-3.5,3.5s-3.5-1.5-3.5-3.5s1.6-3.5,3.5-3.5S242.9,276.2,242.9,278.1z"/>
			<path class="st10" d="M272.9,264.2c-0.2,0.1-0.5,0.1-0.7,0.1c-1.9,0-3.5-1.5-3.5-3.5s1.5-3.4,3.3-3.5
				C272.3,259.4,272.6,261.7,272.9,264.2L272.9,264.2z"/>
			<path class="st10" d="M254.8,264.3c0,1.9-1.6,3.5-3.5,3.5s-3.5-1.5-3.5-3.5s1.6-3.5,3.5-3.5S254.8,262.4,254.8,264.3z"/>
			<path class="st10" d="M267.5,276.6c0,1.9-1.5,3.5-3.5,3.5s-3.5-1.5-3.5-3.5s1.5-3.5,3.5-3.5S267.5,274.7,267.5,276.6z"/>
			<path class="st10" d="M246.4,307.4c0,1.9-1.6,3.5-3.5,3.5s-3.5-1.5-3.5-3.5s1.6-3.5,3.5-3.5S246.4,305.4,246.4,307.4z"/>
		</g>
		<path class="st2" d="M272.9,247.7c-19.4,12.7-55,11.7-77.4,0c2.1-13.3,4.9-26.6,4.4-44.4c-0.1-1.9-0.1-3.9-0.2-5.8
			c-0.1-1.7-0.2-3.3-0.3-4.9c-1.9-29.5-7-53.6-4.5-56.7c1.1-1.4,2.9-2.8,5.1-4.3c0.9-0.6,1.8-1.2,2.8-1.8c2.3-1.4,4.9-2.8,7.5-4.2
			c6.1-3.3,12.4-6.3,15.5-8.4c3.1,1.3,5.6,2.1,8.2,2.1c0.1,0,0.1,0,0.2,0c0.1,0,0.1,0,0.2,0c2.7,0,5.1-0.7,8.2-2.1
			c2.9,1.9,8.4,4.6,13.9,7.6c4.1,2.2,8.3,4.4,11.5,6.7c2.1,1.4,3.9,2.9,4.9,4.2c1.2,1.5,0.7,8.3-0.3,18.4c-1,9.9-2.6,22.9-3.5,37.2
			c-0.3,4-0.5,8.1-0.6,12.2C268,221,270.8,234.4,272.9,247.7L272.9,247.7z"/>
		<path class="st3" d="M261.1,232.9L261.1,232.9c-15.6-0.1-28.9-7.2-37.4-13.1c-9.1-6.4-14.6-13-14.7-13c-0.3-0.3-0.2-0.8,0.1-1.1
			c0.3-0.3,0.8-0.2,1.1,0.1c0.1,0.1,5.5,6.5,14.4,12.8c8.2,5.8,21.3,12.8,36.5,12.8c0.4,0,0.8,0.3,0.8,0.8S261.5,232.9,261.1,232.9
			L261.1,232.9z"/>
		<path class="st3" d="M250.7,223.8c-13.3-2.6-25.1-12.8-25.6-13.3c-0.3-0.3-0.3-0.8-0.1-1.1c0.3-0.3,0.8-0.3,1.1-0.1
			c0.1,0.1,14,12.1,28.1,13.4c0.4,0,0.7,0.4,0.7,0.8c0,0.4-0.4,0.7-0.8,0.7C252.9,224.2,251.8,224.1,250.7,223.8L250.7,223.8z"/>
		<path class="st3" d="M231,155c-0.4,0-0.7-0.2-0.7-0.6c-0.1-0.4,0.2-0.8,0.6-0.9c19-3.6,24.8-15.9,24.8-16c0.2-0.4,0.6-0.6,1-0.4
			c0.4,0.2,0.5,0.6,0.4,1c-0.2,0.5-6.1,13.1-25.9,16.9C231.1,155,231.1,155,231,155L231,155z"/>
		<path class="st8" d="M256.7,124.6c-3.8,8.6-13.1,17.6-25.2,15.5c-11.7-2-17.2-8.2-21.3-14.6c6.1-3.3,12.4-6.3,15.5-8.4
			c3.1,1.3,5.6,2.1,8.2,2.1c0.1,0,0.1,0,0.2,0c0.1,0,0.1,0,0.2,0c2.7,0,5.1-0.7,8.2-2.1C245.6,119,251.1,121.7,256.7,124.6z"/>
		<path class="st9" d="M246.6,117.7c-0.3,0-0.6,0.3-0.6,0.6c0,0.5-0.2,11.9-10.4,12.8c-9.5,0.8-13.4-8.3-14.6-12
			c-0.1-0.2-0.3-0.4-0.5-0.4h-0.1c-0.4,0-0.6,0.4-0.5,0.7c1.3,3.9,5.4,13.3,15.1,12.9c0.2,0,0.5,0,0.8-0.1
			c11.3-1,11.5-13.8,11.5-13.9C247.2,117.9,246.9,117.7,246.6,117.7L246.6,117.7z"/>
	</g>
	<g>
		<path class="st4" d="M253.8,57.1c0,0,9.1,14.2,8.1,28.9s1.4,31.8-11.9,31c-13.2-0.8-36.7,5.3-44.2-6.2
			C198.4,99.3,253.8,57.1,253.8,57.1L253.8,57.1z"/>
		<path class="st5" d="M257.2,83.1c0,0,2.4,21.4-7.8,27.3c-10.1,5.9-17.5-0.7-17.5-0.7S253.3,79.9,257.2,83.1z"/>
		<g>
			<g>
				<path class="st6" d="M215,83c0,0-3.6-4.9-6.4-0.8c-2.7,4,1.1,15.9,7.8,13C216.4,95.2,215,83,215,83z"/>
				<path class="st7" d="M215,91.5c-0.2,0-0.5-0.2-0.5-0.4c-1-3.7-4.8-5.2-4.9-5.2c-0.3-0.1-0.4-0.4-0.3-0.7
					c0.1-0.3,0.4-0.4,0.7-0.3c0.2,0.1,4.4,1.7,5.5,5.9c0.1,0.3-0.1,0.6-0.4,0.7C215.1,91.5,215,91.5,215,91.5z"/>
				<path class="st7" d="M211.1,89.7c-0.1,0-0.2,0-0.3-0.1c-0.3-0.2-0.3-0.5-0.2-0.8c0,0,0.7-1.1,2.1-1.7c0.3-0.1,0.6,0,0.7,0.3
					s0,0.6-0.3,0.7c-1.1,0.5-1.6,1.3-1.6,1.3C211.5,89.6,211.3,89.7,211.1,89.7L211.1,89.7z"/>
			</g>
			<g>
				<path class="st6" d="M252.6,83c0,0,3.6-4.9,6.3-0.8c2.7,4-1.1,15.9-7.8,13L252.6,83L252.6,83z"/>
				<path class="st7" d="M252.6,91.5c0.2,0,0.5-0.2,0.5-0.4c1-3.7,4.8-5.2,4.9-5.2c0.3-0.1,0.4-0.4,0.3-0.7s-0.4-0.4-0.7-0.3
					c-0.2,0.1-4.4,1.7-5.5,5.9c-0.1,0.3,0.1,0.6,0.4,0.7C252.5,91.5,252.6,91.5,252.6,91.5z"/>
				<path class="st7" d="M256.5,89.7c0.1,0,0.2,0,0.3-0.1c0.3-0.2,0.3-0.5,0.2-0.8c0,0-0.7-1.1-2.1-1.7c-0.3-0.1-0.6,0-0.7,0.3
					s0,0.6,0.3,0.7c1.1,0.5,1.6,1.3,1.6,1.3C256.1,89.6,256.3,89.7,256.5,89.7L256.5,89.7z"/>
			</g>
			<path class="st8" d="M242.8,105.2v11.8c0,0-3.5,6-8.3,6.4c-4.8,0.4-9-5.2-9-5.2v-12.2L242.8,105.2L242.8,105.2z"/>
			<path class="st6" d="M242.8,105.2v5.2c-3.2,3.5-8.9,4.8-17.2,3.6v-8L242.8,105.2L242.8,105.2z"/>
			<path class="st8" d="M255.2,74.9c-0.2,4.6-0.7,10.3-1.5,14.9c-0.2,1.1-0.5,2.2-0.7,3.2c-2.5,8.7-8.7,23.6-26.1,17.4
				c-7.7-2.7-11.2-11.3-12.8-20c-1.1-5.9-1.2-11.9-1.2-16.1c0.1-4.3,2.5-8.3,6.2-10.5c10.3-5.8,21.1-3.7,28.2-0.9
				C252.3,64.8,255.5,69.7,255.2,74.9L255.2,74.9z"/>
			<path class="st4" d="M226.1,83.7c0,1.3-0.6,2.3-1.4,2.3s-1.4-1-1.4-2.3s0.6-2.3,1.4-2.3S226.1,82.5,226.1,83.7z"/>
			<path class="st4" d="M244.1,83.7c0,1.3-0.6,2.3-1.4,2.3s-1.4-1-1.4-2.3s0.6-2.3,1.4-2.3S244.1,82.5,244.1,83.7z"/>
			<path class="st4" d="M221.8,76.9c1.2-0.3,3.6-0.9,6.2-0.9c0.7,0,1.2,0.6,1.1,1.3v0c-0.1,0.5-0.6,0.9-1.1,0.9
				c-1.8-0.1-6.3,0.2-8.5,1c0-0.4,0.2-0.8,0.5-1.2C220.5,77.5,221.1,77.1,221.8,76.9z"/>
			<path class="st4" d="M245.2,77c-1.2-0.3-3.6-0.9-6.2-0.9c-0.7,0-1.2,0.6-1.1,1.3v0c0.1,0.5,0.6,0.9,1.1,0.9
				c1.8-0.1,6.3,0.2,8.5,1c0-0.4-0.2-0.8-0.5-1.2C246.6,77.6,246,77.2,245.2,77z"/>
			<path class="st6" d="M234,94.1c-0.4,0-0.9-0.1-1.2-0.3c-0.3-0.2-0.7-0.6-0.8-1.4c-0.2-2.1,0.3-8.5,0.3-8.8c0-0.3,0.3-0.5,0.6-0.5
				c0.3,0,0.5,0.3,0.5,0.6c0,0.1-0.5,6.6-0.3,8.6c0,0.3,0.2,0.5,0.3,0.5c0.5,0.3,1.7,0,2.2-0.2c0.3-0.1,0.6,0,0.7,0.3s0,0.6-0.3,0.7
				C235.9,93.8,234.9,94.1,234,94.1z"/>
			<path class="st9" d="M226.9,97.7c0.4,2.1,1.8,6.1,6.6,6.1s6.1-3.6,6.6-6.1H226.9L226.9,97.7z"/>
			<path class="st6" d="M233.4,107c-1.4,0-2.6-0.7-2.6-0.8c-0.3-0.2-0.3-0.5-0.2-0.8c0.2-0.3,0.5-0.3,0.8-0.2l0,0c0,0,1,0.6,2,0.6
				c1.1,0,2.1-0.6,2.1-0.6c0.3-0.2,0.6-0.1,0.8,0.2s0.1,0.6-0.2,0.8C236.1,106.3,234.8,107,233.4,107L233.4,107z"/>
		</g>
		<path class="st4" d="M257.5,74c-0.2,0.5-0.7,0.8-1.4,1c0,1.2-0.1,2.7-0.2,4.2c-0.7,8.1-2.7,9.5-3.2,7.5c-0.3-1.3-0.3-9-0.1-11.4
			c-1.6-0.1-3-0.4-3-0.4l-1.9-7.9l-0.7,7.8c-2.8,1-9.4-0.6-9.4-0.6l-2.2-7.8l-1.4,7.5c-4.2,2.1-9.5,0.7-9.5,0.7l-1.2-8.1l-2.8,8.1
			c0,0-9,3.2-9.1,0c-0.1-1.9,1.3-7.2,2.5-11.3c1.3-4.5,4.2-8.3,8.2-10.4c11.2-6,23-2.8,27.1-0.4C257.8,57.7,257.5,74,257.5,74
			L257.5,74z"/>
		<path class="st4" d="M216.4,57.7c0,0-7.4,8.8-9.9,24.6c-2.4,15.8-5.8,27.4,3.7,32.6c10.3,5.6,9.4-5.9,9.2-9.1s-8.9-11.7-3.1-35.9
			C218.3,62.2,216.4,57.7,216.4,57.7L216.4,57.7z"/>
		<path class="st5" d="M214.7,90.3L214.7,90.3c0,0.1,0,0.8,0.1,1.7c0,0.6,0.1,1.3,0.1,2.2c0.4,5.3,1.4,14.5,4.4,17.7
			c1.2,1.3,3.5,1.9,6.2,2.2v-4.2c-2.9-1.4-5.1-3.6-6.8-6.3c-1.1-2.3-2.9-5.9-3.8-11.7L214.7,90.3L214.7,90.3z"/>
		<path class="st9" d="M255.4,95.4c0,0.7-0.6,1.3-1.3,1.3s-1.3-0.6-1.3-1.3s0.6-1.3,1.3-1.3S255.4,94.7,255.4,95.4z"/>
	</g>
	<g>
		<path class="st2" d="M282.1,194.4c-3.7,10.6-20.4,9.9-39.4,4.1c0,0-0.1,0-0.1,0c-0.1,0-0.1,0-0.2-0.1l-2.6-0.8
			c-0.4-0.1-0.7-0.2-1.1-0.4c-2-0.7-4.1-1.4-6.2-2.2c-6.8-2.6-13.6-5.6-20.1-8.9l0-0.1l1.9-5l0.7-1.7c0,0,35.2,3.8,52.9,0.1
			c0.3-0.1,0.6-0.1,0.9-0.2c-0.1-0.4-0.1-0.8-0.2-1.2c-9.4-31.9,0.9-38,4.3-42.5C273.1,135.5,289.1,174.3,282.1,194.4L282.1,194.4z"
			/>
		<path class="st3" d="M276.4,184.5c-0.1,0.1-0.2,0.1-0.3,0.1c-0.3,0-0.5-0.1-0.7-0.4c-1.3-2.7-5.9-4.4-7.3-4.8
			c0.3-0.1,0.6-0.1,0.9-0.2c-0.1-0.4-0.1-0.8-0.2-1.2c1.8,0.6,6.4,2.4,8,5.5C276.9,183.9,276.7,184.3,276.4,184.5L276.4,184.5z"/>
		<path class="st3" d="M227.1,183.2c-7.2,0-13-0.4-13.5-0.4c-0.4,0-0.7-0.4-0.7-0.8s0.4-0.7,0.8-0.7c0.3,0,26.6,1.9,37.1-2.3
			c0.4-0.2,0.8,0,1,0.4c0.2,0.4,0,0.8-0.4,1C245.6,182.6,235.4,183.2,227.1,183.2L227.1,183.2z"/>
		<path class="st3" d="M239.9,197.5L239.9,197.5c6-1.7,11.5-3.3,14.6-4.3c4.4-1.4,8-5.8,9.7-9.6c0.2-0.4,0.6-0.6,1-0.4
			s0.5,0.6,0.4,1c-1.8,4.1-5.8,8.9-10.6,10.4c-2.3,0.7-5.8,1.8-9.8,2.9C243.4,198.1,241.6,198.1,239.9,197.5L239.9,197.5
			L239.9,197.5z"/>
		<g>
			<path class="st2" d="M256.1,192.4c-54.4,18.3-71.1,6.3-71.1,6.3c-3.7-33.1,9.8-62.9,9.8-62.9c4,6.6,8.5,18,8.5,18l1.2,25.4
				l-0.1,0.7l0,0.3l-0.2,1.7v0c0.1,0,0.2,0.1,0.3,0.1c16.4,3.5,46.5-0.4,46.5-0.4L256.1,192.4L256.1,192.4z"/>
			<path class="st3" d="M204.5,182.1c-2.9,2.5-5.7,5.3-8.2,8.6c-0.2,0.3-0.7,0.4-1.1,0.1s-0.4-0.7-0.1-1.1l0,0
				c2.8-3.7,6-6.8,9.3-9.5l-0.2,1.7v0C204.3,182,204.4,182.1,204.5,182.1L204.5,182.1z"/>
			<path class="st8" d="M251,181.7c0,0,6-13.7,15.2-12.4l2.8,9.9c-5,2.1-5.7,10.7-12.9,13.2L251,181.7L251,181.7z"/>
		</g>
		<path class="st8" d="M215.2,179.2c0,0-3.8-8.9-13.8-11.5s-16.4,2.1-17.1,3.9c-0.7,1.8,3.8,0.1,3.8,0.1s-2.9,0.8-4.6,3.5
			c-1.7,2.7,4-0.2,4-0.2s-4.1,1.8-4.6,3.4s4.9-1.1,5.9-1.1c0,0-4.8,1.9-4.8,3.6c0,1.7,5.5-1.1,9.6-0.9s10.4,1.9,10.4,1.9
			c3.4,0.6,6.6,1.1,9.5,1.2L215.2,179.2L215.2,179.2z"/>
	</g>
</g>
<g>
	<g>
		<g>
			<path class="st3" d="M311.8,40.5c-3.7,0-6.7-3-6.7-6.7s3-6.7,6.7-6.7s6.7,3,6.7,6.7S315.5,40.5,311.8,40.5z M311.8,29.2
				c-2.5,0-4.6,2.1-4.6,4.6s2.1,4.6,4.6,4.6s4.6-2.1,4.6-4.6S314.3,29.2,311.8,29.2z"/>
			<path class="st2" d="M370.4,29.1c-3.7,0-6.7-3-6.7-6.7s3-6.7,6.7-6.7s6.7,3,6.7,6.7S374.1,29.1,370.4,29.1z M370.4,17.8
				c-2.5,0-4.6,2.1-4.6,4.6s2.1,4.6,4.6,4.6s4.6-2.1,4.6-4.6S372.9,17.8,370.4,17.8z"/>
			<g>
				<g>
					<path class="st3" d="M378.7,50.9c-0.6,0-1-0.5-1-1v-4.6c0-0.6,0.5-1,1-1s1,0.5,1,1v4.6C379.7,50.4,379.3,50.9,378.7,50.9z"/>
					<path class="st3" d="M378.7,59c-0.6,0-1-0.5-1-1v-4.6c0-0.6,0.5-1,1-1s1,0.5,1,1V58C379.7,58.6,379.3,59,378.7,59z"/>
				</g>
				<g>
					<path class="st3" d="M385.2,52.7H381c-0.6,0-1-0.5-1-1s0.5-1,1-1h4.2c0.6,0,1,0.5,1,1S385.8,52.7,385.2,52.7z"/>
					<path class="st3" d="M376.3,52.7h-4.2c-0.6,0-1-0.5-1-1s0.5-1,1-1h4.2c0.6,0,1,0.5,1,1S376.9,52.7,376.3,52.7z"/>
				</g>
			</g>
			<g>
				<g>
					<path class="st1" d="M343.2,22.8c-0.6,0-1-0.5-1-1v-4.6c0-0.6,0.5-1,1-1s1,0.5,1,1v4.6C344.3,22.3,343.8,22.8,343.2,22.8z"/>
					<path class="st1" d="M343.2,30.9c-0.6,0-1-0.5-1-1v-4.6c0-0.6,0.5-1,1-1s1,0.5,1,1v4.6C344.3,30.4,343.8,30.9,343.2,30.9z"/>
				</g>
				<g>
					<path class="st1" d="M349.7,24.5h-4.2c-0.6,0-1-0.5-1-1s0.5-1,1-1h4.2c0.6,0,1,0.5,1,1S350.3,24.5,349.7,24.5z"/>
					<path class="st1" d="M340.9,24.5h-4.2c-0.6,0-1-0.5-1-1s0.5-1,1-1h4.2c0.6,0,1,0.5,1,1S341.4,24.5,340.9,24.5z"/>
				</g>
			</g>
		</g>
		<g>
			<path class="st3" d="M71.8,16.8c0-3.7,3-6.7,6.7-6.7s6.7,3,6.7,6.7s-3,6.7-6.7,6.7S71.8,20.4,71.8,16.8z M73.9,16.8
				c0,2.5,2.1,4.6,4.6,4.6s4.6-2.1,4.6-4.6s-2.1-4.6-4.6-4.6S73.9,14.2,73.9,16.8z"/>
			<path class="st2" d="M44.9,42.3c0-3.7,3-6.7,6.7-6.7s6.7,3,6.7,6.7s-3,6.7-6.7,6.7S44.9,46,44.9,42.3z M47,42.3
				c0,2.5,2.1,4.6,4.6,4.6s4.6-2.1,4.6-4.6s-2.1-4.6-4.6-4.6S47,39.8,47,42.3z"/>
			<g>
				<g>
					<path class="st3" d="M30.9,51.8c0.6,0,1-0.5,1-1v-4.6c0-0.6-0.5-1-1-1s-1,0.5-1,1v4.6C29.9,51.3,30.3,51.8,30.9,51.8z"/>
					<path class="st3" d="M30.9,59.9c0.6,0,1-0.5,1-1v-4.6c0-0.6-0.5-1-1-1s-1,0.5-1,1v4.6C29.9,59.4,30.3,59.9,30.9,59.9z"/>
				</g>
				<g>
					<path class="st3" d="M24.4,53.5h4.2c0.6,0,1-0.5,1-1s-0.5-1-1-1h-4.2c-0.6,0-1,0.5-1,1S23.8,53.5,24.4,53.5z"/>
					<path class="st3" d="M33.3,53.5h4.2c0.6,0,1-0.5,1-1s-0.5-1-1-1h-4.2c-0.6,0-1,0.5-1,1S32.7,53.5,33.3,53.5z"/>
				</g>
			</g>
			<g>
				<g>
					<path class="st1" d="M55.2,16.1c0.6,0,1-0.5,1-1.1v-4.6c0-0.6-0.5-1.1-1-1.1s-1,0.5-1,1.1V15C54.1,15.6,54.6,16.1,55.2,16.1z"
						/>
					<path class="st1" d="M55.2,24.2c0.6,0,1-0.5,1-1v-4.6c0-0.6-0.5-1-1-1s-1,0.5-1,1v4.6C54.1,23.7,54.6,24.2,55.2,24.2z"/>
				</g>
				<g>
					<path class="st1" d="M48.7,17.8h4.2c0.6,0,1-0.5,1-1s-0.5-1.1-1-1.1h-4.2c-0.6,0-1,0.5-1,1.1S48.1,17.8,48.7,17.8z"/>
					<path class="st1" d="M57.5,17.8h4.2c0.6,0,1-0.5,1-1s-0.5-1.1-1-1.1h-4.2c-0.6,0-1,0.5-1,1.1S57,17.8,57.5,17.8z"/>
				</g>
			</g>
		</g>
	</g>
	<g>
		<g>
			<path class="st0" d="M256,17.2c-0.1,0-0.2,0-0.4,0c-1.3-0.5-2-0.8-2-0.8c-0.4-0.1-0.6-0.6-0.5-0.9c0.1-0.4,0.6-0.6,0.9-0.5
				c0,0,0.8,0.3,2.1,0.8c0.4,0.2,0.6,0.6,0.4,1C256.5,17,256.2,17.2,256,17.2L256,17.2z"/>
			<g>
				<path class="st0" d="M294.1,57.3c0.5,1.4,1,2.8,1.4,4.2c0.1,0.3,0.4,0.6,0.8,0.5c0,0,0.1,0,0.1,0c0.4-0.1,0.6-0.5,0.5-0.9
					c-0.4-1.4-0.9-2.9-1.4-4.2c-0.1-0.4-0.6-0.6-1-0.4C294.1,56.5,293.9,57,294.1,57.3L294.1,57.3z"/>
				<path class="st0" d="M296.7,65.7c0.3,1.4,0.6,2.8,0.9,4.3c0.1,0.4,0.4,0.7,0.8,0.6c0,0,0,0,0.1,0c0.4-0.1,0.7-0.5,0.6-0.9
					c-0.3-1.5-0.6-2.9-0.9-4.4c-0.1-0.4-0.5-0.7-0.9-0.6S296.6,65.3,296.7,65.7L296.7,65.7z"/>
				<path class="st0" d="M299.8,88.3c0.4,0,0.7-0.3,0.7-0.7c0-1.5,0-3,0-4.5c0-0.4-0.4-0.7-0.8-0.7c-0.4,0-0.7,0.4-0.7,0.8
					c0,1.4,0,2.9,0,4.4C299,88,299.3,88.3,299.8,88.3C299.8,88.3,299.8,88.3,299.8,88.3L299.8,88.3z"/>
				<path class="st0" d="M298.9,73.6c-0.4,0.1-0.7,0.4-0.6,0.8c0.1,0.7,0.2,1.4,0.2,2c0.1,0.8,0.1,1.6,0.2,2.3
					c0,0.4,0.4,0.7,0.8,0.7c0,0,0,0,0,0c0.4,0,0.7-0.4,0.7-0.8c-0.1-0.8-0.1-1.6-0.2-2.4c-0.1-0.7-0.1-1.4-0.2-2.1
					C299.7,73.8,299.3,73.5,298.9,73.6C298.9,73.5,298.9,73.5,298.9,73.6L298.9,73.6z"/>
				<path class="st0" d="M292.4,53.3c0.1,0.3,0.5,0.5,0.8,0.4c0.1,0,0.1,0,0.2-0.1c0.4-0.2,0.5-0.6,0.4-1c-0.6-1.4-1.3-2.7-2-4
					c-0.2-0.4-0.6-0.5-1-0.3c-0.4,0.2-0.5,0.6-0.3,1C291.2,50.6,291.8,51.9,292.4,53.3L292.4,53.3z"/>
				<path class="st0" d="M259.6,19c1.3,0.7,2.6,1.4,3.9,2.1c0.1,0.1,0.3,0.1,0.5,0.1c0.2,0,0.4-0.1,0.6-0.4c0.2-0.4,0.1-0.8-0.3-1
					c-1.3-0.8-2.6-1.5-3.9-2.2c-0.4-0.2-0.8,0-1,0.3S259.2,18.9,259.6,19L259.6,19z"/>
				<path class="st0" d="M270.7,26.1c0.2,0.1,0.4,0.2,0.5,0.1c0.2,0,0.4-0.1,0.5-0.3c0.2-0.3,0.2-0.8-0.1-1
					c-1.2-0.9-2.4-1.8-3.6-2.6c-0.3-0.2-0.8-0.1-1,0.2s-0.1,0.8,0.2,1C268.3,24.3,269.5,25.2,270.7,26.1L270.7,26.1z"/>
				<path class="st0" d="M283.3,38.3c0.2,0.2,0.4,0.3,0.7,0.3c0.1,0,0.3-0.1,0.4-0.2c0.3-0.3,0.4-0.7,0.1-1
					c-0.9-1.2-1.9-2.3-2.9-3.4c-0.3-0.3-0.8-0.3-1.1,0c-0.3,0.3-0.3,0.8,0,1.1C281.4,36.1,282.4,37.2,283.3,38.3L283.3,38.3z"/>
				<path class="st0" d="M277.4,31.8c0.2,0.2,0.4,0.2,0.6,0.2c0.2,0,0.3-0.1,0.5-0.2c0.3-0.3,0.3-0.8,0-1.1c-1.1-1-2.2-2-3.3-3
					c-0.3-0.3-0.8-0.2-1,0.1c-0.3,0.3-0.2,0.8,0.1,1C275.2,29.8,276.3,30.8,277.4,31.8L277.4,31.8z"/>
				<path class="st0" d="M288.3,45.5c0.2,0.2,0.4,0.4,0.7,0.3c0.1,0,0.2,0,0.3-0.1c0.4-0.2,0.5-0.7,0.2-1c-0.8-1.3-1.6-2.5-2.5-3.8
					c-0.2-0.3-0.7-0.4-1-0.2c-0.3,0.2-0.4,0.7-0.2,1C286.8,43,287.6,44.3,288.3,45.5L288.3,45.5z"/>
			</g>
		</g>
		<g>
			<polygon class="st2" points="255.9,12.1 259.2,0 219.1,0.3 			"/>
			<polygon class="st3" points="219.1,0.3 254,15.1 254.1,15.1 255.6,17.6 255.9,12.1 			"/>
			<polygon class="st3" points="255.6,17.6 252.4,17.1 254.1,15.1 			"/>
			<polygon class="st2" points="249.7,13.2 254.1,15.1 245.1,25.3 219.1,0.3 			"/>
		</g>
	</g>
</g>
<g>
	<path class="st1" d="M36.8,323.4h396c4.2,0,7.6,3.4,7.6,7.6v0.7c0,4.2-3.4,7.6-7.6,7.6h-396c-4.2,0-7.6-3.4-7.6-7.6V331
		C29.1,326.8,32.5,323.4,36.8,323.4z"/>
	<path class="st3" d="M440.3,331v0.4H29.1V331c0-4.2,3.4-7.6,7.6-7.6h396C436.9,323.4,440.3,326.8,440.3,331L440.3,331z"/>
</g>
<g>
	<path class="st4" d="M170.9,223.5h124.4c3,0,5.4,2.4,5.4,5.4V294c0,3-2.4,5.4-5.4,5.4H170.9c-3,0-5.4-2.4-5.4-5.4v-65.1
		C165.6,225.9,168,223.5,170.9,223.5z"/>
	<rect x="222.7" y="299.3" class="st5" width="20.9" height="23.9"/>
	<circle class="st12" cx="232.9" cy="262.4" r="10.4"/>
	<path class="st4" d="M212.4,314.6h40.7c3.7,0,6.7,3,6.7,6.6v1.8h-54v-1.8C205.8,317.6,208.8,314.6,212.4,314.6L212.4,314.6z"/>
</g>
<rect class="st13" width="463.3" height="339.3"/>
</svg>
