<?xml version="1.0" encoding="UTF-8"?>
<svg id="Layer_1" data-name="Layer 1" xmlns="http://www.w3.org/2000/svg" viewBox="0 0 193.17 121.33">
  <defs>
    <style>
      .cls-1, .cls-2, .cls-3, .cls-4, .cls-5, .cls-6 {
        fill: #fff;
      }

      .cls-7 {
        opacity: .9;
      }

      .cls-2, .cls-8 {
        opacity: .4;
      }

      .cls-9, .cls-6 {
        opacity: .6;
      }

      .cls-3, .cls-10 {
        opacity: .3;
      }

      .cls-11, .cls-5 {
        opacity: .2;
      }

      .cls-4 {
        opacity: .5;
      }

      .cls-12 {
        fill: #007cff;
      }

      .cls-13 {
        fill: #ececec;
      }

      .cls-14 {
        fill: #1a2e35;
      }
    </style>
  </defs>
  <rect class="cls-13" x="131.25" y="116.81" width="4.22" height=".12"/>
  <rect class="cls-13" y="111.79" width="20.99" height=".12"/>
  <rect class="cls-13" x="25.32" y="111.79" width="3.08" height=".12"/>
  <rect class="cls-13" x="38.4" y="113.85" width="45.52" height=".12"/>
  <g>
    <g>
      <polygon class="cls-12" points="70.55 88.88 35.36 40.67 75.39 66.11 68.18 0 93.78 56.6 108.78 7.26 112.04 58.77 149.65 26.22 125.69 70.85 169.31 57.43 115.91 93.65 95.04 97.12 70.55 88.88"/>
      <polygon class="cls-6" points="70.55 88.88 35.36 40.67 75.39 66.11 68.18 0 93.78 56.6 108.78 7.26 112.04 58.77 149.65 26.22 125.69 70.85 169.31 57.43 115.91 93.65 95.04 97.12 70.55 88.88"/>
      <polygon class="cls-12" points="117.11 77.91 135.09 44.42 108.37 67.54 106.04 30.81 94.56 68.57 75.25 25.9 80.55 74.39 51.93 56.2 73.17 85.31 95.39 92.77 114.3 89.63 143.6 69.76 117.11 77.91"/>
    </g>
    <g>
      <polygon class="cls-12" points="83.39 82.79 78.89 77.1 76.05 78.47 76.05 78.94 81.8 83.85 83.39 83.27 83.39 82.79"/>
      <polygon class="cls-12" points="76.05 78.94 78.89 77.58 83.39 83.27 81.8 83.85 76.05 78.94"/>
      <polygon class="cls-6" points="76.05 78.94 78.89 77.58 83.39 83.27 81.8 83.85 76.05 78.94"/>
    </g>
    <g>
      <polygon class="cls-12" points="74.45 80.28 73.84 75.95 71.94 75.78 71.79 76.03 73.3 80.33 74.31 80.52 74.45 80.28"/>
      <polygon class="cls-12" points="71.79 76.03 73.69 76.2 74.31 80.52 73.3 80.33 71.79 76.03"/>
      <polygon class="cls-6" points="71.79 76.03 73.69 76.2 74.31 80.52 73.3 80.33 71.79 76.03"/>
    </g>
    <g>
      <polygon class="cls-12" points="90.68 80.28 98 77.24 97.29 73.94 96.78 73.81 89.97 78.35 90.17 80.15 90.68 80.28"/>
      <polygon class="cls-12" points="96.78 73.81 97.49 77.11 90.17 80.15 89.97 78.35 96.78 73.81"/>
      <polygon class="cls-2" points="96.78 73.81 97.49 77.11 90.17 80.15 89.97 78.35 96.78 73.81"/>
    </g>
    <g>
      <polygon class="cls-12" points="87.8 64.23 86.55 60.01 84.65 60.16 84.54 60.43 86.67 64.48 87.69 64.5 87.8 64.23"/>
      <polygon class="cls-12" points="84.54 60.43 86.44 60.28 87.69 64.5 86.67 64.48 84.54 60.43"/>
      <polygon class="cls-2" points="84.54 60.43 86.44 60.28 87.69 64.5 86.67 64.48 84.54 60.43"/>
    </g>
    <g>
      <polygon class="cls-12" points="104.94 82.24 107.41 77.35 105.51 76.23 105.18 76.42 103.68 81.73 104.61 82.43 104.94 82.24"/>
      <polygon class="cls-12" points="105.18 76.42 107.08 77.54 104.61 82.43 103.68 81.73 105.18 76.42"/>
      <polygon class="cls-10" points="105.18 76.42 107.08 77.54 104.61 82.43 103.68 81.73 105.18 76.42"/>
    </g>
    <g>
      <polygon class="cls-12" points="99.55 74.97 99.62 70.48 101.57 69.8 101.76 70.01 100.76 74.71 99.74 75.17 99.55 74.97"/>
      <polygon class="cls-12" points="101.76 70.01 99.8 70.68 99.74 75.17 100.76 74.71 101.76 70.01"/>
      <polygon class="cls-10" points="101.76 70.01 99.8 70.68 99.74 75.17 100.76 74.71 101.76 70.01"/>
    </g>
  </g>
  <g>
    <g>
      <path class="cls-14" d="m187.52,83.33h5.18c.32,0,.58.26.58.58h0c0,.32-.26.58-.58.58h-4.02c-.64,0-1.16-.52-1.16-1.16h0Z" transform="translate(-16.39 60.92) rotate(-17.44)"/>
      <g>
        <g>
          <polygon class="cls-14" points="101.45 111.96 123.74 106.05 118.91 99.14 109.82 96.05 104.79 97.63 100.92 103.07 100.97 108.7 101.45 111.96"/>
          <polygon class="cls-14" points="161.86 94.08 182.81 86.4 183.82 84.5 181.17 79.85 172.94 76.59 165.83 77.76 160.87 85.68 160.91 92.81 161.86 94.08"/>
        </g>
        <g>
          <polygon points="101.45 111.96 123.74 106.05 118.91 99.14 109.82 96.05 104.79 97.63 100.92 103.07 100.97 108.7 101.45 111.96"/>
          <polygon points="161.86 94.08 182.81 86.4 183.82 84.5 181.17 79.85 172.94 76.59 165.83 77.76 160.87 85.68 160.91 92.81 161.86 94.08"/>
        </g>
      </g>
      <polygon class="cls-12" points="94.75 103.25 97.72 107.27 98.16 111.41 97.51 115.54 98.51 115.23 100.79 113.18 100.01 105.63 97.08 102.52 94.75 103.25"/>
      <polygon class="cls-9" points="94.75 103.25 97.72 107.27 98.16 111.41 97.51 115.54 98.51 115.23 100.79 113.18 100.01 105.63 97.08 102.52 94.75 103.25"/>
      <g>
        <path class="cls-12" d="m189.39,75.92l-4.57-4.47c-1-.98-2.25-1.65-3.62-1.94l-16.97-9.67c-4.57-2.61-10.02-3.19-15.04-1.61l-24.17,7.59c-3.14.99-5.66,3.35-6.85,6.43l-4.44,11.51-11.17,4.74c-5.29,2.25-8.72,7.45-8.68,13.2l.85,1.55,4.04,2.4.59,5.39-.88,4.2,2.75-.86c1.07-.34,1.65-1.5,1.26-2.55-.09-.24-.16-.48-.23-.72-1.39-4.95,1.27-10.26,6.07-12.1,5.46-2.09,11.47.87,13.2,6.37v.02c.42,1.31,1.81,2.03,3.11,1.62l37.34-11.73c1.27-.4,2-1.75,1.58-3.02-.04-.13-.08-.26-.12-.39-1.39-4.95,1.27-10.26,6.07-12.1,5.46-2.09,11.47.87,13.2,6.37.03.09.05.17.07.26l6.43-2.02c1.16-.37,1.98-1.41,2.05-2.63l.02-.32c.02-.4-.03-.81-.15-1.19l-.92-2.92c-.17-.53-.46-1-.85-1.39Z"/>
        <path class="cls-10" d="m189.39,75.92l-4.57-4.47c-1-.98-2.25-1.65-3.62-1.94l-16.97-9.67c-4.57-2.61-10.02-3.19-15.04-1.61l-24.17,7.59c-3.14.99-5.66,3.35-6.85,6.43l-4.44,11.51-11.17,4.74c-5.29,2.25-8.72,7.45-8.68,13.2l.85,1.55,4.04,2.4.59,5.39-.88,4.2,2.75-.86c1.07-.34,1.65-1.5,1.26-2.55-.09-.24-.16-.48-.23-.72-1.39-4.95,1.27-10.26,6.07-12.1,5.46-2.09,11.47.87,13.2,6.37v.02c.42,1.31,1.81,2.03,3.11,1.62l37.34-11.73c1.27-.4,2-1.75,1.58-3.02-.04-.13-.08-.26-.12-.39-1.39-4.95,1.27-10.26,6.07-12.1,5.46-2.09,11.47.87,13.2,6.37.03.09.05.17.07.26l6.43-2.02c1.16-.37,1.98-1.41,2.05-2.63l.02-.32c.02-.4-.03-.81-.15-1.19l-.92-2.92c-.17-.53-.46-1-.85-1.39Z"/>
      </g>
      <g class="cls-11">
        <path class="cls-1" d="m123.56,104.73h0c-.27.09-.56-.06-.65-.33-2.09-5.76-8.4-8.92-14.3-7.06-.91.29-1.79.68-2.59,1.18-.74.46-1.66.42-2.35-.07.01.25.07.58.1.82.14.89.3,1.9-.5,2.17-.61.21-.97-.39-1.24-.87.03.5.18,1.27.41,2.05.08.27-.07.56-.33.65h0c-.28.1-.58-.06-.67-.34-.49-1.6-.78-3.39.17-3.81.55-.25.92.22,1.17.66-.02-.12-.04-.24-.05-.34-.14-.88-.3-1.88.47-2.18.3-.12.65-.02,1.01.29.34.3.85.33,1.25.08.88-.54,1.83-.97,2.83-1.29,6.44-2.02,13.32,1.42,15.6,7.71.1.28-.04.6-.33.69Zm-20.17-6.5h0Z"/>
      </g>
      <path class="cls-9" d="m93.89,101.69h0l1.3.71s3.39-10.96,8.68-13.2l11.17-4.74-1.3-.71-11.17,4.74c-5.29,2.25-8.72,7.45-8.68,13.2Z"/>
      <g>
        <path class="cls-12" d="m87.88,84.81h0l.58,1.36s9.47-6.47,15.01-4.94l11.69,3.23-.58-1.36-11.69-3.23c-5.54-1.53-11.46.42-15.01,4.94Z"/>
        <path class="cls-10" d="m87.88,84.81h0l.58,1.36s9.47-6.47,15.01-4.94l11.69,3.23-.58-1.36-11.69-3.23c-5.54-1.53-11.46.42-15.01,4.94Z"/>
      </g>
      <path class="cls-9" d="m100.54,98.27c.44,1.4.24,2.72-.44,2.93s-1.6-.75-2.04-2.15c-.44-1.4-.24-2.72.44-2.93s1.6.75,2.04,2.15Z"/>
      <path class="cls-4" d="m98.73,96.09c-.21.16-.35.45-.42.82l.82.44.15.88.75.8-.95-.62-.27-.87-.54-.03c0,.42.08.9.23,1.39.39,1.25,1.16,2.16,1.81,2.18.52-.39.63-1.57.24-2.82s-1.16-2.16-1.81-2.18Z"/>
      <g>
        <path class="cls-14" d="m185.71,78.86h5.32c.78,0,1.41.63,1.41,1.41h0c0,.78-.63,1.41-1.41,1.41h-5.32c-.78,0-1.41-.63-1.41-1.41h0c0-.78.63-1.41,1.41-1.41Z" transform="translate(-15.4 60.15) rotate(-17.44)"/>
        <path class="cls-2" d="m185.71,78.86h5.32c.78,0,1.41.63,1.41,1.41h0c0,.78-.63,1.41-1.41,1.41h-5.32c-.78,0-1.41-.63-1.41-1.41h0c0-.78.63-1.41,1.41-1.41Z" transform="translate(-15.4 60.15) rotate(-17.44)"/>
      </g>
      <g class="cls-11">
        <path class="cls-1" d="m161.22,90.83h-.01c-.29.04-.56-.17-.59-.47-.58-5.91,3.03-11.41,8.76-13.21,5.47-1.72,11.47.53,14.47,5.37.15.25.06.57-.19.71h-.01c-.24.14-.55.06-.7-.18-2.75-4.42-8.24-6.48-13.25-4.9-5.25,1.65-8.56,6.69-8.03,12.11.03.28-.16.53-.44.57Z"/>
      </g>
      <path class="cls-14" d="m149.66,74.66l18.09-5.68c.95-.3,1.08-1.58.22-2.07l-6.08-3.47c-3.48-1.98-7.62-2.43-11.44-1.23l-4.94,1.55c-.63.2-.96.89-.71,1.5l3.47,8.72c.22.55.83.84,1.39.66Z"/>
      <path class="cls-14" d="m140.65,65.3l-14.37,4.51c-1.82.57-3.29,1.95-3.98,3.73l-3.42,8.86c-.34.89.49,1.78,1.4,1.49l23.85-7.49c.6-.19.93-.83.74-1.42l-2.81-8.93c-.19-.6-.83-.93-1.42-.74Z"/>
      <path class="cls-11" d="m118.54,87.88l.62,1.12-.23,1.78.8,1.28-.44,2.78,4.66,7.48c.57.92,1.69,1.33,2.72,1.01l24.45-7.68c1.05-.33,1.63-1.45,1.3-2.5l-4.56-14.51c-.33-1.04-1.43-1.62-2.48-1.31l-25.72,7.76c-1.18.36-1.73,1.72-1.13,2.79Z"/>
      <polygon class="cls-5" points="100.86 94.75 105.92 90.23 115.87 87.11 105.71 91.76 100.86 94.75"/>
      <polygon class="cls-5" points="105.28 94.03 111.1 93.24 117.41 91.99 111.53 94.63 105.28 94.03"/>
      <polygon class="cls-11" points="102.42 94.93 106.27 95.73 104.38 96.33 102.42 94.93"/>
      <g>
        <path class="cls-10" d="m121.68,87.67l-1.53,1.02,1.71.38c.44.1.74-.43.43-.76l-.61-.64Z"/>
        <path class="cls-10" d="m120.43,91.83l1.71-.91c.28-.15.59.13.48.42l-.21.56.67,1.32c.17.33-.24.65-.52.41l-2.12-1.8Z"/>
      </g>
      <path class="cls-14" d="m147.25,78.71c.12.37-.35.85-1.04,1.06-.69.22-4.34,1.03-4.46.66-.12-.37,3.35-1.79,4.03-2s1.34-.09,1.46.28Z"/>
      <path class="cls-2" d="m147.25,78.71c.12.37-.35.85-1.04,1.06-.69.22-4.34,1.03-4.46.66-.12-.37,3.35-1.79,4.03-2s1.34-.09,1.46.28Z"/>
      <g>
        <path class="cls-14" d="m119.94,73.1c.32-.83-.13-1.75-.98-1.97l-.23-.06c-.2.38-.38.77-.54,1.18l-4.08,10.57.6.17c.73.2,1.49-.18,1.76-.88l3.47-8.98s0-.01,0-.02Z"/>
        <polygon class="cls-5" points="116.38 80.21 115.76 79.22 117.14 79.09 115.99 78.78 117.86 76.97 116.45 77.9 118.06 75.96 117.58 75.87 118.89 74.33 117.05 76.04 117.38 76.21 116.28 77.18 114.88 80.79 115.31 82.16 115.15 80.57 115.72 79.87 116.16 80.49 116.41 81.27 116.38 80.21"/>
      </g>
      <g>
        <path class="cls-8" d="m183.71,73.6l2.44,2.54c.68.7.38,1.87-.55,2.16l-.65.21-4.48-4.65,1.9-.6c.47-.15.99-.02,1.34.34Z"/>
        <polygon class="cls-2" points="183.45 76.94 186.12 76.1 184.57 74.49 181.89 75.33 183.45 76.94"/>
      </g>
      <path class="cls-11" d="m149.73,78.05l.64,2.03c.15.46.64.72,1.1.58l23.71-7.45c.6-.19,1.07-.69,1.15-1.31.09-.65-.21-1.26-.78-1.58l-1.61-.92c-.94-.54-2.06-.65-3.09-.31l-19.84,6.48c-1.04.34-1.61,1.45-1.28,2.49Z"/>
      <polygon class="cls-5" points="120.91 82.11 120.81 80.43 122.68 80.72 121.72 78.84 126.93 80.03 125.33 79.3 126.69 78.38 124.48 78.92 122.16 77.88 122.72 76.67 126.14 76.35 125.87 75.49 127.78 75.44 125.38 74.79 125.48 75.98 123.31 75.5 125.4 72.83 121.5 75.64 121.5 75.64 119.66 80.41 120.91 82.11"/>
      <g>
        <circle class="cls-14" cx="173.15" cy="89.15" r="8.38" transform="translate(-21.58 92.48) rotate(-28.22)"/>
        <circle class="cls-4" cx="173.15" cy="89.15" r="5.33" transform="translate(17.8 206.61) rotate(-64.34)"/>
        <path class="cls-14" d="m174.33,88.78c.21.65-.16,1.35-.81,1.55s-1.35-.16-1.55-.81c-.21-.65.16-1.35.81-1.55.65-.2,1.35.16,1.55.81Z"/>
        <g class="cls-8">
          <path d="m171.5,86.9l-.14-2.04c-.9.37-1.64,1.01-2.14,1.79l1.99.49c.09-.09.18-.17.28-.24Z"/>
          <path d="m171.13,91.09c-.09-.09-.17-.18-.24-.28l-2.04.14c.37.9,1.01,1.64,1.79,2.14l.49-1.99Z"/>
          <path d="m173.09,91.95c-.12,0-.25-.01-.37-.03l-1.35,1.54c.85.35,1.82.45,2.77.24l-1.06-1.75Z"/>
          <path d="m170.35,89.09c0-.12.01-.25.03-.37l-1.54-1.35c-.35.85-.45,1.82-.24,2.77l1.75-1.05Z"/>
          <path d="m175.94,89.21c0,.12-.01.25-.03.37l1.54,1.35c.35-.85.45-1.82.24-2.77l-1.75,1.06Z"/>
          <path d="m175.17,87.22c.09.09.17.18.24.28l2.04-.14c-.37-.9-1.01-1.64-1.79-2.14l-.49,1.99Z"/>
          <path d="m175.08,91.17c-.09.09-.18.17-.28.24l.14,2.04c.9-.37,1.64-1.01,2.14-1.79l-1.99-.49Z"/>
          <path d="m173.58,86.39l1.35-1.54c-.85-.35-1.82-.45-2.77-.24l1.05,1.75c.12,0,.25.01.37.03Z"/>
        </g>
        <path class="cls-4" d="m173.83,88.94c.12.38-.09.78-.47.89s-.78-.09-.89-.47c-.12-.38.3-.11.68-.23.38-.12.57-.58.68-.2Z"/>
      </g>
      <g>
        <ellipse class="cls-14" cx="111.07" cy="108.66" rx="7.34" ry="8.38" transform="translate(-27.46 38.28) rotate(-17.44)"/>
        <path class="cls-4" d="m115.52,107.26c.88,2.81-.4,5.71-2.85,6.48s-5.16-.88-6.05-3.68c-.88-2.81.4-5.71,2.85-6.48,2.46-.77,5.16.88,6.05,3.68Z"/>
        <path class="cls-14" d="m112.11,108.33c.21.65-.09,1.33-.66,1.51-.57.18-1.2-.2-1.41-.86-.21-.65.09-1.33.66-1.51.57-.18,1.2.2,1.41.86Z"/>
        <g class="cls-8">
          <path d="m109.53,106.36l-.19-2.02c-.79.34-1.42.94-1.83,1.69l1.78.56c.08-.08.16-.16.24-.23Z"/>
          <path d="m109.35,110.49c-.08-.09-.15-.19-.22-.29l-1.8.06c.36.91.95,1.65,1.66,2.17l.37-1.95Z"/>
          <path d="m111.12,111.42c-.11,0-.22-.02-.33-.05l-1.14,1.48c.77.38,1.63.51,2.47.34l-1-1.77Z"/>
          <path d="m108.59,108.5c0-.12,0-.25.02-.37l-1.41-1.39c-.28.83-.34,1.78-.12,2.73l1.52-.98Z"/>
          <path d="m113.55,108.81c0,.12,0,.25-.02.37l1.41,1.39c.28-.83.34-1.78.12-2.73l-1.52.98Z"/>
          <path d="m112.79,106.82c.08.09.15.19.22.29l1.8-.06c-.36-.91-.95-1.65-1.66-2.17l-.37,1.95Z"/>
          <path d="m112.86,110.72c-.08.08-.16.16-.24.23l.19,2.02c.79-.34,1.42-.94,1.83-1.69l-1.78-.56Z"/>
          <path d="m111.36,105.94l1.14-1.48c-.77-.38-1.63-.51-2.47-.34l1,1.77c.11,0,.22.02.33.05Z"/>
        </g>
        <path class="cls-4" d="m111.67,108.47c.12.38-.05.76-.38.87-.33.1-.69-.12-.81-.49s.26-.1.59-.2c.33-.1.48-.55.6-.17Z"/>
      </g>
      <g>
        <path class="cls-14" d="m168.19,66.53l-6.08-3.47c-3.57-2.03-7.87-2.49-11.78-1.26l-4.94,1.55c-.42.13-.76.43-.95.82-.19.39-.2.85-.04,1.26l3.47,8.72c.3.76,1.15,1.16,1.93.92l18.09-5.68c.61-.19,1.02-.7,1.09-1.33.07-.63-.23-1.22-.78-1.53Zm-.08,1.44c-.03.29-.21.51-.49.59l-18.09,5.68c-.35.11-.72-.07-.86-.41l-3.47-8.72c-.07-.18-.07-.38.02-.56.08-.18.23-.31.42-.37l4.94-1.55c3.69-1.16,7.73-.73,11.09,1.19l6.08,3.47c.25.14.38.4.35.68Z"/>
        <path class="cls-14" d="m140.52,64.88l-14.37,4.51c-1.96.62-3.51,2.07-4.25,3.99l-3.42,8.86c-.22.57-.1,1.2.32,1.64s1.04.61,1.62.42l23.85-7.49c.83-.26,1.29-1.14,1.03-1.97l-2.81-8.93c-.26-.83-1.14-1.29-1.97-1.03Zm-21.08,18.4c-.19-.2-.24-.47-.14-.73l3.42-8.86c.64-1.67,1.99-2.94,3.7-3.47l.47-.15,3.23,10.27-9.95,3.12c-.26.08-.53.01-.72-.19Zm25.02-8.18c.12.37-.09.76-.46.88l-13.46,4.23-3.23-10.27,13.46-4.23c.37-.12.76.09.88.46l2.81,8.93Z"/>
      </g>
      <g class="cls-9">
        <path d="m168.19,66.53l-6.08-3.47c-3.57-2.03-7.87-2.49-11.78-1.26l-4.94,1.55c-.42.13-.76.43-.95.82-.19.39-.2.85-.04,1.26l3.47,8.72c.3.76,1.15,1.16,1.93.92l18.09-5.68c.61-.19,1.02-.7,1.09-1.33.07-.63-.23-1.22-.78-1.53Zm-.08,1.44c-.03.29-.21.51-.49.59l-18.09,5.68c-.35.11-.72-.07-.86-.41l-3.47-8.72c-.07-.18-.07-.38.02-.56.08-.18.23-.31.42-.37l4.94-1.55c3.69-1.16,7.73-.73,11.09,1.19l6.08,3.47c.25.14.38.4.35.68Z"/>
        <path d="m140.52,64.88l-14.37,4.51c-1.96.62-3.51,2.07-4.25,3.99l-3.42,8.86c-.22.57-.1,1.2.32,1.64s1.04.61,1.62.42l23.85-7.49c.83-.26,1.29-1.14,1.03-1.97l-2.81-8.93c-.26-.83-1.14-1.29-1.97-1.03Zm-21.08,18.4c-.19-.2-.24-.47-.14-.73l3.42-8.86c.64-1.67,1.99-2.94,3.7-3.47l.47-.15,3.23,10.27-9.95,3.12c-.26.08-.53.01-.72-.19Zm25.02-8.18c.12.37-.09.76-.46.88l-13.46,4.23-3.23-10.27,13.46-4.23c.37-.12.76.09.88.46l2.81,8.93Z"/>
      </g>
    </g>
    <polygon class="cls-11" points="97.91 101.01 100.13 103.12 100.01 105.63 97.91 101.01"/>
  </g>
  <g>
    <g>
      <path class="cls-14" d="m2.57,95.31l4.54,4.38,17.3,5.44,13.31,2.81c.46.1.95-.01,1.32-.3l.08-.06c.36-.28.83-.39,1.28-.31l18.31,3.33c.33.06.63.23.85.48l1.76,2.05c.22.25.52.43.85.48l11.2,2.04,19.98-.63c.52-.02.94-.44.95-.97l.04-4.7-.62-8.85-22.44-4.54-12.45,9.52-23.87-4.8-9.37-13.55-16.68-2.43-5.15,7.09-1.15,3.5Z"/>
      <path class="cls-9" d="m2.57,95.31l4.54,4.38,17.3,5.44,13.31,2.81c.46.1.95-.01,1.32-.3l.08-.06c.36-.28.83-.39,1.28-.31l18.31,3.33c.33.06.63.23.85.48l1.76,2.05c.22.25.52.43.85.48l11.2,2.04,19.98-.63c.52-.02.94-.44.95-.97l.04-4.7-.62-8.85-22.44-4.54-12.45,9.52-23.87-4.8-9.37-13.55-16.68-2.43-5.15,7.09-1.15,3.5Z"/>
    </g>
    <g>
      <path class="cls-12" d="m99.4,92.02l-1.39-.46s-.87-1.72-1.41-2.02c-.79-.42-2.77.29-3.57-.11-.71-.36-1.26-2.17-1.99-2.46-.87-.35-2.87.83-3.74.47-.4-.17-.69-1.23-1.11-1.35-.6-.17-2.35.79-2.35.79l-11.85-3.91s-.85-3.16-1.28-4.16c-.48-1.13-1.79-3.23-2.1-4.42-.2-.76-.1-2.37-.22-3.15-.1-.64-.76-2.47-.76-2.47-.36-1.18-1.25-2.13-2.4-2.57l-2.29-.89c-4.74-1.83-9.64-3.21-14.63-4.12l-34.07-6.2c-.92-.17-1.83.36-2.14,1.24l-6.39,18.06c-.03.1-.06.19-.08.29l-3.72,20.45c-.07.39.19.77.58.84.28.05.57-.07.73-.31l4.2-6.21c1-1.83,3.06-2.81,5.1-2.44l10.7,1.95c1.85.34,3.34,1.72,3.81,3.53l2.51,9.61c.2.78.84,1.37,1.64,1.52l34.44,6.27c.79.14,1.6-.18,2.07-.84l5.73-8.11c1.08-1.54,2.96-2.3,4.81-1.96l10.7,1.95c2.05.37,3.63,2.02,3.92,4.08l1.04,7.38c.07.5.79.51.88.02,0,0,.87-11.28,1.96-14.87.44-1.44,2.68-5.41,2.68-5.41Z"/>
      <path class="cls-4" d="m99.4,92.02l-1.39-.46s-.87-1.72-1.41-2.02c-.79-.42-2.77.29-3.57-.11-.71-.36-1.26-2.17-1.99-2.46-.87-.35-2.87.83-3.74.47-.4-.17-.69-1.23-1.11-1.35-.6-.17-2.35.79-2.35.79l-11.85-3.91s-.85-3.16-1.28-4.16c-.48-1.13-1.79-3.23-2.1-4.42-.2-.76-.1-2.37-.22-3.15-.1-.64-.76-2.47-.76-2.47-.36-1.18-1.25-2.13-2.4-2.57l-2.29-.89c-4.74-1.83-9.64-3.21-14.63-4.12l-34.07-6.2c-.92-.17-1.83.36-2.14,1.24l-6.39,18.06c-.03.1-.06.19-.08.29l-3.72,20.45c-.07.39.19.77.58.84.28.05.57-.07.73-.31l4.2-6.21c1-1.83,3.06-2.81,5.1-2.44l10.7,1.95c1.85.34,3.34,1.72,3.81,3.53l2.51,9.61c.2.78.84,1.37,1.64,1.52l34.44,6.27c.79.14,1.6-.18,2.07-.84l5.73-8.11c1.08-1.54,2.96-2.3,4.81-1.96l10.7,1.95c2.05.37,3.63,2.02,3.92,4.08l1.04,7.38c.07.5.79.51.88.02,0,0,.87-11.28,1.96-14.87.44-1.44,2.68-5.41,2.68-5.41Z"/>
    </g>
    <path class="cls-11" d="m76.99,95.69l5.24-6.74c.36-.47,1.12-.17,1.06.42l-.24,2.41c-.08.83.99,1.24,1.48.56l2.16-2.98c.32-.44,1.02-.25,1.07.3l.35,4.36c.06.76,1.03,1.03,1.48.42l2.2-2.99c.36-.49,1.14-.18,1.06.43l-.67,5.25.71,4.5-9.77-3.81-6.46-.26.34-1.87Z"/>
    <path class="cls-11" d="m96.08,93.69s-1.83,1.67-2.19,2.4c-.22.44-.73,1.62-.35,1.91.42.33,1.55-.57,1.9-.97.54-.61,1.07-3.08,1.07-3.08.09-.27-.25-.47-.44-.26Z"/>
    <path class="cls-11" d="m78.91,88.81l-5.2,1.55c-.09.03-.16.09-.19.17l-1.12,2.8c-.1.26.18.51.42.37l5.01-2.9s.05-.04.07-.06l1.3-1.45c.2-.22-.02-.57-.31-.48Z"/>
    <path class="cls-12" d="m13.6,56.26c.59.85,1.49,1.44,2.52,1.62l50.49,9.19c-.39-.38-.85-.69-1.37-.89l-2.29-.89c-4.74-1.83-9.64-3.21-14.63-4.12l-34.07-6.2c-.48-.09-.96.02-1.36.27l.71,1.03Z"/>
    <rect class="cls-14" x="14.55" y="61.32" width="19.55" height="13.4" rx="2.82" ry="2.82" transform="translate(12.58 -3.26) rotate(10.32)"/>
    <path class="cls-14" d="m65.47,82.32l-25.28-4.6c-.61-.11-1.02-.7-.91-1.31l2-10.96c.11-.61.7-1.02,1.31-.91l20.45,3.72c.44.08.79.41.89.85,0,0,.42,1.48.47,1.98.1.92-.07,2.78.13,3.68.24,1.07,1.34,3,1.72,4.03.19.52.51,2.15.51,2.15.19.79-.5,1.52-1.3,1.37Z"/>
    <path class="cls-5" d="m65,76.05c-.21-.48-.38-.93-.46-1.28-.17-.76-.07-2.23-.1-3.21l-2.49-2.68,1.68,3.05-6.5-3.93,5.82,5.43h-5.08s-3.3-1.42-3.3-1.42l-4.08.07,3.96.57,3.39,1.74,2.36.17-2.12,1.85-2.32.19-1.87,1.9,2.23-1.37h2.28s3.12-2.32,3.12-2.32l1.52.28-2.41,2.66-2.56,1.52,4.59-1.5-.74-.13,1.87-1.9-.96,4.14,2.15-3.81Z"/>
    <rect class="cls-3" x="7.04" y="80.29" width="63.09" height="1.13" rx=".57" ry=".57" transform="translate(15.11 -5.6) rotate(10.32)"/>
    <rect class="cls-3" x="31.98" y="95.71" width="33.16" height="1.13" rx=".57" ry=".57" transform="translate(18.03 -7.14) rotate(10.32)"/>
    <rect class="cls-12" x="38.43" y="83.25" width="4.17" height="1.13" rx=".57" ry=".57" transform="translate(15.67 -5.9) rotate(10.32)"/>
    <path class="cls-12" d="m67.13,82.38l.56-3.09c.07-.41-.2-.81-.61-.88l-1.21-.22c-.67-.12-1.32.32-1.44,1l-.63,3.46c-.12.67.32,1.32,1,1.44l1.66.3.5.72.7.13.3-1.66-.83-1.2Z"/>
    <g>
      <circle class="cls-14" cx="15.59" cy="102.48" r="10.4" transform="translate(-81.85 67.11) rotate(-61.4)"/>
      <path class="cls-2" d="m21.75,104.37c.07-.24.14-.48.18-.73.05-.25.07-.5.09-.75l-2.34-.76c-.03-.35-.1-.68-.22-1l1.81-1.66c-.24-.45-.53-.86-.86-1.24l-2.19,1.11c-.26-.22-.55-.41-.86-.56l.11-2.45c-.24-.07-.48-.14-.73-.18-.25-.05-.5-.07-.75-.09l-.76,2.34c-.35.03-.68.1-1,.22l-1.66-1.81c-.45.24-.86.53-1.24.86l1.11,2.19c-.22.26-.41.55-.56.86l-2.45-.11c-.07.24-.14.48-.18.73-.05.25-.07.5-.09.75l2.34.76c.03.35.1.68.22,1l-1.81,1.66c.24.45.53.86.86,1.24l2.19-1.11c.26.22.55.41.86.56l-.11,2.45c.24.07.48.14.73.18.25.05.5.07.75.09l.76-2.34c.35-.03.68-.1,1-.22l1.66,1.81c.45-.24.86-.53,1.24-.86l-1.11-2.19c.22-.26.41-.55.56-.86l2.45.11Z"/>
      <path class="cls-6" d="m16.91,95.25c-3.99-.73-7.82,1.92-8.55,5.92-.73,3.99,1.92,7.82,5.92,8.55,3.99.73,7.82-1.92,8.55-5.92.73-3.99-1.92-7.82-5.92-8.55Zm-2.47,13.58c-3.5-.64-5.83-3.99-5.19-7.5s3.99-5.83,7.5-5.19c3.5.64,5.83,3.99,5.19,7.5-.64,3.5-3.99,5.83-7.5,5.19Z"/>
      <path class="cls-6" d="m18.97,103.09c-.34,1.86-2.12,3.1-3.99,2.76-1.86-.34-3.1-2.12-2.76-3.99.34-1.86,2.12-3.1,3.99-2.76,1.86.34,3.1,2.12,2.76,3.99Z"/>
      <path class="cls-4" d="m17.33,102.8c-.17.96-1.1,1.6-2.06,1.42s-1.6-1.1-1.42-2.06,1.1-1.6,2.06-1.42,1.6,1.1,1.42,2.06Z"/>
    </g>
    <path class="cls-11" d="m75.68,86.38l3.31.89c.34.09.32.58-.02.65l-2.93.58c-.17.03-.34-.07-.39-.24l-.38-1.47c-.06-.25.16-.47.41-.41Z"/>
    <path class="cls-12" d="m95.81,102.26c-1.09-2.56-3.4-4.47-6.24-4.99l-10.7-1.95c-3.21-.59-6.51.76-8.39,3.43l-6.5,9.19-30.62-5.58-2.84-10.89c-.83-3.17-3.42-5.58-6.65-6.17l-10.7-1.95c-3.58-.65-7.17,1.06-8.91,4.25h0c-.23.41-.69.64-1.16.55l-.98-.18c-.63-.11-1.23.3-1.34.93L.02,93.13c-.08.42.09.85.42,1.12l1.52,1.19c.09.21.29.37.53.42.28.05.57-.07.73-.31l4.2-6.21c1-1.83,3.06-2.81,5.1-2.44l10.7,1.95c1.85.34,3.34,1.72,3.81,3.53l2.51,9.61c.2.78.84,1.37,1.64,1.52l34.44,6.27c.79.14,1.6-.18,2.07-.84l5.73-8.11c1.08-1.54,2.96-2.3,4.81-1.96l10.7,1.95c2.05.37,3.63,2.02,3.92,4.08l1.04,7.38c.07.5.79.51.88.02,0,0,.42-5.49,1.05-10.03Z"/>
    <g>
      <path class="cls-14" d="m85.22,101.45s1.21.36,1.56-.06c0,0,1.94,2.54,3.08,2.87,0,0,1.41,3.43,2.02,3.75,0,0-.13,3.1.6,3.79,0,0-1.52,2.42-1.65,4.14,0,0-.54-.05-.56,1.02,0,0-.29-.74-.88-.87l.17-3.02.77-3.11-.18-1.25-2.06-3.63-1.8-1.85-1.07-1.78Z"/>
      <path class="cls-2" d="m85.22,101.45s1.21.36,1.56-.06c0,0,1.94,2.54,3.08,2.87,0,0,1.41,3.43,2.02,3.75,0,0-.13,3.1.6,3.79,0,0-1.52,2.42-1.65,4.14,0,0-.54-.05-.56,1.02,0,0-.29-.74-.88-.87l.17-3.02.77-3.11-.18-1.25-2.06-3.63-1.8-1.85-1.07-1.78Z"/>
      <circle class="cls-14" cx="81.17" cy="110.93" r="10.4" transform="translate(-52.17 144.31) rotate(-67.86)"/>
      <path class="cls-6" d="m87.97,110.81c-.07-4.06-3.2-7.3-6.99-7.24-3.8.06-6.82,3.4-6.76,7.46.07,4.06,3.2,7.3,6.99,7.24,3.8-.06,6.82-3.4,6.76-7.46Zm-6.77,6.56c-3.33.05-6.08-2.79-6.13-6.35s2.59-6.49,5.92-6.54c3.33-.05,6.08,2.79,6.13,6.35.06,3.56-2.59,6.49-5.92,6.54Z"/>
      <path class="cls-2" d="m87.09,111.58c.02-.25.04-.5.03-.76,0-.26-.03-.51-.06-.75l-2.28-.29c-.09-.33-.22-.65-.38-.94l1.36-1.98c-.3-.39-.64-.74-1.02-1.05l-1.8,1.51c-.28-.16-.58-.29-.89-.38l-.35-2.43c-.23-.03-.47-.04-.71-.04-.24,0-.47.03-.71.06l-.27,2.44c-.31.1-.61.23-.88.41l-1.85-1.46c-.37.32-.7.68-.98,1.08l1.42,1.93c-.15.3-.27.62-.35.96l-2.27.37c-.02.25-.04.5-.03.76s.03.51.06.75l2.28.29c.09.33.22.65.38.94l-1.36,1.98c.3.39.64.74,1.02,1.05l1.8-1.51c.28.16.58.29.89.38l.35,2.43c.23.03.47.04.71.04.24,0,.47-.03.71-.06l.27-2.44c.31-.1.61-.23.88-.41l1.85,1.46c.37-.32.7-.68.98-1.08l-1.42-1.93c.15-.3.27-.62.35-.96l2.27-.37Z"/>
      <path class="cls-3" d="m84.87,101.22c.28.6.53,1.49.29,2.5,0,0,3.29-.22,2.9,3.19,0,0,3.96,2.52,1.1,4.88,0,0,.84,3.2-.88,4.82,0,0,.95-.23,1.63-.02.72-1.12,1.24-2.39,1.5-3.78.91-5.01-1.93-9.83-6.53-11.58Z"/>
      <path class="cls-7" d="m85.53,101.5c.31.66.87,1.57,1.92,2.63,2.1,2.13,3.54,4.53,2.85,6.66-.61,1.88-.97,4.57-.25,5.54.64-1.06,1.11-2.25,1.35-3.54.87-4.76-1.67-9.35-5.87-11.29Z"/>
      <path class="cls-6" d="m84.3,110.87c.03,1.89-1.38,3.45-3.15,3.48-1.77.03-3.23-1.48-3.26-3.38-.03-1.89,1.38-3.45,3.15-3.48,1.77-.03,3.23,1.48,3.26,3.38Z"/>
      <path class="cls-4" d="m82.75,110.89c.02.98-.71,1.78-1.63,1.8-.91.01-1.67-.77-1.68-1.74-.02-.98.71-1.78,1.63-1.8s1.67.77,1.68,1.74Z"/>
    </g>
  </g>
</svg>