<?xml version="1.0" encoding="UTF-8"?>
<svg id="OBJECTS" xmlns="http://www.w3.org/2000/svg" viewBox="0 0 525.4 456.02">
  <defs>
    <style>
      .cls-1 {
        fill: #e3eaf7;
      }

      .cls-2, .cls-3 {
        fill: #fff;
      }

      .cls-4 {
        fill: #ffb652;
      }

      .cls-5 {
        fill: #245472;
      }

      .cls-6 {
        fill: #a1c5eb;
      }

      .cls-7 {
        fill: #ea5c4c;
      }

      .cls-8 {
        fill: #3a739b;
      }

      .cls-9 {
        fill: #cbe3f8;
      }

      .cls-10 {
        fill: #2b2d5a;
      }

      .cls-3 {
        font-family: Montserrat-Bold, 'Montserrat Bold';
        font-size: 6.11px;
        font-weight: 700;
      }

      .cls-11 {
        fill: #ffb5b3;
      }

      .cls-12 {
        fill: #294066;
      }

      .cls-13 {
        fill: #b7c6dd;
      }

      .cls-14 {
        fill: #d93e53;
      }

      .cls-15 {
        opacity: .4;
      }

      .cls-16 {
        fill: #659ffb;
      }

      .cls-17 {
        fill: #162a45;
      }

      .cls-18 {
        opacity: .6;
      }

      .cls-19 {
        opacity: .3;
      }

      .cls-20 {
        fill: #ff847b;
      }

      .cls-21 {
        fill: #8bb7e4;
      }

      .cls-22 {
        opacity: .15;
      }

      .cls-23 {
        fill: #a83027;
      }

      .cls-24 {
        opacity: .25;
      }

      .cls-25 {
        fill: #ca5471;
      }

      .cls-26 {
        fill: #619ac9;
      }
    </style>
  </defs>
  <path class="cls-12" d="m55.18,272.65C13.74,225.13-12.15,158.28,5.76,95.43,20.26,44.55,70.05,1.92,124.67,7.56c45.42,4.69,73,45.35,109.61,67.61,22.2,13.5,47.6,21.6,73.58,22.55,47.1,1.72,94.7-22.94,127.71,25.1,29.56,43.01,8.79,103.64-20.04,141.22-30.68,40-76.86,66.75-125,79.97-32.8,9.01-67.68,12.09-101.39,6.82-50.18-7.85-98.59-37.65-133.95-78.19Z"/>
  <path class="cls-2" d="m348.29,134.56c-3.75.89-7.95-.51-10.42-3.47-2.46-2.96-3.08-7.35-1.52-10.88,1.56-3.53,5.22-6.02,9.07-6.19-.09-3.53,3.85-6.41,7.3-5.67.46-4.95,4.45-9.31,9.26-10.58,4.81-1.27,10.31.75,13.15,4.83,1.37-1.72,4.77-1.69,5.95.17,2.89-4.43,8.24-6.82,13.48-6.05,5.23.77,9.85,4.79,11.33,9.87,1.17-.83,2.9-.96,4.18-.31,1.28.65,2.14,2.04,2.16,3.47,5.06-2.15,11.78-.06,15.22,4.23,3.44,4.29,3.62,10.88.43,15.35-3.2,4.47-9.49,6.44-14.67,4.57-1.08,2.21-3.36,3.5-5.81,3.76-2.45.27-5-.81-6.53-2.74-1.98,3.74-5.91,6.38-10.11,6.83-4.21.46-8.59-1.29-11.33-4.52-.64,1.59-2.13,2.68-3.82,2.9-1.7.22-3.49-.54-4.51-1.91-3.27,2.94-8.02,4.26-12.38,3.61-4.35-.65-8.16-3.5-10.43-7.27Z"/>
  <path class="cls-2" d="m52.49,57.65c-3.45,1.69-7.87,1.49-10.9-.86-3.04-2.35-4.3-6.89-2.56-10.32,1.74-3.42,6.53-5.03,9.81-3.03-1.23-1.49-.68-3.94.43-5.52,1.1-1.58,3.31-2.3,5.13-1.66.8-6.48,5.98-12.34,12.27-14.08,6.3-1.75,13.53.64,17.56,5.78.95-1.71,2.91-2.89,4.85-3.12,1.94-.23,3.98.53,5.3,1.97,3.12-3.23,7.82-4.79,12.25-4.09,4.43.7,8.45,3.66,10.42,7.7,2.15-1.45,5.41-.73,6.81,1.45,3.37-1.93,7.59-1.85,11.02-.01,3.42,1.84,5.79,5.51,6.05,9.39,3.09-.23,6.73,1.93,7.71,4.87.98,2.94-.27,6.47-2.88,8.13-2.61,1.67-6.34,1.31-8.59-.81-.98,3.22-3.92,5.94-7.1,7.04-3.18,1.1-6.88.58-9.63-1.36-2.71,5.3-8.47,8.78-14.38,9.5s-12.11-1.66-16.02-6.16c-.95,1.6-3.28,2.19-5.14,2.23s-3.71-.93-4.72-2.49c-3.32,3.56-9.72,3.34-13.13-.13-1.98,1.55-4.79,1.72-7.26,1.22s-6.07-3.43-7.29-5.63Z"/>
  <g>
    <g>
      <polygon class="cls-6" points="127.99 416.89 104.55 416.89 113.78 128.24 118.76 128.24 127.99 416.89"/>
      <path class="cls-6" d="m119.36,129.39h-6.19c-.61,0-1.11-.76-1.11-1.7v-1.78c-.01-.95.48-1.72,1.09-1.72h6.23c.61,0,1.11.77,1.1,1.72v1.78c-.01.94-.51,1.7-1.12,1.7Z"/>
    </g>
    <g>
      <polygon class="cls-6" points="107.28 416.89 88.05 416.89 95.62 180.16 99.71 180.16 107.28 416.89"/>
      <path class="cls-6" d="m100.21,181.1h-5.08c-.5,0-.91-.62-.91-1.4v-1.46c-.01-.78.39-1.41.9-1.41h5.11c.5,0,.91.63.9,1.41v1.46c-.01.77-.42,1.4-.92,1.4Z"/>
    </g>
  </g>
  <path class="cls-6" d="m358.03,248.44c-.34-1.58-.67-3.17-.99-4.76-.22-1.08-.44-2.17-.66-3.26-.44-2.19-.86-4.38-1.27-6.58-.26-1.38-.52-2.77-.77-4.16-.18-.95-.35-1.9-.52-2.86-.16-.9-.32-1.81-.48-2.72-.36-2.05-.71-4.11-1.05-6.17-1.33-.2-2.66-.38-3.99-.55-.17-1.02-.35-2.03-.52-3.05-15.44-2.33-30.88-2.33-46.33,0-.17,1.02-.34,2.03-.52,3.05-1.33.17-2.66.35-3.99.55-.34,2.08-.7,4.16-1.06,6.23-.16.91-.32,1.82-.48,2.73-.17.96-.34,1.91-.52,2.87-.25,1.39-.51,2.78-.77,4.17-.41,2.2-.84,4.39-1.28,6.58-.21,1.1-.43,2.18-.65,3.27-.32,1.6-.65,3.18-.99,4.77-12.13,57.48-31.42,112.74-57.2,165.97h181.26c-25.8-53.26-45.09-108.56-57.22-166.08Z"/>
  <g>
    <g>
      <path class="cls-2" d="m323.5,55.4c-2.16,3.94-6.12,6.85-10.52,7.73-4.4.88-9.39-.29-12.9-3.09-3.85,6.82-11.11,11.59-18.89,12.41-7.78.82-15.29-2.1-20.48-7.96-2.17,2.99-5.85,4.82-9.55,4.74-3.69-.08-7.59-1.85-9.64-4.93-.82,5.14-5.2,9.51-10.38,9.99.99,2.39.71,5.27-.71,7.43-1.43,2.16-4.05,3.56-6.64,3.59,1.78,2.2,2.54,5.2,2.01,7.99-.53,2.78-2.33,5.3-4.79,6.7-2.35,1.34-5.15,1.64-7.86,1.57-2.52-.07-5.14-.48-7.2-1.93-2.24-1.59-3.54-4.29-3.76-7.02-.21-2.73.58-5.48,1.91-7.88-2.81.62-5.76-.6-7.34-3-1.58-2.4-1.52-5.78.16-8.12-3.9-4.56-5.23-11.32-3.76-17.14,1.46-5.82,5.88-10.81,11.47-12.98-1.66-8.31,1.73-17.39,8.6-22.35,6.87-4.96,16.67-5.49,24.04-1.3.99-3.1,4.01-5.65,7.16-6.45,3.15-.8,6.69.14,9.03,2.39,5.58-8.12,14.22-13.62,23.93-15.26s20.06.81,28,6.64c2.99-2.15,8.12-2.01,11.68-1.07,3.56.94,6.64,3.54,8.18,6.88,1.81-.89,4.17-.53,5.55.95,1.38,1.48,1.64,3.88.62,5.63,3.5-.38,7.4,1.2,9.61,3.95,2.21,2.74,2.9,6.63,1.78,9.97,3.15-.26,6.43,1.45,7.68,4.35s.45,6.56-1.89,8.67c-2.35,2.12-6.07,2.53-8.82.99-.03,3.54-1.81,7.15-4.91,8.86-3.1,1.72-8.35.92-11.37-.93Z"/>
      <path class="cls-2" d="m185.18,69.14c-5.94,0-5.95,9.23,0,9.23s5.95-9.23,0-9.23Z"/>
      <path class="cls-2" d="m185.91,58.28c-3.71,0-3.72,5.77,0,5.77s3.72-5.77,0-5.77Z"/>
      <path class="cls-2" d="m338.32,8.09c-3.71,0-3.72,5.77,0,5.77s3.72-5.77,0-5.77Z"/>
      <path class="cls-2" d="m348.54,12.38c-5.94,0-5.95,9.23,0,9.23s5.95-9.23,0-9.23Z"/>
      <path class="cls-2" d="m236.11,6.08c-3.71,0-3.72,5.77,0,5.77s3.72-5.77,0-5.77Z"/>
    </g>
    <g>
      <path class="cls-26" d="m253.15,107.39c-26.15-3.5-52.31-3.46-78.46.1.22-1.21.44-2.44.64-3.65.49-2.77.96-5.55,1.42-8.34,24.79-3.72,49.56-3.72,74.34,0,.45,2.75.92,5.51,1.41,8.25.21,1.21.43,2.43.64,3.63Z"/>
      <path class="cls-9" d="m359.35,415.4H68.51c41.37-85.07,72.31-173.37,91.78-265.23.54-2.54,1.07-5.07,1.59-7.62.36-1.73.71-3.47,1.05-5.22.7-3.5,1.39-7.01,2.05-10.52.42-2.22.84-4.44,1.24-6.66.28-1.53.56-3.05.83-4.58.26-1.45.52-2.91.77-4.36.58-3.31,1.15-6.63,1.7-9.96,29.61-4.44,59.21-4.44,88.81,0,.54,3.29,1.1,6.58,1.68,9.86.25,1.45.51,2.9.77,4.34.27,1.53.54,3.05.83,4.57.4,2.22.81,4.44,1.23,6.65.66,3.51,1.34,7.01,2.04,10.51.35,1.74.7,3.48,1.06,5.21.52,2.54,1.05,5.08,1.59,7.61,19.47,91.92,50.42,180.28,91.82,265.4Z"/>
      <g>
        <path class="cls-7" d="m260.78,115.45c-31.24-4.18-62.49-4.13-93.73.12.26-1.45.52-2.91.77-4.36.58-3.31,1.15-6.63,1.7-9.96,29.61-4.44,59.21-4.44,88.81,0,.54,3.29,1.1,6.58,1.68,9.86.25,1.45.51,2.9.77,4.34Z"/>
        <path class="cls-7" d="m262.84,126.67c-32.62-4.55-65.24-4.49-97.86.14.42-2.22.84-4.44,1.24-6.66,31.8-4.22,63.59-4.27,95.39-.13.4,2.22.81,4.44,1.23,6.65Z"/>
      </g>
    </g>
  </g>
  <g>
    <g>
      <path class="cls-8" d="m94.72,412.33c-.4,0-.73-.31-.75-.71l-18.71-335.25h-9.48l-18.71,335.25c-.02.41-.35.74-.79.71-.41-.02-.73-.38-.71-.79l18.75-335.96c.02-.4.35-.71.75-.71h10.9c.4,0,.73.31.75.71l18.75,335.96c.02.41-.29.77-.71.79-.01,0-.03,0-.04,0Z"/>
      <path class="cls-8" d="m47.04,399.31c-.29,0-.56-.16-.69-.44-.17-.38,0-.82.38-.99l44.53-19.93-41.96-26.39c-.22-.14-.35-.38-.35-.64,0-.26.14-.5.37-.64l39.22-23.34-36.62-21.87c-.22-.13-.36-.37-.37-.64,0-.26.13-.5.35-.64l34.21-21.43-31.81-20.56c-.2-.13-.33-.35-.34-.59-.01-.24.09-.47.27-.62l29.54-24.1-26.87-22.67c-.17-.14-.27-.35-.27-.57,0-.22.09-.43.26-.57l24.4-20.93-22.11-19.01c-.18-.15-.27-.37-.26-.6.01-.23.13-.44.32-.58l19.93-14.02-18.41-11.37c-.21-.13-.34-.35-.35-.59-.01-.24.09-.48.28-.63l17.15-13.56-15.66-11.87c-.18-.14-.29-.36-.3-.59,0-.23.1-.45.28-.6l14.3-11.36-13.04-9.63c-.19-.14-.3-.36-.3-.59,0-.23.1-.45.28-.6l12.02-9.63-10.89-10.35c-.3-.29-.31-.76-.03-1.06.28-.3.76-.31,1.06-.03l11.51,10.94c.16.15.24.36.23.58,0,.22-.11.42-.28.55l-11.93,9.56,13.04,9.63c.19.14.3.36.3.59,0,.23-.1.46-.28.6l-14.31,11.37,15.66,11.87c.18.14.29.36.3.59,0,.23-.1.45-.28.6l-17.07,13.5,18.46,11.41c.21.13.35.36.36.62,0,.25-.11.49-.32.64l-20.07,14.12,22.04,18.95c.17.14.26.35.26.57s-.1.43-.26.57l-24.4,20.93,26.89,22.68c.17.14.27.36.27.58,0,.22-.1.43-.28.58l-29.44,24.02,31.93,20.64c.22.14.34.38.34.64,0,.26-.13.49-.35.63l-34.17,21.4,36.65,21.89c.23.13.37.38.37.64s-.14.51-.37.64l-39.24,23.35,42.11,26.48c.23.15.37.41.35.69-.02.28-.19.52-.44.63l-45.81,20.5c-.1.04-.2.07-.31.07Z"/>
      <path class="cls-8" d="m94,399.31c-.1,0-.21-.02-.31-.07l-45.81-20.5c-.25-.11-.42-.36-.44-.63-.02-.28.11-.54.35-.69l42.11-26.48-39.24-23.35c-.23-.13-.37-.38-.37-.64s.14-.51.37-.64l36.65-21.89-34.17-21.4c-.22-.14-.35-.37-.35-.63,0-.26.13-.5.34-.64l31.93-20.64-29.44-24.02c-.17-.14-.27-.35-.28-.58,0-.22.1-.44.27-.58l26.89-22.68-24.4-20.93c-.17-.14-.26-.35-.26-.57s.1-.43.26-.57l22.04-18.95-20.07-14.12c-.21-.15-.33-.38-.32-.64,0-.25.14-.48.36-.62l18.46-11.41-17.07-13.5c-.18-.14-.29-.36-.28-.6,0-.23.11-.45.3-.59l15.66-11.87-14.31-11.37c-.18-.15-.29-.37-.28-.6,0-.23.12-.45.3-.59l13.04-9.63-11.93-9.56c-.17-.14-.27-.34-.28-.55,0-.22.08-.43.23-.58l11.51-10.94c.3-.29.77-.27,1.06.03.29.3.27.77-.03,1.06l-10.89,10.35,12.02,9.63c.18.15.29.37.28.6,0,.23-.12.45-.3.59l-13.04,9.63,14.3,11.36c.18.14.29.36.28.6,0,.23-.11.45-.3.59l-15.66,11.87,17.15,13.56c.19.15.3.39.28.63-.01.24-.15.47-.35.59l-18.41,11.37,19.93,14.02c.19.13.31.35.32.58.01.23-.08.45-.26.6l-22.11,19.01,24.4,20.93c.17.14.26.35.26.57,0,.22-.1.43-.27.57l-26.87,22.67,29.54,24.1c.19.15.29.38.27.62-.01.24-.14.46-.34.59l-31.81,20.56,34.21,21.43c.22.14.35.38.35.64,0,.26-.14.5-.37.64l-36.62,21.87,39.22,23.34c.22.13.36.37.37.64,0,.26-.13.5-.35.64l-41.96,26.39,44.53,19.93c.38.17.55.61.38.99-.12.28-.4.44-.69.44Z"/>
    </g>
    <g>
      <path class="cls-8" d="m70.52,108.24s-.09,0-.13-.01l-44.21-7.85c-.36-.06-.62-.37-.62-.74v-2.91c0-.41.34-.75.75-.75h88.42c.41,0,.75.34.75.75v2.91c0,.36-.26.67-.62.74l-44.21,7.85s-.09.01-.13.01Zm-43.46-9.23l43.46,7.72,43.46-7.72v-1.53H27.06v1.53Z"/>
      <path class="cls-8" d="m26.31,112.57c-.41,0-.75-.34-.75-.75v-15.09c0-.28.15-.53.4-.66.24-.13.54-.11.77.04l5.44,3.69,7.24-3.74c.32-.16.71-.08.93.2l4.45,5.63,9.14-5.8c.3-.19.7-.14.95.12l9.03,9.49c.29.3.27.77-.03,1.06-.3.29-.77.27-1.06-.03l-8.6-9.05-9.19,5.84c-.33.21-.75.13-.99-.17l-4.49-5.68-7.08,3.66c-.25.13-.54.11-.77-.05l-4.64-3.15v13.68c0,.41-.34.75-.75.75Z"/>
      <path class="cls-8" d="m114.73,112.57c-.41,0-.75-.34-.75-.75v-13.68l-4.64,3.15c-.23.15-.52.17-.77.05l-7.08-3.66-4.49,5.68c-.24.3-.67.37-.99.17l-9.19-5.84-8.6,9.05c-.29.3-.76.31-1.06.03-.3-.29-.31-.76-.03-1.06l9.03-9.49c.25-.26.64-.31.95-.12l9.14,5.8,4.45-5.63c.22-.28.61-.37.93-.2l7.24,3.74,5.44-3.69c.23-.16.53-.17.77-.04.25.13.4.38.4.66v15.09c0,.41-.34.75-.75.75Z"/>
    </g>
    <g>
      <path class="cls-8" d="m119.11,214.51H21.93c-.41,0-.75-.34-.75-.75v-3.2c0-.36.26-.67.62-.74l48.59-8.63c.09-.02.18-.02.26,0l48.59,8.63c.36.06.62.37.62.74v3.2c0,.41-.34.75-.75.75Zm-96.43-1.5h95.68v-1.82l-47.84-8.5-47.84,8.5v1.82Z"/>
      <path class="cls-8" d="m21.93,228.57c-.41,0-.75-.34-.75-.75v-14.06c0-.27.14-.52.38-.65l7.01-4.01c.23-.13.52-.13.75,0l6.43,3.71,5.76-6.33c.13-.15.32-.24.52-.24.19-.01.39.06.54.2l6.84,6.26,7.92-9.01c.27-.31.75-.34,1.06-.07.31.27.34.75.07,1.06l-8.43,9.59c-.13.15-.32.24-.52.25-.2,0-.4-.06-.55-.2l-6.85-6.27-5.66,6.22c-.24.26-.62.32-.93.14l-6.58-3.8-6.26,3.58v13.63c0,.41-.34.75-.75.75Z"/>
      <path class="cls-8" d="m119.11,228.57c-.41,0-.75-.34-.75-.75v-13.63l-6.26-3.58-6.58,3.8c-.31.18-.69.12-.93-.14l-5.66-6.22-6.85,6.27c-.15.14-.35.2-.55.2-.2-.01-.39-.1-.52-.25l-8.43-9.59c-.27-.31-.24-.79.07-1.06.31-.27.78-.24,1.06.07l7.92,9.01,6.84-6.26c.15-.13.34-.2.54-.2.2,0,.39.1.52.24l5.76,6.33,6.43-3.71c.23-.13.52-.13.75,0l7.01,4.01c.23.13.38.38.38.65v14.06c0,.41-.34.75-.75.75Z"/>
    </g>
    <g>
      <path class="cls-8" d="m137.23,165.25H3.81c-.41,0-.75-.34-.75-.75v-4.4c0-.38.28-.69.65-.74l66.71-8.8c.07,0,.13,0,.2,0l66.71,8.8c.37.05.65.37.65.74v4.4c0,.41-.34.75-.75.75Zm-132.66-1.5h131.91v-2.99l-65.96-8.7-65.96,8.7v2.99Z"/>
      <g>
        <path class="cls-8" d="m3.81,176.84c-.41,0-.75-.34-.75-.75v-15.98c0-.27.14-.51.37-.65.23-.13.51-.14.74,0l7.5,4.16,8.39-6.31c.26-.2.62-.2.89,0l8.66,6.25,9.85-8.77c.28-.25.71-.25,1,0l9.78,8.67,9.97-11.35c.27-.31.75-.34,1.06-.07.31.27.34.75.07,1.06l-10.47,11.91c-.13.15-.32.24-.52.25-.2.01-.39-.06-.54-.19l-9.84-8.72-9.81,8.72c-.26.23-.65.25-.94.05l-8.7-6.28-8.33,6.27c-.24.18-.56.2-.81.06l-6.81-3.78v14.71c0,.41-.34.75-.75.75Z"/>
        <path class="cls-8" d="m3.81,165.25c-.23,0-.46-.11-.61-.31-.24-.34-.17-.8.17-1.05l7.48-5.38c.24-.17.56-.19.81-.04l8.76,5.1,7.4-7.23c.25-.24.64-.28.93-.1l11.41,7.29,8.82-9.95c.14-.15.33-.25.54-.25.2,0,.41.07.55.22l10.56,10.43c.29.29.3.77,0,1.06-.29.29-.77.3-1.06,0l-10-9.87-8.72,9.84c-.24.28-.65.33-.97.13l-11.45-7.31-7.38,7.22c-.24.24-.61.28-.9.11l-8.83-5.14-7.08,5.1c-.13.1-.29.14-.44.14Z"/>
      </g>
      <g>
        <path class="cls-8" d="m137.23,176.84c-.41,0-.75-.34-.75-.75v-14.71l-6.81,3.78c-.26.14-.58.12-.81-.06l-8.33-6.27-8.7,6.28c-.29.2-.67.19-.94-.05l-9.81-8.72-9.84,8.72c-.15.13-.35.2-.54.19-.2-.01-.38-.1-.52-.25l-10.47-11.91c-.27-.31-.24-.79.07-1.06.31-.27.78-.24,1.06.07l9.97,11.35,9.78-8.67c.28-.25.71-.25,1,0l9.85,8.77,8.66-6.25c.27-.19.63-.19.89,0l8.38,6.31,7.5-4.16c.23-.13.52-.12.74,0,.23.14.37.38.37.65v15.98c0,.41-.34.75-.75.75Z"/>
        <path class="cls-8" d="m137.23,165.25c-.15,0-.31-.05-.44-.14l-7.08-5.1-8.83,5.14c-.29.17-.66.12-.9-.11l-7.38-7.22-11.45,7.31c-.31.2-.72.14-.97-.13l-8.72-9.84-10,9.87c-.29.29-.77.29-1.06,0-.29-.29-.29-.77,0-1.06l10.56-10.43c.15-.14.35-.22.55-.22.21,0,.4.1.54.25l8.82,9.95,11.41-7.29c.29-.19.68-.15.93.1l7.4,7.23,8.76-5.1c.25-.15.57-.13.81.04l7.48,5.38c.34.24.41.71.17,1.05-.15.2-.38.31-.61.31Z"/>
      </g>
    </g>
  </g>
  <g>
    <g>
      <polygon class="cls-8" points="341.36 376.38 322.14 376.38 329.08 122 334.42 122 341.36 376.38"/>
      <g>
        <g>
          <g>
            <polygon class="cls-21" points="352 132.12 333.33 127.77 332.15 122.29 405.56 106.46 406.18 109.32 394.89 114.08 352 132.12"/>
            <polygon class="cls-7" points="394.89 114.08 393.8 108.99 405.56 106.46 406.18 109.32 394.89 114.08"/>
          </g>
          <g>
            <polygon class="cls-21" points="327.62 103.95 333.19 122.29 329.03 126.05 278.61 70.39 280.79 68.42 290.55 75.82 327.62 103.95"/>
            <polygon class="cls-7" points="290.55 75.82 286.69 79.31 278.61 70.39 280.79 68.42 290.55 75.82"/>
          </g>
          <g>
            <polygon class="cls-21" points="315.42 139.14 328.51 125.15 333.85 126.87 310.86 198.36 308.06 197.47 309.59 185.32 315.42 139.14"/>
            <polygon class="cls-7" points="309.59 185.32 314.54 186.91 310.86 198.36 308.06 197.47 309.59 185.32"/>
          </g>
        </g>
        <circle class="cls-2" cx="331.68" cy="125.07" r="4.85"/>
      </g>
    </g>
    <g>
      <polygon class="cls-8" points="391.98 376.38 377.75 376.38 382.88 184.11 386.85 184.11 391.98 376.38"/>
      <g>
        <g>
          <g>
            <polygon class="cls-21" points="397.26 176.44 387.16 186.42 383.25 184.99 402.35 132.72 404.39 133.47 402.9 142.42 397.26 176.44"/>
            <polygon class="cls-7" points="402.9 142.42 399.29 141.1 402.35 132.72 404.39 133.47 402.9 142.42"/>
          </g>
          <g>
            <polygon class="cls-21" points="369.97 180.58 383.66 184.34 384.38 188.43 329.57 198.03 329.2 195.89 337.69 192.7 369.97 180.58"/>
            <polygon class="cls-7" points="337.69 192.7 338.35 196.49 329.57 198.03 329.2 195.89 337.69 192.7"/>
          </g>
          <g>
            <polygon class="cls-21" points="387.2 202.14 383.61 188.4 386.8 185.73 422.51 228.4 420.85 229.8 413.84 224.04 387.2 202.14"/>
            <polygon class="cls-7" points="413.84 224.04 416.79 221.56 422.51 228.4 420.85 229.8 413.84 224.04"/>
          </g>
        </g>
        <path class="cls-2" d="m388.19,187.62c-.68,1.86-2.74,2.82-4.61,2.14-1.86-.68-2.82-2.74-2.14-4.61s2.74-2.82,4.61-2.14c1.86.68,2.82,2.74,2.14,4.61Z"/>
      </g>
    </g>
  </g>
  <g>
    <g>
      <g>
        <path class="cls-2" d="m296.03,203.86c0-46.05-37.65-83.3-83.85-82.66-45.48.63-82.18,38.48-81.48,83.96.42,27.12,13.9,51.07,34.42,65.85l.04.42c1.54,15.28,8.14,29.62,18.76,40.71h58.86c10.62-11.1,17.22-25.43,18.76-40.71l.04-.42c20.85-15.01,34.43-39.49,34.43-67.14Z"/>
        <g>
          <polygon class="cls-9" points="216.87 278.55 214.33 256.67 213.36 256.67 212.38 256.67 209.84 278.55 197.92 285.33 201.2 312.14 213.36 312.14 225.51 312.14 228.8 285.33 216.87 278.55"/>
          <g>
            <g>
              <polygon class="cls-17" points="203.49 310.47 197.8 266.78 173.12 221.59 174 221.11 198.77 266.46 198.78 266.55 204.48 310.34 203.49 310.47"/>
              <polygon class="cls-17" points="206.85 310.44 205.79 297.19 213.36 297.19 213.36 298.19 206.87 298.19 207.85 310.36 206.85 310.44"/>
              <polygon class="cls-17" points="223.22 310.47 222.23 310.34 227.94 266.46 227.99 266.38 252.71 221.11 253.59 221.59 228.91 266.78 223.22 310.47"/>
              <polygon class="cls-17" points="219.86 310.44 218.87 310.36 219.84 298.19 213.36 298.19 213.36 297.19 220.93 297.19 219.86 310.44"/>
            </g>
            <path class="cls-4" d="m194.34,229.01c-1.32,0-2.68-.64-3.65-1.78-1.07-1.26-1.5-2.86-1.82-4.03-1.37-5.02-2.7-10.83-1.2-16.4.12-.45.27-.9.44-1.34-.64-.72-1.31-1.33-2.01-1.84-2.04-1.51-4.49-2.14-6.54-1.7-3.68.79-5.95,4.82-6.29,8.39-.39,4.11,1.06,8.39,2.33,12.16.27.78-.16,1.64-.94,1.9-.78.27-1.64-.16-1.9-.94-1.37-4.06-2.93-8.66-2.48-13.41.43-4.52,3.32-9.9,8.64-11.04,2.93-.63,6.19.18,8.96,2.22.58.43,1.13.9,1.67,1.43,2.43-3.74,6.52-6.51,11.15-5.95,3.16.39,6.15,2.32,8.24,5.32,2.31-3.3,5.96-6.17,10.23-5.5,2.51.4,4.37,1.86,5.71,3.51,2.23-2.44,5.21-4.21,8.62-3.74,2.61.36,5,2.05,6.52,4.57,3.21-2.39,6.72-3.34,9.77-2.61,5.04,1.2,7.79,6.54,7.9,11.18.11,4.67-1.8,9.01-3.49,12.84-.33.76-1.22,1.1-1.98.77-.76-.33-1.1-1.22-.77-1.98,1.56-3.54,3.33-7.56,3.23-11.56-.08-3.41-2.07-7.49-5.59-8.33-3.24-.78-6.44,1.4-7.83,2.53.52,1.71.76,3.66.73,5.92-.05,4.73-1.16,9.48-3.2,13.75-1.14,2.37-2.88,3.52-4.68,3.08-.88-.22-2.42-1.02-2.86-3.96-1.07-7.05,1.44-14.54,6.45-19.6-1.03-1.98-2.79-3.37-4.62-3.62-2.51-.34-4.83,1.33-6.51,3.4.44.85.75,1.63.96,2.21,2.27,6.37,1.89,13.52-1.03,19.62-.97,2.02-2.49,2.99-4.07,2.59-1.79-.46-2.3-2.35-2.47-2.97-1.85-6.84-.96-14.34,2.42-20.57.19-.34.39-.68.6-1.02-.99-1.4-2.4-2.74-4.29-3.04-3.4-.54-6.42,2.52-8.11,5.53.75,1.74,1.31,3.74,1.73,6.11.73,4.19.84,8.45.34,12.67-.38,3.23-2.04,3.99-3,4.16-1.94.34-3.64-1.16-4.31-3.84-1.58-6.32-.89-13.25,1.89-19.14-.22-.4-.45-.78-.69-1.14-1.58-2.32-3.9-3.88-6.21-4.16-3.63-.45-6.94,2.15-8.72,5.37.64.88,1.27,1.86,1.88,2.95,2.48,4.41,4.11,9.18,4.83,14.19.48,3.3-.44,5.69-2.52,6.56-.47.2-.96.29-1.47.29Zm-4-20.48c-.92,4.59.24,9.55,1.42,13.88.33,1.21.63,2.19,1.22,2.89.47.55,1.22.85,1.67.66.83-.35.9-2.03.71-3.37-.67-4.64-2.17-9.06-4.48-13.14-.18-.32-.36-.62-.54-.92Zm18.47.55c-1.51,4.58-1.72,9.62-.56,14.28.24.96.7,1.56.88,1.61.1-.05.41-.5.53-1.56.47-3.93.36-7.91-.32-11.81-.16-.9-.34-1.74-.54-2.53Zm15.82-3.4c-2.7,5.4-3.36,11.78-1.78,17.62.12.44.23.66.3.78.15-.13.4-.42.63-.91,2.58-5.38,2.91-11.69.91-17.31-.02-.05-.04-.11-.06-.17Zm14.12.47c-3.63,4.34-5.38,10.25-4.54,15.86.16,1.05.48,1.47.61,1.5.16.05.75-.41,1.26-1.47,1.86-3.87,2.86-8.19,2.91-12.48.01-1.25-.06-2.39-.23-3.41Z"/>
          </g>
        </g>
      </g>
      <g>
        <path class="cls-5" d="m201.2,368.32h24.31v3.7c0,2.4-1.95,4.36-4.36,4.36h-15.59c-2.4,0-4.36-1.95-4.36-4.36v-3.7h0Z"/>
        <path class="cls-26" d="m186.77,319.18h53.17v42.81c0,5.72-4.64,10.37-10.37,10.37h-32.44c-5.72,0-10.37-4.64-10.37-10.37v-42.81h0Z"/>
        <path class="cls-5" d="m182.21,310.4h62.29v5.64c0,3.25-2.64,5.89-5.89,5.89h-50.52c-3.25,0-5.89-2.64-5.89-5.89v-5.64h0Z"/>
        <g>
          <rect class="cls-21" x="184.69" y="341.19" width="57.34" height="8.72" rx="3" ry="3"/>
          <rect class="cls-21" x="184.69" y="328.22" width="57.34" height="8.72" rx="3" ry="3"/>
          <rect class="cls-21" x="184.69" y="354.16" width="57.34" height="8.72" rx="3" ry="3"/>
        </g>
      </g>
    </g>
    <g>
      <g>
        <path class="cls-7" d="m408.95,417.11h-161.56c-1.38,0-2.5-1.12-2.5-2.5s1.12-2.5,2.5-2.5h161.56c2.48,0,4.49-2.01,4.49-4.49s-2.01-4.49-4.49-4.49h-75.68c-4.45,0-8.07-3.62-8.07-8.07s3.62-8.07,8.07-8.07h56.44c5.98,0,10.84-4.86,10.84-10.84s-4.86-10.84-10.84-10.84h-29.01c-7.87,0-14.26-6.4-14.26-14.26v-11.8c0-1.38,1.12-2.5,2.5-2.5s2.5,1.12,2.5,2.5v11.8c0,5.11,4.16,9.26,9.26,9.26h29.01c8.74,0,15.84,7.11,15.84,15.84s-7.11,15.84-15.84,15.84h-56.44c-1.69,0-3.07,1.38-3.07,3.07s1.38,3.07,3.07,3.07h75.68c5.23,0,9.49,4.26,9.49,9.49s-4.26,9.49-9.49,9.49Z"/>
        <g>
          <rect class="cls-23" x="247.39" y="412.11" width=".5" height="5"/>
          <path class="cls-23" d="m407.62,417.11h-1v-5h1v5Zm-4.99,0h-1v-5h1v5Zm-4.99,0h-1v-5h1v5Zm-4.99,0h-1v-5h1v5Zm-4.99,0h-1v-5h1v5Zm-4.99,0h-1v-5h1v5Zm-4.99,0h-1v-5h1v5Zm-4.99,0h-1v-5h1v5Zm-4.99,0h-1v-5h1v5Zm-4.99,0h-1v-5h1v5Zm-4.99,0h-1v-5h1v5Zm-4.99,0h-1v-5h1v5Zm-4.99,0h-1v-5h1v5Zm-4.99,0h-1v-5h1v5Zm-4.99,0h-1v-5h1v5Zm-4.99,0h-1v-5h1v5Zm-4.99,0h-1v-5h1v5Zm-4.99,0h-1v-5h1v5Zm-4.99,0h-1v-5h1v5Zm-4.99,0h-1v-5h1v5Zm-4.99,0h-1v-5h1v5Zm-4.99,0h-1v-5h1v5Zm-4.99,0h-1v-5h1v5Zm-4.99,0h-1v-5h1v5Zm-4.99,0h-1v-5h1v5Zm-4.99,0h-1v-5h1v5Zm-4.99,0h-1v-5h1v5Zm-4.99,0h-1v-5h1v5Zm-4.99,0h-1v-5h1v5Zm-4.99,0h-1v-5h1v5Zm-4.99,0h-1v-5h1v5Zm-4.99,0h-1v-5h1v5Zm159.6-.68l-1.87-4.64c.2-.08.39-.17.58-.28l2.51,4.32c-.39.23-.8.43-1.22.59Zm4.9-4.46l-4.45-2.29c.1-.19.18-.39.25-.59l4.73,1.63c-.15.42-.33.84-.53,1.24Zm-4.07-5.41c-.05-.21-.12-.42-.2-.62l4.65-1.84c.17.42.3.85.41,1.28l-4.86,1.18Zm-1.76-2.6c-.17-.12-.36-.24-.55-.34l2.31-4.44c.4.21.79.45,1.15.7l-2.9,4.07Zm-3.27-.83h-1v-5h1v5Zm-4.99,0h-1v-5h1v5Zm-4.99,0h-1v-5h1v5Zm-4.99,0h-1v-5h1v5Zm-4.99,0h-1v-5h1v5Zm-4.99,0h-1v-5h1v5Zm-4.99,0h-1v-5h1v5Zm-4.99,0h-1v-5h1v5Zm-4.99,0h-1v-5h1v5Zm-4.99,0h-1v-5h1v5Zm-4.99,0h-1v-5h1v5Zm-4.99,0h-1v-5h1v5Zm-4.99,0h-1v-5h1v5Zm-4.99,0h-1v-5h1v5Zm-4.99,0h-1v-5h1v5Zm-4.99,0h-.15c-.41,0-.82-.03-1.22-.09l.75-4.94c.15.02.31.04.47.04h.15v5Zm-6.31-2.87c-.31-.37-.59-.77-.83-1.18l4.33-2.49c.09.16.2.31.32.45l-3.82,3.22Zm3.16-5.79l-4.9-.97c.09-.47.23-.93.4-1.38l4.66,1.82c-.07.17-.12.35-.16.53Zm1.6-2.13l-2.31-4.44c.43-.22.88-.41,1.34-.55l1.47,4.78c-.17.05-.34.12-.5.21Zm54.65-.34h-1v-5h1v5Zm-4.99,0h-1v-5h1v5Zm-4.99,0h-1v-5h1v5Zm-4.99,0h-1v-5h1v5Zm-4.99,0h-1v-5h1v5Zm-4.99,0h-1v-5h1v5Zm-4.99,0h-1v-5h1v5Zm-4.99,0h-1v-5h1v5Zm-4.99,0h-1v-5h1v5Zm-4.99,0h-1v-5h1v5Zm-4.99,0h-1v-5h1v5Zm54.05-.03l-.29-4.99c.27-.02.54-.04.81-.08l.66,4.96c-.39.05-.78.09-1.18.11Zm5.72-1.44l-2.11-4.54c.25-.11.49-.24.72-.37l2.43,4.37c-.34.19-.69.37-1.05.54Zm4.79-3.43l-3.62-3.45c.19-.2.37-.4.54-.61l3.85,3.19c-.25.3-.51.59-.78.88Zm3.21-4.93l-4.62-1.9c.1-.25.19-.5.28-.75l4.76,1.54c-.12.38-.26.75-.41,1.12Zm1.18-5.78l-5-.07v-.17c0-.22,0-.43-.02-.64l4.99-.3c.02.31.03.62.03.94v.24Zm-5.68-4.05c-.1-.25-.2-.51-.31-.75l4.54-2.09c.16.36.32.72.46,1.09l-4.68,1.76Zm-2.09-3.44c-.18-.2-.37-.4-.56-.58l3.45-3.62c.29.27.56.56.83.85l-3.71,3.35Zm-3.21-2.45c-.24-.12-.49-.23-.74-.34l1.91-4.62c.36.15.72.31,1.07.49l-2.24,4.47Zm-3.87-1.1c-.27-.02-.54-.04-.82-.04l.09-5c.4,0,.79.03,1.17.06l-.44,4.98Zm-4.77-.04h-1v-5h1v5Zm-4.99,0h-1v-5h1v5Zm-4.99,0h-1v-5h1v5Zm-4.99,0h-1v-5h1v5Zm-4.99,0h-1v-5h1v5Zm-4.99,0h-.27c-.29,0-.59,0-.88-.03l.3-4.99c.19.01.38.02.57.02h.27v5Zm-5.84-1.13c-.37-.16-.74-.33-1.09-.52l2.34-4.42c.23.12.47.23.71.34l-1.96,4.6Zm-4.91-3.46c-.27-.29-.53-.6-.78-.92l3.94-3.07c.16.21.33.41.51.6l-3.67,3.39Zm-3.06-5.17c-.13-.38-.24-.77-.33-1.17l4.86-1.16c.06.25.13.5.21.75l-4.74,1.58Zm4.27-5.71h-5v-1h5v1Zm0-4.99h-5v-1h5v1Z"/>
          <rect class="cls-23" x="346.43" y="339.24" width="5" height=".5"/>
        </g>
      </g>
      <g>
        <path class="cls-6" d="m166.08,349.2h94.55c4.72,0,8.56,3.83,8.56,8.56v57.29h-111.67v-57.29c0-4.72,3.83-8.56,8.56-8.56Z"/>
        <path class="cls-8" d="m154.8,406.1h117.12c4.21,0,7.63,3.42,7.63,7.63v3.31h-132.39v-3.31c0-4.21,3.42-7.63,7.63-7.63Z"/>
        <g>
          <rect class="cls-26" x="157.52" y="362.88" width="111.67" height="7.39"/>
          <rect class="cls-26" x="157.52" y="372.69" width="111.67" height="5.02"/>
        </g>
        <g>
          <rect class="cls-26" x="188.85" y="381.29" width="46.78" height="20.39"/>
          <g>
            <g>
              <rect class="cls-7" x="190.75" y="383.32" width="42.99" height="16.33"/>
              <rect class="cls-23" x="212.24" y="383.32" width="21.5" height="16.33"/>
              <rect class="cls-23" x="190.75" y="383.32" width="5.1" height="16.33"/>
            </g>
            <text class="cls-3" transform="translate(218.87 393.8)"><tspan x="0" y="0">ON</tspan></text>
            <text class="cls-3" transform="translate(198.72 393.8)"><tspan x="0" y="0">OFF</tspan></text>
          </g>
        </g>
      </g>
    </g>
    <g>
      <path class="cls-21" d="m422.52,381.55h-141.62v-47.13h141.62v47.13Zm-133.62-8h125.62v-31.13h-125.62v31.13Z"/>
      <g>
        <g>
          <polygon class="cls-6" points="438.69 338.43 264.74 338.43 293.36 253.51 410.07 253.51 438.69 338.43"/>
          <g>
            <g>
              <path class="cls-26" d="m330.79,257.43l-1.75,14.85c-.05.44-.36.84-.83,1.17-.74.52-1.9.86-3.16.86h-29.91c-1.26,0-2.27-.34-2.78-.86-.34-.33-.47-.74-.33-1.17l4.62-14.85c.02-.07.05-.14.09-.2.46-.85,2.09-1.5,3.83-1.5h27.04c1.74,0,3.09.65,3.18,1.5.01.07.01.14,0,.2Z"/>
              <path class="cls-26" d="m328.29,278.66l-2.22,18.81c-.11.89-.94,1.69-2.12,2.16-.71.29-1.56.46-2.44.46h-33.88c-.88,0-1.65-.17-2.24-.46-.98-.47-1.47-1.27-1.19-2.16l5.85-18.81c.2-.63.86-1.2,1.76-1.59.77-.34,1.72-.55,2.7-.55h30.25c.97,0,1.84.2,2.46.55.73.39,1.15.95,1.07,1.59Z"/>
              <path class="cls-26" d="m325.09,305.65l-2.91,24.59c-.03.24-.1.48-.19.71-.64,1.57-2.76,2.77-5.12,2.77h-39.07c-2.36,0-3.96-1.2-3.93-2.77,0-.23.04-.47.11-.71l7.65-24.59c.16-.5.5-.97,1-1.37,1-.83,2.56-1.38,4.16-1.38h34.32c1.6,0,2.93.56,3.57,1.38.32.4.47.87.41,1.37Z"/>
              <path class="cls-26" d="m368.8,257.43l1.43,14.85c.04.44-.17.84-.58,1.17-.63.52-1.72.86-2.98.86h-29.9c-1.27,0-2.35-.34-2.98-.86-.41-.33-.62-.74-.58-1.17l1.43-14.85c0-.07.02-.14.05-.2.27-.85,1.77-1.5,3.51-1.5h27.04c1.74,0,3.23.65,3.51,1.5.03.07.04.14.05.2Z"/>
              <path class="cls-26" d="m370.84,278.66l1.81,18.81c.09.89-.57,1.69-1.65,2.16-.66.29-1.46.46-2.35.46h-33.88c-.89,0-1.7-.17-2.35-.46-1.08-.47-1.74-1.27-1.65-2.16l1.81-18.81c.06-.63.6-1.2,1.42-1.59.7-.34,1.61-.55,2.59-.55h30.24c.98,0,1.88.2,2.59.55.81.39,1.35.95,1.42,1.59Z"/>
              <path class="cls-26" d="m373.45,305.65l2.37,24.59c.02.24,0,.48-.04.71-.31,1.57-2.17,2.77-4.53,2.77h-39.06c-2.37,0-4.23-1.2-4.53-2.77-.05-.23-.06-.47-.04-.71l2.37-24.59c.05-.5.3-.97.7-1.37.82-.83,2.26-1.38,3.87-1.38h34.31c1.6,0,3.05.56,3.86,1.38.41.4.66.87.71,1.37Z"/>
              <path class="cls-26" d="m406.79,257.43l4.62,14.85c.14.44,0,.84-.33,1.17-.51.52-1.53.86-2.79.86h-29.9c-1.26,0-2.42-.34-3.16-.86-.48-.33-.78-.74-.83-1.17l-1.75-14.85c0-.07,0-.14,0-.2.1-.85,1.46-1.5,3.19-1.5h27.04c1.74,0,3.38.65,3.83,1.5.04.07.07.14.09.2Z"/>
              <path class="cls-26" d="m413.39,278.66l5.85,18.81c.28.89-.21,1.69-1.19,2.16-.59.29-1.37.46-2.25.46h-33.88c-.89,0-1.72-.17-2.45-.46-1.18-.47-2.01-1.27-2.12-2.16l-2.22-18.81c-.07-.63.34-1.2,1.07-1.59.63-.34,1.49-.55,2.47-.55h30.24c.98,0,1.93.2,2.71.55.9.39,1.56.95,1.76,1.59Z"/>
              <path class="cls-26" d="m421.79,305.65l7.65,24.59c.08.24.11.48.11.71.03,1.57-1.57,2.77-3.94,2.77h-39.06c-2.36,0-4.48-1.2-5.13-2.77-.1-.23-.16-.47-.19-.71l-2.91-24.59c-.06-.5.1-.97.42-1.37.63-.83,1.97-1.38,3.57-1.38h34.31c1.61,0,3.17.56,4.17,1.38.49.4.84.87,1,1.37Z"/>
            </g>
            <g>
              <rect class="cls-9" x="334.69" y="257.1" width="34.06" height=".25"/>
              <rect class="cls-9" x="372.64" y="257.1" width="34.06" height=".25"/>
              <rect class="cls-9" x="296.73" y="257.1" width="34.06" height=".25"/>
              <rect class="cls-9" x="334.51" y="258.6" width="34.41" height=".25"/>
              <rect class="cls-9" x="372.79" y="258.6" width="34.41" height=".25"/>
              <rect class="cls-9" x="296.24" y="258.6" width="34.4" height=".25"/>
              <rect class="cls-9" x="334.37" y="260.13" width="34.7" height=".25"/>
              <rect class="cls-9" x="372.97" y="260.13" width="34.7" height=".25"/>
              <rect class="cls-9" x="295.77" y="260.13" width="34.7" height=".25"/>
              <rect class="cls-9" x="334.22" y="261.68" width="35" height=".25"/>
              <rect class="cls-9" x="373.15" y="261.68" width="35" height=".25"/>
              <rect class="cls-9" x="295.28" y="261.68" width="34.99" height=".25"/>
              <rect class="cls-9" x="334.06" y="263.26" width="35.31" height=".25"/>
              <rect class="cls-9" x="373.34" y="263.26" width="35.31" height=".25"/>
              <rect class="cls-9" x="294.79" y="263.26" width="35.3" height=".25"/>
              <rect class="cls-9" x="333.91" y="264.86" width="35.62" height=".25"/>
              <rect class="cls-9" x="373.53" y="264.86" width="35.62" height=".25"/>
              <rect class="cls-9" x="294.29" y="264.86" width="35.61" height=".25"/>
              <rect class="cls-9" x="333.75" y="266.5" width="35.93" height=".25"/>
              <rect class="cls-9" x="373.72" y="266.5" width="35.93" height=".25"/>
              <rect class="cls-9" x="293.78" y="266.5" width="35.92" height=".25"/>
              <rect class="cls-9" x="333.59" y="268.16" width="36.25" height=".25"/>
              <rect class="cls-9" x="373.92" y="268.16" width="36.25" height=".25"/>
              <rect class="cls-9" x="293.27" y="268.16" width="36.25" height=".25"/>
              <rect class="cls-9" x="333.43" y="269.85" width="36.58" height=".25"/>
              <rect class="cls-9" x="374.12" y="269.85" width="36.58" height=".25"/>
              <rect class="cls-9" x="292.74" y="269.85" width="36.57" height=".25"/>
              <rect class="cls-9" x="333.26" y="271.58" width="36.91" height=".25"/>
              <rect class="cls-9" x="374.32" y="271.58" width="36.91" height=".25"/>
              <rect class="cls-9" x="292.2" y="271.58" width="36.9" height=".25"/>
              <rect class="cls-9" x="333.79" y="273.33" width="35.86" height=".25"/>
              <rect class="cls-9" x="375.22" y="273.33" width="35.86" height=".25"/>
              <rect class="cls-9" x="292.35" y="273.33" width="35.85" height=".25"/>
              <rect class="cls-9" x="334.01" y="276.94" width="35.42" height=".25"/>
              <rect class="cls-9" x="376.22" y="276.94" width="35.42" height=".25"/>
              <rect class="cls-9" x="291.8" y="276.94" width="35.42" height=".25"/>
              <rect class="cls-9" x="332.57" y="278.8" width="38.3" height=".25"/>
              <rect class="cls-9" x="375.17" y="278.8" width="38.3" height=".25"/>
              <rect class="cls-9" x="289.96" y="278.8" width="38.3" height=".25"/>
              <rect class="cls-9" x="332.38" y="280.69" width="38.67" height=".25"/>
              <rect class="cls-9" x="375.4" y="280.69" width="38.67" height=".25"/>
              <rect class="cls-9" x="289.37" y="280.69" width="38.66" height=".25"/>
              <rect class="cls-9" x="332.2" y="282.62" width="39.04" height=".25"/>
              <rect class="cls-9" x="375.62" y="282.62" width="39.04" height=".25"/>
              <rect class="cls-9" x="288.77" y="282.62" width="39.03" height=".25"/>
              <rect class="cls-9" x="332.01" y="284.59" width="39.42" height=".25"/>
              <rect class="cls-9" x="375.86" y="284.59" width="39.42" height=".25"/>
              <rect class="cls-9" x="288.16" y="284.59" width="39.41" height=".25"/>
              <rect class="cls-9" x="331.81" y="286.59" width="39.81" height=".25"/>
              <rect class="cls-9" x="376.09" y="286.59" width="39.81" height=".25"/>
              <rect class="cls-9" x="287.53" y="286.59" width="39.8" height=".25"/>
              <rect class="cls-9" x="331.62" y="288.64" width="40.2" height=".25"/>
              <rect class="cls-9" x="376.34" y="288.64" width="40.2" height=".25"/>
              <rect class="cls-9" x="286.9" y="288.64" width="40.19" height=".25"/>
              <rect class="cls-9" x="331.42" y="290.72" width="40.6" height=".25"/>
              <rect class="cls-9" x="376.58" y="290.72" width="40.6" height=".25"/>
              <rect class="cls-9" x="286.25" y="290.72" width="40.6" height=".25"/>
              <rect class="cls-9" x="331.21" y="292.84" width="41.01" height=".25"/>
              <rect class="cls-9" x="376.83" y="292.84" width="41.01" height=".25"/>
              <rect class="cls-9" x="285.59" y="292.84" width="41.01" height=".25"/>
              <rect class="cls-9" x="331" y="295.02" width="41.43" height=".25"/>
              <rect class="cls-9" x="377.09" y="295.02" width="41.43" height=".25"/>
              <rect class="cls-9" x="284.91" y="295.02" width="41.42" height=".25"/>
              <rect class="cls-9" x="330.79" y="297.23" width="41.86" height=".25"/>
              <rect class="cls-9" x="377.35" y="297.23" width="41.86" height=".25"/>
              <rect class="cls-9" x="284.22" y="297.23" width="41.85" height=".25"/>
              <rect class="cls-9" x="332.43" y="299.5" width="38.57" height=".25"/>
              <rect class="cls-9" x="379.48" y="299.5" width="38.57" height=".25"/>
              <rect class="cls-9" x="285.38" y="299.5" width="38.57" height=".25"/>
              <rect class="cls-9" x="330.69" y="304.16" width="42.05" height=".25"/>
              <rect class="cls-9" x="378.75" y="304.16" width="42.05" height=".25"/>
              <rect class="cls-9" x="282.64" y="304.16" width="42.05" height=".25"/>
              <rect class="cls-9" x="329.89" y="306.57" width="43.66" height=".25"/>
              <rect class="cls-9" x="378.45" y="306.57" width="43.66" height=".25"/>
              <rect class="cls-9" x="281.32" y="306.57" width="43.65" height=".25"/>
              <rect class="cls-9" x="329.65" y="309.03" width="44.14" height=".25"/>
              <rect class="cls-9" x="378.74" y="309.03" width="44.14" height=".25"/>
              <rect class="cls-9" x="280.55" y="309.03" width="44.13" height=".25"/>
              <rect class="cls-9" x="379.04" y="311.54" width="44.62" height=".25"/>
              <rect class="cls-9" x="329.41" y="311.54" width="44.62" height=".25"/>
              <rect class="cls-9" x="279.77" y="311.54" width="44.61" height=".25"/>
              <rect class="cls-9" x="329.16" y="314.12" width="45.12" height=".25"/>
              <rect class="cls-9" x="379.35" y="314.12" width="45.12" height=".25"/>
              <rect class="cls-9" x="278.97" y="314.12" width="45.11" height=".25"/>
              <rect class="cls-9" x="328.91" y="316.75" width="45.62" height=".25"/>
              <rect class="cls-9" x="379.66" y="316.75" width="45.62" height=".25"/>
              <rect class="cls-9" x="278.15" y="316.75" width="45.62" height=".25"/>
              <rect class="cls-9" x="328.65" y="319.44" width="46.14" height=".25"/>
              <rect class="cls-9" x="379.97" y="319.44" width="46.14" height=".25"/>
              <rect class="cls-9" x="277.32" y="319.44" width="46.13" height=".25"/>
              <rect class="cls-9" x="328.38" y="322.19" width="46.68" height=".25"/>
              <rect class="cls-9" x="380.3" y="322.19" width="46.68" height=".25"/>
              <rect class="cls-9" x="276.46" y="322.19" width="46.67" height=".25"/>
              <rect class="cls-9" x="328.11" y="325" width="47.22" height=".25"/>
              <rect class="cls-9" x="380.63" y="325" width="47.22" height=".25"/>
              <rect class="cls-9" x="275.59" y="325" width="47.21" height=".25"/>
              <rect class="cls-9" x="327.83" y="327.88" width="47.77" height=".25"/>
              <rect class="cls-9" x="380.97" y="327.88" width="47.77" height=".25"/>
              <rect class="cls-9" x="274.69" y="327.88" width="47.76" height=".25"/>
              <rect class="cls-9" x="327.65" y="330.83" width="48.13" height=".25"/>
              <rect class="cls-9" x="381.43" y="330.83" width="48.13" height=".25"/>
              <rect class="cls-9" x="273.88" y="330.83" width="48.12" height=".25"/>
            </g>
          </g>
        </g>
        <rect class="cls-8" x="264.74" y="338.43" width="173.95" height="8.05"/>
      </g>
    </g>
  </g>
  <g>
    <rect class="cls-5" x="82.06" y="261.87" width="38.33" height="12.98"/>
    <g>
      <rect class="cls-9" x="62.44" y="276.82" width="77.58" height="137.07" rx="8.61" ry="8.61"/>
      <path class="cls-26" d="m131.41,416.89h-60.37c-6.4,0-11.61-5.21-11.61-11.61v-119.86c0-6.4,5.21-11.61,11.61-11.61h60.37c6.4,0,11.61,5.21,11.61,11.61v119.86c0,6.4-5.21,11.61-11.61,11.61Zm-60.37-137.07c-3.09,0-5.61,2.51-5.61,5.61v119.86c0,3.09,2.51,5.61,5.61,5.61h60.37c3.09,0,5.61-2.51,5.61-5.61v-119.86c0-3.09-2.51-5.61-5.61-5.61h-60.37Z"/>
    </g>
    <rect class="cls-23" x="68.02" y="394.27" width="66.41" height="13.95"/>
    <rect class="cls-7" x="68.02" y="377.54" width="66.41" height="13.95"/>
    <rect class="cls-20" x="68.02" y="360.81" width="66.41" height="13.95"/>
    <rect class="cls-11" x="68.02" y="344.08" width="66.41" height="13.95"/>
  </g>
  <path class="cls-16" d="m523.22,262.32l-15.22,50.85c-.2.67-.43,1.33-.68,1.97-.04.1-.07.2-.12.3-.23.57-.48,1.15-.75,1.7l-63.49,131.72c-1.96,4.06-6.39,6.33-10.83,5.53l-160.16-28.54c-3.85-.69-6.96-3.54-7.96-7.32l-1.46-5.48c-.5-1.87-.44-3.83.14-5.64.24-.76.57-1.5,1-2.2l74.91-122.53.29-.48,17.81-50.39c1.73-4.88,6.61-7.91,11.75-7.3l139.86,16.81c5.56.67,10.6,3.79,13.42,8.63,1.12,1.91,1.95,4.16,2.15,6.74.15,1.89-.12,3.79-.66,5.61"/>
  <path class="cls-13" d="m523.22,262.32l-15.22,50.85c-.23.77-.5,1.53-.79,2.27l-10.3-10.34-158.3-22.41.29-.48,17.81-50.39c1.73-4.88,6.61-7.91,11.75-7.3l139.86,16.81c5.56.67,10.6,3.79,13.42,8.63.13.21.25.44.37.66.09.18.19.36.27.55.08.17.16.34.24.52.09.2.18.41.26.62,0,0,0,0,0,0,.52,1.33.88,2.79,1,4.38.15,1.89-.12,3.79-.66,5.61"/>
  <g class="cls-18">
    <path class="cls-1" d="m496.91,305.09l-.44,2.24-149.27-20.04c-3.98-.54-7.89,1.33-9.99,4.75l-71.46,116.89c-1.43,2.34-2.7-1.11-1.99,1.55l2.31,11.76c.02.09.06.18.08.27-.98-1.14-1.72-2.49-2.12-4l-1.46-5.48c-.71-2.66-.3-5.49,1.14-7.83l74.91-122.53,158.3,22.41Z"/>
  </g>
  <path class="cls-2" d="m522.87,252.32c-2.92-4.05-7.5-6.66-12.52-7.26l-139.86-16.81c-5.14-.62-8.85.04-10.58,4.93l-17.99,49.97,154.99,21.95-158.3-22.41.29-.48,17.81-50.39c1.73-4.88,6.61-7.91,11.75-7.3l139.86,16.81c5.56.67,10.6,3.79,13.42,8.63.13.21.25.44.37.66.09.18.19.36.27.55.08.17.16.34.24.52.09.2.18.41.26.62"/>
  <g class="cls-19">
    <path class="cls-10" d="m495.59,308.88c-2.34,4.1-4.88,8.43-7.56,12.69l2.23-1.59-56.45,114.94s-1.14,5.62-8.53,4.27l-127.65-23.53h0c-6.95-.28-13.16-.84-18.41-1.47-5.46-.66-9.79-1.39-12.78-1.95l1.4,5.27c.61,2.28,2.5,4.03,4.83,4.44l160.16,28.54c.11.02.23.04.35.05,2.59.31,5.1-1.06,6.23-3.41l61.71-128.01c.9-1.88.53-4.12-.93-5.6l-4.6-4.65Zm-14.59,23.11c-5.82,7.96-12.02,14.59-18.13,17.38l-8.07,15.52c-.7,1.36-2.2,2.1-3.71,1.85l-4.95-.84c-2.72,2.4-5.48,4.7-8.26,6.88l4.58.76c.8.13,1.52.53,2.06,1.1,0,0,0,0,.01.01.48.37.86.85,1.12,1.43l.27.61c.47,1.06.42,2.27-.14,3.28l-9.48,17.24c-.77,1.4-2.37,2.15-3.94,1.84l-20.84-4.06c-1.37-.27-2.47-1.28-2.85-2.62l-.14-.49c-7.68,4.06-15.38,7.47-23.02,10.33-.11.05-.23.09-.34.13.05.1.1.2.15.3l.26.58c.22.49.32,1.02.31,1.55h0c-.02.54-.15,1.08-.42,1.57l-8.91,16.47c-.71,1.32-2.18,2.03-3.66,1.8-.14-.01-.28-.03-.41-.05l-20.48-3.84c-1.34-.26-2.43-1.24-2.81-2.55l-.36-1.21c-.29-1-.13-2.08.42-2.96l1.32-2.07c-3.46.65-6.88,1.21-10.23,1.68l-1.62,2.99c-.72,1.34-2.24,2.06-3.74,1.78l-15.01-2.82c-1.99.1-3.95.18-5.87.23l110.2,19.37c2.69.47,5.37-.88,6.6-3.32l50.08-99.83Zm-55.54,80.34l-9.23,17.05c-.75,1.4-2.32,2.14-3.88,1.85l-20.57-3.86c-1.35-.26-2.45-1.24-2.83-2.56l-.35-1.22c-.3-1.01-.14-2.09.42-2.97l10.01-15.73c.78-1.23,2.21-1.87,3.65-1.64l19.87,3.16c1.21.19,2.25.98,2.75,2.1l.27.6c.47,1.04.43,2.23-.11,3.23"/>
  </g>
  <path class="cls-2" d="m385.88,404.77c.02-.52-.08-1.06-.31-1.55l-.26-.58c-.05-.1-.1-.2-.15-.3.11-.04.23-.09.34-.13l.14.3c.32.71.4,1.5.24,2.26"/>
  <g class="cls-19">
    <path class="cls-10" d="m511.11,242.22s-12.76,51.5-120.27,44.93l100.79,13.87c1.85.25,3.62-.85,4.19-2.63l12.78-39.33s4.56-13.45,2.51-16.84"/>
  </g>
  <g class="cls-19">
    <path class="cls-10" d="m496.91,305.09l16.92-53.25s7.02,1.47,5.36,9.37l-15.48,50.71-6.81-6.83Z"/>
  </g>
  <g class="cls-19">
    <g>
      <path class="cls-10" d="m360.43,318.17l8.63-16.61c.51-.97.53-2.13.06-3.12l-.27-.57c-.51-1.07-1.51-1.81-2.69-1.98l-19.23-2.73c-1.39-.2-2.76.45-3.49,1.64l-9.41,15.35c-.53.86-.66,1.91-.36,2.88l.36,1.17c.39,1.27,1.46,2.2,2.77,2.43l19.92,3.4c1.51.26,3.01-.49,3.71-1.84"/>
      <path class="cls-10" d="m398.35,323.76l8.63-16.61c.51-.97.53-2.13.06-3.12l-.27-.58c-.51-1.07-1.51-1.81-2.69-1.98l-19.23-2.73c-1.39-.2-2.76.45-3.49,1.64l-9.41,15.35c-.53.86-.66,1.91-.36,2.88l.36,1.17c.39,1.27,1.46,2.2,2.77,2.43l19.92,3.4c1.51.26,3.01-.49,3.71-1.84"/>
      <path class="cls-10" d="m436.27,329.36l8.63-16.61c.51-.97.53-2.13.06-3.12l-.27-.58c-.51-1.07-1.51-1.81-2.69-1.98l-19.23-2.73c-1.39-.2-2.76.45-3.49,1.64l-9.41,15.35c-.53.86-.66,1.91-.36,2.88l.36,1.17c.39,1.27,1.46,2.2,2.77,2.43l19.92,3.4c1.51.26,3.01-.49,3.71-1.84"/>
      <path class="cls-10" d="m341.9,347.85l8.63-16.61c.51-.97.53-2.13.06-3.12l-.27-.58c-.51-1.07-1.51-1.81-2.69-1.98l-19.23-2.73c-1.39-.2-2.76.45-3.49,1.64l-9.41,15.35c-.53.86-.66,1.91-.36,2.88l.36,1.17c.39,1.27,1.46,2.2,2.77,2.43l19.92,3.4c1.51.26,3.01-.49,3.71-1.84"/>
      <path class="cls-10" d="m379.82,353.45l8.63-16.61c.51-.97.53-2.13.06-3.12l-.27-.58c-.51-1.07-1.51-1.81-2.69-1.98l-19.23-2.73c-1.39-.2-2.76.45-3.49,1.64l-9.41,15.35c-.53.86-.66,1.91-.36,2.88l.36,1.17c.39,1.27,1.46,2.2,2.77,2.43l19.92,3.4c1.51.26,3.01-.49,3.71-1.84"/>
      <path class="cls-10" d="m417.74,359.05l8.63-16.61c.51-.97.53-2.13.06-3.12l-.27-.57c-.51-1.07-1.51-1.81-2.69-1.98l-19.23-2.73c-1.39-.2-2.76.45-3.49,1.64l-9.41,15.35c-.53.86-.66,1.91-.36,2.88l.36,1.17c.39,1.27,1.46,2.2,2.77,2.43l19.92,3.4c1.51.26,3.01-.49,3.71-1.84"/>
      <path class="cls-10" d="m322.36,379.56l9.02-16.4c.53-.96.58-2.12.13-3.12l-.26-.58c-.48-1.08-1.47-1.85-2.64-2.04l-19.16-3.18c-1.38-.23-2.77.38-3.53,1.56l-9.77,15.12c-.55.85-.71,1.89-.43,2.87l.33,1.18c.36,1.28,1.41,2.24,2.71,2.49l19.83,3.87c1.5.29,3.02-.42,3.75-1.76"/>
      <path class="cls-10" d="m360.22,385.33l9.02-16.4c.53-.96.58-2.12.13-3.12l-.26-.58c-.48-1.08-1.47-1.85-2.64-2.04l-19.16-3.18c-1.38-.23-2.77.38-3.53,1.56l-9.77,15.12c-.55.85-.7,1.89-.43,2.87l.33,1.18c.36,1.28,1.41,2.24,2.71,2.49l19.83,3.87c1.5.29,3.02-.42,3.75-1.76"/>
      <path class="cls-10" d="m398,391.83l9.02-16.4c.53-.96.58-2.12.13-3.12l-.26-.58c-.48-1.08-1.47-1.85-2.64-2.04l-19.16-3.18c-1.38-.23-2.77.38-3.53,1.56l-9.77,15.12c-.55.85-.7,1.89-.43,2.87l.33,1.18c.36,1.28,1.41,2.24,2.71,2.49l19.83,3.87c1.5.29,3.02-.42,3.75-1.76"/>
      <path class="cls-10" d="m303.3,411.13l8.91-16.46c.52-.97.56-2.12.11-3.12l-.26-.58c-.49-1.08-1.48-1.84-2.65-2.03l-19.19-3.05c-1.38-.22-2.77.4-3.52,1.59l-9.66,15.19c-.54.85-.69,1.9-.41,2.87l.34,1.17c.37,1.27,1.42,2.23,2.73,2.47l19.86,3.73c1.5.28,3.01-.44,3.74-1.78"/>
      <path class="cls-10" d="m475.77,335.51l8.63-16.61c.51-.97.53-2.13.06-3.12l-.27-.57c-.51-1.07-1.51-1.81-2.69-1.98l-19.23-2.73c-1.39-.2-2.76.45-3.49,1.64l-9.41,15.35c-.53.86-.66,1.91-.36,2.88l.36,1.17c.39,1.27,1.46,2.2,2.77,2.43l19.92,3.4c1.51.26,3.01-.49,3.71-1.84"/>
    </g>
  </g>
  <path class="cls-10" d="m427.17,440.9c-.49,0-.98-.04-1.48-.13l-163.68-29.88c-.8-.15-1.34-.92-1.19-1.72.15-.8.92-1.34,1.72-1.19l163.67,29.88c2.43.43,4.89-.82,5.99-3.03l64.55-131.44,15.43-51.58c.48-1.62.56-3.27.23-4.78-.56-2.56-1.96-3.95-4.28-4.22-.81-.1-1.39-.83-1.29-1.65.1-.81.84-1.39,1.65-1.29,3.56.43,5.99,2.75,6.82,6.53.44,2,.34,4.17-.29,6.27l-15.47,51.69c-.02.08-.05.15-.09.23l-64.61,131.55c-1.46,2.94-4.49,4.77-7.69,4.77Z"/>
  <path class="cls-10" d="m507.07,316.37c-.38,0-.76-.15-1.05-.44l-9.21-9.33-157.96-22.4c-.81-.11-1.37-.86-1.26-1.67.11-.81.86-1.38,1.67-1.26l158.46,22.47c.32.05.62.2.85.43l9.56,9.68c.57.58.57,1.52-.01,2.09-.29.28-.66.43-1.04.43Z"/>
  <path class="cls-10" d="m438.24,455.04c-.53,0-1.05-.29-1.31-.79l-7.86-14.9c-.38-.72-.1-1.62.62-2,.72-.38,1.62-.1,2,.62l7.86,14.9c.38.72.1,1.62-.62,2-.22.12-.46.17-.69.17Z"/>
  <path class="cls-10" d="m433.89,456.02c-.67,0-1.34-.06-2.01-.18l-160.16-28.54c-4.4-.78-7.98-4.08-9.13-8.4l-1.46-5.48c-.81-3.03-.33-6.31,1.31-8.99l75.12-122.87,17.76-50.24c1.97-5.58,7.45-8.98,13.33-8.28l139.86,16.81c6.11.73,11.54,4.23,14.52,9.35,1.35,2.32,2.14,4.8,2.34,7.37h0c.15,1.98-.09,4.05-.72,6.15l-15.22,50.84c-.43,1.43-.98,2.84-1.63,4.2l-63.49,131.71c-1.94,4.03-6.05,6.53-10.41,6.53Zm-66.78-230.1c-4.03,0-7.63,2.5-9.01,6.39l-17.86,50.53-.08.13-75.2,123.01c-1.22,1.99-1.57,4.43-.97,6.68l1.46,5.48c.85,3.21,3.52,5.66,6.79,6.24l160.16,28.54c3.77.68,7.57-1.27,9.24-4.72l63.49-131.71c.58-1.21,1.07-2.48,1.46-3.76l15.22-50.84c.53-1.76.73-3.46.6-5.08h0c-.16-2.12-.82-4.18-1.95-6.11-2.52-4.33-7.13-7.28-12.32-7.91l-139.86-16.81c-.39-.05-.78-.07-1.17-.07Z"/>
  <path class="cls-10" d="m503.04,254.12l-11.53,37.89c-.62,2.05-2.58,3.34-4.64,3.05l-51.05-7.11-15.83-2.2-15.35-2.14-32.61-4.54-16.84-2.35c-2.65-.37-4.28-3.15-3.39-5.76l12.05-35.31c.67-1.94,2.54-3.15,4.51-2.92l131.15,15.76c2.62.31,4.31,3.01,3.52,5.62"/>
  <path class="cls-25" d="m428.19,261.6c-.16,0-.32-.03-.48-.08-.77-.26-1.19-1.1-.93-1.88l2.8-8.23-9.06-1.19-1.42,3.99c-.27.77-1.12,1.17-1.89.9-.77-.27-1.17-1.12-.9-1.89l1.82-5.11c.23-.66.9-1.06,1.59-.97l12.03,1.58c.44.06.83.31,1.07.69.23.38.29.84.14,1.26l-3.38,9.94c-.21.62-.79,1-1.4,1Z"/>
  <path class="cls-25" d="m422.48,278.4c-.16,0-.32-.03-.48-.08-.77-.26-1.19-1.1-.93-1.88l3.67-10.8c.26-.77,1.11-1.19,1.88-.93.77.26,1.19,1.1.93,1.88l-3.67,10.8c-.21.62-.79,1-1.4,1Z"/>
  <path class="cls-25" d="m481.56,287.01c-.16,0-.32-.03-.48-.08-.77-.27-1.19-1.11-.92-1.88l9.46-27.56c.27-.77,1.11-1.18,1.88-.92.77.27,1.19,1.11.92,1.88l-9.46,27.56c-.21.61-.79,1-1.4,1Z"/>
  <path class="cls-25" d="m401.05,275.59c-.06,0-.13,0-.19-.01l-13.4-1.75c-.44-.06-.84-.31-1.07-.69-.23-.38-.28-.85-.13-1.27l4.02-11.38c.27-.77,1.12-1.18,1.89-.9.77.27,1.18,1.12.9,1.89l-3.41,9.65,10.38,1.36,3.31-9.65c.27-.77,1.11-1.18,1.88-.92.77.27,1.19,1.11.92,1.88l-3.71,10.79c-.21.6-.77,1-1.4,1Z"/>
  <path class="cls-25" d="m406.82,258.8c-.16,0-.32-.03-.48-.08-.77-.27-1.19-1.11-.92-1.88l2.82-8.22-10.15-1.33-3.11,8.79c-.27.77-1.12,1.17-1.89.9-.77-.27-1.18-1.12-.9-1.89l3.51-9.92c.23-.66.89-1.07,1.59-.97l13.14,1.72c.44.06.83.31,1.07.69.23.38.29.84.14,1.26l-3.41,9.94c-.21.61-.79,1-1.4,1Z"/>
  <path class="cls-25" d="m460.13,283.33c-.06,0-.13,0-.19-.01l-9.76-1.28c-.81-.11-1.38-.85-1.28-1.66.11-.81.85-1.38,1.66-1.28l8.56,1.12,8.48-24.7-8.05-1.05c-.81-.11-1.38-.85-1.28-1.66.11-.81.85-1.38,1.66-1.28l9.85,1.29c.44.06.83.31,1.07.69.23.38.29.84.14,1.26l-9.46,27.56c-.21.6-.78,1-1.4,1Z"/>
  <path class="cls-25" d="m485.55,275.38c-.06,0-.13,0-.19-.01l-11.85-1.55c-.44-.06-.83-.31-1.07-.69-.23-.38-.29-.84-.14-1.26l5.46-15.94c.27-.77,1.11-1.18,1.88-.92.77.27,1.19,1.11.92,1.88l-4.87,14.22,10.05,1.32c.81.11,1.38.85,1.28,1.66-.1.75-.73,1.29-1.47,1.29Z"/>
  <path class="cls-25" d="m459.02,268.78c-.06,0-.13,0-.19-.01l-4.27-.56c-.81-.11-1.38-.85-1.28-1.66.11-.81.85-1.38,1.66-1.28l4.27.56c.81.11,1.38.85,1.28,1.66-.1.75-.73,1.29-1.47,1.29Z"/>
  <path class="cls-25" d="m448.37,264.24c-.16,0-.32-.03-.48-.08-.77-.26-1.19-1.1-.93-1.88l2.8-8.23-9.06-1.19-1.42,3.99c-.27.77-1.12,1.17-1.89.9-.77-.27-1.17-1.12-.9-1.89l1.82-5.11c.23-.66.89-1.06,1.59-.97l12.04,1.58c.44.06.83.31,1.07.69.23.38.29.84.14,1.26l-3.38,9.94c-.21.62-.79,1-1.4,1Z"/>
  <path class="cls-25" d="m442.65,281.04c-.16,0-.32-.03-.48-.08-.77-.26-1.19-1.1-.93-1.88l3.67-10.8c.26-.77,1.11-1.19,1.88-.93.77.26,1.19,1.1.93,1.88l-3.67,10.8c-.21.62-.79,1-1.4,1Z"/>
  <path class="cls-25" d="m410.53,275.98l-.93-.11c-.61-.07-.98-.62-.82-1.22l.24-.92c.16-.6.78-1.03,1.39-.95l.93.11c.61.07.98.62.82,1.22l-.24.92c-.16.6-.78,1.03-1.39.95"/>
  <g class="cls-22">
    <polygon class="cls-1" points="447.13 242.2 404.64 283.61 372.03 279.07 413.96 238.22 447.13 242.2"/>
  </g>
  <g class="cls-22">
    <polygon class="cls-1" points="478.85 246.01 435.82 287.95 420 285.75 462.75 244.08 478.85 246.01"/>
  </g>
  <g class="cls-15">
    <path class="cls-1" d="m354.27,275.24l12.05-35.31c.66-1.94,2.54-3.16,4.51-2.92l131.15,15.76c.44.05.85.18,1.23.35.16-2.26-1.41-4.35-3.7-4.63l-131.15-15.76c-1.97-.24-3.85.98-4.51,2.92l-12.05,35.31c-.75,2.21.3,4.53,2.24,5.42.03-.38.1-.76.23-1.14"/>
  </g>
  <path class="cls-10" d="m487.45,296.64c-.26,0-.53-.02-.79-.05l-131.68-18.33c-1.69-.23-3.17-1.21-4.08-2.68-.94-1.53-1.14-3.39-.56-5.1l12.05-35.31c.89-2.61,3.48-4.27,6.15-3.95h0l131.15,15.76c1.67.2,3.17,1.14,4.1,2.57.97,1.49,1.23,3.32.7,5.04l-11.53,37.88c-.77,2.52-3.02,4.18-5.53,4.18Zm-119.58-62.39c-1.14,0-2.16.75-2.56,1.91l-12.05,35.31c-.29.84-.19,1.75.27,2.49.43.7,1.1,1.14,1.88,1.25l131.68,18.33c1.3.18,2.55-.65,2.95-1.98l11.53-37.88c.26-.84.13-1.74-.34-2.46-.44-.68-1.11-1.1-1.89-1.19l-131.15-15.76c-.1-.01-.21-.02-.31-.02Z"/>
  <path class="cls-2" d="m376.9,419.87l8.91-16.46c.52-.97.56-2.12.11-3.12l-.26-.58c-.49-1.08-1.48-1.84-2.65-2.03l-19.19-3.05c-1.38-.22-2.77.4-3.52,1.59l-9.66,15.19c-.54.85-.69,1.9-.41,2.87l.34,1.17c.37,1.27,1.43,2.23,2.73,2.47l19.86,3.73c1.5.28,3.01-.44,3.74-1.78"/>
  <g class="cls-24">
    <path class="cls-10" d="m371.49,415.22l-10.76-1.92c8.04.34,11.09.18,17.11-7.81l-5.07,9.13c-.25.45-.76.7-1.27.61"/>
  </g>
  <g class="cls-24">
    <path class="cls-10" d="m385.82,403.4l-8.91,16.47c-.72,1.34-2.24,2.06-3.74,1.78l-19.86-3.73c-1.3-.25-2.36-1.2-2.72-2.47l-.35-1.17c-.18-.61-.18-1.24-.03-1.84.24.1.49.19.75.24l1.46.27c.64.12,1.28.22,1.92.29,1.33.16,2.65.22,3.97.2l14.4,2.7,6.78-12.35c1.53-1.69,2.87-3.58,3.98-5.65.05-.1.1-.21.15-.32.9.31,1.65.98,2.05,1.87l.26.58c.45,1,.41,2.15-.11,3.12"/>
  </g>
  <path class="cls-10" d="m372.53,418.1c-.13,0-.27-.01-.4-.04l-22.2-4.03c-.56-.1-.93-.64-.83-1.2.1-.56.64-.93,1.2-.83l22.2,4.03c.08.01.15-.02.19-.09l10.18-18.29c.28-.5.91-.68,1.41-.4.5.28.68.91.4,1.41l-10.18,18.29c-.4.72-1.16,1.15-1.96,1.15Z"/>
  <path class="cls-10" d="m375.25,422.43c-.39,0-.76-.22-.93-.59l-1.88-3.95c-.25-.52-.03-1.13.49-1.38.51-.24,1.13-.03,1.38.49l1.88,3.95c.25.52.03,1.13-.49,1.38-.14.07-.29.1-.44.1Z"/>
  <path class="cls-10" d="m373.82,423.26c-.31,0-.63-.03-.94-.09l-19.86-3.73c-1.89-.35-3.39-1.72-3.93-3.56l-.34-1.17c-.41-1.4-.19-2.9.59-4.13l9.66-15.19c1.08-1.7,3.07-2.6,5.07-2.28l19.19,3.05c1.69.27,3.12,1.36,3.82,2.92l.26.58c.65,1.43.59,3.11-.16,4.5l-8.91,16.46h0c-.9,1.66-2.61,2.66-4.45,2.66Zm-10.55-27.12c-.67,0-1.29.34-1.66.91l-9.66,15.19c-.3.48-.39,1.06-.23,1.6l.34,1.18c.21.72.79,1.25,1.52,1.38l19.86,3.73c.84.16,1.68-.24,2.09-1l8.91-16.46c.29-.54.31-1.19.06-1.74l-.26-.58c-.27-.6-.83-1.03-1.48-1.13l-19.18-3.05c-.1-.02-.21-.02-.31-.02Zm13.63,23.73h0,0Z"/>
  <path class="cls-2" d="m339.13,413.29l8.91-16.46c.52-.97.56-2.12.11-3.12l-.26-.58c-.49-1.08-1.48-1.84-2.65-2.03l-19.19-3.05c-1.38-.22-2.77.4-3.52,1.59l-9.66,15.19c-.54.85-.69,1.9-.41,2.87l.34,1.17c.37,1.27,1.42,2.23,2.73,2.47l19.86,3.73c1.5.28,3.01-.44,3.74-1.78"/>
  <g class="cls-24">
    <path class="cls-10" d="m333.71,408.64l-10.76-1.92c8.04.34,11.09.18,17.11-7.81l-5.07,9.13c-.25.45-.76.7-1.28.61"/>
  </g>
  <g class="cls-24">
    <path class="cls-10" d="m348.04,396.82l-8.91,16.47c-.72,1.34-2.24,2.06-3.74,1.78l-19.86-3.73c-1.3-.25-2.36-1.2-2.73-2.47l-.35-1.17c-.18-.61-.18-1.25-.03-1.84.24.1.49.19.75.24l1.46.27c.64.12,1.28.22,1.92.3,1.33.16,2.65.22,3.97.2l14.4,2.7,6.78-12.35c1.53-1.69,2.87-3.58,3.98-5.65.05-.1.1-.21.15-.32.9.31,1.65.98,2.05,1.87l.26.58c.45,1,.41,2.15-.11,3.12"/>
  </g>
  <path class="cls-10" d="m334.75,411.53c-.13,0-.27-.01-.4-.04l-22.2-4.03c-.56-.1-.93-.64-.83-1.2.1-.56.64-.93,1.2-.83l22.2,4.03c.08.01.15-.02.19-.09l10.18-18.29c.28-.5.91-.68,1.41-.4.5.28.68.91.4,1.41l-10.18,18.29c-.4.72-1.16,1.15-1.96,1.15Z"/>
  <path class="cls-10" d="m337.47,415.86c-.39,0-.76-.22-.93-.59l-1.88-3.95c-.25-.52-.03-1.13.49-1.38.51-.24,1.13-.03,1.38.49l1.88,3.95c.25.52.03,1.13-.49,1.38-.14.07-.29.1-.44.1Z"/>
  <path class="cls-10" d="m336.04,416.68c-.31,0-.63-.03-.95-.09l-19.86-3.73c-1.89-.35-3.39-1.72-3.93-3.56l-.34-1.17c-.41-1.4-.19-2.91.59-4.13l9.66-15.19c1.08-1.7,3.08-2.6,5.07-2.28l19.19,3.05c1.69.27,3.12,1.36,3.82,2.92l.26.58c.65,1.43.59,3.11-.16,4.5l-8.91,16.46c-.9,1.66-2.61,2.66-4.45,2.66Zm-10.55-27.12c-.67,0-1.29.34-1.66.91l-9.66,15.19c-.3.48-.39,1.06-.23,1.6l.34,1.17c.21.72.79,1.25,1.52,1.38l19.86,3.73c.85.16,1.68-.24,2.09-1h0l8.91-16.46c.29-.54.31-1.19.06-1.74l-.26-.58c-.27-.6-.83-1.03-1.48-1.13l-19.18-3.05c-.1-.02-.21-.02-.31-.02Z"/>
  <path class="cls-2" d="m301.26,407.41l8.91-16.46c.52-.97.56-2.12.11-3.12l-.26-.58c-.49-1.08-1.48-1.84-2.65-2.03l-19.19-3.05c-1.38-.22-2.77.4-3.52,1.59l-9.66,15.19c-.54.85-.69,1.9-.41,2.87l.34,1.17c.37,1.27,1.42,2.23,2.73,2.47l19.86,3.73c1.5.28,3.01-.44,3.74-1.78"/>
  <g class="cls-24">
    <path class="cls-10" d="m295.85,402.76l-10.76-1.92c8.04.34,11.09.18,17.11-7.81l-5.07,9.13c-.25.45-.76.7-1.28.61"/>
  </g>
  <g class="cls-24">
    <path class="cls-10" d="m310.17,390.94l-8.91,16.47c-.72,1.34-2.24,2.06-3.74,1.78l-19.86-3.73c-1.3-.25-2.36-1.2-2.72-2.47l-.35-1.17c-.18-.61-.18-1.25-.03-1.84.24.1.49.19.75.24l1.46.27c.64.12,1.28.22,1.92.29,1.33.16,2.65.22,3.97.2l14.4,2.7,6.78-12.35c1.53-1.69,2.87-3.58,3.98-5.65.05-.1.1-.21.15-.32.9.31,1.65.98,2.05,1.87l.26.58c.45,1,.41,2.15-.11,3.12"/>
  </g>
  <path class="cls-10" d="m296.89,405.64c-.13,0-.27-.01-.4-.04l-22.2-4.03c-.56-.1-.93-.64-.83-1.2.1-.56.64-.93,1.2-.83l22.2,4.03c.08.01.15-.02.19-.09l10.18-18.29c.28-.5.91-.68,1.41-.4.5.28.68.91.4,1.41l-10.18,18.29c-.4.72-1.16,1.15-1.96,1.15Z"/>
  <path class="cls-10" d="m299.61,409.97c-.39,0-.76-.22-.93-.59l-1.88-3.95c-.25-.52-.03-1.13.49-1.38.51-.25,1.13-.03,1.38.49l1.88,3.95c.25.52.03,1.13-.49,1.38-.14.07-.29.1-.44.1Z"/>
  <path class="cls-10" d="m298.18,410.8c-.31,0-.63-.03-.94-.09l-19.86-3.73c-1.89-.35-3.39-1.72-3.93-3.56l-.34-1.17c-.41-1.4-.19-2.91.59-4.13l9.66-15.19c1.08-1.7,3.07-2.6,5.07-2.28l19.19,3.05c1.69.27,3.12,1.36,3.82,2.92l.26.58c.65,1.43.59,3.12-.16,4.5l-8.91,16.46h0c-.9,1.66-2.61,2.66-4.45,2.66Zm-10.55-27.12c-.67,0-1.29.34-1.66.91l-9.66,15.19c-.3.48-.39,1.06-.23,1.6l.34,1.18c.21.72.79,1.25,1.52,1.38l19.86,3.73c.84.16,1.68-.24,2.09-1l8.91-16.46c.29-.54.31-1.19.06-1.74l-.26-.58c-.27-.61-.83-1.03-1.48-1.13l-19.19-3.05c-.1-.02-.21-.02-.31-.02Zm13.63,23.73h0,0Z"/>
  <path class="cls-2" d="m396.05,388.04l8.91-16.46c.52-.97.56-2.12.11-3.12l-.26-.58c-.49-1.08-1.48-1.84-2.65-2.03l-19.19-3.05c-1.38-.22-2.77.4-3.52,1.59l-9.66,15.19c-.54.85-.69,1.9-.41,2.87l.34,1.17c.37,1.27,1.43,2.23,2.73,2.47l19.86,3.73c1.5.28,3.01-.44,3.74-1.78"/>
  <g class="cls-24">
    <path class="cls-10" d="m390.63,383.39l-10.76-1.92c8.04.34,11.09.18,17.11-7.81l-5.07,9.13c-.25.45-.76.7-1.27.61"/>
  </g>
  <g class="cls-24">
    <path class="cls-10" d="m404.96,371.58l-8.91,16.47c-.72,1.34-2.24,2.06-3.74,1.78l-19.86-3.73c-1.3-.25-2.36-1.2-2.72-2.47l-.35-1.17c-.18-.61-.18-1.25-.03-1.84.24.1.49.19.75.24l1.46.27c.64.12,1.28.22,1.92.29,1.33.16,2.65.22,3.97.2l14.4,2.7,6.78-12.35c1.53-1.69,2.87-3.58,3.98-5.65.05-.1.1-.21.15-.32.9.31,1.65.98,2.05,1.87l.26.58c.45,1,.41,2.15-.11,3.12"/>
  </g>
  <path class="cls-10" d="m391.67,386.28c-.13,0-.27-.01-.4-.04l-22.2-4.03c-.56-.1-.93-.64-.83-1.2.1-.56.64-.93,1.2-.83l22.2,4.03c.08.01.15-.02.19-.09l10.18-18.29c.28-.5.91-.68,1.41-.4.5.28.68.91.4,1.41l-10.18,18.29c-.4.72-1.16,1.15-1.96,1.15Z"/>
  <path class="cls-10" d="m394.39,390.61c-.39,0-.76-.22-.93-.59l-1.88-3.95c-.25-.52-.03-1.13.49-1.38.51-.25,1.13-.03,1.38.49l1.88,3.95c.25.52.03,1.13-.49,1.38-.14.07-.29.1-.44.1Z"/>
  <path class="cls-10" d="m392.96,391.44c-.31,0-.63-.03-.94-.09l-19.86-3.73c-1.89-.35-3.39-1.72-3.93-3.56l-.34-1.17c-.41-1.4-.19-2.91.59-4.14l9.66-15.19c1.08-1.7,3.08-2.6,5.07-2.28l19.19,3.05c1.69.27,3.12,1.36,3.82,2.92l.26.58c.65,1.43.59,3.11-.16,4.5l-8.91,16.46c-.9,1.66-2.61,2.66-4.45,2.66Zm-10.55-27.12c-.66,0-1.29.34-1.66.91l-9.66,15.19c-.3.48-.39,1.06-.23,1.6l.34,1.17c.21.72.79,1.25,1.52,1.38l19.86,3.73c.84.16,1.68-.24,2.09-1h0l8.91-16.46c.29-.54.31-1.19.06-1.74l-.26-.58c-.27-.6-.83-1.03-1.48-1.13l-19.18-3.05c-.1-.02-.21-.02-.31-.02Z"/>
  <path class="cls-2" d="m358.19,381.8l8.91-16.46c.52-.97.56-2.12.11-3.12l-.26-.58c-.49-1.08-1.48-1.84-2.65-2.03l-19.19-3.05c-1.38-.22-2.77.4-3.52,1.59l-9.66,15.19c-.54.85-.69,1.9-.41,2.87l.34,1.17c.37,1.27,1.42,2.23,2.73,2.47l19.86,3.73c1.5.28,3.01-.44,3.74-1.78"/>
  <g class="cls-24">
    <path class="cls-10" d="m352.77,377.15l-10.76-1.92c8.04.34,11.09.18,17.11-7.81l-5.07,9.13c-.25.45-.76.7-1.27.61"/>
  </g>
  <g class="cls-24">
    <path class="cls-10" d="m367.1,365.34l-8.91,16.47c-.72,1.35-2.24,2.06-3.74,1.78l-19.86-3.73c-1.3-.25-2.36-1.2-2.72-2.48l-.35-1.17c-.18-.61-.18-1.25-.03-1.84.24.1.49.19.75.24l1.46.27c.64.12,1.28.22,1.92.3,1.33.16,2.65.22,3.97.2l14.4,2.7,6.78-12.35c1.53-1.69,2.87-3.58,3.98-5.65.05-.1.1-.21.15-.32.9.31,1.65.98,2.05,1.87l.26.58c.45,1,.41,2.15-.11,3.12"/>
  </g>
  <path class="cls-10" d="m353.81,380.04c-.13,0-.27-.01-.4-.04l-22.2-4.03c-.56-.1-.93-.64-.83-1.2.1-.56.64-.93,1.2-.83l22.2,4.03c.07.01.15-.02.19-.09l10.18-18.29c.28-.5.91-.68,1.41-.4.5.28.68.91.4,1.41l-10.18,18.29c-.4.72-1.16,1.15-1.96,1.15Z"/>
  <path class="cls-10" d="m356.54,384.37c-.39,0-.76-.22-.93-.59l-1.88-3.95c-.25-.52-.03-1.13.49-1.38.51-.24,1.13-.03,1.38.49l1.88,3.95c.25.52.03,1.13-.49,1.38-.14.07-.29.1-.44.1Z"/>
  <path class="cls-10" d="m355.1,385.19c-.31,0-.63-.03-.94-.09l-19.86-3.73c-1.89-.35-3.39-1.72-3.93-3.56l-.34-1.17c-.41-1.4-.19-2.9.59-4.13l9.66-15.19c1.08-1.7,3.07-2.6,5.07-2.28l19.19,3.05c1.69.27,3.12,1.36,3.82,2.92l.26.58c.65,1.43.59,3.11-.16,4.5l-8.91,16.46c-.9,1.66-2.61,2.66-4.45,2.66Zm-10.55-27.12c-.67,0-1.29.34-1.66.91l-9.66,15.19c-.3.48-.39,1.06-.23,1.6l.34,1.18c.21.72.79,1.25,1.53,1.38l19.86,3.73c.84.16,1.68-.24,2.09-1h0l8.91-16.46c.29-.54.31-1.19.06-1.74l-.26-.58c-.27-.6-.83-1.03-1.48-1.13l-19.19-3.05c-.1-.02-.21-.02-.31-.02Z"/>
  <path class="cls-2" d="m320.43,375.78l8.91-16.46c.52-.97.56-2.12.11-3.12l-.26-.58c-.49-1.08-1.48-1.84-2.65-2.03l-19.19-3.05c-1.38-.22-2.77.4-3.52,1.59l-9.66,15.19c-.54.85-.69,1.9-.41,2.87l.34,1.17c.37,1.27,1.42,2.23,2.73,2.47l19.86,3.73c1.5.28,3.01-.44,3.74-1.78"/>
  <g class="cls-24">
    <path class="cls-10" d="m315.01,371.13l-10.76-1.92c8.04.34,11.09.18,17.11-7.81l-5.07,9.13c-.25.45-.76.7-1.28.61"/>
  </g>
  <g class="cls-24">
    <path class="cls-10" d="m329.34,359.31l-8.91,16.47c-.72,1.34-2.24,2.06-3.74,1.78l-19.86-3.73c-1.3-.25-2.36-1.2-2.72-2.47l-.35-1.17c-.18-.61-.18-1.25-.03-1.84.24.1.49.19.75.24l1.46.27c.64.12,1.28.22,1.92.29,1.33.16,2.65.22,3.97.2l14.4,2.7,6.78-12.35c1.53-1.69,2.87-3.58,3.98-5.65.05-.1.1-.21.15-.32.9.31,1.65.98,2.05,1.87l.26.58c.45,1,.41,2.15-.11,3.12"/>
  </g>
  <path class="cls-10" d="m316.05,374.02c-.13,0-.27-.01-.4-.04l-22.2-4.03c-.56-.1-.93-.64-.83-1.2.1-.56.64-.93,1.2-.83l22.2,4.03c.08.01.15-.02.19-.09l10.18-18.29c.28-.5.91-.68,1.41-.4.5.28.68.91.4,1.41l-10.18,18.29c-.4.72-1.16,1.15-1.96,1.15Z"/>
  <path class="cls-10" d="m318.78,378.34c-.39,0-.76-.22-.93-.59l-1.88-3.95c-.25-.52-.03-1.13.49-1.38.51-.24,1.13-.03,1.38.49l1.88,3.95c.25.52.03,1.13-.49,1.38-.14.07-.29.1-.44.1Z"/>
  <path class="cls-10" d="m317.35,379.17c-.31,0-.63-.03-.94-.09l-19.86-3.73c-1.89-.35-3.39-1.72-3.93-3.56l-.34-1.17c-.41-1.4-.19-2.9.59-4.13l9.66-15.19c1.08-1.7,3.07-2.6,5.07-2.28l19.19,3.05c1.69.27,3.12,1.36,3.82,2.92l.26.58c.65,1.43.59,3.11-.16,4.5l-8.91,16.46c-.9,1.66-2.61,2.66-4.45,2.66Zm-10.55-27.12c-.67,0-1.29.34-1.66.91l-9.66,15.19c-.3.48-.39,1.06-.23,1.6l.34,1.17c.21.72.79,1.25,1.52,1.38l19.86,3.73c.84.16,1.68-.24,2.09-1h0s8.91-16.46,8.91-16.46c.29-.54.31-1.19.06-1.74l-.26-.58c-.27-.6-.83-1.03-1.48-1.13l-19.19-3.05c-.1-.02-.21-.02-.31-.02Z"/>
  <path class="cls-2" d="m415.6,355.41l8.76-16.54c.51-.97.55-2.13.08-3.12l-.27-.58c-.5-1.07-1.5-1.83-2.67-2l-19.21-2.88c-1.39-.21-2.76.43-3.5,1.62l-9.53,15.27c-.54.86-.68,1.9-.38,2.87l.35,1.17c.38,1.27,1.44,2.22,2.75,2.45l19.89,3.55c1.5.27,3.01-.46,3.73-1.82"/>
  <g class="cls-24">
    <path class="cls-10" d="m410.14,350.81l-10.78-1.83c8.05.27,11.09.08,17.04-7.96l-4.99,9.17c-.25.46-.76.7-1.27.62"/>
  </g>
  <g class="cls-24">
    <path class="cls-10" d="m424.36,338.87l-8.77,16.55c-.71,1.35-2.22,2.08-3.72,1.82l-19.89-3.55c-1.31-.23-2.37-1.18-2.75-2.45l-.36-1.17c-.18-.61-.19-1.24-.05-1.84.24.1.49.18.75.23l1.46.26c.64.12,1.28.21,1.92.28,1.33.15,2.65.2,3.97.17l14.42,2.58,6.67-12.41c1.51-1.7,2.83-3.6,3.93-5.68.05-.1.1-.21.14-.32.9.3,1.66.97,2.07,1.85l.27.58c.46,1,.43,2.15-.08,3.12"/>
  </g>
  <path class="cls-10" d="m411.19,353.69c-.13,0-.25-.01-.38-.03l-22.24-3.83c-.56-.1-.94-.63-.84-1.19.1-.56.63-.94,1.19-.84l22.24,3.83c.08.01.15-.02.19-.09l10.02-18.38c.27-.5.9-.69,1.4-.41.5.27.69.9.41,1.4l-10.02,18.38c-.4.73-1.16,1.17-1.97,1.17Z"/>
  <path class="cls-10" d="m413.96,358c-.38,0-.75-.21-.93-.58l-1.91-3.93c-.25-.51-.04-1.13.48-1.38.51-.25,1.13-.04,1.38.48l1.91,3.93c.25.51.04,1.13-.48,1.38-.15.07-.3.1-.45.1Z"/>
  <path class="cls-10" d="m412.5,358.84c-.3,0-.6-.03-.9-.08l-19.89-3.55c-1.89-.34-3.41-1.69-3.96-3.53l-.35-1.17c-.42-1.39-.22-2.9.55-4.14l9.53-15.27c1.07-1.71,3.05-2.63,5.05-2.33l19.21,2.88c1.69.25,3.13,1.33,3.85,2.88l.27.58c.66,1.43.61,3.11-.12,4.5l-8.76,16.54h0c-.89,1.68-2.62,2.7-4.47,2.7Zm-10.73-27.03c-.67,0-1.3.34-1.67.93l-9.53,15.27c-.3.48-.38,1.07-.21,1.61l.35,1.17c.21.71.8,1.24,1.54,1.37l19.89,3.55c.84.15,1.68-.26,2.08-1.01l8.76-16.54c.29-.54.3-1.19.05-1.75l-.27-.58c-.28-.6-.84-1.02-1.49-1.12l-19.21-2.88c-.1-.02-.2-.02-.29-.02Zm13.83,23.61h0,0Z"/>
  <path class="cls-2" d="m377.69,349.79l8.76-16.54c.51-.97.55-2.13.08-3.12l-.27-.58c-.5-1.07-1.5-1.83-2.67-2l-19.21-2.88c-1.39-.21-2.76.43-3.5,1.62l-9.53,15.27c-.54.86-.67,1.9-.38,2.87l.35,1.17c.38,1.27,1.44,2.22,2.75,2.45l19.89,3.55c1.5.27,3.01-.46,3.73-1.82"/>
  <g class="cls-24">
    <path class="cls-10" d="m372.23,345.19l-10.78-1.83c8.05.27,11.09.08,17.04-7.96l-4.99,9.17c-.25.46-.76.7-1.27.62"/>
  </g>
  <g class="cls-24">
    <path class="cls-10" d="m386.45,333.25l-8.77,16.55c-.71,1.35-2.22,2.08-3.72,1.82l-19.89-3.55c-1.3-.23-2.37-1.18-2.75-2.45l-.36-1.17c-.18-.61-.19-1.24-.05-1.84.24.1.49.18.75.23l1.46.26c.64.12,1.28.21,1.92.28,1.33.15,2.65.2,3.97.17l14.42,2.58,6.67-12.41c1.51-1.7,2.83-3.6,3.93-5.68.05-.1.1-.21.14-.32.9.3,1.66.97,2.07,1.85l.27.58c.46,1,.43,2.15-.08,3.12"/>
  </g>
  <path class="cls-10" d="m373.27,348.07c-.13,0-.25-.01-.38-.03l-22.24-3.83c-.56-.1-.94-.63-.84-1.19.1-.56.63-.94,1.19-.84l22.24,3.83c.08.01.15-.02.19-.09l10.02-18.38c.27-.5.9-.69,1.4-.41.5.27.69.9.41,1.4l-10.02,18.38c-.4.73-1.16,1.17-1.97,1.17Z"/>
  <path class="cls-10" d="m376.05,352.37c-.38,0-.75-.21-.93-.58l-1.91-3.93c-.25-.51-.04-1.13.48-1.38.51-.25,1.13-.04,1.38.48l1.91,3.93c.25.51.04,1.13-.48,1.38-.15.07-.3.1-.45.1Z"/>
  <path class="cls-10" d="m374.59,353.21c-.3,0-.6-.03-.9-.08l-19.89-3.55c-1.89-.34-3.41-1.69-3.96-3.53l-.35-1.17c-.42-1.39-.22-2.9.55-4.14l9.52-15.27c1.07-1.71,3.05-2.63,5.05-2.33l19.21,2.88c1.69.25,3.13,1.33,3.85,2.88l.27.58c.66,1.43.61,3.11-.12,4.5l-8.76,16.54c-.89,1.68-2.62,2.7-4.47,2.7Zm-10.73-27.03c-.67,0-1.3.34-1.67.93l-9.53,15.27c-.3.48-.38,1.06-.21,1.61l.35,1.17c.21.71.8,1.24,1.54,1.37l19.89,3.55c.84.15,1.68-.26,2.08-1.01h0s8.76-16.54,8.76-16.54c.29-.54.3-1.19.05-1.74l-.27-.58c-.28-.6-.84-1.02-1.49-1.12l-19.21-2.88c-.1-.02-.2-.02-.29-.02Z"/>
  <path class="cls-2" d="m339.77,344.19l8.76-16.54c.51-.97.54-2.12.08-3.12l-.27-.58c-.5-1.07-1.5-1.83-2.67-2l-19.21-2.88c-1.39-.21-2.76.43-3.5,1.62l-9.53,15.27c-.54.86-.68,1.9-.38,2.87l.35,1.17c.38,1.27,1.44,2.22,2.75,2.45l19.89,3.55c1.5.27,3.01-.47,3.73-1.82"/>
  <g class="cls-24">
    <path class="cls-10" d="m334.31,339.59l-10.78-1.83c8.05.27,11.09.08,17.04-7.96l-4.99,9.17c-.25.46-.76.7-1.27.62"/>
  </g>
  <g class="cls-24">
    <path class="cls-10" d="m348.53,327.65l-8.77,16.55c-.71,1.35-2.22,2.08-3.72,1.82l-19.89-3.55c-1.3-.23-2.37-1.18-2.75-2.45l-.36-1.17c-.18-.61-.19-1.24-.05-1.84.24.1.49.18.75.23l1.46.26c.64.12,1.28.21,1.92.28,1.33.15,2.65.2,3.97.17l14.42,2.58,6.67-12.41c1.51-1.7,2.83-3.6,3.93-5.68.05-.1.1-.21.14-.32.9.3,1.66.97,2.07,1.85l.27.58c.46.99.43,2.15-.08,3.12"/>
  </g>
  <path class="cls-10" d="m335.35,342.47c-.13,0-.25-.01-.38-.03l-22.24-3.83c-.56-.1-.94-.63-.84-1.19.1-.56.63-.94,1.19-.84l22.24,3.83c.08.02.15-.02.19-.09l10.02-18.38c.27-.5.9-.69,1.4-.41.5.27.69.9.41,1.4l-10.02,18.38c-.4.73-1.16,1.17-1.97,1.17Z"/>
  <path class="cls-10" d="m338.13,346.77c-.38,0-.75-.21-.93-.58l-1.91-3.93c-.25-.51-.04-1.13.48-1.38.51-.25,1.13-.04,1.38.48l1.91,3.93c.25.51.04,1.13-.48,1.38-.15.07-.3.1-.45.1Z"/>
  <path class="cls-10" d="m336.67,347.61c-.3,0-.6-.03-.9-.08l-19.89-3.55c-1.89-.34-3.41-1.69-3.96-3.53l-.35-1.17c-.42-1.39-.22-2.9.55-4.14l9.53-15.27c1.07-1.71,3.05-2.63,5.05-2.33l19.21,2.88c1.69.25,3.13,1.33,3.85,2.88l.27.58c.66,1.43.61,3.11-.12,4.5l-8.76,16.54h0c-.89,1.68-2.62,2.7-4.47,2.7Zm-10.73-27.03c-.67,0-1.3.34-1.67.93l-9.53,15.27c-.3.48-.38,1.07-.21,1.61l.35,1.17c.21.71.8,1.24,1.54,1.37l19.89,3.55c.84.15,1.68-.26,2.08-1.02l8.76-16.54c.29-.54.3-1.19.05-1.74l-.27-.58c-.28-.6-.84-1.02-1.49-1.12l-19.21-2.88c-.1-.01-.2-.02-.29-.02Zm13.82,23.61h0,0Z"/>
  <path class="cls-2" d="m434.19,325.27l8.76-16.55c.51-.97.54-2.13.08-3.12l-.27-.58c-.5-1.07-1.5-1.83-2.67-2l-19.21-2.87c-1.39-.21-2.76.43-3.5,1.62l-9.52,15.28c-.54.86-.67,1.91-.38,2.87l.35,1.17c.38,1.27,1.45,2.22,2.75,2.45l19.89,3.54c1.5.27,3.01-.47,3.72-1.82"/>
  <g class="cls-24">
    <path class="cls-10" d="m428.73,320.67l-10.78-1.82c8.05.27,11.09.07,17.04-7.97l-4.99,9.18c-.25.46-.76.7-1.27.62"/>
  </g>
  <g class="cls-24">
    <path class="cls-10" d="m442.95,308.72l-8.76,16.55c-.71,1.35-2.22,2.08-3.72,1.82l-19.89-3.54c-1.31-.23-2.37-1.18-2.75-2.45l-.36-1.17c-.18-.61-.2-1.24-.05-1.84.24.1.49.18.75.23l1.46.26c.64.12,1.28.21,1.92.28,1.33.15,2.65.2,3.97.17l14.42,2.57,6.67-12.41c1.51-1.7,2.83-3.6,3.93-5.68.05-.1.1-.21.14-.32.9.3,1.66.97,2.07,1.85l.27.58c.46.99.43,2.15-.08,3.12"/>
  </g>
  <path class="cls-10" d="m429.78,323.55c-.13,0-.25-.01-.38-.03l-22.24-3.82c-.56-.1-.94-.63-.84-1.19.1-.56.63-.94,1.19-.84l22.24,3.82c.08.01.15-.02.19-.09l10.01-18.38c.27-.5.9-.69,1.4-.41.5.27.69.9.41,1.4l-10.01,18.38c-.4.73-1.16,1.17-1.97,1.17Z"/>
  <path class="cls-10" d="m432.55,327.85c-.38,0-.75-.21-.93-.58l-1.92-3.93c-.25-.51-.04-1.13.48-1.38.51-.25,1.13-.04,1.38.48l1.92,3.93c.25.51.04,1.13-.48,1.38-.15.07-.3.1-.45.1Z"/>
  <path class="cls-10" d="m431.09,328.69c-.3,0-.6-.03-.9-.08l-19.89-3.54c-1.89-.34-3.41-1.69-3.96-3.53l-.35-1.17c-.42-1.39-.22-2.9.55-4.14l9.52-15.28c1.07-1.71,3.05-2.63,5.05-2.33l19.21,2.87c1.69.25,3.13,1.33,3.85,2.88l.27.57c.66,1.43.62,3.11-.12,4.5l-8.75,16.55h0c-.89,1.68-2.62,2.7-4.47,2.7Zm-10.73-27.03c-.67,0-1.3.34-1.67.93l-9.52,15.28c-.3.48-.38,1.07-.21,1.61l.35,1.17c.22.71.8,1.24,1.54,1.37l19.89,3.54c.85.15,1.68-.26,2.08-1.02l8.76-16.55c.29-.54.3-1.19.05-1.75l-.27-.58c-.28-.6-.84-1.02-1.49-1.12l-19.21-2.87c-.1-.01-.2-.02-.29-.02Zm13.83,23.6h0,0Z"/>
  <path class="cls-2" d="m396.2,319.79l8.76-16.55c.51-.97.54-2.12.08-3.12l-.27-.58c-.5-1.07-1.5-1.83-2.67-2l-19.21-2.87c-1.39-.21-2.76.43-3.5,1.62l-9.52,15.28c-.53.86-.67,1.91-.38,2.87l.35,1.17c.38,1.27,1.45,2.22,2.75,2.45l19.89,3.54c1.5.27,3.01-.47,3.72-1.82"/>
  <g class="cls-24">
    <path class="cls-10" d="m390.74,315.19l-10.78-1.82c8.05.27,11.09.07,17.04-7.97l-4.99,9.18c-.25.46-.76.7-1.27.62"/>
  </g>
  <g class="cls-24">
    <path class="cls-10" d="m404.96,303.24l-8.76,16.55c-.71,1.35-2.22,2.08-3.72,1.82l-19.89-3.54c-1.31-.23-2.37-1.18-2.75-2.45l-.36-1.17c-.18-.61-.2-1.24-.05-1.84.24.1.49.18.75.23l1.46.26c.64.12,1.28.21,1.92.28,1.33.15,2.65.2,3.97.17l14.42,2.57,6.67-12.41c1.51-1.71,2.83-3.6,3.93-5.68.05-.1.1-.21.14-.32.9.3,1.66.97,2.07,1.85l.27.58c.46.99.43,2.15-.08,3.12"/>
  </g>
  <path class="cls-10" d="m391.79,318.07c-.13,0-.25-.01-.38-.03l-22.24-3.82c-.56-.1-.94-.63-.84-1.19.1-.56.63-.94,1.19-.84l22.24,3.82c.08.01.15-.02.19-.09l10.01-18.38c.27-.5.9-.69,1.4-.41.5.27.69.9.41,1.4l-10.01,18.38c-.4.73-1.16,1.17-1.97,1.17Z"/>
  <path class="cls-10" d="m394.56,322.37c-.38,0-.75-.21-.93-.58l-1.92-3.93c-.25-.51-.04-1.13.48-1.38.51-.25,1.13-.04,1.38.48l1.92,3.93c.25.51.04,1.13-.48,1.38-.15.07-.3.1-.45.1Z"/>
  <path class="cls-10" d="m393.1,323.21c-.3,0-.6-.03-.9-.08l-19.89-3.54c-1.89-.34-3.41-1.69-3.96-3.53l-.35-1.17c-.42-1.39-.22-2.9.55-4.14l9.52-15.28c1.07-1.71,3.05-2.63,5.05-2.33l19.21,2.87c1.69.25,3.13,1.33,3.85,2.88l.27.58c.66,1.43.62,3.11-.12,4.5l-8.76,16.55c-.89,1.68-2.62,2.7-4.47,2.7Zm-10.73-27.03c-.67,0-1.31.34-1.67.93l-9.52,15.28c-.3.48-.38,1.07-.21,1.61l.35,1.17c.21.71.8,1.24,1.54,1.37l19.89,3.54c.84.15,1.68-.26,2.08-1.02h0s8.76-16.55,8.76-16.55c.29-.54.3-1.19.05-1.74l-.27-.58c-.28-.6-.84-1.02-1.49-1.12l-19.21-2.87c-.1-.01-.19-.02-.29-.02Z"/>
  <path class="cls-2" d="m358.44,314.4l8.56-16.65c.5-.98.52-2.13.05-3.12l-.27-.57c-.51-1.07-1.52-1.81-2.69-1.97l-19.25-2.64c-1.39-.19-2.76.46-3.48,1.66l-9.34,15.39c-.52.86-.65,1.91-.35,2.88l.37,1.17c.4,1.26,1.47,2.2,2.78,2.42l19.93,3.31c1.51.25,3-.5,3.7-1.86"/>
  <g class="cls-24">
    <path class="cls-10" d="m352.92,309.86l-10.8-1.7c8.05.17,11.1-.06,16.94-8.17l-4.88,9.23c-.24.46-.75.71-1.26.63"/>
  </g>
  <g class="cls-24">
    <path class="cls-10" d="m367,297.75l-8.56,16.65c-.69,1.36-2.19,2.11-3.7,1.86l-19.93-3.31c-1.31-.22-2.38-1.15-2.78-2.42l-.37-1.17c-.19-.6-.21-1.24-.07-1.84.24.1.49.18.76.22l1.46.24c.64.11,1.29.19,1.92.26,1.33.13,2.66.17,3.97.12l14.45,2.4,6.52-12.49c1.49-1.72,2.79-3.64,3.86-5.73.05-.1.09-.21.14-.32.91.29,1.67.95,2.09,1.83l.28.57c.47.99.45,2.14-.05,3.12"/>
  </g>
  <path class="cls-10" d="m353.98,312.73c-.12,0-.24,0-.36-.03l-22.28-3.56c-.56-.09-.95-.62-.86-1.18.09-.56.62-.95,1.18-.86l22.28,3.56c.07.01.15-.03.19-.09l9.8-18.5c.27-.5.89-.7,1.4-.43.5.27.7.89.43,1.4l-9.8,18.5c-.39.74-1.16,1.2-1.99,1.2Z"/>
  <path class="cls-10" d="m356.82,317c-.38,0-.74-.21-.92-.57l-1.96-3.91c-.26-.51-.05-1.13.46-1.39.51-.26,1.13-.05,1.39.46l1.96,3.91c.26.51.05,1.13-.46,1.39-.15.07-.31.11-.46.11Z"/>
  <path class="cls-10" d="m355.32,317.86c-.28,0-.56-.02-.84-.07l-19.93-3.31c-1.89-.31-3.43-1.65-4-3.48l-.37-1.17c-.44-1.39-.25-2.9.5-4.15l9.34-15.39c1.05-1.73,3.02-2.67,5.02-2.39l19.25,2.64c1.69.23,3.15,1.29,3.88,2.84l.27.57c.68,1.42.65,3.1-.07,4.5l-8.56,16.65h0c-.88,1.71-2.62,2.75-4.5,2.75Zm-10.97-26.9c-.68,0-1.32.35-1.68.95l-9.34,15.39c-.29.48-.36,1.07-.19,1.61l.37,1.17c.22.71.82,1.23,1.55,1.35l19.93,3.31c.85.14,1.68-.28,2.07-1.04l8.56-16.65c.28-.54.29-1.19.03-1.74l-.27-.57c-.29-.6-.85-1.01-1.51-1.1l-19.25-2.64c-.09-.01-.18-.02-.27-.02Zm14.09,23.44h0,0Z"/>
  <path class="cls-14" d="m473.73,331.78l8.63-16.61c.51-.97.53-2.13.06-3.12l-.27-.58c-.51-1.07-1.51-1.81-2.69-1.98l-19.23-2.73c-1.39-.2-2.76.45-3.49,1.64l-9.41,15.35c-.53.86-.66,1.91-.36,2.88l.36,1.17c.39,1.27,1.46,2.2,2.77,2.43l19.92,3.4c1.51.26,3.01-.49,3.71-1.84"/>
  <g class="cls-19">
    <path class="cls-10" d="m482.43,312.05l-.27-.58c-.39-.83-1.09-1.46-1.92-1.78-.07.24-.16.48-.27.71l-8.63,16.61c-.7,1.36-2.2,2.1-3.71,1.85l-19.92-3.4c-.3-.05-.58-.14-.85-.26-.05.48-.01.96.13,1.43l.36,1.17c.39,1.27,1.46,2.2,2.77,2.43l19.92,3.4c1.51.26,3.01-.49,3.71-1.84l8.63-16.61c.51-.97.53-2.13.06-3.12"/>
  </g>
  <g class="cls-18">
    <path class="cls-1" d="m448.89,327.43l9.41-15.35c.73-1.19,2.1-1.84,3.49-1.64l19.23,2.73c.64.09,1.23.36,1.72.76.07-.63-.03-1.28-.31-1.87l-.27-.58c-.5-1.07-1.51-1.81-2.69-1.98l-19.23-2.73c-1.39-.2-2.76.45-3.49,1.64l-9.41,15.35c-.53.86-.66,1.91-.36,2.88l.36,1.17c.2.63.56,1.18,1.04,1.6-.03-.69.14-1.38.51-1.98"/>
  </g>
  <path class="cls-10" d="m469.29,330.1c-.12,0-.24,0-.36-.03l-22.27-3.65c-.56-.09-.94-.62-.85-1.19.09-.56.62-.95,1.19-.85l22.27,3.65c.07,0,.15-.03.19-.09l9.88-18.45c.27-.5.9-.69,1.4-.42.5.27.69.9.42,1.4l-9.88,18.45c-.4.74-1.16,1.19-1.98,1.19Z"/>
  <path class="cls-10" d="m472.11,334.38c-.38,0-.75-.21-.93-.57l-1.95-3.92c-.25-.51-.05-1.13.47-1.39.51-.25,1.13-.05,1.39.47l1.95,3.92c.25.51.05,1.13-.47,1.39-.15.07-.3.11-.46.11Z"/>
  <path class="cls-10" d="m470.62,335.23c-.29,0-.57-.02-.86-.07l-19.92-3.4c-1.89-.32-3.42-1.66-3.99-3.5l-.36-1.17c-.43-1.39-.24-2.9.52-4.14l9.41-15.35c1.06-1.72,3.03-2.65,5.03-2.37l19.23,2.73c1.69.24,3.14,1.31,3.87,2.85l.27.57c.67,1.42.64,3.1-.09,4.5l-8.63,16.61c-.88,1.7-2.62,2.73-4.49,2.73Zm-10.88-26.95c-.68,0-1.31.35-1.68.94l-9.41,15.35c-.3.48-.37,1.07-.2,1.61l.36,1.17c.22.71.81,1.23,1.55,1.36l19.92,3.4c.84.14,1.68-.27,2.07-1.03h0l8.63-16.61c.28-.54.29-1.19.03-1.75l-.27-.57c-.28-.6-.84-1.01-1.5-1.11l-19.23-2.73c-.09-.01-.18-.02-.28-.02Z"/>
  <path class="cls-14" d="m455.2,361.47l8.63-16.61c.51-.97.53-2.13.06-3.12l-.27-.58c-.51-1.07-1.51-1.81-2.69-1.98l-19.23-2.73c-1.39-.2-2.76.45-3.49,1.64l-9.41,15.35c-.53.86-.66,1.91-.36,2.88l.36,1.17c.39,1.27,1.46,2.2,2.77,2.43l19.92,3.4c1.51.26,3.01-.49,3.71-1.84"/>
  <g class="cls-19">
    <path class="cls-10" d="m463.9,341.74l-.27-.58c-.39-.83-1.09-1.46-1.92-1.78-.07.24-.16.48-.27.71l-8.63,16.61c-.7,1.36-2.2,2.1-3.71,1.85l-19.92-3.4c-.3-.05-.58-.14-.85-.27-.05.48-.01.96.13,1.43l.36,1.17c.39,1.27,1.46,2.2,2.77,2.43l19.92,3.4c1.51.26,3.01-.49,3.71-1.84l8.63-16.61c.51-.97.53-2.13.06-3.12"/>
  </g>
  <g class="cls-18">
    <path class="cls-1" d="m430.85,357.17l9.41-15.35c.73-1.19,2.1-1.84,3.49-1.64l19.23,2.73c.45.06.87.21,1.25.43.02-.55-.09-1.09-.33-1.6l-.27-.57c-.5-1.07-1.51-1.81-2.69-1.98l-19.23-2.73c-1.39-.2-2.76.45-3.49,1.64l-9.41,15.35c-.53.86-.66,1.91-.36,2.88l.36,1.17c.26.84.82,1.53,1.55,1.97-.1-.79.06-1.6.48-2.29"/>
  </g>
  <path class="cls-10" d="m450.76,359.78c-.12,0-.24,0-.37-.03l-22.27-3.65c-.56-.09-.94-.62-.85-1.19.09-.56.62-.95,1.19-.85l22.27,3.65c.07.01.15-.02.19-.09l9.88-18.45c.27-.5.9-.69,1.4-.42.5.27.69.9.42,1.4l-9.88,18.45c-.4.74-1.16,1.19-1.98,1.19Z"/>
  <path class="cls-10" d="m453.58,364.06c-.38,0-.75-.21-.93-.57l-1.95-3.92c-.25-.51-.05-1.13.47-1.39.51-.25,1.13-.05,1.39.47l1.95,3.92c.25.51.05,1.13-.47,1.39-.15.07-.3.11-.46.11Z"/>
  <path class="cls-10" d="m452.09,364.92c-.29,0-.57-.02-.86-.07l-19.92-3.4c-1.89-.32-3.42-1.66-3.99-3.5l-.36-1.17c-.43-1.39-.24-2.9.52-4.14l9.41-15.35c1.06-1.72,3.03-2.65,5.03-2.37l19.23,2.73c1.69.24,3.14,1.31,3.87,2.85l.27.58c.67,1.42.64,3.1-.09,4.5l-8.63,16.61h0c-.88,1.7-2.62,2.73-4.49,2.73Zm-10.88-26.95c-.68,0-1.31.35-1.67.94l-9.41,15.35c-.3.48-.37,1.07-.2,1.61l.36,1.17c.22.71.81,1.23,1.55,1.36l19.92,3.4c.84.14,1.68-.27,2.07-1.03l8.63-16.61c.28-.54.29-1.19.03-1.75l-.27-.58c-.28-.6-.84-1.01-1.5-1.11l-19.23-2.73c-.09-.01-.19-.02-.28-.02Zm13.99,23.5h0,0Z"/>
  <path class="cls-14" d="m436.49,394.37l9.02-16.4c.53-.96.58-2.12.13-3.12l-.26-.58c-.48-1.08-1.47-1.85-2.64-2.04l-19.16-3.18c-1.38-.23-2.77.38-3.53,1.56l-9.77,15.12c-.55.85-.71,1.89-.43,2.87l.33,1.18c.36,1.28,1.41,2.24,2.71,2.49l19.83,3.87c1.5.29,3.02-.42,3.75-1.76"/>
  <g class="cls-19">
    <path class="cls-10" d="m445.65,374.85l-.26-.58c-.38-.87-1.1-1.53-1.97-1.86-.07.27-.18.54-.32.79l-9.02,16.4c-.74,1.34-2.25,2.05-3.75,1.76l-19.83-3.87c-.26-.05-.51-.14-.74-.24-.05.44-.02.9.11,1.33l.33,1.18c.36,1.27,1.41,2.24,2.71,2.49l19.83,3.87c1.5.29,3.02-.42,3.75-1.76l9.02-16.4c.53-.96.58-2.12.13-3.12"/>
  </g>
  <g class="cls-18">
    <path class="cls-1" d="m412.33,389.12l9.62-14.89c.75-1.16,2.11-1.76,3.48-1.54l18.88,3.13c.41.07.79.21,1.14.41.01-.51-.08-1.01-.29-1.49l-.25-.57c-.47-1.07-1.45-1.82-2.6-2.01l-18.88-3.13c-1.36-.23-2.73.38-3.48,1.54l-9.62,14.89c-.54.84-.69,1.87-.42,2.82l.33,1.16c.25.87.83,1.59,1.58,2.04-.11-.82.07-1.65.52-2.35"/>
  </g>
  <path class="cls-10" d="m432.14,392.58c-.14,0-.28-.01-.42-.04l-22.17-4.18c-.56-.11-.93-.65-.82-1.21.11-.56.65-.93,1.21-.82l22.17,4.18c.08.01.15-.02.19-.09l10.31-18.21c.28-.5.91-.67,1.41-.39.5.28.67.91.39,1.41l-10.31,18.21c-.41.71-1.16,1.14-1.96,1.14Z"/>
  <path class="cls-10" d="m434.83,396.93c-.39,0-.76-.22-.94-.6l-1.85-3.96c-.24-.52-.02-1.13.5-1.37.52-.24,1.13-.02,1.37.5l1.85,3.96c.24.52.02,1.13-.5,1.37-.14.07-.29.1-.44.1Z"/>
  <path class="cls-10" d="m433.42,397.75c-.32,0-.65-.03-.98-.09l-19.83-3.87c-1.89-.37-3.38-1.74-3.91-3.59l-.33-1.18c-.4-1.4-.17-2.91.62-4.13l9.77-15.12c1.1-1.7,3.09-2.58,5.09-2.25l19.16,3.18c1.69.28,3.11,1.38,3.8,2.95l.26.58c.64,1.44.57,3.12-.19,4.49l-9.02,16.4s0,0,0,0c-.9,1.64-2.61,2.63-4.43,2.63Zm-10.41-27.2c-.66,0-1.28.33-1.65.9l-9.77,15.12c-.31.47-.39,1.06-.24,1.6l.33,1.18c.2.72.78,1.25,1.52,1.39l19.83,3.87c.84.17,1.68-.23,2.1-.98l9.02-16.4c.29-.53.32-1.19.07-1.74l-.26-.58c-.27-.61-.82-1.03-1.47-1.14l-19.16-3.18c-.11-.02-.22-.03-.32-.03Zm13.48,23.82h0,0Z"/>
  <path class="cls-14" d="m417.44,426.14l8.91-16.46c.52-.97.56-2.12.11-3.12l-.26-.58c-.49-1.08-1.48-1.84-2.65-2.03l-19.19-3.05c-1.38-.22-2.77.4-3.52,1.59l-9.66,15.19c-.54.85-.69,1.9-.41,2.87l.34,1.17c.37,1.27,1.42,2.23,2.73,2.47l19.86,3.73c1.5.28,3.01-.44,3.74-1.78"/>
  <g class="cls-19">
    <path class="cls-10" d="m426.46,406.55l-.26-.58c-.39-.86-1.1-1.51-1.96-1.83-.07.26-.17.52-.3.77l-8.91,16.46c-.73,1.34-2.24,2.06-3.74,1.78l-19.86-3.73c-.27-.05-.53-.14-.77-.25-.05.45-.02.92.12,1.36l.34,1.17c.37,1.27,1.42,2.23,2.73,2.47l19.86,3.73c1.5.28,3.01-.44,3.74-1.78l8.91-16.46c.52-.97.56-2.12.11-3.12"/>
  </g>
  <g class="cls-18">
    <path class="cls-1" d="m392.78,420.85l9.66-15.19c.75-1.18,2.13-1.81,3.52-1.59l19.19,3.05c.6.1,1.15.34,1.61.7-.02-.43-.12-.87-.3-1.27l-.26-.58c-.49-1.08-1.48-1.84-2.65-2.03l-19.18-3.05c-1.38-.22-2.77.4-3.52,1.59l-9.66,15.19c-.54.85-.69,1.9-.41,2.87l.34,1.17c.21.72.64,1.33,1.21,1.78-.2-.91-.04-1.86.46-2.65"/>
  </g>
  <path class="cls-10" d="m413.06,424.38c-.13,0-.27-.01-.4-.04l-22.2-4.03c-.56-.1-.93-.64-.83-1.2.1-.56.64-.93,1.2-.83l22.2,4.03c.08.01.15-.02.19-.09l10.18-18.29c.28-.5.91-.68,1.41-.4.5.28.68.91.4,1.41l-10.18,18.29c-.4.72-1.16,1.15-1.96,1.15Z"/>
  <path class="cls-10" d="m415.78,428.7c-.39,0-.76-.22-.93-.59l-1.88-3.95c-.25-.52-.03-1.13.49-1.38.51-.25,1.13-.03,1.38.49l1.88,3.95c.25.52.03,1.13-.49,1.38-.14.07-.29.1-.44.1Z"/>
  <path class="cls-10" d="m414.35,429.53c-.31,0-.63-.03-.95-.09l-19.86-3.73c-1.89-.35-3.39-1.72-3.93-3.56l-.34-1.17c-.41-1.4-.19-2.91.59-4.13l9.66-15.19c1.08-1.7,3.07-2.6,5.07-2.28l19.19,3.05c1.69.27,3.12,1.36,3.82,2.92l.26.58c.65,1.43.59,3.11-.16,4.5l-8.91,16.46c-.9,1.66-2.61,2.66-4.45,2.66Zm-10.55-27.12c-.67,0-1.29.34-1.66.91l-9.66,15.19c-.3.48-.39,1.06-.23,1.6l.34,1.17c.21.72.79,1.25,1.53,1.38l19.86,3.73c.84.16,1.68-.24,2.09-1h0s8.91-16.46,8.91-16.46c.29-.54.31-1.19.06-1.74l-.26-.58c-.27-.6-.83-1.03-1.48-1.13l-19.19-3.05c-.1-.02-.21-.02-.31-.02Z"/>
  <path class="cls-10" d="m420.38,314.43c-.22.88.03,1.57,1.43,1.74,2.36.28,4.32-1.94,5.75-3.89-1.15.77-2.55,1.19-4.15,1-2.72-.33-3.22-2.08-1.85-4.11,1.51-2.25,4.38-3.71,7.25-3.37,3.14.38,3.62,2.47,1.26,5.99-2.21,3.3-5.39,6.31-9.26,5.85-2.94-.35-3-2.09-2.43-3.44l2.02.24Zm3.32-5.13c-.91,1.35-.52,2.35,1.1,2.55,1.61.19,3.15-.53,3.95-1.72.7-1.04,1.1-2.58-.99-2.83-1.68-.2-3.2.74-4.05,2"/>
  <path class="cls-10" d="m296.85,394.02c-2.21,3.3-5.46,5.88-8.98,5.45-3.3-.4-3.16-3.21-.94-6.53,2.22-3.31,5.64-5.75,8.95-5.35,3.26.39,3.11,3.23.97,6.42m-7.83-.84c-1.38,2.06-2.25,4.47-.09,4.73,2.23.27,4.28-1.81,5.84-4.14,1.36-2.03,2.27-4.36.07-4.63-2.07-.25-4.14,1.53-5.82,4.03"/>
  <path class="cls-10" d="m306.83,366.23l5.52-8.22c-.5.18-1.21.34-1.85.45-.58.1-1-.55-.67-1.04.11-.16.27-.26.46-.29,1.46-.22,2.94-.76,3.89-1.24.12-.06.25-.08.38-.07l.2.02c.5.06.76.63.48,1.04l-6.81,10.15c-.14.21-.39.32-.64.29l-.48-.06c-.5-.06-.76-.63-.48-1.04"/>
  <path class="cls-10" d="m353.43,361.94c-2.16-.37-4.39.34-6.09,1.72-.53.43-.28,1.29.4,1.38.25.04.51-.04.69-.22,1.19-1.13,2.48-1.64,3.83-1.41,1.7.29,1.64,1.31.98,2.2-.82,1.1-1.71,1.39-4.78,2.23-3.62.99-5.99,2.26-7.48,3.86-.27.29-.1.77.3.84l7.86,1.35c.26.04.53-.04.71-.23l.07-.07c.44-.46.19-1.23-.44-1.34l-5.57-.96c1.01-.86,2.83-1.53,5.23-2.17,3.23-.86,4.78-1.37,6.14-3.18,1.33-1.78.93-3.51-1.84-3.99"/>
  <path class="cls-10" d="m384.99,370.78c-.52-.06-.72-.72-.31-1.05,1.27-1.05,3.24-1.99,5.68-1.7,3,.36,3.27,2.04,2.22,3.61-1.02,1.52-2.57,1.99-3.38,2.1l-.02.03c.74.33,1.68,1.27.43,3.14-1.4,2.09-4.12,3.37-7.19,3-2.89-.35-3.36-1.89-2.76-3.51.1-.26.36-.42.63-.38l.91.11c.32.04.55.33.52.66-.09.84.46,1.45,1.81,1.62,1.49.18,3.05-.32,4.03-1.79.83-1.23.41-2.06-1.42-2.28-.44-.05-.67-.55-.42-.92l.3-.44c.12-.19.34-.29.57-.26l.4.05c1.83.22,2.79-.28,3.45-1.27.6-.89.47-1.76-1.14-1.95-1.48-.18-2.55.39-3.35,1.14-.13.12-.31.19-.48.16l-.46-.06Z"/>
  <path class="cls-10" d="m326.87,335.16l.95-1.38c.22-.32.03-.77-.36-.82l-4.61-.63c-.39-.05-.59-.5-.36-.82l.55-.79c.05-.06.1-.12.17-.16l10.48-5.95c.1-.06.22-.08.33-.06l1.23.17c.39.05.59.5.36.82l-3.83,5.52c-.22.32-.03.77.36.82.41.06.6.54.33.86l-.49.58c-.12.14-.29.21-.47.18l-.98-.13c-.2-.03-.39.06-.5.22l-1.57,2.26c-.11.16-.31.25-.5.22l-.73-.1c-.39-.05-.59-.5-.36-.82m4.3-6.21c.1-.15.23-.33.38-.54.32-.46-.21-1.04-.69-.76-1.23.72-2.79,1.63-4.34,2.51-.44.25-.31.91.19.98l2.38.32c.2.03.39-.06.5-.22l1.59-2.3Z"/>
  <path class="cls-10" d="m375.05,332.52l-5.08-.71c-.25-.04-.51.06-.67.25-.22.25-.46.52-.7.79-.45.51-.06,1.28.61,1.26.38-.01.8,0,1.24.07,2.47.35,3.17,2.04,1.57,4.33-1.71,2.44-4.62,3.86-7.65,3.44-2.61-.37-3.24-1.78-2.69-3.33.12-.33.47-.53.81-.48l.63.09c.39.05.64.4.63.79-.01.76.54,1.26,1.72,1.43,1.73.24,3.41-.6,4.46-2.11.81-1.15.99-2.46-1-2.74-1.54-.22-2.62.23-3.55.85-.19.13-.43.18-.66.11l-.06-.02c-.54-.16-.72-.83-.34-1.24,1.41-1.53,3.4-3.77,4.43-4.99.17-.2.43-.3.68-.26l5.93.83c.6.08.86.8.47,1.25l-.13.14c-.17.19-.42.29-.68.25"/>
  <path class="cls-10" d="m411.55,338.84c-.46-.06-.89-.37-1-.82-.1-.44-.49-.8-1.4-.91-2.13-.26-4.02,1.39-5.6,3.6,1.16-.75,2.69-1.33,4.46-1.12,2.5.3,3.17,1.99,1.66,4.25-1.78,2.65-4.84,3.98-7.57,3.65-3.06-.37-3.58-2.58-1.03-6.39,1.97-2.94,5.29-5.93,9.16-5.46,1.99.24,2.62,1.18,2.56,2.19-.04.63-.63,1.09-1.25,1.01m-4.01,4.89c.92-1.37.77-2.49-1.03-2.71-1.82-.22-3.51.77-4.29,1.92-.54.81-1.26,2.76.92,3.02,1.69.2,3.35-.68,4.4-2.24"/>
  <path class="cls-10" d="m355.57,296.79l-.13.2c-.07.1-.16.18-.26.25-3.84,2.31-8.08,5.65-11.17,8.91-.18.19-.45.29-.71.26h-.1c-.7-.1-1-.95-.5-1.45,2.38-2.39,5.57-4.89,8.39-6.73.66-.43.42-1.45-.36-1.54l-3.1-.37c-.63-.08-.95-.79-.6-1.31.18-.26.49-.41.8-.37l7.14.86c.63.08.95.79.6,1.31"/>
  <path class="cls-10" d="m380.21,308.2c.99-1.48,2.65-2.28,4.2-2.59-.68-.56-.83-1.48-.05-2.63,1.23-1.83,3.71-2.94,6.45-2.61,2.32.28,3.46,1.62,2.09,3.66-.83,1.24-2.19,1.94-3.34,2.13,1.16.62,1.29,1.79.37,3.17-1.59,2.37-4.71,3.21-7.23,2.9-2.7-.32-3.97-1.83-2.5-4.03m7.69.88c.73-1.09.66-2.14-1.43-2.39-2.16-.26-3.47.61-4.19,1.68-.93,1.39-.07,2.25,1.42,2.43,1.43.17,3.21-.24,4.2-1.71m-1.56-5.87c-.6.89-.54,1.8,1.2,2.01,1.61.19,2.66-.4,3.36-1.43.7-1.04.29-1.84-1.1-2.01-1.32-.16-2.68.28-3.46,1.43"/>
  <path class="cls-10" d="m329.26,403.43c-.13,1.11-1.14,1.9-2.25,1.77-1.11-.13-1.9-1.14-1.77-2.25.13-1.11,1.14-1.9,2.25-1.77,1.11.13,1.9,1.14,1.77,2.25"/>
  <path class="cls-10" d="m375.76,404.12h0c-.44.6-1.33.99-1.98.88l-10.39-1.74c-.65-.11-.82-.68-.38-1.28.44-.6,1.33-.99,1.98-.88l10.39,1.74c.65.11.82.68.38,1.28m-4.03,5.45h0c-.44.6-1.33,1-1.98.89l-10.39-1.74c-.65-.11-.82-.68-.38-1.28h0c.44-.6,1.33-1,1.98-.89l10.39,1.74c.65.11.82.68.38,1.28"/>
  <path class="cls-10" d="m412.44,407.29l-1.85,2.5c-.45.6-.27,1.18.39,1.29l2.74.46c.66.11.83.69.39,1.29-.45.6-1.34,1-2,.89l-2.74-.46c-.66-.11-1.55.29-2,.89l-2.03,2.74c-.45.6-1.34,1-2,.89l-.09-.02c-.66-.11-.83-.69-.39-1.29l2.03-2.74c.45-.6.27-1.18-.39-1.29l-2.76-.46c-.66-.11-.83-.69-.39-1.29.45-.6,1.34-1,2-.89l2.76.46c.66.11,1.55-.29,2-.89l1.85-2.5c.45-.6,1.34-1,2-.89l.09.02c.66.11.83.69.39,1.29"/>
  <path class="cls-10" d="m448.77,347.88h0c-.51.68-1.52,1.14-2.27,1.01l-4.8-.8c-.75-.13-.94-.78-.44-1.46.51-.68,1.52-1.14,2.27-1.01l4.8.8c.75.12.94.78.44,1.46"/>
  <path class="cls-10" d="m469.14,319.27l-11.25-1.59c-.58-.08-.74-.58-.37-1.12l.22-.31c.38-.54,1.15-.9,1.73-.82l11.25,1.59c.58.08.74.58.36,1.12l-.22.31c-.38.54-1.15.9-1.73.82"/>
  <path class="cls-10" d="m469.65,312.81c-.7,1-2.15,1.69-3.23,1.54-1.08-.15-1.39-1.09-.68-2.09.7-1,2.15-1.69,3.23-1.54,1.08.15,1.39,1.09.68,2.09"/>
  <path class="cls-10" d="m462.88,322.45c-.7,1-2.15,1.69-3.23,1.54-1.08-.15-1.39-1.09-.68-2.09.7-1,2.15-1.69,3.23-1.54,1.08.15,1.39,1.09.68,2.09"/>
  <path class="cls-10" d="m433.91,376.46c-.11-.43-.71-.53-1.33-.24l-5.04,2.41-.98-3.44c-.12-.42-.72-.52-1.34-.22-.62.3-1.02.89-.9,1.31l.98,3.42-5.01,2.4c-.62.3-1.03.88-.92,1.31.07.25.3.39.6.4.22,0,.47-.04.72-.17l5.04-2.41.98,3.44c.07.24.3.38.6.39.22.01.48-.05.74-.17.62-.3,1.02-.89.9-1.31l-.98-3.42,5.01-2.4c.62-.3,1.03-.88.92-1.31"/>
  <path class="cls-10" d="m240.79,360.09l4.64.72c.93.14,1.66.87,1.8,1.8l.72,4.64.72-4.64c.14-.93.87-1.66,1.8-1.8l4.64-.72-4.64-.72c-.93-.14-1.66-.87-1.8-1.8l-.72-4.64-.72,4.64c-.14.93-.87,1.66-1.8,1.8l-4.64.72Z"/>
  <path class="cls-10" d="m331.45,232.71l4.64.72c.93.14,1.66.87,1.8,1.8l.72,4.64.72-4.64c.14-.93.87-1.66,1.8-1.8l4.64-.72-4.64-.72c-.93-.14-1.66-.87-1.8-1.8l-.72-4.64-.72,4.64c-.14.93-.87,1.66-1.8,1.8l-4.64.72Z"/>
  <path class="cls-10" d="m306.01,313.01c0,.97-.79,1.76-1.76,1.76s-1.76-.79-1.76-1.76.79-1.76,1.76-1.76,1.76.79,1.76,1.76"/>
  <path class="cls-10" d="m323.12,447.87c0,.97-.79,1.76-1.76,1.76s-1.76-.79-1.76-1.76.79-1.76,1.76-1.76,1.76.79,1.76,1.76"/>
</svg>