<?xml version="1.0" encoding="UTF-8"?>
<svg id="OBJECTS" xmlns="http://www.w3.org/2000/svg" viewBox="0 0 498.63 468.83">
  <defs>
    <style>
      .cls-1 {
        fill: #74b9da;
      }

      .cls-2 {
        fill: #e8c159;
      }

      .cls-3 {
        fill: #ca4a40;
      }

      .cls-4 {
        fill: #dedede;
      }

      .cls-5 {
        fill: #659ffb;
      }

      .cls-6 {
        fill: #e3e3e3;
      }
    </style>
  </defs>
  <g>
    <path class="cls-6" d="m394.58,237.52c0,83.12-67.39,150.51-150.51,150.51s-150.51-67.38-150.51-150.51S160.95,87.01,244.07,87.01s150.51,67.39,150.51,150.51Z"/>
    <g>
      <path class="cls-5" d="m394.58,237.5c0-55.04-29.55-103.17-73.65-129.42-.18-.01-.36-.03-.53-.04-2.39-.22-3.91.87-4.44,3.04-.55,2.17-.11,5.43.97,10.42,1.08,4.99,5.32,3.47,7.7,4.01,2.39.54,3.91,4.99,3.91,4.99,0,0,6.73,1.19,5.97,3.04-.76,1.84-.54,3.15,1.19,5.75,1.74,2.6-.54,6.29-2.93,9.44-2.39,3.15-4.12,3.58-7.38,3.47-3.26-.11-9.55,1.84-11.07,2.71-1.52.87-1.74.54,2.38,8.57,4.12,8.03,8.9,7.92,15.84,7.16,6.94-.76,4.12-5.86,4.66-8.89.54-3.04,1.74-3.36,3.69-2.39,1.95.98,6.73,4.45,8.14,2.71,1.41-1.74,2.06.54,2.6,5.53.54,4.99,4.77,1.74,6.62-.32,1.85-2.06,2.93,2.49,3.69,5.21.76,2.71,2.93,1.41,3.69-.22.76-1.63,2.06-1.63,2.06-1.63,0,0,1.52,4.12,2.82,5.97,1.3,1.84,5.32.76,9.98,3.91,4.67,3.15,3.58,8.9,3.58,8.9-3.8-1.41-5.54-.65-10.09-.54-4.56.11-7.16-2.82-11.39-6.73-4.23-3.9-8.57-4.99-8.57-4.99,0,0-5.43.44-11.72-1.41-6.29-1.85-10.09-.87-16.49,0-6.4.87-10.74,3.69-12.47,6.94-1.74,3.25-5.86,4.77-11.28,7.49-5.42,2.71-6.29,8.79-6.29,8.79,0,0-.32,12.37-2.28,18.12-1.95,5.75-4.77,11.61,3.36,23.11,8.14,11.5,20.72,15.73,25.93,15.41,5.21-.32,13.13-1.3,15.95,0,2.82,1.3,3.04,3.91,5.42,2.28,2.39-1.63,3.69-1.41,4.99,3.47,1.3,4.88-2.93,12.69-2.93,12.69,0,0-4.45-.33.11,13.34,4.56,13.67-2.28,18.55-5.86,22.13-3.58,3.58-5.86,9.76-4.23,17.9,1.63,8.14-2.93,14.97-7.16,23.11-4.23,8.14,0,10.09,0,10.09,8.59-4.43,24.05-19.67,32.39-28.93,4.73-5.89,9.02-12.13,12.83-18.69,3.39-6.28,7.31-14.47,11.55-24.88,5.64-15.82,8.73-32.85,8.73-50.61Z"/>
      <path class="cls-5" d="m127.78,180.62s-1.3,3.58-.81,6.51c.49,2.93,4.23,3.25,4.23,3.25,0,0,.32,9.6,4.56,12.21,4.23,2.6,5.21,5.53,6.18,10.25.98,4.72-6.51,10.9-9.76,18.06-3.25,7.15-2.44,9.77-.81,18.07,1.63,8.3,16.92,21.81,16.92,21.81-2.6,5.86.81,10.9,1.76,12.04.94,1.14,1.17,3.58,1.17,3.58,0,0-1.79,11.72-3.28,16.6-1.49,4.88,1.49,7.33,1.49,7.33,0,0-.54,4.17-1.19,8.73-.65,4.56-.22,10.85,1.08,13.89,1.3,3.04,3.26,16.27,3.26,16.27,8.52,13.02,16.71,14.97,16.71,14.97,0,0-1.46-12.53-2.77-19.2-1.3-6.67,12.53-17.9,15.79-19.37,3.25-1.46,6.35-2.93,7.16-5.04.81-2.12,8.46-17.25,17.9-20.51,9.44-3.25,14.65-11.23,15.3-14,.65-2.76,6.19-11.88,11.72-19.69,5.53-7.81-.16-13.67-4.88-16.44-4.72-2.77-11.88-5.37-14.48-5.7-2.6-.32-5.7-6.83-7.97-11.39-2.28-4.56-9.28-14.16-11.07-15.14-1.79-.98-8.63-2.28-12.86-7.16-4.23-4.88-15.14-8.46-18.88-11.07-3.74-2.6-5.7-4.07-9.44,2.12-3.74,6.18-9.11.81-13.67-.65-4.55-1.47-4.07-9.11-3.42-12.53.65-3.42-.81-4.07-.81-4.07-3.42-.81-2.44-3.09,2.93-8.79,5.37-5.69-3.25-5.69-9.44-4.88-6.18.81-2.6-25.22,14.97-24.57,17.58.65,12.37,5.53,16.44,12.53,4.07,7,4.56.16,4.56.16l2.12-14c5.37-.49,8.79-2.77,12.37-5.04,3.58-2.28,12.04-3.91,16.6-7.16,4.56-3.25,5.86-.65,13.34-1.63,7.48-.98,8.95-4.88,10.9-5.86,1.95-.98,2.44,5.04,8.46,2.44,6.02-2.6,6.35-12.69,6.35-12.69,0,0-.81.16-3.58,1.46-2.77,1.3,1.46-5.53,1.95-8.46.49-2.92-.98-1.79-5.37-5.7-4.39-3.91-7.16,1.46-8.79,2.93-1.63,1.46-3.58,0-4.72-.33-1.14-.33-1.46.49-1.46.49,0,0-1.14,2.93-7.81,7.16-6.67,4.23-5.21-2.61-6.18-6.51-.98-3.91,3.91-5.53,7-8.14,3.09-2.6,6.35-4.07,7.81-2.77,1.46,1.3,4.39,1.63,9.28-.33,4.88-1.95,8.46,4.72,8.46,4.72,10.28-1.51,10.34-8.13,9.23-12.4-54.73.63-102.44,30.48-128.26,74.68,0,3.95.58,8.66,2.19,11.61,2.93,5.37,11.55,7.32,11.55,7.32Z"/>
      <path class="cls-5" d="m243.59,100.01c0,5.32,4.23,11.07,4.23,11.07,0,0,1.52,1.74,3.8,2.93,2.28,1.19,2.93-.87,2.93-.87,0,0,7.16-8.35,8.68-10.52,1.52-2.17,3.58-2.93,7.81-3.91,2.55-.59,5.17-4.71,6.85-7.9-10.03-2.3-20.45-3.6-31.15-3.78-.42,2.1-1.55,5.08-2.18,6.26-.87,1.63-.98,1.41-.98,6.73Z"/>
      <path class="cls-5" d="m267.46,106.96c-5.53,2.06-.65,4.66-.65,4.66,3.36,1.85,4.99,1.63,7.7,2.06,2.71.43,1.73-1.19,1.73-1.19l.54-2.39s4.01-1.19,1.2-4.23c-2.82-3.04-4.99-.98-10.53,1.09Z"/>
      <path class="cls-5" d="m310.32,134.3l2.39-1.31s.98,6.52,2.61,9.02c1.63,2.49,4.99.54,8.24-1.52,3.26-2.06-.87-7.27-2.6-9.98-1.74-2.71-4.34-3.69-4.34-3.69,0,0-1.74-4.12-5.1-4.01-3.36.11-1.95,3.15-1.73,4.23.21,1.09-.98,1.74-1.85,2.71-.87.98-1.74,2.82-.76,4.56.98,1.74,3.15,0,3.15,0Z"/>
      <path class="cls-5" d="m166.51,171.51c-1.95,0-3.9-2.77-6.02-3.74-2.12-.98-3.26-.98-6.51,1.79-3.26,2.77,3.25,3.25,3.25,3.25,0,0,6.84,3.09,14.48,1.63,7.65-1.46-3.26-2.93-5.21-2.93Z"/>
      <path class="cls-5" d="m178.4,179.32c-2.43-.98-4.08.65-6.68,1.95-2.6,1.3-3.58,2.93-.98,2.44,2.6-.49,6.84,0,6.84,0,0,0,4.07,2.44,5.21.09,1.14-2.35-1.95-3.51-4.38-4.48Z"/>
    </g>
  </g>
  <path class="cls-4" d="m238.97,458.11h-.04l-.7-.02c-1.13-.03-2.03-.97-2-2.1.03-1.13,1.04-2.01,2.1-2l.67.02c1.13.02,2.03.96,2.01,2.09-.02,1.12-.94,2.01-2.05,2.01Zm10.93-.02c-1.11,0-2.02-.88-2.05-2-.03-1.13.86-2.07,2-2.1l.68-.02h.06c1.11,0,2.02.88,2.05,2,.03,1.13-.86,2.07-2,2.1l-.68.02h-.06Zm-22.53-.55s-.1,0-.15,0l-.7-.05c-1.13-.09-1.97-1.08-1.88-2.21.09-1.13,1.1-1.97,2.21-1.88l.67.05c1.13.08,1.98,1.06,1.9,2.19-.08,1.08-.98,1.9-2.04,1.9Zm34.13-.06c-1.06,0-1.96-.81-2.04-1.89-.09-1.13.75-2.12,1.88-2.21l.68-.05c1.11-.09,2.12.75,2.21,1.88.09,1.13-.75,2.12-1.88,2.21l-.68.05c-.05,0-.11,0-.17,0Zm-45.68-1.12c-.09,0-.17,0-.26-.02l-.69-.09c-1.12-.15-1.91-1.18-1.76-2.31.15-1.12,1.18-1.9,2.31-1.76l.66.09c1.12.14,1.92,1.17,1.78,2.29-.13,1.04-1.01,1.79-2.03,1.79Zm57.23-.1c-1.01,0-1.89-.75-2.03-1.78-.15-1.12.64-2.15,1.76-2.31l.68-.09c1.13-.14,2.15.64,2.3,1.76.15,1.12-.64,2.15-1.76,2.3l-.68.09c-.09.01-.18.02-.28.02Zm-68.7-1.7c-.12,0-.24-.01-.37-.03l-.59-.11c-1.11-.21-1.89-1.29-1.68-2.4.21-1.11,1.24-1.86,2.35-1.65l.66.12c1.11.2,1.85,1.27,1.65,2.38-.18.99-1.04,1.69-2.01,1.69Zm80.17-.13c-.97,0-1.83-.69-2.01-1.67-.21-1.11.52-2.18,1.64-2.39l.67-.13c1.12-.21,2.19.52,2.4,1.63.21,1.11-.52,2.19-1.63,2.4l-.67.13c-.13.02-.25.03-.38.03Zm-91.54-2.27c-.16,0-.32-.02-.48-.06l-.69-.17c-1.1-.28-1.76-1.39-1.49-2.49.28-1.1,1.39-1.76,2.49-1.49l.64.16c1.1.26,1.78,1.37,1.52,2.47-.22.94-1.07,1.58-1.99,1.58Zm102.89-.17c-.93,0-1.77-.63-1.99-1.57-.26-1.1.41-2.21,1.52-2.47l.65-.16c1.09-.27,2.21.4,2.48,1.5.27,1.1-.4,2.21-1.5,2.48l-.67.16c-.16.04-.32.06-.48.06Zm-114.11-2.84c-.19,0-.39-.03-.58-.09l-.67-.2c-1.08-.33-1.69-1.48-1.36-2.56.33-1.08,1.48-1.69,2.56-1.36l.64.19c1.09.32,1.71,1.46,1.38,2.55-.26.89-1.08,1.47-1.96,1.47Zm125.32-.21c-.88,0-1.7-.57-1.96-1.46-.32-1.08.29-2.23,1.38-2.55l.64-.19c1.09-.33,2.23.28,2.56,1.36.33,1.08-.28,2.23-1.36,2.56l-.67.2c-.2.06-.39.09-.59.09Zm-136.39-3.4c-.23,0-.46-.04-.69-.12l-.66-.24c-1.06-.39-1.61-1.56-1.22-2.63.39-1.06,1.56-1.61,2.63-1.22l.64.23c1.07.38,1.62,1.55,1.24,2.62-.3.84-1.09,1.36-1.93,1.36Zm147.42-.24c-.84,0-1.63-.52-1.93-1.36-.38-1.07.17-2.24,1.24-2.62l.63-.23c1.06-.39,2.24.16,2.63,1.22.39,1.06-.16,2.24-1.22,2.63l-.65.24c-.23.08-.46.12-.69.12Zm-158.28-3.96c-.26,0-.53-.05-.78-.16l-.65-.27c-1.04-.44-1.53-1.64-1.09-2.69.44-1.04,1.64-1.53,2.69-1.09l.62.26c1.05.43,1.54,1.63,1.11,2.68-.33.79-1.09,1.27-1.9,1.27Zm169.08-.25c-.81,0-1.57-.48-1.9-1.27-.43-1.05.07-2.25,1.12-2.68l.6-.25c1.04-.44,2.25.04,2.69,1.08.45,1.04-.04,2.25-1.08,2.69l-.65.28c-.25.1-.52.15-.78.15Zm-179.69-4.52c-.3,0-.6-.07-.89-.21l-.61-.3c-1.02-.49-1.45-1.72-.96-2.74.49-1.02,1.72-1.45,2.74-.96l.62.3c1.02.49,1.45,1.72.95,2.74-.35.73-1.09,1.16-1.85,1.16Zm190.25-.27c-.76,0-1.5-.43-1.85-1.16-.49-1.02-.06-2.25.96-2.74l.6-.29c1.01-.5,2.24-.08,2.74.94.5,1.02.08,2.24-.94,2.74l-.62.3c-.29.14-.59.2-.89.2Zm-200.59-5.07c-.33,0-.67-.08-.99-.25l-.61-.34c-.99-.55-1.34-1.8-.79-2.79.55-.99,1.8-1.35,2.79-.79l.59.33c.99.55,1.35,1.79.81,2.79-.37.68-1.07,1.06-1.8,1.06Zm210.88-.27c-.72,0-1.42-.38-1.79-1.05-.55-.99-.2-2.24.79-2.79l.59-.33c.99-.55,2.24-.2,2.79.79.55.99.2,2.24-.79,2.79l-.59.33c-.32.18-.66.26-1,.26Zm-220.92-5.6c-.37,0-.74-.1-1.08-.31l-.59-.37c-.96-.61-1.24-1.87-.64-2.83.6-.96,1.87-1.24,2.83-.64l.57.36c.96.6,1.26,1.86.66,2.82-.39.62-1.06.97-1.74.97Zm230.91-.28c-.68,0-1.35-.34-1.74-.96-.6-.96-.32-2.22.64-2.83l.58-.36c.96-.6,2.22-.32,2.83.64.6.96.32,2.22-.64,2.83l-.58.36c-.34.21-.72.32-1.09.32Zm-240.62-6.11c-.41,0-.82-.12-1.18-.37l-.56-.4c-.93-.65-1.15-1.93-.49-2.86.65-.93,1.93-1.15,2.86-.49l.56.39c.93.65,1.15,1.93.5,2.86-.4.57-1.03.87-1.68.87Zm250.3-.3c-.65,0-1.28-.3-1.68-.87-.65-.93-.42-2.21.51-2.86l.55-.39c.92-.65,2.2-.43,2.86.49.65.92.43,2.2-.49,2.86l-.57.4c-.36.25-.77.37-1.17.37Zm-259.65-6.61c-.44,0-.89-.14-1.26-.43l-.55-.43c-.89-.7-1.04-1.99-.34-2.88.7-.89,1.99-1.04,2.88-.34l.53.42c.89.7,1.05,1.99.35,2.88-.4.52-1.01.79-1.62.79Zm268.97-.31c-.61,0-1.21-.27-1.61-.78-.7-.89-.55-2.18.34-2.88l.54-.42c.89-.7,2.18-.55,2.88.34.7.89.55,2.18-.34,2.88l-.54.42c-.38.3-.82.44-1.27.44Zm-277.94-7.08c-.48,0-.96-.16-1.34-.5l-.53-.46c-.85-.75-.93-2.04-.18-2.89.75-.85,2.05-.93,2.89-.18l.5.44c.86.74.95,2.04.2,2.89-.41.47-.98.71-1.55.71Zm286.89-.32c-.57,0-1.14-.24-1.54-.7-.75-.85-.66-2.15.19-2.89l.51-.44c.85-.75,2.14-.67,2.89.18.75.85.67,2.14-.18,2.89l-.52.46c-.39.34-.87.51-1.35.51Zm-295.46-7.53c-.51,0-1.03-.19-1.43-.58l-.5-.48c-.81-.79-.83-2.09-.03-2.9.79-.81,2.09-.83,2.9-.03l.48.47c.81.79.83,2.09.05,2.9-.4.42-.94.62-1.47.62Zm304-.34c-.53,0-1.07-.21-1.47-.62-.79-.81-.77-2.11.04-2.9l.49-.48c.81-.79,2.11-.77,2.9.04.79.81.77,2.11-.04,2.9l-.49.48c-.4.39-.91.58-1.43.58Zm-312.14-7.95c-.55,0-1.09-.22-1.5-.65l-.47-.5c-.77-.83-.73-2.13.1-2.9.83-.77,2.13-.73,2.9.1l.46.5c.77.83.73,2.12-.1,2.9-.4.37-.9.55-1.4.55Zm320.26-.35c-.5,0-1-.18-1.4-.55-.83-.77-.88-2.07-.11-2.9l.46-.5c.77-.83,2.06-.89,2.9-.12.83.77.89,2.06.12,2.9l-.47.51c-.4.43-.95.65-1.5.65Zm-327.95-8.35c-.59,0-1.17-.25-1.57-.73l-.44-.52c-.73-.87-.62-2.16.25-2.89.87-.73,2.16-.61,2.89.25l.44.53c.73.87.61,2.16-.26,2.89-.38.32-.85.48-1.31.48Zm335.62-.38c-.46,0-.92-.15-1.31-.47-.87-.72-.99-2.02-.27-2.89l.44-.52c.72-.87,2.01-.99,2.89-.27.87.72.99,2.01.27,2.89l-.44.53c-.4.49-.99.74-1.58.74Zm-342.84-8.72c-.62,0-1.24-.28-1.64-.82l-.41-.54c-.68-.91-.5-2.19.41-2.87.91-.68,2.19-.5,2.87.41l.41.55c.68.91.49,2.19-.41,2.87-.37.28-.8.41-1.23.41Zm350.04-.4c-.43,0-.86-.13-1.22-.41-.91-.68-1.09-1.96-.42-2.87l.41-.55c.68-.91,1.96-1.1,2.87-.42.91.68,1.1,1.96.42,2.87l-.41.55c-.4.54-1.02.82-1.65.82Zm-356.76-9.06c-.66,0-1.31-.32-1.7-.91l-.38-.57c-.63-.94-.38-2.21.57-2.84.94-.63,2.22-.38,2.84.57l.38.56c.63.94.38,2.21-.56,2.85-.35.24-.75.35-1.14.35Zm363.47-.43c-.39,0-.79-.11-1.14-.34-.94-.63-1.2-1.9-.57-2.84l.38-.57c.63-.94,1.9-1.19,2.84-.57.94.63,1.2,1.9.57,2.84l-.38.57c-.4.59-1.05.91-1.71.91Zm-369.68-9.37c-.7,0-1.38-.36-1.76-1l-.35-.59c-.58-.97-.25-2.23.72-2.81.97-.57,2.23-.25,2.81.72l.34.58c.58.97.26,2.23-.71,2.81-.33.2-.69.29-1.05.29Zm375.88-.47c-.36,0-.72-.09-1.05-.29-.97-.58-1.29-1.84-.71-2.81l.35-.59c.58-.97,1.83-1.3,2.81-.72.97.58,1.3,1.83.72,2.81l-.35.59c-.38.64-1.07,1-1.76,1Zm-381.56-9.64c-.74,0-1.45-.4-1.82-1.1l-.32-.6c-.53-1-.14-2.24.86-2.77,1-.53,2.24-.14,2.77.86l.32.6c.53,1,.14,2.24-.86,2.77-.3.16-.63.24-.95.24Zm387.23-.51c-.32,0-.64-.08-.94-.23-1-.52-1.4-1.76-.88-2.77l.32-.61c.53-1,1.76-1.39,2.77-.87,1,.52,1.39,1.76.87,2.77l-.31.6c-.37.7-1.08,1.11-1.82,1.11Zm-392.36-9.88c-.78,0-1.52-.44-1.86-1.19l-.28-.61c-.48-1.03-.03-2.25,1-2.72,1.03-.48,2.25-.03,2.72,1l.29.62c.47,1.03.02,2.25-1.01,2.72-.28.13-.57.19-.86.19Zm397.49-.56c-.29,0-.57-.06-.85-.19-1.03-.47-1.48-1.69-1.01-2.72l.29-.62c.47-1.03,1.69-1.49,2.72-1.01,1.03.47,1.48,1.69,1.02,2.72l-.29.62c-.35.75-1.09,1.2-1.87,1.2Zm-402.05-10.09c-.81,0-1.58-.49-1.9-1.29l-.26-.65c-.41-1.05.1-2.24,1.16-2.66,1.06-.41,2.24.1,2.66,1.16l.25.62c.42,1.05-.09,2.24-1.14,2.67-.25.1-.51.15-.76.15Zm406.61-.62c-.25,0-.51-.05-.75-.14-1.05-.42-1.57-1.61-1.15-2.66l.25-.63c.41-1.06,1.6-1.58,2.66-1.16,1.05.41,1.58,1.6,1.16,2.66l-.25.65c-.32.81-1.09,1.3-1.91,1.3Zm-410.62-10.29c-.86,0-1.66-.54-1.94-1.4l-.22-.65c-.36-1.07.22-2.24,1.29-2.6,1.08-.36,2.24.22,2.6,1.29l.22.65c.36,1.07-.22,2.24-1.29,2.6-.22.07-.44.11-.65.11Zm414.59-.66c-.21,0-.43-.03-.65-.11-1.07-.36-1.66-1.52-1.3-2.59l.22-.65c.36-1.07,1.51-1.66,2.59-1.3,1.07.36,1.65,1.52,1.3,2.59l-.22.65c-.29.86-1.09,1.4-1.95,1.4Zm-418.01-10.44c-.9,0-1.72-.59-1.97-1.5l-.18-.67c-.3-1.09.34-2.22,1.43-2.52,1.09-.31,2.22.34,2.52,1.43l.18.65c.3,1.09-.33,2.22-1.42,2.53-.18.05-.37.08-.55.08Zm421.39-.67c-.18,0-.36-.02-.55-.08-1.09-.3-1.73-1.43-1.43-2.52l.18-.66c.3-1.09,1.43-1.73,2.52-1.44,1.09.3,1.73,1.43,1.44,2.52l-.18.66c-.25.91-1.08,1.51-1.97,1.51Zm-424.2-10.6c-.94,0-1.79-.65-2-1.61l-.15-.67c-.25-1.11.45-2.2,1.56-2.44,1.11-.24,2.2.45,2.44,1.56l.15.67c.25,1.11-.45,2.2-1.56,2.44-.15.03-.3.05-.45.05Zm426.98-.68c-.14,0-.29-.02-.44-.05-1.11-.24-1.81-1.33-1.57-2.44l.14-.67c.24-1.11,1.33-1.81,2.44-1.57,1.11.24,1.81,1.33,1.57,2.44l-.15.67c-.21.96-1.06,1.62-2,1.62Zm-429.19-10.72c-.99,0-1.86-.71-2.02-1.72l-.11-.67c-.18-1.12.57-2.17,1.69-2.36,1.12-.19,2.17.57,2.36,1.69l.11.67c.18,1.12-.57,2.17-1.69,2.36-.11.02-.22.03-.33.03Zm431.36-.69c-.11,0-.22,0-.33-.03-1.12-.18-1.88-1.23-1.7-2.35l.11-.68c.18-1.12,1.24-1.89,2.35-1.7,1.12.18,1.88,1.23,1.7,2.35l-.11.67c-.16,1.01-1.03,1.73-2.02,1.73Zm-432.96-10.82c-1.03,0-1.92-.77-2.04-1.82l-.08-.69c-.12-1.13.69-2.14,1.81-2.26,1.13-.12,2.14.69,2.26,1.81l.07.67c.13,1.13-.68,2.14-1.81,2.27-.08,0-.16.01-.23.01Zm434.52-.69c-.08,0-.16,0-.23-.01-1.13-.13-1.93-1.14-1.81-2.27l.07-.67c.12-1.13,1.15-1.95,2.26-1.82,1.13.12,1.94,1.13,1.82,2.26l-.08.69c-.12,1.05-1.01,1.82-2.03,1.82Zm-435.5-10.88c-1.08,0-1.98-.84-2.04-1.93l-.04-.65c-.06-1.13.8-2.12,1.93-2.18,1.12-.05,2.1.78,2.16,1.91l.04.68c.07,1.13-.79,2.1-1.92,2.17-.04,0-.08,0-.12,0Zm436.45-.7s-.08,0-.12,0c-1.13-.07-1.99-1.04-1.92-2.17l.04-.67c.06-1.13.98-1.99,2.16-1.94,1.13.06,2,1.03,1.94,2.16l-.04.7c-.06,1.09-.97,1.93-2.05,1.93Zm-436.82-10.91c-1.13,0-2.04-.91-2.05-2.04v-.68c-.01-1.13.9-2.06,2.03-2.06h.01c1.13,0,2.04.91,2.05,2.04v.68c.01,1.13-.9,2.06-2.03,2.06,0,0,0,0-.01,0Zm437.16-.7s0,0-.01,0c-1.13,0-2.04-.93-2.04-2.06v-.67c0-.38.1-.73.28-1.04-.18-.3-.29-.66-.29-1.04v-.67c-.02-1.13.88-2.06,2.02-2.08,1.1,0,2.06.89,2.08,2.02v.7c.01.38-.09.74-.27,1.05.18.31.29.67.29,1.05v.7c0,1.13-.92,2.04-2.05,2.04Zm-436.92-10.92s-.06,0-.1,0c-1.13-.05-2.01-1.01-1.95-2.14l.03-.69c.06-1.13,1.02-2.01,2.15-1.95,1.13.06,2,1.02,1.95,2.15l-.03.68c-.05,1.1-.96,1.96-2.05,1.96Zm436.5-3.46c-1.08,0-1.99-.85-2.05-1.94l-.04-.65c-.08-1.13.78-2.11,1.91-2.18,1.14-.08,2.11.78,2.18,1.91l.04.71c.06,1.13-.81,2.1-1.94,2.16-.04,0-.07,0-.11,0Zm-435.66-8.12c-.07,0-.14,0-.21-.01-1.13-.11-1.95-1.12-1.84-2.24l.07-.68c.11-1.13,1.11-1.95,2.24-1.84,1.13.11,1.95,1.12,1.84,2.24l-.07.68c-.11,1.06-1,1.85-2.04,1.85Zm434.64-3.45c-1.03,0-1.92-.78-2.04-1.83l-.08-.65c-.13-1.12.67-2.15,1.79-2.28,1.12-.14,2.15.67,2.28,1.79l.08.71c.12,1.13-.7,2.14-1.82,2.26-.07,0-.15.01-.22.01Zm-433.19-8.07c-.1,0-.21,0-.31-.02-1.12-.17-1.89-1.22-1.72-2.34l.1-.68c.17-1.12,1.22-1.88,2.34-1.72,1.12.17,1.89,1.22,1.72,2.34l-.1.68c-.16,1.01-1.03,1.74-2.02,1.74Zm431.54-3.45c-.98,0-1.84-.69-2-1.69l-.11-.66c-.19-1.12.55-2.18,1.67-2.37,1.11-.2,2.18.55,2.37,1.67l.11.63c.19,1.12-.56,2.2-1.68,2.39-.12.02-.24.03-.35.03Zm-429.48-7.98c-.14,0-.28-.01-.42-.04-1.11-.23-1.82-1.32-1.59-2.43l.14-.67c.23-1.11,1.33-1.82,2.43-1.58,1.11.23,1.82,1.32,1.58,2.43l-.14.67c-.2.97-1.06,1.63-2,1.63Zm427.25-3.39c-.94,0-1.79-.65-2-1.6l-.15-.65c-.25-1.1.43-2.2,1.54-2.46,1.11-.25,2.21.43,2.46,1.54l.15.68c.25,1.11-.45,2.2-1.55,2.45-.15.03-.3.05-.45.05Zm-424.58-7.91c-.17,0-.35-.02-.52-.07-1.1-.29-1.75-1.41-1.46-2.51l.18-.67c.29-1.09,1.42-1.74,2.51-1.45,1.09.29,1.74,1.42,1.45,2.51l-.17.65c-.24.92-1.07,1.53-1.98,1.53Zm421.73-3.35c-.89,0-1.72-.59-1.97-1.5l-.19-.66c-.31-1.09.33-2.22,1.41-2.53,1.09-.31,2.22.33,2.53,1.42l.19.66c.31,1.09-.33,2.22-1.42,2.53-.19.05-.37.08-.56.08Zm-418.46-7.8c-.21,0-.42-.03-.63-.1-1.08-.35-1.67-1.5-1.32-2.58l.22-.66c.35-1.08,1.51-1.66,2.59-1.31,1.08.35,1.66,1.51,1.31,2.59l-.21.64c-.28.87-1.09,1.42-1.95,1.42Zm415.01-3.29c-.86,0-1.66-.54-1.94-1.4l-.22-.64c-.37-1.07.2-2.24,1.27-2.6,1.07-.37,2.24.2,2.61,1.28l.22.66c.36,1.07-.22,2.24-1.29,2.6-.22.07-.44.11-.65.11Zm-411.14-7.69c-.25,0-.49-.04-.74-.14-1.06-.41-1.58-1.59-1.18-2.65l.25-.64c.41-1.06,1.6-1.58,2.65-1.17,1.06.41,1.58,1.6,1.17,2.65l-.25.64c-.31.81-1.09,1.31-1.91,1.31Zm407.1-3.2c-.81,0-1.58-.49-1.91-1.29l-.25-.62c-.43-1.05.08-2.25,1.13-2.67,1.05-.42,2.25.08,2.67,1.13l.26.65c.42,1.05-.09,2.24-1.15,2.66-.25.1-.51.15-.76.15Zm-402.64-7.55c-.28,0-.56-.06-.83-.18-1.03-.46-1.5-1.67-1.04-2.71l.29-.64c.46-1.03,1.68-1.5,2.71-1.03,1.03.47,1.49,1.68,1.03,2.71l-.27.61c-.34.76-1.09,1.22-1.88,1.22Zm398.04-3.09c-.78,0-1.53-.45-1.87-1.2l-.27-.59c-.48-1.03-.04-2.25.98-2.73,1.02-.48,2.25-.04,2.73.98l.3.64c.47,1.03.01,2.25-1.02,2.71-.27.13-.56.18-.85.18Zm-393.02-7.41c-.31,0-.63-.07-.93-.22-1.01-.52-1.41-1.75-.89-2.76l.32-.62c.52-1.01,1.76-1.4,2.76-.88,1.01.52,1.4,1.76.88,2.76l-.31.6c-.36.71-1.08,1.12-1.83,1.12Zm387.85-2.97c-.74,0-1.45-.4-1.82-1.1l-.31-.59c-.54-1-.16-2.24.84-2.78,1-.53,2.24-.16,2.78.84l.33.61c.53,1,.14,2.24-.86,2.77-.3.16-.63.24-.95.24Zm-382.28-7.24c-.35,0-.7-.09-1.03-.28-.98-.57-1.31-1.82-.74-2.8l.35-.6c.57-.98,1.83-1.31,2.81-.73.98.57,1.3,1.83.73,2.81l-.34.58c-.38.66-1.07,1.02-1.78,1.02Zm376.57-2.86c-.7,0-1.38-.36-1.76-1l-.35-.57c-.59-.97-.28-2.23.69-2.82.97-.59,2.23-.28,2.81.69l.36.59c.58.97.26,2.23-.71,2.81-.33.2-.69.29-1.05.29Zm-370.46-7.04c-.39,0-.78-.11-1.12-.34-.95-.62-1.21-1.89-.59-2.84l.38-.57c.62-.95,1.9-1.21,2.84-.58.95.62,1.21,1.9.58,2.84l-.37.57c-.39.6-1.05.93-1.72.93Zm364.22-2.74c-.66,0-1.32-.32-1.71-.92l-.37-.54c-.64-.94-.4-2.21.54-2.85.93-.64,2.21-.4,2.85.54l.4.59c.63.94.37,2.22-.57,2.84-.35.23-.74.34-1.13.34Zm-357.59-6.81c-.42,0-.85-.13-1.21-.4-.91-.67-1.11-1.95-.44-2.87l.41-.56c.68-.91,1.96-1.1,2.87-.43.91.67,1.1,1.96.43,2.87l-.4.54c-.4.55-1.02.84-1.65.84Zm350.84-2.63c-.62,0-1.23-.28-1.64-.82l-.41-.54c-.69-.9-.51-2.19.4-2.87.9-.68,2.19-.51,2.87.39l.41.55c.68.9.5,2.19-.4,2.87-.37.28-.8.41-1.23.41Zm-343.72-6.56c-.46,0-.91-.15-1.3-.46-.88-.72-1.01-2.01-.29-2.89l.44-.54c.72-.87,2.01-1,2.89-.28.87.72,1,2.01.28,2.89l-.43.52c-.4.5-.99.75-1.59.75Zm336.48-2.51c-.59,0-1.17-.25-1.57-.73l-.43-.51c-.73-.86-.63-2.16.23-2.89.87-.74,2.16-.63,2.89.23l.45.53c.73.87.62,2.16-.25,2.89-.38.32-.85.48-1.32.48Zm-328.88-6.29c-.49,0-.99-.18-1.38-.53-.84-.76-.9-2.06-.14-2.9l.46-.51c.76-.83,2.06-.9,2.9-.13.84.76.89,2.06.13,2.9l-.46.5c-.4.44-.96.67-1.52.67Zm321.17-2.39c-.55,0-1.09-.22-1.5-.65l-.46-.49c-.78-.82-.74-2.12.08-2.9.82-.78,2.12-.74,2.9.08l.47.51c.77.83.73,2.12-.09,2.9-.4.37-.9.55-1.4.55Zm-313.12-5.99c-.53,0-1.06-.2-1.46-.61-.79-.81-.79-2.11.02-2.9l.49-.48c.81-.79,2.11-.79,2.9.02.79.81.79,2.11-.02,2.9l-.49.48c-.4.39-.92.59-1.44.59Zm304.96-2.27c-.51,0-1.02-.19-1.41-.56l-.5-.48c-.82-.78-.85-2.08-.07-2.9.78-.82,2.08-.85,2.9-.07l.49.47c.82.78.86,2.08.07,2.9-.4.42-.94.64-1.49.64Zm-296.48-5.67c-.57,0-1.13-.23-1.54-.69-.75-.85-.67-2.14.18-2.89l.51-.45c.85-.75,2.15-.67,2.89.18.75.85.67,2.14-.18,2.89l-.51.45c-.39.35-.88.52-1.36.52Zm287.89-2.15c-.47,0-.95-.16-1.34-.5l-.51-.44c-.86-.74-.96-2.03-.22-2.89.73-.86,2.03-.96,2.89-.22l.53.45c.86.74.95,2.04.21,2.89-.4.47-.98.71-1.55.71Zm-279.01-5.34c-.6,0-1.2-.26-1.61-.77-.71-.89-.56-2.18.33-2.88l.53-.43c.89-.71,2.18-.56,2.88.33.71.89.56,2.18-.33,2.88l-.53.43c-.38.3-.83.45-1.28.45Zm270.01-2.02c-.44,0-.88-.14-1.26-.43l-.53-.41c-.9-.69-1.07-1.98-.38-2.87.69-.9,1.98-1.07,2.88-.38l.55.43c.89.69,1.06,1.98.36,2.88-.4.52-1.01.79-1.62.79Zm-260.76-4.98c-.64,0-1.27-.3-1.67-.86-.66-.92-.44-2.2.48-2.86l.56-.4c.92-.65,2.2-.44,2.86.49.65.92.44,2.2-.49,2.86l-.55.39c-.36.26-.78.38-1.19.38Zm251.38-1.89c-.4,0-.81-.12-1.16-.36l-.56-.39c-.94-.64-1.18-1.92-.54-2.85.64-.94,1.92-1.17,2.85-.53l.57.39c.93.64,1.17,1.92.53,2.85-.4.58-1.04.89-1.69.89Zm-241.77-4.61c-.68,0-1.34-.33-1.73-.95-.61-.95-.33-2.22.63-2.83l.58-.37c.96-.6,2.23-.32,2.83.64.6.96.32,2.22-.64,2.83l-.57.36c-.34.22-.72.32-1.1.32Zm232.04-1.76c-.37,0-.74-.1-1.07-.31l-.58-.36c-.97-.59-1.27-1.85-.68-2.82.59-.97,1.85-1.27,2.82-.68l.59.36c.96.59,1.26,1.86.67,2.82-.39.63-1.06.98-1.75.98Zm-222.1-4.22c-.72,0-1.41-.37-1.79-1.04-.56-.99-.21-2.24.78-2.79l.6-.34c.99-.56,2.24-.21,2.79.78.56.99.21,2.24-.78,2.79l-.59.33c-.32.18-.67.27-1.01.27Zm212.04-1.62c-.33,0-.67-.08-.98-.25l-.6-.32c-1-.54-1.37-1.78-.83-2.78.54-1,1.78-1.36,2.78-.83l.61.33c.99.54,1.36,1.79.82,2.78-.37.68-1.08,1.07-1.8,1.07Zm-201.8-3.82c-.75,0-1.48-.42-1.84-1.14-.51-1.01-.09-2.24.92-2.75l.62-.31c1.02-.5,2.24-.08,2.75.93.5,1.02.08,2.24-.93,2.75l-.6.3c-.29.15-.61.22-.91.22Zm191.44-1.48c-.3,0-.6-.06-.88-.2l-.62-.29c-1.02-.49-1.46-1.71-.97-2.73.48-1.02,1.7-1.46,2.73-.97l.62.3c1.02.49,1.45,1.71.97,2.74-.35.74-1.09,1.17-1.85,1.17Zm-180.93-3.41c-.79,0-1.55-.46-1.88-1.24-.45-1.04.03-2.25,1.07-2.69l.62-.27c1.04-.45,2.25.03,2.69,1.07.45,1.04-.03,2.25-1.07,2.69l-.62.27c-.26.11-.54.17-.81.17Zm170.3-1.33c-.26,0-.52-.05-.77-.15l-.64-.26c-1.05-.43-1.55-1.63-1.12-2.68.43-1.05,1.63-1.55,2.67-1.12l.63.26c1.05.43,1.55,1.62,1.13,2.67-.32.8-1.09,1.28-1.9,1.28Zm-159.55-2.98c-.83,0-1.62-.51-1.92-1.34-.39-1.06.15-2.24,1.21-2.63l.64-.24c1.06-.39,2.24.15,2.63,1.21.39,1.06-.15,2.24-1.21,2.63l-.64.24c-.23.09-.47.13-.71.13Zm148.68-1.18c-.22,0-.45-.04-.68-.12l-.65-.23c-1.07-.37-1.63-1.54-1.26-2.61.37-1.07,1.54-1.63,2.61-1.26l.65.23c1.07.37,1.63,1.54,1.26,2.61-.3.84-1.09,1.37-1.94,1.37Zm-137.69-2.56c-.87,0-1.68-.56-1.96-1.44-.34-1.08.26-2.23,1.35-2.57l.66-.21c1.08-.33,2.23.28,2.56,1.36.33,1.08-.28,2.23-1.36,2.56l-.64.2c-.2.06-.41.09-.61.09Zm126.63-1.01c-.19,0-.38-.03-.57-.08l-.66-.19c-1.09-.32-1.71-1.45-1.4-2.54.32-1.09,1.46-1.71,2.54-1.4l.66.19c1.09.32,1.71,1.45,1.4,2.54-.26.9-1.08,1.48-1.97,1.48Zm-115.45-2.15c-.92,0-1.75-.62-1.99-1.55-.28-1.1.39-2.21,1.48-2.49l.67-.17c1.1-.28,2.21.4,2.48,1.5.27,1.1-.4,2.21-1.5,2.48l-.65.16c-.17.04-.34.06-.51.06Zm104.22-.83c-.16,0-.31-.02-.47-.05l-.66-.15c-1.1-.26-1.79-1.36-1.54-2.46.25-1.1,1.35-1.79,2.46-1.54l.67.16c1.1.26,1.79,1.36,1.53,2.47-.22.95-1.06,1.58-1.99,1.58Zm-92.89-1.72c-.96,0-1.82-.68-2.01-1.66-.22-1.11.51-2.19,1.62-2.41l.67-.13c1.11-.22,2.19.51,2.41,1.62.22,1.11-.51,2.19-1.62,2.41l-.67.13c-.13.03-.27.04-.4.04Zm81.53-.64c-.12,0-.24-.01-.37-.03l-.67-.12c-1.11-.2-1.86-1.26-1.66-2.38.2-1.11,1.27-1.85,2.38-1.66l.68.12c1.11.2,1.86,1.26,1.66,2.38-.18.99-1.04,1.69-2.02,1.69Zm-70.08-1.29c-1,0-1.88-.74-2.03-1.77-.16-1.12.62-2.16,1.74-2.32l.68-.1c1.13-.15,2.16.62,2.32,1.74.16,1.12-.62,2.16-1.74,2.32l-.68.1c-.1.01-.19.02-.29.02Zm58.59-.46c-.08,0-.17,0-.25-.02l-.68-.08c-1.12-.14-1.92-1.16-1.78-2.29.14-1.12,1.18-1.92,2.29-1.78l.68.08c1.12.14,1.92,1.16,1.78,2.29-.13,1.04-1.01,1.8-2.03,1.8Zm-47.06-.86c-1.05,0-1.94-.8-2.04-1.87-.1-1.13.73-2.12,1.86-2.23l.69-.06c1.15-.1,2.12.74,2.22,1.87.1,1.13-.74,2.12-1.87,2.22l-.67.06c-.06,0-.13,0-.19,0Zm35.5-.28s-.1,0-.15,0l-.67-.05c-1.13-.08-1.98-1.06-1.9-2.19.08-1.13,1.02-1.98,2.19-1.9l.69.05c1.13.08,1.98,1.07,1.9,2.2-.08,1.08-.98,1.9-2.04,1.9Zm-23.9-.44c-1.1,0-2.01-.87-2.05-1.98-.04-1.13.84-2.08,1.97-2.12l.69-.02c1.12-.07,2.08.85,2.12,1.98.04,1.13-.85,2.08-1.98,2.12l-.67.02s-.05,0-.08,0Zm12.3-.1h-.72c-1.13-.03-2.03-.96-2.02-2.1.02-1.13.98-2.01,2.08-2.02h.68c1.13.03,2.03.96,2.02,2.1-.02,1.12-.93,2.02-2.05,2.02Z"/>
  <path class="cls-4" d="m239.64,429.34h-.04l-.61-.02c-.98-.03-1.76-.85-1.73-1.84.03-.96.82-1.73,1.78-1.73.02,0,.04,0,.06,0h.58c.98.04,1.76.85,1.74,1.84-.02.97-.82,1.74-1.78,1.74Zm9.51-.02c-.97,0-1.77-.78-1.78-1.76-.02-.98.77-1.8,1.76-1.81h.56c.92-.07,1.81.73,1.84,1.71.03.98-.74,1.81-1.73,1.84l-.62.02h-.03Zm-19.59-.48s-.09,0-.14,0l-.59-.05c-.98-.08-1.72-.93-1.64-1.92.08-.98.94-1.73,1.92-1.64l.6.05c.98.08,1.71.94,1.64,1.92-.07.93-.85,1.64-1.78,1.64Zm29.68-.05c-.92,0-1.7-.71-1.78-1.64-.08-.98.66-1.84,1.64-1.92l.59-.05c1-.08,1.84.66,1.92,1.64.08.98-.66,1.84-1.64,1.92l-.59.05s-.09,0-.14,0Zm-39.73-.98c-.07,0-.15,0-.22-.01l-.54-.07c-.98-.13-1.69-1.03-1.56-2.01.13-.98,1-1.67,1.97-1.53l.58.08c.98.12,1.67,1.01,1.55,1.99-.11.9-.88,1.56-1.77,1.56Zm49.77-.08c-.89,0-1.65-.66-1.77-1.56-.12-.98.57-1.87,1.55-1.99l.57-.08c.98-.13,1.87.55,2.01,1.53.13.98-.55,1.87-1.53,2.01l-.6.08c-.07,0-.15.01-.22.01Zm-59.75-1.47c-.11,0-.22,0-.32-.03l-.59-.11c-.97-.18-1.6-1.12-1.42-2.09.18-.97,1.11-1.59,2.09-1.42l.57.11c.97.18,1.61,1.11,1.43,2.08-.16.86-.91,1.46-1.75,1.46Zm69.72-.12c-.85,0-1.6-.6-1.75-1.46-.18-.97.46-1.9,1.43-2.07l.57-.11c.98-.19,1.9.45,2.09,1.42.19.97-.45,1.9-1.42,2.09l-.6.11c-.11.02-.22.03-.32.03Zm-79.6-1.97c-.14,0-.28-.02-.42-.05l-.58-.14c-.96-.23-1.55-1.2-1.31-2.15.23-.96,1.19-1.55,2.15-1.31l.58.14c.96.23,1.55,1.2,1.31,2.15-.2.82-.93,1.36-1.73,1.36Zm89.58-.18c-.81,0-1.58-.54-1.78-1.35-.23-.96.3-1.91,1.25-2.14l.57-.14c.95-.23,1.92.34,2.16,1.3.24.96-.34,1.92-1.3,2.16l-.47.12c-.14.03-.29.05-.43.05Zm-99.33-2.44c-.17,0-.34-.02-.51-.07l-.59-.18c-.94-.29-1.47-1.29-1.18-2.23.29-.94,1.28-1.47,2.23-1.18l.55.16c.94.28,1.48,1.27,1.21,2.22-.23.77-.94,1.28-1.71,1.28Zm108.98-.18c-.77,0-1.48-.5-1.71-1.28-.28-.94.26-1.94,1.21-2.21l.56-.17c.94-.28,1.94.25,2.22,1.19.29.94-.25,1.94-1.19,2.22l-.58.17c-.17.05-.34.07-.51.07Zm-118.61-2.96c-.2,0-.4-.03-.6-.1l-.58-.21c-.92-.34-1.4-1.36-1.06-2.29.34-.92,1.37-1.4,2.29-1.06l.55.2c.93.33,1.41,1.35,1.08,2.28-.26.73-.95,1.19-1.68,1.19Zm128.32-.26c-.74,0-1.46-.43-1.72-1.15-.34-.93.07-1.92,1-2.26l.55-.2c.92-.34,1.95.14,2.29,1.06.34.92-.14,1.95-1.06,2.29l-.42.15c-.2.07-.42.11-.63.11Zm-137.76-3.4c-.23,0-.46-.04-.68-.14l-.56-.24c-.91-.38-1.33-1.43-.95-2.34.38-.9,1.43-1.33,2.34-.95l.54.23c.91.38,1.34,1.42.96,2.33-.28.69-.95,1.1-1.65,1.1Zm147.03-.22c-.69,0-1.35-.41-1.64-1.09-.38-.91.04-1.95.95-2.34l.54-.23c.91-.38,1.95.03,2.34.94.39.91-.03,1.95-.94,2.34l-.55.23c-.23.1-.46.14-.69.14Zm-156.26-3.93c-.26,0-.53-.06-.78-.18l-.53-.26c-.89-.43-1.26-1.49-.83-2.38.43-.89,1.49-1.26,2.38-.83l.54.26c.89.43,1.25,1.5.82,2.38-.31.63-.94,1-1.6,1Zm165.44-.23c-.66,0-1.3-.37-1.61-1.01-.43-.89-.06-1.95.83-2.38l.52-.25c.89-.43,1.95-.07,2.39.81.44.88.07,1.95-.81,2.39l-.54.27c-.25.12-.51.18-.77.18Zm-174.43-4.41c-.29,0-.59-.07-.86-.22l-.52-.29c-.86-.48-1.17-1.56-.7-2.42.48-.86,1.56-1.17,2.42-.7l.52.29c.86.48,1.17,1.56.7,2.42-.32.59-.93.92-1.56.92Zm183.38-.24c-.63,0-1.24-.33-1.56-.92-.47-.86-.16-1.95.7-2.42l.51-.28c.86-.48,1.95-.17,2.43.69.48.86.17,1.95-.69,2.43l-.53.29c-.27.15-.57.22-.86.22Zm-192.11-4.87c-.32,0-.64-.09-.94-.27l-.51-.32c-.84-.52-1.09-1.62-.58-2.45.52-.84,1.62-1.09,2.46-.57l.5.31c.84.52,1.1,1.62.58,2.45-.34.55-.92.85-1.52.85Zm200.8-.25c-.59,0-1.17-.3-1.51-.84-.52-.83-.27-1.93.57-2.46l.5-.31c.83-.53,1.93-.28,2.46.56.52.83.27,1.94-.56,2.46l-.51.32c-.29.18-.62.27-.94.27Zm-209.24-5.31c-.35,0-.71-.1-1.02-.32l-.49-.34c-.81-.56-1-1.68-.44-2.48.56-.81,1.67-1,2.48-.44l.49.34c.81.56,1,1.68.44,2.48-.35.5-.9.76-1.46.76Zm217.65-.26c-.56,0-1.11-.26-1.45-.75-.57-.8-.38-1.92.42-2.49l.5-.35c.8-.56,1.92-.37,2.48.44.57.8.37,1.92-.44,2.48l-.47.33c-.31.22-.68.33-1.03.33Zm-225.78-5.74c-.38,0-.77-.12-1.09-.37l-.47-.37c-.78-.6-.92-1.72-.32-2.5.6-.78,1.72-.92,2.5-.32l.47.37c.78.6.92,1.72.32,2.5-.35.45-.88.69-1.41.69Zm233.89-.27c-.53,0-1.05-.23-1.4-.68-.61-.77-.48-1.9.29-2.51l.47-.37c.77-.61,1.89-.48,2.51.29.61.77.48,1.9-.29,2.51l-.47.37c-.33.26-.72.38-1.1.38Zm-241.69-6.16c-.42,0-.83-.14-1.17-.44l-.44-.39c-.74-.64-.83-1.77-.18-2.52.64-.74,1.77-.83,2.52-.18l.45.39c.74.65.82,1.77.17,2.52-.35.4-.85.61-1.35.61Zm249.47-.28c-.49,0-.98-.2-1.34-.6-.65-.74-.58-1.86.16-2.52l.45-.4c.74-.64,1.87-.57,2.52.17.65.74.57,1.87-.17,2.52l-.44.39c-.34.3-.76.45-1.18.45Zm-256.92-6.54c-.45,0-.9-.17-1.24-.5l-.42-.41c-.71-.68-.73-1.81-.05-2.52.68-.71,1.81-.73,2.52-.05l.43.42c.71.69.72,1.82.03,2.52-.35.36-.81.54-1.28.54Zm264.35-.29c-.47,0-.93-.18-1.28-.54-.69-.71-.67-1.84.04-2.52l.42-.41c.71-.69,1.83-.68,2.52.03.69.71.68,1.83-.03,2.52l-.43.42c-.35.34-.79.5-1.24.5Zm-271.43-6.91c-.48,0-.95-.19-1.3-.57l-.41-.45c-.67-.72-.62-1.85.1-2.52.73-.67,1.85-.62,2.52.11l.39.42c.67.72.63,1.85-.08,2.52-.34.32-.78.48-1.22.48Zm278.5-.33c-.43,0-.86-.15-1.2-.47-.72-.67-.78-1.78-.11-2.5l.4-.43c.66-.73,1.79-.77,2.52-.11.73.66.78,1.79.11,2.52l-.38.41c-.36.38-.84.58-1.33.58Zm-285.18-7.24c-.51,0-1.02-.22-1.37-.64l-.38-.45c-.63-.75-.54-1.88.22-2.51.75-.63,1.88-.54,2.51.22l.38.46c.63.76.53,1.88-.22,2.51-.33.28-.74.42-1.14.42Zm291.85-.33c-.4,0-.8-.13-1.13-.4-.76-.62-.87-1.75-.25-2.51l.38-.46c.63-.76,1.75-.87,2.51-.24.76.63.87,1.75.24,2.51l-.37.45c-.35.43-.86.65-1.38.65Zm-298.12-7.58c-.54,0-1.08-.25-1.43-.71l-.35-.47c-.59-.79-.43-1.9.35-2.5.79-.6,1.9-.43,2.5.35l.36.48c.59.79.43,1.91-.36,2.5-.32.24-.7.36-1.07.36Zm304.39-.35c-.37,0-.74-.11-1.06-.35-.79-.59-.96-1.7-.38-2.49l.36-.48c.59-.79,1.7-.95,2.49-.37.79.59.95,1.71.36,2.5l-.35.47c-.35.47-.89.72-1.44.72Zm-310.23-7.88c-.57,0-1.14-.28-1.48-.79l-.33-.49c-.55-.82-.33-1.93.49-2.47.82-.55,1.92-.33,2.47.49l.33.49c.55.82.33,1.93-.49,2.47-.31.2-.65.3-.99.3Zm316.07-.38c-.34,0-.67-.09-.97-.29-.82-.54-1.06-1.65-.52-2.47l.34-.51c.55-.82,1.66-1.04,2.47-.49.82.55,1.04,1.66.49,2.47l-.32.48c-.34.52-.91.81-1.49.81Zm-321.47-8.15c-.61,0-1.2-.31-1.53-.87l-.31-.52c-.5-.85-.22-1.94.63-2.44.85-.5,1.94-.22,2.44.63l.3.5c.5.85.23,1.94-.62,2.45-.29.17-.6.25-.91.25Zm326.86-.41c-.31,0-.63-.08-.92-.25-.84-.51-1.12-1.6-.61-2.45l.3-.5c.5-.85,1.6-1.13,2.44-.63.85.5,1.13,1.59.63,2.44l-.31.52c-.33.56-.92.87-1.53.87Zm-331.8-8.39c-.64,0-1.26-.34-1.58-.95l-.28-.53c-.46-.87-.12-1.95.75-2.41.87-.46,1.95-.12,2.41.75l.27.52c.46.87.13,1.95-.74,2.41-.27.14-.55.21-.83.21Zm336.73-.45c-.28,0-.56-.07-.83-.21-.87-.46-1.21-1.54-.75-2.41l.27-.52c.46-.87,1.53-1.21,2.41-.76.87.46,1.21,1.53.76,2.41l-.28.53c-.32.61-.94.95-1.58.95Zm-341.19-8.59c-.67,0-1.32-.38-1.62-1.04l-.25-.54c-.41-.9-.01-1.95.88-2.36.89-.41,1.95-.02,2.36.88l.24.53c.41.89.02,1.95-.87,2.37-.24.11-.5.16-.75.16Zm345.64-.49c-.25,0-.5-.05-.75-.16-.89-.41-1.28-1.47-.87-2.37l.24-.53c.41-.89,1.46-1.29,2.36-.89.9.41,1.29,1.46.89,2.36l-.25.55c-.3.65-.95,1.04-1.62,1.04Zm-349.62-8.77c-.71,0-1.38-.43-1.66-1.12l-.22-.55c-.36-.91.08-1.95,1-2.32.92-.37,1.95.08,2.32,1l.22.55c.36.91-.08,1.95-1,2.32-.22.09-.44.13-.66.13Zm353.58-.54c-.22,0-.44-.04-.65-.12-.92-.36-1.37-1.39-1.01-2.31l.22-.56c.36-.92,1.4-1.36,2.31-1,.91.36,1.37,1.4,1,2.31l-.22.55c-.27.7-.95,1.13-1.66,1.13Zm-357.06-8.94c-.75,0-1.44-.47-1.69-1.22l-.19-.56c-.31-.93.19-1.94,1.12-2.26.94-.31,1.95.19,2.26,1.13l.19.56c.31.93-.19,1.94-1.12,2.26-.19.06-.38.09-.57.09Zm360.52-.57c-.19,0-.38-.03-.57-.09-.93-.32-1.43-1.33-1.12-2.26l.18-.55c.31-.93,1.31-1.45,2.25-1.14.93.31,1.44,1.31,1.14,2.25l-.19.58c-.25.74-.94,1.21-1.69,1.21Zm-363.49-9.08c-.78,0-1.5-.52-1.72-1.31l-.16-.57c-.26-.95.29-1.93,1.24-2.19.95-.27,1.93.29,2.19,1.24l.16.57c.26.95-.29,1.93-1.24,2.19-.16.04-.32.07-.48.07Zm366.43-.59c-.16,0-.32-.02-.48-.07-.95-.26-1.51-1.24-1.24-2.19l.15-.56c.26-.95,1.25-1.51,2.18-1.26.95.26,1.52,1.23,1.26,2.18l-.16.59c-.22.79-.94,1.31-1.72,1.31Zm-368.88-9.21c-.82,0-1.56-.57-1.74-1.4l-.13-.59c-.21-.96.4-1.91,1.36-2.12.96-.2,1.91.4,2.12,1.36l.13.57c.21.96-.4,1.91-1.36,2.13-.13.03-.26.04-.39.04Zm371.29-.59c-.12,0-.25-.01-.38-.04-.96-.21-1.58-1.16-1.37-2.12l.13-.58c.21-.96,1.16-1.57,2.12-1.36.96.21,1.57,1.16,1.37,2.12l-.13.58c-.18.84-.92,1.41-1.74,1.41Zm-373.21-9.32c-.86,0-1.61-.62-1.76-1.49l-.08-.51c-.16-.97.49-1.93,1.47-2.09.97-.15,1.88.46,2.04,1.43l.1.58c.16.97-.49,1.89-1.47,2.05-.1.02-.2.02-.29.02Zm375.1-.6c-.1,0-.2,0-.29-.02-.97-.16-1.63-1.08-1.46-2.05l.09-.57c.15-.97,1.05-1.64,2.04-1.48.97.15,1.64,1.07,1.48,2.04l-.1.6c-.14.87-.9,1.49-1.76,1.49Zm-376.49-9.4c-.9,0-1.67-.67-1.77-1.59l-.07-.59c-.11-.98.6-1.86,1.58-1.97.98-.1,1.86.6,1.97,1.58l.07.59c.11.98-.6,1.86-1.58,1.97-.07,0-.13.01-.2.01Zm377.84-.6c-.07,0-.13,0-.2-.01-.98-.11-1.69-.99-1.58-1.97l.06-.58c.1-.98.96-1.69,1.96-1.59.98.1,1.69.98,1.59,1.96l-.07.61c-.1.91-.87,1.59-1.77,1.59Zm-378.7-9.46c-.94,0-1.72-.73-1.78-1.68l-.03-.6c-.05-.98.7-1.82,1.68-1.88.96-.08,1.82.7,1.88,1.68l.03.59c.06.98-.69,1.83-1.68,1.88-.04,0-.07,0-.11,0Zm379.52-.61s-.07,0-.1,0c-.98-.05-1.74-.89-1.68-1.88l.03-.59c.05-.98.86-1.75,1.88-1.68.98.05,1.74.9,1.68,1.88l-.03.59c-.05.95-.84,1.69-1.78,1.69Zm-379.85-9.49c-.98,0-1.78-.79-1.78-1.77v-.6c0-.98.79-1.79,1.77-1.79h0c.98,0,1.78.79,1.78,1.78v.59c.01.98-.78,1.79-1.77,1.8h-.01Zm380.14-.61h-.01c-.98,0-1.78-.81-1.77-1.8v-.58c0-.33.09-.64.25-.9-.16-.26-.25-.57-.25-.9v-.58c-.02-.98.76-1.8,1.75-1.81.95,0,1.8.77,1.81,1.76v.61c0,.33-.08.65-.24.92.16.27.25.58.25.92v.61c0,.98-.81,1.77-1.79,1.77Zm-379.94-9.49s-.06,0-.09,0c-.98-.05-1.74-.88-1.7-1.86l.03-.59c.05-.98.87-1.76,1.86-1.7.98.05,1.74.88,1.7,1.86l-.03.59c-.05.96-.83,1.7-1.78,1.7Zm379.57-3.01c-.93,0-1.72-.73-1.78-1.67l-.04-.59c-.06-.98.69-1.83,1.67-1.89.97-.07,1.83.68,1.89,1.67l.04.59c.06.98-.69,1.83-1.67,1.89-.04,0-.08,0-.11,0Zm-378.84-7.06c-.06,0-.12,0-.18,0-.98-.1-1.7-.97-1.6-1.95l.06-.59c.1-.98.96-1.69,1.95-1.6.98.1,1.7.97,1.6,1.95l-.06.59c-.09.92-.87,1.61-1.77,1.61Zm377.95-3c-.9,0-1.67-.68-1.77-1.59l-.07-.58c-.12-.98.58-1.86,1.56-1.98.98-.12,1.87.58,1.98,1.56l.07.6c.11.98-.6,1.86-1.58,1.97-.07,0-.13.01-.2.01Zm-376.69-7.02c-.09,0-.18,0-.27-.02-.97-.15-1.64-1.06-1.49-2.03l.09-.59c.15-.97,1.06-1.64,2.03-1.49.97.15,1.64,1.06,1.49,2.03l-.09.59c-.14.88-.9,1.51-1.76,1.51Zm375.27-2.98c-.86,0-1.61-.62-1.76-1.49l-.1-.57c-.17-.97.48-1.89,1.45-2.06.98-.17,1.89.48,2.06,1.45l.1.6c.16.97-.49,1.89-1.46,2.05-.1.02-.2.02-.3.02Zm-373.48-6.96c-.12,0-.24-.01-.37-.04-.96-.2-1.58-1.14-1.38-2.11l.12-.59c.2-.96,1.15-1.58,2.12-1.37.96.2,1.58,1.15,1.37,2.12l-.12.57c-.18.84-.92,1.42-1.74,1.42Zm371.52-2.95c-.82,0-1.55-.56-1.74-1.39l-.13-.58c-.22-.96.39-1.92,1.35-2.13.97-.22,1.92.39,2.13,1.35l.13.58c.22.96-.39,1.92-1.35,2.13-.13.03-.26.04-.39.04Zm-369.2-6.88c-.15,0-.3-.02-.46-.06-.95-.25-1.52-1.23-1.27-2.18l.13-.48c.25-.95,1.25-1.57,2.2-1.31.95.25,1.53,1.18,1.28,2.13l-.15.57c-.21.8-.93,1.33-1.72,1.33Zm366.72-2.91c-.78,0-1.5-.52-1.72-1.31l-.16-.56c-.27-.95.28-1.93,1.23-2.2.94-.27,1.93.28,2.2,1.22l.16.59c.26.95-.29,1.93-1.24,2.19-.16.04-.32.06-.48.06Zm-363.88-6.78c-.18,0-.37-.03-.55-.09-.94-.3-1.45-1.31-1.15-2.25l.18-.57c.3-.94,1.31-1.45,2.25-1.14.94.3,1.45,1.31,1.14,2.25l-.18.57c-.24.75-.94,1.23-1.7,1.23Zm360.88-2.86c-.74,0-1.44-.47-1.69-1.21l-.19-.56c-.32-.93.18-1.95,1.11-2.26.94-.32,1.94.18,2.26,1.11l.19.56c.32.93-.18,1.95-1.12,2.26-.19.06-.38.09-.57.09Zm-357.51-6.68c-.21,0-.43-.04-.64-.12-.92-.35-1.38-1.39-1.02-2.31l.22-.56c.36-.92,1.39-1.38,2.31-1.02.92.35,1.38,1.39,1.02,2.31l-.21.55c-.27.71-.95,1.14-1.67,1.14Zm354-2.79c-.71,0-1.38-.43-1.66-1.13l-.22-.54c-.37-.91.07-1.95.98-2.32.91-.37,1.95.07,2.32.98l.23.57c.36.92-.08,1.95-1,2.31-.22.09-.44.13-.66.13Zm-350.13-6.57c-.24,0-.49-.05-.72-.15-.9-.4-1.31-1.45-.91-2.35l.25-.56c.41-.9,1.46-1.29,2.36-.89.9.41,1.29,1.46.89,2.36l-.24.53c-.3.66-.95,1.06-1.63,1.06Zm346.13-2.69c-.68,0-1.32-.39-1.62-1.04l-.24-.52c-.42-.89-.04-1.95.86-2.37.89-.42,1.95-.03,2.37.86l.26.55c.41.9.02,1.95-.88,2.37-.24.11-.49.16-.74.16Zm-341.76-6.44c-.27,0-.55-.06-.81-.2-.88-.45-1.22-1.52-.77-2.4l.27-.53c.45-.87,1.52-1.22,2.4-.77.88.45,1.22,1.53.77,2.4l-.27.53c-.32.62-.94.97-1.59.97Zm337.27-2.59c-.64,0-1.26-.35-1.58-.96l-.27-.51c-.46-.87-.14-1.95.73-2.41.87-.46,1.95-.14,2.41.73l.29.54c.46.87.12,1.95-.75,2.41-.26.14-.55.2-.83.2Zm-332.42-6.29c-.3,0-.61-.08-.89-.24-.85-.49-1.14-1.58-.65-2.44l.31-.52c.5-.85,1.59-1.13,2.44-.64.85.5,1.13,1.59.64,2.44l-.29.51c-.33.57-.93.89-1.54.89Zm327.46-2.49c-.6,0-1.19-.31-1.53-.86l-.31-.51c-.51-.84-.24-1.94.6-2.45.84-.51,1.94-.24,2.45.6l.31.51c.51.84.24,1.94-.6,2.45-.29.17-.61.26-.92.26Zm-322.15-6.12c-.33,0-.67-.09-.97-.29-.82-.54-1.05-1.64-.52-2.47l.33-.51c.55-.82,1.65-1.04,2.47-.5.82.55,1.04,1.65.5,2.47l-.32.49c-.34.52-.91.81-1.49.81Zm316.72-2.39c-.57,0-1.13-.27-1.47-.78l-.33-.49c-.56-.81-.35-1.92.46-2.48.81-.56,1.92-.35,2.48.46l.34.49c.56.81.35,1.92-.47,2.48-.31.21-.66.31-1,.31Zm-310.96-5.92c-.37,0-.73-.11-1.05-.34-.79-.58-.97-1.7-.38-2.49l.36-.49c.59-.79,1.7-.96,2.49-.37.79.59.96,1.7.37,2.49l-.35.47c-.35.48-.89.73-1.44.73Zm305.09-2.29c-.54,0-1.07-.24-1.42-.71l-.36-.47c-.59-.79-.44-1.9.34-2.5.79-.59,1.9-.44,2.5.34l.36.47c.6.79.44,1.9-.34,2.5-.32.24-.7.36-1.08.36Zm-298.9-5.7c-.4,0-.8-.13-1.13-.4-.76-.62-.87-1.75-.25-2.51l.38-.46c.63-.76,1.75-.87,2.51-.24.76.63.87,1.75.24,2.51l-.37.46c-.35.43-.86.65-1.38.65Zm292.59-2.18c-.5,0-1.01-.21-1.36-.63l-.39-.46c-.64-.75-.54-1.88.21-2.51.75-.64,1.88-.54,2.51.21l.38.45c.64.75.55,1.88-.2,2.51-.34.29-.75.43-1.15.43Zm-285.99-5.47c-.43,0-.86-.15-1.2-.46-.73-.66-.78-1.79-.12-2.52l.4-.44c.66-.73,1.79-.78,2.52-.11.73.66.78,1.79.11,2.52l-.4.44c-.35.39-.83.58-1.32.58Zm279.28-2.08c-.47,0-.94-.19-1.3-.56l-.41-.44c-.68-.72-.64-1.85.08-2.52.71-.67,1.84-.64,2.52.08l.4.43c.68.72.64,1.84-.07,2.52-.34.33-.79.49-1.23.49Zm-272.29-5.21c-.46,0-.92-.18-1.27-.53-.69-.7-.69-1.83.01-2.52l.43-.42c.7-.69,1.83-.68,2.52.02.69.7.68,1.83-.02,2.52l-.42.41c-.35.34-.8.52-1.25.52Zm265.19-1.97c-.44,0-.88-.16-1.23-.49l-.43-.41c-.71-.68-.74-1.81-.06-2.52.68-.71,1.81-.74,2.52-.06l.43.41c.71.68.74,1.81.06,2.52-.35.37-.82.55-1.29.55Zm-257.82-4.93c-.49,0-.98-.2-1.33-.6-.65-.74-.59-1.86.15-2.52l.45-.4c.74-.65,1.87-.58,2.52.15.65.74.58,1.86-.15,2.52l-.44.39c-.34.3-.76.45-1.18.45Zm250.35-1.87c-.41,0-.82-.14-1.16-.43l-.45-.38c-.75-.64-.84-1.77-.2-2.51.64-.75,1.77-.84,2.51-.19l.46.39c.75.64.83,1.77.19,2.52-.35.41-.85.62-1.35.62Zm-242.62-4.64c-.52,0-1.04-.23-1.39-.67-.61-.77-.49-1.89.28-2.51l.47-.38c.77-.61,1.89-.48,2.5.29.61.77.48,1.89-.29,2.5l-.46.36c-.33.26-.72.39-1.11.39Zm234.8-1.76c-.38,0-.76-.12-1.09-.37l-.47-.36c-.78-.6-.92-1.72-.32-2.5.6-.78,1.72-.93,2.5-.32l.47.36c.78.6.92,1.72.32,2.5-.35.46-.88.69-1.41.69Zm-226.75-4.33c-.56,0-1.1-.26-1.45-.75-.57-.8-.39-1.91.41-2.49l.49-.35c.8-.57,1.92-.38,2.49.43.57.8.38,1.92-.43,2.49l-.48.34c-.31.22-.68.33-1.04.33Zm218.59-1.64c-.35,0-.7-.1-1.01-.31l-.5-.34c-.81-.56-1.01-1.67-.46-2.48.56-.81,1.67-1.01,2.48-.45l.48.33c.81.56,1.02,1.67.47,2.48-.35.5-.91.78-1.47.78Zm-210.24-4.01c-.59,0-1.16-.29-1.5-.82-.53-.83-.29-1.93.54-2.46l.51-.32c.83-.53,1.93-.28,2.46.55.53.83.28,1.93-.55,2.46l-.49.31c-.3.19-.63.28-.96.28Zm201.78-1.53c-.32,0-.64-.09-.93-.26l-.51-.31c-.84-.52-1.1-1.61-.59-2.45.52-.84,1.62-1.1,2.45-.59l.51.31c.84.52,1.1,1.61.59,2.45-.34.55-.92.85-1.52.85Zm-193.13-3.67c-.62,0-1.23-.33-1.56-.91-.48-.86-.18-1.94.68-2.43l.51-.29c.85-.49,1.95-.19,2.43.67.49.86.19,1.94-.67,2.43l-.52.29c-.28.16-.58.23-.87.23Zm184.39-1.41c-.29,0-.58-.07-.85-.21l-.53-.29c-.87-.47-1.18-1.55-.71-2.42.47-.87,1.56-1.18,2.42-.71l.52.28c.87.47,1.19,1.55.72,2.42-.32.6-.94.94-1.57.94Zm-175.48-3.32c-.66,0-1.29-.36-1.6-.99-.44-.88-.08-1.95.81-2.39l.53-.26c.88-.44,1.95-.08,2.39.8.44.88.08,1.95-.8,2.39l-.53.27c-.25.13-.52.19-.79.19Zm166.48-1.29c-.26,0-.52-.05-.76-.17l-.54-.26c-.89-.42-1.27-1.49-.85-2.37.42-.89,1.48-1.27,2.38-.85l.54.26c.89.42,1.27,1.48.85,2.38-.3.64-.94,1.02-1.61,1.02Zm-157.34-2.96c-.69,0-1.35-.4-1.64-1.08-.39-.9.03-1.95.93-2.34l.55-.23c.91-.4,1.95.03,2.34.93.39.91-.03,1.95-.93,2.34l-.54.23c-.23.1-.47.15-.71.15Zm148.09-1.16c-.23,0-.46-.04-.68-.13l-.55-.23c-.91-.37-1.35-1.42-.97-2.33.38-.91,1.43-1.34,2.33-.97l.55.23c.91.38,1.35,1.42.97,2.33-.28.69-.95,1.1-1.65,1.1Zm-138.74-2.6c-.72,0-1.41-.44-1.67-1.16-.34-.92.13-1.95,1.05-2.29l.56-.21c.92-.34,1.95.13,2.29,1.05.34.92-.13,1.95-1.05,2.29l-.56.21c-.2.08-.41.11-.62.11Zm129.29-1.03c-.2,0-.4-.03-.59-.1l-.56-.19c-.93-.32-1.42-1.34-1.1-2.27.32-.93,1.34-1.42,2.27-1.1l.57.2c.93.33,1.42,1.34,1.09,2.27-.26.73-.95,1.19-1.68,1.19Zm-119.73-2.23c-.76,0-1.46-.49-1.7-1.25-.29-.94.23-1.94,1.17-2.23l.57-.18c.94-.29,1.94.24,2.23,1.18.29.94-.23,1.94-1.17,2.23l-.57.17c-.18.06-.35.08-.53.08Zm110.12-.87c-.17,0-.34-.02-.5-.07l-.57-.16c-.95-.27-1.49-1.26-1.22-2.21.27-.95,1.27-1.49,2.21-1.22l.58.17c.95.28,1.49,1.27,1.21,2.21-.23.78-.94,1.28-1.71,1.28Zm-100.4-1.87c-.8,0-1.52-.54-1.73-1.34-.24-.95.34-1.92,1.29-2.17l.58-.15c.96-.24,1.92.34,2.17,1.29.24.95-.34,1.92-1.29,2.16l-.57.14c-.15.04-.3.06-.44.06Zm90.63-.72c-.14,0-.27-.02-.41-.05l-.57-.13c-.96-.22-1.56-1.18-1.33-2.14.23-.96,1.18-1.55,2.14-1.33l.58.14c.96.23,1.55,1.19,1.33,2.14-.19.82-.93,1.37-1.73,1.37Zm-80.78-1.5c-.84,0-1.58-.59-1.75-1.44-.19-.97.44-1.9,1.41-2.09l.58-.11c.97-.19,1.9.44,2.09,1.41.19.97-.44,1.9-1.41,2.09l-.58.11c-.12.02-.23.03-.34.03Zm70.89-.56c-.1,0-.21,0-.32-.03l-.58-.1c-.97-.17-1.61-1.1-1.44-2.07.17-.97,1.1-1.61,2.07-1.44l.59.1c.97.17,1.61,1.1,1.44,2.07-.16.86-.91,1.47-1.75,1.47Zm-60.93-1.13c-.87,0-1.64-.64-1.76-1.53-.14-.97.54-1.88,1.51-2.02l.59-.08c.99-.14,1.88.54,2.02,1.52.14.97-.54,1.88-1.52,2.02l-.59.08c-.09.01-.17.02-.25.02Zm50.95-.4c-.07,0-.15,0-.23-.01l-.58-.07c-.98-.12-1.67-1.01-1.55-1.99.12-.98,1-1.67,1.99-1.55l.6.07c.98.12,1.67,1.02,1.54,1.99-.12.9-.88,1.56-1.77,1.56Zm-40.92-.75c-.91,0-1.69-.7-1.78-1.63-.08-.98.64-1.85,1.62-1.93l.59-.05c1-.08,1.85.64,1.93,1.62.08.98-.64,1.85-1.62,1.93l-.59.05c-.05,0-.1,0-.16,0Zm30.87-.24s-.08,0-.13,0l-.59-.04c-.98-.07-1.72-.92-1.65-1.9.07-.98.94-1.74,1.9-1.65l.59.04c.98.07,1.72.92,1.65,1.9-.07.94-.85,1.66-1.78,1.66Zm-20.79-.38c-.96,0-1.75-.76-1.78-1.72-.04-.98.73-1.81,1.72-1.84l.6-.02s.04,0,.06,0c.96,0,1.75.76,1.78,1.73.03.98-.74,1.81-1.73,1.84l-.58.02s-.04,0-.07,0Zm10.7-.08s-.02,0-.04,0h-.59c-.98-.03-1.77-.84-1.76-1.82.02-.98.85-1.72,1.81-1.76h.6c.98.03,1.77.84,1.75,1.83-.02.97-.81,1.75-1.78,1.75Z"/>
  <g>
    <g>
      <path class="cls-5" d="m443.68,259.6c-5.1,0-9.23,4.13-9.23,9.23s4.13,9.23,9.23,9.23,9.23-4.13,9.23-9.23-4.13-9.23-9.23-9.23Zm0,15.06c-3.22,0-5.83-2.61-5.83-5.83s2.61-5.83,5.83-5.83,5.83,2.61,5.83,5.83-2.61,5.83-5.83,5.83Z"/>
      <g>
        <g>
          <path class="cls-5" d="m445.34,260.69c0,.89-.74,1.62-1.66,1.62h0c-.92,0-1.66-.72-1.66-1.62v-12.77c0-.89.74-1.62,1.66-1.62h0c.92,0,1.66.72,1.66,1.62v12.77Z"/>
          <g>
            <path class="cls-5" d="m444.4,253.19c.37.36.37.95,0,1.32h0c-.37.36-.98.36-1.35,0l-4.57-4.45c-.37-.36-.37-.95,0-1.32h0c.37-.36.98-.36,1.35,0l4.57,4.44Z"/>
            <path class="cls-5" d="m444.32,254.5c-.37.36-.98.36-1.35,0h0c-.37-.36-.37-.95,0-1.32l4.57-4.44c.37-.36.98-.36,1.35,0h0c.37.36.37.95,0,1.32l-4.57,4.45Z"/>
          </g>
        </g>
        <g>
          <path class="cls-5" d="m450.61,264.25c-.63.63-1.67.62-2.32-.03h0c-.65-.65-.66-1.69-.03-2.32l9.03-9.03c.63-.63,1.67-.62,2.32.03h0c.65.65.66,1.69.03,2.32l-9.03,9.03Z"/>
          <g>
            <path class="cls-5" d="m455.25,258.28c0,.52-.41.94-.93.93h0c-.52,0-.95-.44-.96-.96l-.09-6.37c0-.52.41-.94.93-.93h0c.52,0,.95.44.96.96l.09,6.37Z"/>
            <path class="cls-5" d="m454.26,259.15c-.52,0-.95-.44-.96-.96h0c0-.52.41-.94.93-.93l6.37.09c.52,0,.95.44.96.96h0c0,.52-.41.94-.93.93l-6.37-.09Z"/>
          </g>
        </g>
        <g>
          <path class="cls-5" d="m451.82,270.49c-.89,0-1.62-.74-1.62-1.66h0c0-.92.72-1.66,1.62-1.66h12.77c.89,0,1.62.74,1.62,1.66h0c0,.92-.72,1.66-1.62,1.66h-12.77Z"/>
          <g>
            <path class="cls-5" d="m459.33,269.55c-.36.37-.95.37-1.32,0h0c-.36-.37-.36-.98,0-1.35l4.44-4.57c.36-.37.95-.37,1.32,0h0c.36.37.36.98,0,1.35l-4.45,4.57Z"/>
            <path class="cls-5" d="m458.01,269.46c-.36-.37-.36-.98,0-1.35h0c.36-.37.95-.37,1.32,0l4.45,4.57c.36.37.36.98,0,1.35h0c-.36.37-.95.37-1.32,0l-4.44-4.57Z"/>
          </g>
        </g>
        <g>
          <path class="cls-5" d="m448.26,275.75c-.63-.63-.62-1.67.03-2.32h0c.65-.65,1.69-.66,2.32-.03l9.03,9.03c.63.63.62,1.67-.03,2.32h0c-.65.65-1.69.66-2.32.03l-9.03-9.03Z"/>
          <g>
            <path class="cls-5" d="m454.24,280.4c-.52,0-.94-.41-.93-.93h0c0-.52.44-.95.96-.96l6.37-.09c.52,0,.94.41.93.93h0c0,.52-.44.95-.96.96l-6.37.09Z"/>
            <path class="cls-5" d="m453.36,279.41c0-.52.44-.95.96-.96h0c.52,0,.94.41.93.93l-.09,6.37c0,.52-.44.95-.96.96h0c-.52,0-.94-.41-.93-.93l.09-6.37Z"/>
          </g>
        </g>
        <g>
          <path class="cls-5" d="m442.02,276.96c0-.89.74-1.62,1.66-1.62h0c.92,0,1.66.72,1.66,1.62v12.77c0,.89-.74,1.62-1.66,1.62h0c-.92,0-1.66-.72-1.66-1.62v-12.77Z"/>
          <g>
            <path class="cls-5" d="m442.97,284.47c-.37-.36-.37-.95,0-1.32h0c.37-.36.98-.36,1.35,0l4.57,4.45c.37.36.37.95,0,1.32h0c-.37.36-.98.36-1.35,0l-4.57-4.45Z"/>
            <path class="cls-5" d="m443.05,283.15c.37-.36.98-.36,1.35,0h0c.37.36.37.95,0,1.32l-4.57,4.45c-.37.36-.98.36-1.35,0h0c-.37-.36-.37-.95,0-1.32l4.57-4.45Z"/>
          </g>
        </g>
        <g>
          <path class="cls-5" d="m436.76,273.41c.63-.63,1.67-.62,2.32.03h0c.65.65.66,1.69.03,2.32l-9.03,9.03c-.63.63-1.67.62-2.32-.03h0c-.65-.65-.66-1.69-.03-2.32l9.03-9.03Z"/>
          <g>
            <path class="cls-5" d="m432.12,279.38c0-.52.41-.94.93-.93h0c.52,0,.95.44.96.96l.09,6.37c0,.52-.41.94-.93.93h0c-.52,0-.95-.44-.96-.96l-.09-6.37Z"/>
            <path class="cls-5" d="m433.11,278.51c.52,0,.95.44.96.96h0c0,.52-.41.94-.93.93l-6.37-.09c-.52,0-.95-.44-.96-.96h0c0-.52.41-.94.93-.93l6.37.09Z"/>
          </g>
        </g>
        <g>
          <path class="cls-5" d="m435.55,267.17c.89,0,1.62.74,1.62,1.66h0c0,.92-.72,1.66-1.62,1.66h-12.77c-.89,0-1.62-.74-1.62-1.66h0c0-.92.72-1.66,1.62-1.66h12.77Z"/>
          <g>
            <path class="cls-5" d="m428.04,268.11c.36-.37.95-.37,1.32,0h0c.36.37.36.98,0,1.35l-4.44,4.57c-.36.37-.95.37-1.32,0h0c-.36-.37-.36-.98,0-1.35l4.44-4.57Z"/>
            <path class="cls-5" d="m429.36,268.19c.36.37.36.98,0,1.35h0c-.36.37-.95.37-1.32,0l-4.44-4.57c-.36-.37-.36-.98,0-1.35h0c.36-.37.95-.37,1.32,0l4.44,4.57Z"/>
          </g>
        </g>
        <g>
          <path class="cls-5" d="m439.11,261.9c.63.63.62,1.67-.03,2.32h0c-.65.65-1.69.66-2.32.03l-9.03-9.03c-.63-.63-.62-1.67.03-2.32h0c.65-.65,1.69-.66,2.32-.03l9.03,9.03Z"/>
          <g>
            <path class="cls-5" d="m433.13,257.26c.52,0,.94.41.93.93h0c0,.52-.44.95-.96.96l-6.37.09c-.52,0-.94-.41-.93-.93h0c0-.52.44-.95.96-.96l6.37-.09Z"/>
            <path class="cls-5" d="m434,258.25c0,.52-.44.95-.96.96h0c-.52,0-.94-.41-.93-.93l.09-6.37c0-.52.44-.95.96-.96h0c.52,0,.94.41.93.93l-.09,6.37Z"/>
          </g>
        </g>
      </g>
    </g>
    <g>
      <path class="cls-5" d="m481.65,241.76c-3.84,0-6.96,3.12-6.96,6.96s3.12,6.96,6.96,6.96,6.96-3.12,6.96-6.96-3.12-6.96-6.96-6.96Zm0,11.36c-2.43,0-4.4-1.97-4.4-4.4s1.97-4.4,4.4-4.4,4.4,1.97,4.4,4.4-1.97,4.4-4.4,4.4Z"/>
      <g>
        <g>
          <path class="cls-5" d="m482.9,242.59c0,.67-.56,1.22-1.25,1.22h0c-.69,0-1.25-.55-1.25-1.22v-9.63c0-.67.56-1.22,1.25-1.22h0c.69,0,1.25.55,1.25,1.22v9.63Z"/>
          <g>
            <path class="cls-5" d="m482.19,236.93c.28.27.28.72,0,.99h0c-.28.27-.74.27-1.02,0l-3.44-3.35c-.28-.27-.28-.72,0-.99h0c.28-.27.74-.27,1.02,0l3.44,3.35Z"/>
            <path class="cls-5" d="m482.13,237.92c-.28.27-.74.27-1.02,0h0c-.28-.27-.28-.72,0-.99l3.44-3.35c.28-.27.74-.27,1.02,0h0c.28.27.28.72,0,.99l-3.44,3.35Z"/>
          </g>
        </g>
        <g>
          <path class="cls-5" d="m486.87,245.27c-.48.48-1.26.47-1.75-.02h0c-.49-.49-.5-1.27-.02-1.75l6.81-6.81c.48-.48,1.26-.47,1.75.02h0c.49.49.5,1.27.02,1.75l-6.81,6.81Z"/>
          <g>
            <path class="cls-5" d="m490.37,240.76c0,.39-.31.71-.7.7h0c-.39,0-.72-.33-.72-.72l-.07-4.81c0-.39.31-.71.7-.7h0c.39,0,.72.33.72.72l.07,4.81Z"/>
            <path class="cls-5" d="m489.62,241.42c-.39,0-.72-.33-.72-.72h0c0-.39.31-.71.7-.7l4.81.07c.39,0,.72.33.72.72h0c0,.39-.31.71-.7.7l-4.81-.07Z"/>
          </g>
        </g>
        <g>
          <path class="cls-5" d="m487.78,249.97c-.67,0-1.22-.56-1.22-1.25h0c0-.69.55-1.25,1.22-1.25h9.63c.67,0,1.22.56,1.22,1.25h0c0,.69-.55,1.25-1.22,1.25h-9.63Z"/>
          <g>
            <path class="cls-5" d="m493.44,249.26c-.27.28-.72.28-.99,0h0c-.27-.28-.27-.74,0-1.02l3.35-3.44c.27-.28.72-.28.99,0h0c.27.28.27.74,0,1.02l-3.35,3.44Z"/>
            <path class="cls-5" d="m492.45,249.2c-.27-.28-.27-.74,0-1.02h0c.27-.28.72-.28.99,0l3.35,3.44c.27.28.27.74,0,1.02h0c-.27.28-.72.28-.99,0l-3.35-3.44Z"/>
          </g>
        </g>
        <g>
          <path class="cls-5" d="m485.1,253.94c-.48-.48-.47-1.26.02-1.75h0c.49-.49,1.27-.5,1.75-.02l6.81,6.81c.48.48.47,1.26-.02,1.75h0c-.49.49-1.27.5-1.75.02l-6.81-6.81Z"/>
          <g>
            <path class="cls-5" d="m489.61,257.44c-.39,0-.71-.31-.7-.7h0c0-.39.33-.72.72-.72l4.81-.07c.39,0,.71.31.7.7h0c0,.39-.33.72-.72.72l-4.81.07Z"/>
            <path class="cls-5" d="m488.95,256.7c0-.39.33-.72.72-.72h0c.39,0,.71.31.7.7l-.07,4.81c0,.39-.33.72-.72.72h0c-.39,0-.71-.31-.7-.7l.07-4.81Z"/>
          </g>
        </g>
        <g>
          <path class="cls-5" d="m480.4,254.85c0-.67.56-1.22,1.25-1.22h0c.69,0,1.25.55,1.25,1.22v9.63c0,.67-.56,1.22-1.25,1.22h0c-.69,0-1.25-.55-1.25-1.22v-9.63Z"/>
          <g>
            <path class="cls-5" d="m481.11,260.51c-.28-.27-.28-.72,0-.99h0c.28-.27.74-.27,1.02,0l3.44,3.35c.28.27.28.72,0,.99h0c-.28.27-.74.27-1.02,0l-3.44-3.35Z"/>
            <path class="cls-5" d="m481.17,259.52c.28-.27.74-.27,1.02,0h0c.28.27.28.72,0,.99l-3.44,3.35c-.28.27-.74.27-1.02,0h0c-.28-.27-.28-.72,0-.99l3.44-3.35Z"/>
          </g>
        </g>
        <g>
          <path class="cls-5" d="m476.42,252.17c.48-.48,1.26-.47,1.75.02h0c.49.49.5,1.27.02,1.75l-6.81,6.81c-.48.48-1.26.47-1.75-.02h0c-.49-.49-.5-1.27-.02-1.75l6.81-6.81Z"/>
          <g>
            <path class="cls-5" d="m472.93,256.68c0-.39.31-.71.7-.7h0c.39,0,.72.33.72.72l.07,4.81c0,.39-.31.71-.7.7h0c-.39,0-.72-.33-.72-.72l-.07-4.81Z"/>
            <path class="cls-5" d="m473.67,256.02c.39,0,.72.33.72.72h0c0,.39-.31.71-.7.7l-4.81-.07c-.39,0-.72-.33-.72-.72h0c0-.39.31-.71.7-.7l4.81.07Z"/>
          </g>
        </g>
        <g>
          <path class="cls-5" d="m475.51,247.47c.67,0,1.22.56,1.22,1.25h0c0,.69-.55,1.25-1.22,1.25h-9.63c-.67,0-1.22-.56-1.22-1.25h0c0-.69.55-1.25,1.22-1.25h9.63Z"/>
          <g>
            <path class="cls-5" d="m469.85,248.18c.27-.28.72-.28.99,0h0c.27.28.27.74,0,1.02l-3.35,3.44c-.27.28-.72.28-.99,0h0c-.27-.28-.27-.74,0-1.02l3.35-3.44Z"/>
            <path class="cls-5" d="m470.85,248.24c.27.28.27.74,0,1.02h0c-.27.28-.72.28-.99,0l-3.35-3.44c-.27-.28-.27-.74,0-1.02h0c.27-.28.72-.28.99,0l3.35,3.44Z"/>
          </g>
        </g>
        <g>
          <path class="cls-5" d="m478.2,243.5c.48.48.47,1.26-.02,1.75h0c-.49.49-1.27.5-1.75.02l-6.81-6.81c-.48-.48-.47-1.26.02-1.75h0c.49-.49,1.27-.5,1.75-.02l6.81,6.81Z"/>
          <g>
            <path class="cls-5" d="m473.69,240c.39,0,.71.31.7.7h0c0,.39-.33.72-.72.72l-4.81.07c-.39,0-.71-.31-.7-.7h0c0-.39.33-.72.72-.72l4.81-.07Z"/>
            <path class="cls-5" d="m474.35,240.74c0,.39-.33.72-.72.72h0c-.39,0-.71-.31-.7-.7l.07-4.81c0-.39.33-.72.72-.72h0c.39,0,.71.31.7.7l-.07,4.81Z"/>
          </g>
        </g>
      </g>
    </g>
    <g>
      <path class="cls-5" d="m483.35,278.45c-3.19,0-5.78,2.59-5.78,5.78s2.59,5.78,5.78,5.78,5.78-2.59,5.78-5.78-2.59-5.78-5.78-5.78Zm0,9.43c-2.02,0-3.65-1.64-3.65-3.65s1.64-3.65,3.65-3.65,3.65,1.64,3.65,3.65-1.64,3.65-3.65,3.65Z"/>
      <g>
        <g>
          <path class="cls-5" d="m484.39,279.13c0,.56-.47,1.01-1.04,1.01h0c-.57,0-1.04-.45-1.04-1.01v-8c0-.56.47-1.01,1.04-1.01h0c.57,0,1.04.45,1.04,1.01v8Z"/>
          <g>
            <path class="cls-5" d="m483.8,274.43c.23.23.23.6,0,.83h0c-.23.23-.61.23-.85,0l-2.86-2.78c-.23-.23-.23-.6,0-.83h0c.23-.23.61-.23.85,0l2.86,2.78Z"/>
            <path class="cls-5" d="m483.75,275.25c-.23.23-.61.23-.85,0h0c-.23-.23-.23-.6,0-.83l2.86-2.78c.23-.23.61-.23.85,0h0c.23.23.23.6,0,.83l-2.86,2.78Z"/>
          </g>
        </g>
        <g>
          <path class="cls-5" d="m487.69,281.36c-.4.4-1.05.39-1.45-.02h0c-.41-.41-.42-1.06-.02-1.45l5.66-5.66c.4-.4,1.05-.39,1.45.02h0c.41.41.42,1.06.02,1.45l-5.66,5.66Z"/>
          <g>
            <path class="cls-5" d="m490.6,277.62c0,.33-.26.59-.58.58h0c-.33,0-.6-.27-.6-.6l-.05-3.99c0-.33.26-.59.58-.58h0c.33,0,.6.27.6.6l.05,3.99Z"/>
            <path class="cls-5" d="m489.98,278.16c-.33,0-.6-.27-.6-.6h0c0-.33.26-.59.58-.58l3.99.05c.33,0,.6.27.6.6h0c0,.33-.26.59-.58.58l-3.99-.05Z"/>
          </g>
        </g>
        <g>
          <path class="cls-5" d="m488.45,285.27c-.56,0-1.01-.47-1.01-1.04h0c0-.57.45-1.04,1.01-1.04h8c.56,0,1.01.47,1.01,1.04h0c0,.57-.45,1.04-1.01,1.04h-8Z"/>
          <g>
            <path class="cls-5" d="m493.15,284.68c-.23.23-.6.23-.83,0h0c-.23-.23-.23-.61,0-.85l2.78-2.86c.23-.23.6-.23.83,0h0c.23.23.23.61,0,.85l-2.78,2.86Z"/>
            <path class="cls-5" d="m492.32,284.63c-.23-.23-.23-.61,0-.85h0c.23-.23.6-.23.83,0l2.78,2.86c.23.23.23.61,0,.85h0c-.23.23-.6.23-.83,0l-2.78-2.86Z"/>
          </g>
        </g>
        <g>
          <path class="cls-5" d="m486.22,288.57c-.4-.4-.39-1.05.02-1.45h0c.41-.41,1.06-.42,1.45-.02l5.66,5.66c.4.4.39,1.05-.02,1.45h0c-.41.41-1.06.42-1.45.02l-5.66-5.66Z"/>
          <g>
            <path class="cls-5" d="m489.96,291.47c-.33,0-.59-.26-.58-.58h0c0-.33.27-.6.6-.6l3.99-.05c.33,0,.59.26.58.58h0c0,.33-.27.6-.6.6l-3.99.05Z"/>
            <path class="cls-5" d="m489.41,290.85c0-.33.27-.6.6-.6h0c.33,0,.59.26.58.58l-.05,3.99c0,.33-.27.6-.6.6h0c-.33,0-.59-.26-.58-.58l.05-3.99Z"/>
          </g>
        </g>
        <g>
          <path class="cls-5" d="m482.31,289.32c0-.56.47-1.01,1.04-1.01h0c.57,0,1.04.45,1.04,1.01v8c0,.56-.47,1.01-1.04,1.01h0c-.57,0-1.04-.45-1.04-1.01v-8Z"/>
          <g>
            <path class="cls-5" d="m482.9,294.03c-.23-.23-.23-.6,0-.83h0c.23-.23.61-.23.85,0l2.86,2.78c.23.23.23.6,0,.83h0c-.23.23-.61.23-.85,0l-2.86-2.78Z"/>
            <path class="cls-5" d="m482.95,293.2c.23-.23.61-.23.85,0h0c.23.23.23.6,0,.83l-2.86,2.78c-.23.23-.61.23-.85,0h0c-.23-.23-.23-.6,0-.83l2.86-2.78Z"/>
          </g>
        </g>
        <g>
          <path class="cls-5" d="m479.01,287.1c.4-.4,1.05-.39,1.45.02h0c.41.41.42,1.06.02,1.45l-5.66,5.66c-.4.4-1.05.39-1.45-.02h0c-.41-.41-.42-1.06-.02-1.45l5.66-5.66Z"/>
          <g>
            <path class="cls-5" d="m476.1,290.84c0-.33.26-.59.58-.58h0c.33,0,.6.27.6.6l.05,3.99c0,.33-.26.59-.58.58h0c-.33,0-.6-.27-.6-.6l-.05-3.99Z"/>
            <path class="cls-5" d="m476.72,290.29c.33,0,.6.27.6.6h0c0,.33-.26.59-.58.58l-3.99-.05c-.33,0-.6-.27-.6-.6h0c0-.33.26-.59.58-.58l3.99.05Z"/>
          </g>
        </g>
        <g>
          <path class="cls-5" d="m478.25,283.19c.56,0,1.01.47,1.01,1.04h0c0,.57-.45,1.04-1.01,1.04h-8c-.56,0-1.01-.47-1.01-1.04h0c0-.57.45-1.04,1.01-1.04h8Z"/>
          <g>
            <path class="cls-5" d="m473.55,283.78c.23-.23.6-.23.83,0h0c.23.23.23.61,0,.85l-2.78,2.86c-.23.23-.6.23-.83,0h0c-.23-.23-.23-.61,0-.85l2.78-2.86Z"/>
            <path class="cls-5" d="m474.38,283.83c.23.23.23.61,0,.85h0c-.23.23-.6.23-.83,0l-2.78-2.86c-.23-.23-.23-.61,0-.85h0c.23-.23.6-.23.83,0l2.78,2.86Z"/>
          </g>
        </g>
        <g>
          <path class="cls-5" d="m480.48,279.89c.4.4.39,1.05-.02,1.45h0c-.41.41-1.06.42-1.45.02l-5.66-5.66c-.4-.4-.39-1.05.02-1.45h0c.41-.41,1.06-.42,1.45-.02l5.66,5.66Z"/>
          <g>
            <path class="cls-5" d="m476.74,276.98c.33,0,.59.26.58.58h0c0,.33-.27.6-.6.6l-3.99.05c-.33,0-.59-.26-.58-.58h0c0-.33.27-.6.6-.6l3.99-.05Z"/>
            <path class="cls-5" d="m477.29,277.6c0,.33-.27.6-.6.6h0c-.33,0-.59-.26-.58-.58l.05-3.99c0-.33.27-.6.6-.6h0c.33,0,.59.26.58.58l-.05,3.99Z"/>
          </g>
        </g>
      </g>
    </g>
  </g>
  <g>
    <path class="cls-5" d="m53.74,324.9c0,.65-.42,1.17-.95,1.17h-25.44c-.52,0-.95-.52-.95-1.17h0c0-.65.42-1.17.95-1.17h25.44c.52,0,.95.52.95,1.17h0Z"/>
    <path class="cls-5" d="m49.46,330.25c0,.64-.35,1.17-.79,1.17h-21.18c-.44,0-.79-.52-.79-1.17h0c0-.65.35-1.17.79-1.17h21.18c.44,0,.79.52.79,1.17h0Z"/>
    <path class="cls-5" d="m44.86,335.59c0,.65-.29,1.17-.65,1.17h-17.58c-.36,0-.65-.52-.65-1.17h0c0-.64.29-1.17.65-1.17h17.58c.36,0,.65.52.65,1.17h0Z"/>
    <path class="cls-5" d="m41.4,340.94c0,.65-.25,1.17-.55,1.17h-14.83c-.3,0-.55-.52-.55-1.17h0c0-.65.25-1.17.55-1.17h14.83c.3,0,.55.52.55,1.17h0Z"/>
    <path class="cls-5" d="m39.54,346.28c0,.64-.17,1.17-.38,1.17h-10.13c-.21,0-.38-.52-.38-1.17h0c0-.65.17-1.17.38-1.17h10.13c.21,0,.38.52.38,1.17h0Z"/>
    <path class="cls-5" d="m40.53,351.62c0,.64-.14,1.17-.31,1.17h-8.27c-.17,0-.31-.52-.31-1.17h0c0-.65.14-1.17.31-1.17h8.27c.17,0,.31.52.31,1.17h0Z"/>
    <path class="cls-5" d="m52.21,319.56c0,.65-.48,1.17-1.07,1.17h-28.78c-.59,0-1.07-.52-1.07-1.17h0c0-.64.48-1.17,1.07-1.17h28.78c.59,0,1.07.52,1.07,1.17h0Z"/>
    <path class="cls-5" d="m51.73,314.22c0,.65-.55,1.17-1.22,1.17H17.69c-.67,0-1.22-.52-1.22-1.17h0c0-.64.55-1.17,1.22-1.17h32.82c.67,0,1.22.52,1.22,1.17h0Z"/>
    <path class="cls-5" d="m52.04,308.87c0,.64-.62,1.17-1.38,1.17H13.55c-.76,0-1.38-.52-1.38-1.17h0c0-.65.62-1.17,1.38-1.17h37.12c.76,0,1.38.52,1.38,1.17h0Z"/>
    <path class="cls-5" d="m58.27,303.53c0,.65-.69,1.17-1.54,1.17H15.44c-.85,0-1.54-.52-1.54-1.17h0c0-.65.69-1.17,1.54-1.17h41.3c.85,0,1.54.52,1.54,1.17h0Z"/>
    <path class="cls-5" d="m62.79,298.18c0,.65-.75,1.17-1.66,1.17H16.36c-.92,0-1.66-.52-1.66-1.17h0c0-.64.75-1.17,1.66-1.17h44.76c.92,0,1.66.52,1.66,1.17h0Z"/>
    <path class="cls-5" d="m65.48,292.84c0,.64-.87,1.17-1.94,1.17H11.29c-1.07,0-1.94-.52-1.94-1.17h0c0-.65.87-1.17,1.94-1.17h52.24c1.07,0,1.94.52,1.94,1.17h0Z"/>
    <path class="cls-5" d="m60.08,287.5c0,.65-.84,1.17-1.88,1.17H7.76c-1.04,0-1.88-.52-1.88-1.17h0c0-.65.84-1.17,1.88-1.17h50.44c1.04,0,1.88.52,1.88,1.17h0Z"/>
  </g>
  <g>
    <circle class="cls-2" cx="320.77" cy="39.8" r="21.05" transform="translate(230.45 350.15) rotate(-80.85)"/>
    <g>
      <path class="cls-2" d="m323.64,10.59c0,1.58-1.28,2.87-2.87,2.87h0c-1.58,0-2.87-1.28-2.87-2.87V2.87c0-1.58,1.28-2.87,2.87-2.87h0c1.58,0,2.87,1.28,2.87,2.87v7.72Z"/>
      <path class="cls-2" d="m343.45,21.17c-1.12,1.12-2.93,1.12-4.05,0h0c-1.12-1.12-1.12-2.93,0-4.05l5.46-5.46c1.12-1.12,2.93-1.12,4.05,0h0c1.12,1.12,1.12,2.93,0,4.05l-5.46,5.46Z"/>
      <path class="cls-2" d="m349.98,42.66c-1.58,0-2.87-1.28-2.87-2.87h0c0-1.58,1.28-2.87,2.87-2.87h7.72c1.58,0,2.87,1.28,2.87,2.87h0c0,1.58-1.28,2.87-2.87,2.87h-7.72Z"/>
      <path class="cls-2" d="m339.4,62.48c-1.12-1.12-1.12-2.93,0-4.05h0c1.12-1.12,2.93-1.12,4.05,0l5.46,5.46c1.12,1.12,1.12,2.93,0,4.05h0c-1.12,1.12-2.93,1.12-4.05,0l-5.46-5.46Z"/>
      <path class="cls-2" d="m317.91,69.01c0-1.58,1.28-2.87,2.87-2.87h0c1.58,0,2.87,1.28,2.87,2.87v7.72c0,1.58-1.28,2.87-2.87,2.87h0c-1.58,0-2.87-1.28-2.87-2.87v-7.72Z"/>
      <path class="cls-2" d="m298.09,58.42c1.12-1.12,2.93-1.12,4.05,0h0c1.12,1.12,1.12,2.93,0,4.05l-5.46,5.46c-1.12,1.12-2.93,1.12-4.05,0h0c-1.12-1.12-1.12-2.93,0-4.05l5.46-5.46Z"/>
      <path class="cls-2" d="m291.56,36.93c1.58,0,2.87,1.28,2.87,2.87h0c0,1.58-1.28,2.87-2.87,2.87h-7.72c-1.58,0-2.87-1.28-2.87-2.87h0c0-1.58,1.28-2.87,2.87-2.87h7.72Z"/>
      <path class="cls-2" d="m302.14,17.11c1.12,1.12,1.12,2.93,0,4.05h0c-1.12,1.12-2.93,1.12-4.05,0l-5.46-5.46c-1.12-1.12-1.12-2.93,0-4.05h0c1.12-1.12,2.93-1.12,4.05,0l5.46,5.46Z"/>
    </g>
  </g>
  <path class="cls-2" d="m114.18,372.89c2.1,4.16,3.31,8.85,3.31,13.83,0,16.97-13.76,30.73-30.73,30.73-5.95,0-11.48-1.72-16.19-4.64,5.06,10.02,15.42,16.9,27.42,16.9,16.97,0,30.73-13.76,30.73-30.73,0-11.02-5.82-20.66-14.54-26.09Z"/>
  <g>
    <g>
      <path class="cls-5" d="m417,152.05c.94-2.66,6.62-12.83,8.91-12.02,2.29.81.32,12.3-.62,14.95-.94,2.66-3.55,4.15-5.84,3.34-2.29-.81-3.38-3.62-2.45-6.27Z"/>
      <path class="cls-5" d="m435.29,152.46c.94-2.66,6.62-12.83,8.91-12.02,2.29.81.32,12.3-.62,14.95-.94,2.66-3.55,4.15-5.84,3.34-2.29-.81-3.38-3.62-2.45-6.27Z"/>
      <path class="cls-5" d="m453.59,152.87c.94-2.66,6.62-12.83,8.91-12.02,2.29.81.32,12.3-.62,14.95-.94,2.66-3.55,4.15-5.84,3.34-2.29-.81-3.38-3.62-2.45-6.27Z"/>
    </g>
    <path class="cls-6" d="m471.9,114.01c.3-.99.47-2.04.47-3.12,0-5.85-4.74-10.59-10.59-10.59-1.66,0-3.24.39-4.64,1.07-2.25-4.96-7.25-8.42-13.05-8.42-6.17,0-11.43,3.9-13.45,9.37-1.76-1.15-3.86-1.83-6.11-1.83-6.16,0-11.16,5-11.16,11.16,0,.73.07,1.44.21,2.13-5.24.39-9.38,4.77-9.38,10.12s4.55,10.15,10.15,10.15h55.25c5.6,0,10.15-4.54,10.15-10.15,0-4.81-3.35-8.84-7.84-9.88Z"/>
  </g>
  <g>
    <path class="cls-5" d="m448.05,383.13c.34-1.1.52-2.27.52-3.49,0-6.53-5.29-11.82-11.82-11.82-1.86,0-3.62.43-5.18,1.19-2.51-5.54-8.09-9.4-14.57-9.4-6.89,0-12.76,4.36-15.02,10.46-1.96-1.29-4.31-2.04-6.83-2.04-6.88,0-12.46,5.58-12.46,12.45,0,.81.08,1.61.23,2.38-5.85.44-10.47,5.33-10.47,11.29s5.07,11.33,11.33,11.33h61.69c6.26,0,11.33-5.07,11.33-11.33,0-5.37-3.74-9.87-8.76-11.03Z"/>
    <path class="cls-5" d="m374.48,385.44c1.89-2.03,4.51-3.36,7.44-3.58-.15-.77-.23-1.56-.23-2.38,0-5.23,3.23-9.7,7.79-11.54-.34-5.5-3.38-10.26-7.8-13.01,1.13,2.24,1.78,4.76,1.78,7.44,0,9.14-7.41,16.54-16.54,16.54-3.2,0-6.18-.92-8.71-2.5,2.73,5.39,8.3,9.1,14.76,9.1.51,0,1.01-.03,1.51-.08Z"/>
  </g>
  <g>
    <path class="cls-1" d="m259.18,421.55c-13.4,0-24.45,10.03-26.07,22.99h5.15c1.58-10.13,10.35-17.89,20.92-17.89,8.52,0,15.85,5.03,19.22,12.28l4.62-2.18c-4.18-8.98-13.28-15.21-23.84-15.21Z"/>
    <path class="cls-2" d="m259.18,426.65c-10.58,0-19.34,7.75-20.92,17.89h6.2c1.5-6.75,7.53-11.8,14.73-11.8,6.08,0,11.32,3.6,13.71,8.79l5.51-2.59c-3.36-7.25-10.7-12.28-19.22-12.28Z"/>
    <path class="cls-3" d="m259.18,415.85c-16.55,0-30.17,12.57-31.82,28.69h5.74c1.62-12.96,12.67-22.99,26.07-22.99,10.56,0,19.66,6.23,23.84,15.21l5.16-2.43c-5.09-10.91-16.16-18.48-28.99-18.48Z"/>
    <path class="cls-5" d="m308.59,448.48c.17-.54.26-1.12.26-1.71,0-3.21-2.6-5.81-5.81-5.81-.91,0-1.78.21-2.54.59-1.23-2.72-3.97-4.62-7.16-4.62-3.38,0-6.27,2.14-7.37,5.14-.96-.63-2.11-1-3.35-1-3.38,0-6.12,2.74-6.12,6.12,0,.4.04.79.11,1.17-2.87.22-5.14,2.62-5.14,5.55s2.49,5.56,5.56,5.56h30.29c3.07,0,5.56-2.49,5.56-5.56,0-2.64-1.84-4.84-4.3-5.42Z"/>
    <path class="cls-5" d="m248.51,457.85c.17-.54.26-1.12.26-1.71,0-3.21-2.6-5.81-5.81-5.81-.91,0-1.78.21-2.54.59-1.23-2.72-3.97-4.62-7.16-4.62-3.38,0-6.27,2.14-7.37,5.14-.96-.63-2.11-1-3.35-1-3.38,0-6.12,2.74-6.12,6.12,0,.4.04.79.11,1.17-2.87.22-5.14,2.62-5.14,5.55s2.49,5.56,5.56,5.56h30.29c3.07,0,5.56-2.49,5.56-5.56,0-2.64-1.84-4.84-4.3-5.42Z"/>
  </g>
  <g>
    <path class="cls-5" d="m174.55,50.79c.32-1.04.5-2.15.5-3.3,0-6.18-5.01-11.2-11.2-11.2-1.76,0-3.42.41-4.91,1.13-2.38-5.25-7.66-8.9-13.8-8.9-6.53,0-12.09,4.12-14.22,9.91-1.86-1.22-4.08-1.93-6.46-1.93-6.51,0-11.8,5.28-11.8,11.79,0,.77.08,1.52.22,2.25-5.54.42-9.91,5.04-9.91,10.69s4.81,10.73,10.73,10.73h58.42c5.92,0,10.73-4.8,10.73-10.73,0-5.09-3.54-9.34-8.29-10.45Z"/>
    <g>
      <path class="cls-2" d="m115.61,19.17c0,1.01-.82,1.83-1.83,1.83h0c-1.01,0-1.83-.82-1.83-1.83v-4.94c0-1.01.82-1.83,1.83-1.83h0c1.01,0,1.83.82,1.83,1.83v4.94Z"/>
      <path class="cls-2" d="m128.29,25.93c-.72.72-1.88.72-2.59,0h0c-.72-.72-.72-1.88,0-2.59l3.49-3.49c.72-.72,1.88-.72,2.59,0h0c.72.72.72,1.88,0,2.59l-3.49,3.49Z"/>
      <path class="cls-2" d="m99.27,49.77c.72-.72,1.88-.72,2.59,0h0c.72.72.72,1.88,0,2.59l-3.49,3.49c-.72.72-1.88.72-2.59,0h0c-.72-.72-.72-1.88,0-2.59l3.49-3.49Z"/>
      <path class="cls-2" d="m95.09,36.02c1.01,0,1.83.82,1.83,1.83h0c0,1.01-.82,1.83-1.83,1.83h-4.94c-1.01,0-1.83-.82-1.83-1.83h0c0-1.01.82-1.83,1.83-1.83h4.94Z"/>
      <path class="cls-2" d="m101.86,23.34c.72.72.72,1.88,0,2.59h0c-.72.72-1.88.72-2.59,0l-3.49-3.49c-.72-.72-.72-1.88,0-2.59h0c.72-.72,1.88-.72,2.59,0l3.49,3.49Z"/>
      <path class="cls-2" d="m107.24,49.61c1.15-.54,2.4-.88,3.72-.98-.14-.73-.22-1.48-.22-2.25,0-6.51,5.28-11.79,11.8-11.79,1.59,0,3.1.32,4.48.89-1.12-6.3-6.62-11.09-13.24-11.09-7.44,0-13.46,6.03-13.46,13.46,0,5.06,2.8,9.46,6.92,11.76Z"/>
    </g>
  </g>
  <g>
    <g>
      <polygon class="cls-2" points="29.48 185.73 16.43 199.96 24.37 199.96 18.13 212.26 31.75 198.56 24.37 198.56 29.48 185.73"/>
      <polygon class="cls-2" points="48.63 185.73 35.58 199.96 43.52 199.96 37.28 212.26 50.9 198.56 43.52 198.56 48.63 185.73"/>
    </g>
    <path class="cls-6" d="m62.57,158.4c.28-.91.43-1.88.43-2.89,0-5.41-4.38-9.79-9.79-9.79-1.54,0-2.99.36-4.29.99-2.08-4.59-6.7-7.78-12.06-7.78-5.7,0-10.56,3.61-12.43,8.66-1.62-1.07-3.56-1.69-5.65-1.69-5.69,0-10.31,4.62-10.31,10.31,0,.67.07,1.33.19,1.97-4.85.36-8.67,4.41-8.67,9.35s4.2,9.38,9.38,9.38h51.06c5.18,0,9.38-4.2,9.38-9.38,0-4.45-3.1-8.17-7.25-9.13Z"/>
  </g>
</svg>