<?xml version="1.0" encoding="UTF-8"?>
<svg xmlns="http://www.w3.org/2000/svg" viewBox="0 0 476.92 442.17">
  <defs>
    <style>
      .cls-1 {
        letter-spacing: -.07em;
      }

      .cls-2 {
        fill: #cfd0d2;
        mix-blend-mode: multiply;
        opacity: .5;
      }

      .cls-3 {
        fill: #2f4b76;
      }

      .cls-4 {
        isolation: isolate;
      }

      .cls-5 {
        fill: #294066;
      }

      .cls-6 {
        fill: #f0f1f1;
        mix-blend-mode: soft-light;
        opacity: .6;
      }

      .cls-7 {
        letter-spacing: -.02em;
      }

      .cls-8 {
        fill: #3f638e;
      }

      .cls-9, .cls-10 {
        fill: #eebf4c;
      }

      .cls-10 {
        font-family: Montserrat-Black, 'Montserrat Black';
        font-size: 42.46px;
        font-weight: 800;
      }

      .cls-11 {
        fill: none;
        stroke: #3f638e;
        stroke-miterlimit: 10;
      }
    </style>
  </defs>
  <g class="cls-4">
    <g id="OBJECTS">
      <g>
        <g>
          <rect class="cls-3" x="369.08" y="232.54" width="87.93" height="5.17"/>
          <rect class="cls-3" x="369.08" y="255.11" width="87.93" height="5.17"/>
          <polygon class="cls-3" points="423.21 442.17 402.88 442.17 410.32 215.19 415.77 215.19 423.21 442.17"/>
          <path class="cls-11" d="m376.41,235.12s50,28.48,83.33-26.86"/>
          <path class="cls-11" d="m376.41,259.39s50,28.48,83.33-26.86"/>
        </g>
        <g>
          <rect class="cls-3" x="42.04" y="232.54" width="87.93" height="5.17" transform="translate(172 470.24) rotate(180)"/>
          <rect class="cls-3" x="42.04" y="255.11" width="87.93" height="5.17" transform="translate(172 515.39) rotate(180)"/>
          <polygon class="cls-3" points="75.84 442.17 96.17 442.17 88.73 215.19 83.28 215.19 75.84 442.17"/>
          <path class="cls-11" d="m122.63,235.12s-50,28.48-83.33-26.86"/>
          <path class="cls-11" d="m122.63,259.39s-50,28.48-83.33-26.86"/>
        </g>
      </g>
      <polygon class="cls-2" points="33.11 0 33.11 441.26 66.22 441.26 48.85 0 33.11 0"/>
      <g>
        <g>
          <text class="cls-10" transform="translate(184.25 104.13)"><tspan x="0" y="0">POWER</tspan><tspan x="-8.41" y="36.58">OU</tspan><tspan class="cls-1" x="48.32" y="36.58">T</tspan><tspan class="cls-7" x="66.23" y="36.58">A</tspan><tspan x="91.58" y="36.58">GE</tspan></text>
          <g>
            <g>
              <rect class="cls-5" x="143.27" y="255.12" width="213.46" height="95.9"/>
              <rect class="cls-8" x="153.93" y="218.2" width="192.15" height="223.06"/>
              <rect class="cls-2" x="153.93" y="218.2" width="192.15" height="5.4"/>
              <rect class="cls-5" x="153.93" y="369.1" width="192.15" height="72.16"/>
              <polygon class="cls-8" points="351.64 207.48 250 175.72 148.37 207.48 148.37 218.2 351.64 218.2 351.64 207.48"/>
              <g>
                <rect class="cls-2" x="182.91" y="264.72" width="134.2" height="40.6" rx="16.86" ry="16.86"/>
                <rect class="cls-5" x="187.67" y="266.16" width="124.66" height="37.72" rx="16.86" ry="16.86"/>
                <g>
                  <g>
                    <path class="cls-8" d="m221.95,284.53c0,3.76-3.05,6.82-6.82,6.82s-6.82-3.05-6.82-6.82,3.05-6.82,6.82-6.82,6.82,3.05,6.82,6.82Z"/>
                    <path class="cls-3" d="m219.46,284.53c0,2.39-1.94,4.33-4.33,4.33s-4.33-1.94-4.33-4.33,1.94-4.33,4.33-4.33,4.33,1.94,4.33,4.33Z"/>
                  </g>
                  <g>
                    <path class="cls-8" d="m257.26,284.53c0,3.76-3.05,6.82-6.82,6.82s-6.82-3.05-6.82-6.82,3.05-6.82,6.82-6.82,6.82,3.05,6.82,6.82Z"/>
                    <path class="cls-9" d="m254.77,284.53c0,2.39-1.94,4.33-4.33,4.33s-4.33-1.94-4.33-4.33,1.94-4.33,4.33-4.33,4.33,1.94,4.33,4.33Z"/>
                  </g>
                  <g>
                    <path class="cls-8" d="m292.56,284.53c0,3.76-3.05,6.82-6.82,6.82s-6.82-3.05-6.82-6.82,3.05-6.82,6.82-6.82,6.82,3.05,6.82,6.82Z"/>
                    <path class="cls-3" d="m290.08,284.53c0,2.39-1.94,4.33-4.33,4.33s-4.33-1.94-4.33-4.33,1.94-4.33,4.33-4.33,4.33,1.94,4.33,4.33Z"/>
                  </g>
                </g>
              </g>
              <circle class="cls-5" cx="173.51" cy="396.27" r="8"/>
              <rect class="cls-8" x="168.49" y="391.82" width="10.06" height="39.44" rx="4.5" ry="4.5"/>
              <g>
                <path class="cls-9" d="m281.45,412.59h-62.89c-6.45,0-10.64-6.79-7.76-12.55l31.45-62.89c3.2-6.39,12.32-6.39,15.52,0l31.45,62.89c2.88,5.77-1.31,12.55-7.76,12.55Z"/>
                <polygon class="cls-3" points="252.65 375.7 259.91 375.74 239.14 401.11 247.71 381.57 238.17 381.57 246.81 360.35 261.84 360.35 252.65 375.7"/>
              </g>
            </g>
            <g>
              <polygon class="cls-9" points="375.64 288.12 424.73 276.16 422.94 285.46 460.52 282.26 409.37 297.27 410.64 287.18 375.64 288.12"/>
              <polygon class="cls-9" points="359.13 187.15 385.29 156.96 388.4 163.77 411.16 144.49 385.07 177.6 381.26 170.51 359.13 187.15"/>
              <polygon class="cls-9" points="360.6 368.81 393.95 390.81 387.61 394.78 409.69 414.82 373.45 393.28 379.99 388.58 360.6 368.81"/>
            </g>
            <g>
              <polygon class="cls-9" points="120.19 288.12 71.1 276.16 72.89 285.46 35.31 282.26 86.46 297.27 85.19 287.18 120.19 288.12"/>
              <polygon class="cls-9" points="136.7 187.15 110.54 156.96 107.43 163.77 84.67 144.49 110.76 177.6 114.57 170.51 136.7 187.15"/>
              <polygon class="cls-9" points="135.23 368.81 101.88 390.81 108.22 394.78 86.14 414.82 122.38 393.28 115.84 388.58 135.23 368.81"/>
            </g>
          </g>
        </g>
        <path class="cls-6" d="m153.93,236.13v11.64c-69.96-23.27-99.08-63.64-81.85-101.11,16.59-34.69,3.18-60.42-57.05-77.39-4.07-1.14-9.34-3.13-15.03-5.61V0h108.14c-13.04,14.54-16.63,29.34,2.61,46.73,56.53,51.12,10.54,71.85,4.89,119.06-3.66,31.95,18.62,55.81,38.29,70.34Z"/>
        <path class="cls-6" d="m443.58,89.6c-69,38.5-68,45.23-54.5,86.12,13.5,40.88,0,63.23-43,72.05v-5.89s55.33-13.95,30.33-82.28c-25-68.33,10.67-68,30.17-86,17.67-16.31,22.2-39.6-5.76-73.6h64.56c12.74,23.3,24.89,63.55-21.8,89.6Z"/>
      </g>
    </g>
  </g>
</svg>