<?xml version="1.0" encoding="UTF-8"?>
<svg xmlns="http://www.w3.org/2000/svg" viewBox="0 0 1060.98 738.29">
  <defs>
    <style>
      .cls-1 {
        fill: #514943;
      }

      .cls-2 {
        fill: #8c6239;
      }

      .cls-3 {
        fill: #fff;
      }

      .cls-4 {
        fill: #41352b;
      }

      .cls-5 {
        fill: #35526d;
      }

      .cls-6 {
        fill: #ebceb1;
      }

      .cls-7 {
        fill: #9299a2;
      }

      .cls-8 {
        fill: #e5e9ea;
      }

      .cls-9 {
        fill: #ff9e34;
      }

      .cls-10 {
        fill: #998675;
      }

      .cls-11 {
        isolation: isolate;
      }

      .cls-12 {
        fill: #545150;
      }

      .cls-13 {
        fill: #534741;
      }

      .cls-14 {
        fill: #c7b299;
      }

      .cls-15 {
        fill: #333;
      }

      .cls-16 {
        fill: #e6e6e6;
      }

      .cls-17, .cls-18 {
        opacity: .12;
      }

      .cls-17, .cls-19 {
        mix-blend-mode: multiply;
      }

      .cls-20 {
        fill: #8e999f;
      }

      .cls-21 {
        fill: #5aa0a3;
      }

      .cls-22 {
        fill: #fee4d6;
      }

      .cls-23 {
        fill: #015f7f;
      }

      .cls-24 {
        fill: #0b6c96;
      }

      .cls-25 {
        fill: #eacdb0;
      }

      .cls-26 {
        fill: #d1e0da;
      }

      .cls-19 {
        fill: #516784;
        opacity: .1;
      }

      .cls-27 {
        fill: #f4d331;
      }

      .cls-28 {
        fill: #667482;
      }
    </style>
  </defs>
  <g class="cls-11">
    <g id="shadow">
      <path class="cls-19" d="m1011.38,620.52H148.82c-27.28,0-49.61,8.94-49.61,19.86h0c0,7.57,10.71,14.17,26.35,17.53H49.61c-27.28,0-49.61,8.94-49.61,19.86h0c0,10.92,22.32,19.86,49.61,19.86h26.47c-7.39,3.47-11.88,7.96-11.88,12.85v7.95c0,10.92,22.32,19.86,49.61,19.86h849.72c27.28,0,49.61-8.94,49.61-19.86v-7.95c0-10.92-22.32-19.86-49.61-19.86l-57.78.44c4.4,0,11.55-1.39,16.34-4.18,8.41-4.9,8.78-12.36,4.67-18.53-2.66-4-6.93-7.18-17.51-8.37l102.13.27c27.28,0,49.61-8.94,49.61-19.86h0c0-10.92-22.32-19.86-49.61-19.86Z"/>
    </g>
    <g id="object">
      <g>
        <polygon class="cls-25" points="629.56 148.53 638.44 148.1 643.53 142.18 645.34 142.65 644.9 144.9 650.54 141.23 656.01 141.9 659.62 148.34 658.52 155.83 651.82 158.64 643.18 157.51 631.06 158.63 629.56 148.53"/>
        <path class="cls-28" d="m634.23,144.3c-9.66-1.48-19.32-2.95-28.98-4.43-6.24-.95-12.51-1.78-18.72-2.86-7.82-1.36-7.01-6.79-12.69-12.09-12.78-11.92-26.99-24.5-44.42-25.85-1.74-.14-3.57-.14-5.13.65-2.95,1.49-3.96,5.41-3.14,8.61.82,3.2,3.04,5.83,5.21,8.33,11.76,13.52,24.5,30.19,39.07,40.74,6.55,4.74,18.87,2.72,26.97,2.88,16.38.33,32.76.66,49.14.98l-7.3-16.95Z"/>
      </g>
      <g>
        <g>
          <polygon class="cls-4" points="481.49 566.13 481.49 574.53 459.96 585.29 449.19 574.53 459.96 563.76 461.35 563.76 461.69 566.13 481.49 566.13"/>
          <polygon class="cls-4" points="534.52 563.76 536.01 563.76 546.78 574.53 536.01 585.29 514.48 574.53 514.48 566.13 534.27 566.13 534.52 563.76"/>
          <g>
            <path class="cls-28" d="m534.22,247.45c-2.83-14.34-5.05-27.58-5.25-34.76-.61-21.59-3.33-92.9-3.33-92.9l-13.18-27.28-2.43.02c.18-.02.35-.04.52-.06-.57.07.28-5.27.48-5.74,11.46-.39,26.23,6.07,33.45,15.08,5.35,6.66,8.53,14.81,11.62,22.81,8.72,22.53,12.68,43.41,17.03,67.1,2.77,15.11,5.34,30.15,7.36,45.14,2.24,16.61,3.81,33.17,4.27,49.64.05,1.82.41,6.91.61,12.99.42,12.74.15,29.78-5.12,30.41-.99.12-1.94-.33-2.81-.75-6.78-3.35-12.13-7.73-18.11-11.55l-.32-66.44-24.79-3.71Z"/>
            <path class="cls-28" d="m413.01,315.74c1.35-14.14,2.75-28.28,4.46-42.38,3.41-28.12,8.06-56.18,15.91-83.4,3-10.4,6.46-20.66,9.93-30.91,4.22-12.48,8.43-24.97,12.65-37.45,5.24-15.52,14.08-26.45,29.56-31.87,2.77-.97,5.68-1.72,8.68-2.26.07.32.14.65.18.99.18,1.49.6,3.14,1.53,4.22l-10.16.1s-28.67,101.89-29.72,119.46c-.4,6.68-1.73,21.25-3.21,36.6l-15.57,2.33-.67,58.72c-.87.25-1.74.5-2.6.73-4.94,1.33-8.96,4.99-13.06,7.87-6.06,4.24-8.72,5.92-7.89-2.74Z"/>
            <path class="cls-28" d="m452.8,248.83c-2.35,24.3-5.07,50.54-5.07,50.54,0,0,12.59.3,30.8,1.68-1.35-.03-2.69-.07-4.04-.08-12.67-.11-25.8,5.36-37.93,8.91l.67-58.72,15.57-2.33Z"/>
            <path class="cls-28" d="m537.79,308.45c8.68.46,9.76-1.18,9.76-1.18,0,0-7.83-31.99-13.33-59.82l24.79,3.71.32,66.44c-2.1-1.34-4.28-2.62-6.64-3.76-4.71-2.28-9.75-4.02-14.91-5.4Z"/>
            <path class="cls-12" d="m436.57,309.88c12.13-3.55,25.26-9.02,37.93-8.91,1.35.01,2.69.05,4.04.08,1.13.09,2.28.18,3.44.27,8.49.68,18.02,1.59,27.98,2.8.49.06.98.12,1.47.18,12.73,2.77,21,3.86,26.37,4.14,5.16,1.38,10.2,3.12,14.91,5.4,2.35,1.14,4.53,2.42,6.64,3.76l.07,13.84-24.28,235.01h-19.9v2.39h-.11l-21.89-157.63-.09-.89-11.99,158.52h-.11v-2.39h-20l-25.37-176.52.91-80.04Z"/>
            <path class="cls-3" d="m447.74,299.37s12.59.3,30.8,1.68c1.13.09,2.28.18,3.44.27,8.49.68,18.02,1.59,27.98,2.8.49.06.98.12,1.47.18,12.73,2.77,21,3.85,26.37,4.14,8.68.46,9.76-1.18,9.76-1.18,0,0-7.83-31.99-13.33-59.82-2.83-14.34-5.05-27.58-5.25-34.76-.61-21.59-3.33-92.9-3.33-92.9l-13.18-27.28-2.43.02c-3.36.4-6.72.81-10.08,1.21-.87.1-1.77.21-2.6-.07-.42-.14-.78-.36-1.09-.63-.13-.11-.24-.24-.35-.37l-10.16.1s-28.67,101.89-29.72,119.46c-.4,6.68-1.73,21.25-3.21,36.6-2.35,24.3-5.07,50.54-5.07,50.54Z"/>
          </g>
        </g>
        <g>
          <path class="cls-13" d="m477.48,27.56c-2.55,5.14-3.61,10.97-3.57,16.73.01,1.53,0,3.3-1.17,4.27-1.25,1.03,0,3.09-1.06,1.85-1.05-1.24-4.64-5.55-4.87-7.17-.55-3.8-.74-7.65-.57-11.49.15-3.34.64-6.84,2.65-9.49,1.19-1.57,2.83-2.71,4.44-3.82,2.34-1.61,4.75-3.24,7.5-3.91,4.73-1.16,7.75.43,3.71,4.05-2.9,2.59-5.31,5.46-7.06,8.99Z"/>
          <path class="cls-25" d="m510.49,91.22c-6.54.97-13.09,1.94-19.63,2.91-1.29-5.72-2.18-11.56-2.64-17.44-5.78-.7-12.61-2.23-14.88-8.23-.71-1.89-.84-3.98-.96-6.02-.49-8.45-.98-16.9-1.47-25.35-.17-2.92-.33-5.93.52-8.7,1.49-4.85,5.73-7.92,9.95-9.93,10.75-5.13,23.57-5.62,34.03.33,2.79,1.58,5.44,3.67,7.15,6.6,2.63,4.52,2.62,10.27,2.52,15.64-.09,4.96-.19,9.93-.28,14.89-.11,5.71-.62,12.3-4.81,15.53-2.23,1.72-5.19,2.16-7.07,4.33-3.32,3.82-1.39,10.22-2.43,15.43Z"/>
          <path class="cls-13" d="m471.14,67.44c1.29,5.21,4.05,10.1,8.41,12.84,4.94,3.1,10.94,3.02,16.62,2.86,3.1-.09,6.21-.18,9.31-.26,7.85-.22,15.6-1.66,19.21-10.27,1.66-3.97,2.03-8.5,1.53-12.86-.14-1.2-.35-2.42-.96-3.43-.61-1.01-1.71-1.74-2.79-1.53-1.38.27-2.14,1.84-2.97,3.07-1.82,2.68-5.2,4.3-8.06,3.07-.85-.37-1.59-.95-2.33-1.53-.3-.24-.61-.48-.92-.71-3.07-2.26-6.74-3.18-10.37-3.47-3.15-.25-7.82-1.18-10,1.65-1.27,1.65-2.54,3.3-3.81,4.94-.52.68-1.06,1.37-1.76,1.82-.72.47-1.57.65-2.4.71-2.1.15-4.52-.72-5.34-2.85-.36-.93-.37-1.97-.45-2.97-.09-1-.29-2.06-.94-2.79-2.46-2.77-2.9,1.86-2.92,3.44-.02,2.78.28,5.57.94,8.26Zm21.43.34c2.57,1.57,5.17,1.45,7.89.47,1.39-.51,2.12,1.87.72,2.38-3.27,1.19-6.57,1.25-9.66-.63-1.29-.78-.25-3.01,1.05-2.22Z"/>
          <path class="cls-13" d="m466.69,13.44c-.65-2.02-1.16-4.09-1.53-6.18,1.95.58,4.05.66,6.04.21-.06-1.22-.11-2.43-.17-3.65-.04-1.01,13.37-2.42,14.46-2.57,10.19-1.39,19.5-2.69,29.03,2.41,8.14,4.36,13.57,11.21,15.25,20.42,1.61,8.8-.66,20.51-5.32,28.13-.09-2.36.96-7.99.3-10.2-.45-2.23-1.32-4.35-2.48-6.3-2.3-3.88-5.73-7.07-9.61-9.27-6.19-3.51-13.26-5.16-20.28-5.78-6.42-.57-14.24-1-20.46,1.05-2.99.98-3.45,1.78-5.44-1.23-.35-.53-3.24-6.8-2.99-6.82,1.06-.07,2.12-.14,3.19-.22Z"/>
        </g>
      </g>
      <g>
        <polygon class="cls-6" points="305.01 262.7 307.88 270.88 321.94 267.72 324.12 258.94 318.67 253.38 314.02 258.43 313.48 256.9 314.51 254.82 312.41 253.83 305.01 262.7"/>
        <polygon class="cls-7" points="197.64 253.67 254.34 272.69 306.18 258.68 311.11 270.98 252.5 297.99 170.45 281.29 197.64 253.67"/>
      </g>
      <g>
        <path class="cls-10" d="m160.39,692.5l-.75,7.87-5.25,6.36s-1.58,9.6,1.25,11.31c2.83,1.71,47.13,7.37,47.13,7.37l4.63-6.78-3.6-7.56-23.35-10.93-7.97-9.01-12.09,1.38Z"/>
        <path class="cls-10" d="m206.91,675.89l-.75,7.87-5.18,6.37s-1.57,9.6,1.21,11.3,46.37,7.29,46.37,7.29l4.57-6.78-3.53-7.55-22.96-10.89-7.83-9-11.9,1.4Z"/>
        <g>
          <path class="cls-28" d="m154.74,537.98c3.74,8.05,7.1,15.34,7.63,25.67.52,10.16-1.47,20.25-2.99,30.3-5.28,34.79-5.1,70.15-4.91,105.34,12.13.63,24.28.99,36.43,1.07,2.07.01,4.4-.09,5.78-1.62,1.39-1.53,1.27-3.87,1.05-5.93-2.57-25.02-2.15-50.31-1.56-75.43.29-12.37.81-22.94,3.45-34.86,2.62-11.84,2.28-24.13,1.57-36.16-1.73-29.45-7.45-58.4-8.83-87.84-.25-5.34-.71-11.08-4.12-15.19-4.11-4.94-11.22-6-17.65-6.06-17.67-.15-37.63,2.47-38.7,23.88-.36,7.14,1.46,14.19,3.4,21.07,4.44,15.76,9.28,31.69,15.49,46.86,1.29,3.16,2.64,6.06,3.95,8.87Z"/>
          <path class="cls-28" d="m204.11,524.89c3.56,8.22,6.76,15.68,6.8,26.02.04,10.17-2.59,20.15-4.72,30.11-7.38,34.49-9,69.81-10.59,104.97,12.85,1.24,25.73,2.2,38.63,2.89,2.19.12,4.67.13,6.22-1.33,1.56-1.46,1.54-3.8,1.42-5.87-1.81-31.26-3.87-62.62-1.4-93.83.95-11.94,2.56-23.84,3.33-35.79,1.51-23.28-.15-46.62-2.79-69.78-1.62-14.27,1.12-44.76-13.22-53.51-6.49-3.96-14.74-4.61-22.38-3.51-3.9.56-7.79,1.57-11.1,3.59-6.38,3.88-9.79,11.08-10.53,18.19-.75,7.11.83,14.25,2.54,21.22,3.91,15.97,8.24,32.11,14.06,47.57,1.21,3.22,2.5,6.18,3.74,9.06Z"/>
          <path class="cls-7" d="m143.2,256.19c-9.35,5.43-16.44,13.78-18.99,26.25-11.5,56.29-5.21,114.52,1.12,171.62.43,3.9,1.11,8.25,4.26,10.59,3.56,2.65,8.55,1.51,12.82.29,33.57-9.56,67.94-16.31,102.64-20.16-1.73-41.97-5.43-83.85-11.08-125.47-1.53-11.25-3.23-22.59-7.33-33.18-9.16-23.63-24.93-40.56-51.61-38.61-11.32.83-22.65,3.34-31.81,8.67Z"/>
          <g>
            <path class="cls-22" d="m202.07,201.39c.39,7.19.67,14.85-2.97,21.05-3.11,5.29-8.58,8.66-12.8,13.11-2.57,2.71-4.72,6.24-5.23,10-.5,3.71,1.46,6.89,1.41,10.6,0,.35-.02.71-.19,1.01-.18.33-.5.55-.83.72-1.69.9-3.68.91-5.59.91-2.25,0-4.72.27-6.95-.02-2.92-.38-2.32-.97-2.57-3.95-.37-4.44-.93-8.91-2.33-13.16-2.88-8.78-9.11-16.31-10.81-25.49-1.88-10.16,1.15-20.08,4.45-29.7,1.48-4.3,3.1-8.69,6.09-12.12,6.57-7.54,21.84-9.83,29.05-2.01,8.58,9.3,8.62,16.86,9.28,29.06Z"/>
            <path class="cls-2" d="m199.81,196.44c4.66,6.51,5.35,15.65,1.71,22.79,5.52-3.78,8.16-10.58,9.32-17.17.64-3.62.93-7.33.54-10.99-1.21-11.56-10.27-22.3-21.78-23.94-7.61-1.08-7.66,8.63-4.74,13.38,3.85,6.25,10.69,10,14.93,15.92Z"/>
            <path class="cls-2" d="m179.94,161.02c-4.25-2.08-9.18-2.24-13.9-1.88-6.46.5-19.48,2.29-27.19,7.04-4.25-9.29-16.68-16.4-25.83-11.68-5.36,2.76-7.73,8.86-5.3,13.67.6,1.2,1.47,2.32,2.61,3.23.95.76,2.09,1.38,2.9,2.24,3.07,3.28.16,7.86-2.15,11.52-2.61,4.13-4.42,8.6-5.33,13.19-.51,2.59-.73,5.33.44,7.78,1.17,2.45,4.04,4.52,7.24,4.41,5.8-.2,7.01-5.13,7.35-9.61.39-5.17,1.3-9.69,3.69-14.49.87-1.76,2.06-3.61,3.96-4.09.36-.09.73-.13,1.09-.12-1.31,4.31-2.04,8.68-1.41,13.49,1.25,9.59,4.71,18.96,10.51,26.7,5.8,7.74,13.98,13.78,23.28,16.45.71-5.89-5.47-10.41-6.55-16.24-.58-3.16.41-6.44,2.09-9.18,1.67-2.74,3.98-5.02,6.27-7.28,3.94-3.89,7.88-7.78,11.82-11.66,3.21-3.17,6.46-6.38,8.87-10.2,4.91-7.76,4.78-18.76-4.45-23.28Z"/>
          </g>
        </g>
      </g>
      <g>
        <g>
          <rect class="cls-20" x="682.98" y="216.53" width="108.87" height="179.47"/>
          <rect class="cls-8" x="272.19" y="410.22" width="524.92" height="309.73"/>
          <rect class="cls-5" x="384.56" y="520.59" width="136.3" height="199.41"/>
          <polygon class="cls-17" points="797.11 410.22 797.11 435.6 272.19 410.22 797.11 410.22"/>
          <path class="cls-21" d="m847.23,410.22H221.99c-7.54,0-10.98-9.39-5.23-14.27l312-264.38c3.44-2.92,8.49-2.92,11.93,0l311.83,264.23c5.81,4.92,2.33,14.41-5.28,14.41Z"/>
        </g>
        <g>
          <rect class="cls-5" x="583.86" y="522.04" width="62.36" height="53.18"/>
          <rect class="cls-5" x="665.5" y="522.04" width="62.36" height="53.18"/>
          <rect class="cls-5" x="583.86" y="594.82" width="62.36" height="53.18"/>
          <rect class="cls-5" x="665.5" y="594.82" width="62.36" height="53.18"/>
        </g>
      </g>
      <g>
        <circle class="cls-27" cx="205.62" cy="395.15" r="99.25" transform="translate(-219.19 261.13) rotate(-45)"/>
        <polygon class="cls-3" points="141.22 337.59 185.38 322.04 248.96 392.53 216.59 403.93 266.19 462.32 167.3 401.84 202.23 386.04 141.22 337.59"/>
      </g>
      <g>
        <g>
          <polygon class="cls-6" points="974.5 439.56 956.69 567.71 963.01 660.29 950.04 664.81 938.43 579.27 913.64 422.95 974.5 439.56"/>
          <polygon class="cls-1" points="950.07 667.42 948.63 677.01 951.89 695.24 962.6 694.23 964.62 667.23 963.04 662.9 950.07 667.42"/>
        </g>
        <g>
          <polygon class="cls-6" points="869.53 435.75 875.26 544.44 899.48 696.39 912.61 696.21 906.77 555.33 923.8 425.45 869.53 435.75"/>
          <polygon class="cls-1" points="899.7 693.79 882.92 706.09 885.01 715.29 915.73 707.96 913.24 694.68 899.7 693.79"/>
        </g>
        <polygon class="cls-14" points="866.64 452.04 867.19 578.2 882.62 663.27 917.8 657.58 916.77 559.26 924.07 451.27 920.46 434.91 869.58 440.69 866.64 452.04"/>
        <polygon class="cls-14" points="929.05 561.12 939.93 650.6 970.52 645.84 963.51 560.66 974.86 451.74 968.19 422.24 916.8 430.89 929.05 561.12"/>
        <g>
          <path class="cls-25" d="m990.04,211.56c-2.34-22.21-30.58-35.83-42.64-13.2-3.62,6.8-6.51,14.22-6.67,21.94-.16,7.72,2.78,15.79,8.93,20.29.04.03.07.05.11.07-.68,1.87-1.35,3.74-2.03,5.6-.15.4-.29.85-.14,1.24.18.45.67.67,1.12.83,2.18.83,4.37,1.66,6.55,2.48,1.08.41,2.21.83,3.37.71,2.52-.26,4.12-2.93,4.75-5.42.15-.6.28-1.21.4-1.82,14.35-1.79,27.78-18.22,26.25-32.73Z"/>
          <g>
            <path class="cls-15" d="m946.73,205c-4.19,4.9-5.01,11.56-5.1,17.8-.08,6.1-1.64,11.83-1.16,17.95-.78.83-2.1,0-2.88-.82-4.58-4.77-9.09-9.61-13.53-14.51-.45-.49-.91-1.01-1.11-1.64-.26-.81-.09-1.69.1-2.52,3.75-16.4,12.09-27.52,23.39-39.19,5.49-5.66,18.62-10.84,24.3-2.2,1.29,1.97,1.49,4.46,1.54,6.83.03,1.41.01,2.87-.51,4.18-2.08,5.24-7.12,4.16-11.37,5.29-5.24,1.39-10.14,4.7-13.67,8.84Z"/>
            <path class="cls-15" d="m982.86,221.73c-.73,4.78-2.68,10.04-4.81,14.34-.74,1.49-4.29,4.67-4.55,5.71-.74,3.03,4.46,11.21,5.7,14.14,10.71-3.96,21.43-7.93,32.14-11.89.82-.3,1.68-.64,2.24-1.32.5-.62.68-1.45.83-2.24,2.95-15.54,1.09-30.2-2.7-45.25-3.78-15.04-15.37-28.57-31.25-30.01-12.83-1.16-23.15,6.85-20.52,20.66,1.99,10.42,13.96,14.4,19.62,22.18,3.55,4.88,4.11,9.28,3.3,13.68Z"/>
          </g>
        </g>
        <path class="cls-26" d="m976.11,253.26c.24.13.49.25.73.38,11.53,6.16,18.51,27.79,22.48,40.49,10.23,32.76,12.4,65.76,9.3,100.02-1.67,18.45-4.17,36.82-7.04,55.12-.79,5.06-10.98,49.9-8.78,51.3-22.58-14.37-45.63-28.17-70.34-37.96-24.71-9.79-51.41-1.13-77.88,1.2,14.96-56.65,33.7-128.21,56.96-181.77,2.78-6.41,4.97-13.34,8.65-19.27,4.24-6.83,9.52-8.3,16.4-11.75,2.35-1.18,4.72-2.37,7.24-3.08,13.25-3.72,30.11-.95,42.29,5.32Z"/>
      </g>
      <g>
        <g>
          <g>
            <polygon class="cls-23" points="922.82 729.13 824.99 729.13 835.29 698.23 912.52 698.23 922.82 729.13"/>
            <rect class="cls-24" x="863.61" y="610.7" width="20.6" height="102.98"/>
          </g>
          <polygon class="cls-18" points="863.61 626.15 884.2 662.19 884.2 615.85 863.61 621 863.61 626.15"/>
        </g>
        <g>
          <polygon class="cls-24" points="1039.53 621 713.42 621 730.59 435.63 1022.37 435.63 1039.53 621"/>
          <path class="cls-16" d="m945.15,618.39c-3.86-48.05-7.72-96.1-11.59-144.14-1.1-13.64-2.77-24.98-3.87-38.62-.29-3.62-5.44-3.67-5.15,0,3.86,48.08,7.74,93.64,11.6,141.72l3.28,40.8c.29,3.62,6.01,3.91,5.72.24Z"/>
          <path class="cls-16" d="m806.12,621c3.86-48.05,7.73-93.56,11.6-141.61,1.1-13.64,2.19-27.27,3.29-40.91.29-3.62,6.01-3.91,5.72-.24-3.86,48.08-7.73,96.17-11.59,144.25l-3.86,38.51c-.29,3.62-5.44,3.67-5.15,0Z"/>
        </g>
        <path class="cls-3" d="m1042.96,621c-1.94-20.92-3.87-41.83-5.81-62.75-3.08-33.29-6.17-66.58-9.25-99.88-.7-7.58-1.4-15.16-2.11-22.74-.17-1.85-1.43-3.43-3.43-3.43h-255.74c-11.81,0-23.72-.44-35.53,0-.17,0-.34,0-.5,0-1.98,0-3.26,1.58-3.43,3.43-1.94,20.92-3.87,41.83-5.81,62.75-3.08,33.29-6.17,66.58-9.25,99.88-.7,7.58-1.4,15.16-2.11,22.74-.17,1.85,1.71,3.43,3.43,3.43h286.13c13.11,0,26.32.48,39.42,0,.18,0,.37,0,.55,0,.6,0,1.12-.13,1.56-.35,1.16-.41,2.03-1.44,1.87-3.08Zm-283.3-181.93h250.82c2.84,0,5.87.27,8.79.18,1.8,19.39,3.59,38.78,5.39,58.17h-296.36c1.21-13.02,2.41-26.03,3.62-39.05.6-6.44,1.19-12.87,1.79-19.31h25.96Zm-31.84,63.5h297.31c1.91,20.6,3.81,41.19,5.72,61.79h-308.75c.19-2.04.38-4.07.57-6.11,1.72-18.56,3.44-37.12,5.16-55.68Zm279.24,115h-280.34c-3.08,0-6.36-.28-9.53-.22,1.48-15.95,2.95-31.89,4.43-47.84h309.71c.89,9.58,1.77,19.17,2.66,28.75.6,6.44,1.19,12.87,1.79,19.31h-28.71Z"/>
      </g>
      <g>
        <polygon class="cls-25" points="953.94 417.42 946.38 426.15 936.27 426.62 935.29 428.85 937.95 430.2 929.68 433.02 925.98 439.15 929.68 448 938.21 452.87 946.46 448.27 952.21 438.54 963.06 427.04 953.94 417.42"/>
        <path class="cls-26" d="m945.88,418.8c6.22-11.06,12.45-22.12,18.67-33.19,4.02-7.14,8.19-14.22,12.06-21.44,4.87-9.08-1.34-12.6-2.21-22.66-1.96-22.62-3.44-47.21,9.13-66.12,1.26-1.89,2.72-3.76,4.77-4.73,3.88-1.83,8.71.28,11.32,3.69,2.61,3.4,3.53,7.77,4.35,11.99,4.41,22.84,11.26,49.22,10.38,72.57-.39,10.5-12.33,21.48-18.64,29.89-12.78,17.01-25.56,34.03-38.34,51.04l-11.49-21.04Z"/>
      </g>
      <g>
        <path class="cls-7" d="m99.84,343.1c3.84-7.82,13.15-11.9,21.66-9.5,2.62.74,5.58,2.71,5.54,5.5-.02,1.17-.58,2.19-1.14,3.16-3.33,5.78-12.7,26.1-20.47,24.84-9.05-1.47-8.3-18.49-5.59-24Z"/>
        <path class="cls-6" d="m123.52,341.73c-6.07-2.93-12.77.81-15.48,6.54-2.27,4.8-.39,10.83,4.18,13.53,3.36,1.99,7.37,1.3,9.89-1.68,3.83-4.54,1.22-8.11-.9-12.64.75-.37,1.6-.45,2.42-.6.82-.15,1.67-.41,2.22-1.05,1.64-1.91-.92-3.42-2.34-4.1Z"/>
      </g>
      <g>
        <polygon class="cls-25" points="441.26 215.55 442.97 224.28 449.55 228.45 449.35 230.32 447.06 230.2 451.5 235.26 451.63 240.76 445.78 245.27 438.21 245.26 434.46 239.03 434.34 230.32 431.48 218.49 441.26 215.55"/>
        <path class="cls-28" d="m446.11,219.56c.07-9.77.14-19.55.21-29.32.05-6.31-.04-12.63.14-18.94.22-7.93,5.71-7.91,10.14-14.3,9.95-14.37,20.35-30.24,19.18-47.68-.12-1.74-.38-3.55-1.38-4.98-1.89-2.71-5.93-3.14-8.97-1.86-3.05,1.28-5.33,3.85-7.49,6.35-11.68,13.58-26.34,28.59-34.68,44.53-3.75,7.17.03,19.07,1.03,27.1,2.04,16.26,4.07,32.51,6.11,48.77l15.72-9.67Z"/>
      </g>
      <g>
        <path class="cls-9" d="m770.44,129.46c-.01,6.59-1,13.18-2.97,18.92-2.75,8.01-7.27,15.35-13.12,21.47-11.95,12.5-29.04,19.38-46.3,18.98-4.41-.1-8.9-.99-13.12-2.21-8.32-2.41-16.07-6.69-22.61-12.37-12.9-11.21-20.79-27.72-20.79-44.87,0-17.58,7.96-34.53,21.47-45.78,6.56-5.46,14.28-9.48,22.52-11.71,21.45-5.78,44.51.93,59.51,17.35,5.62,6.16,9.93,13.48,12.56,21.4,1.91,5.75,2.85,12.3,2.84,18.83Z"/>
        <path class="cls-9" d="m693.46,68.62c5.17-.64,19.33-2.03,32.89-.05.92.13,1.63-.79,1.28-1.65l-16.59-40.52c-.41-1-1.82-1-2.23,0l-16.61,40.57c-.35.85.34,1.76,1.26,1.65Z"/>
        <path class="cls-9" d="m732.44,70.18c4.67,2.32,17.24,8.99,27.45,18.12.69.62,1.79.24,1.97-.67l8.56-42.94c.21-1.06-.97-1.84-1.86-1.23l-36.26,24.65c-.76.52-.69,1.66.14,2.07Z"/>
        <path class="cls-9" d="m764.63,94.02c2.28,4.69,8.17,17.64,10.67,31.11.17.91,1.27,1.29,1.97.68l32.99-28.79c.81-.71.36-2.04-.72-2.11l-43.76-2.61c-.92-.05-1.56.9-1.16,1.72Z"/>
        <path class="cls-9" d="m774.5,132.27c-.74,5.16-3.11,19.19-8.57,31.75-.37.85.33,1.78,1.25,1.66l43.45-5.38c1.07-.13,1.44-1.49.58-2.15l-34.8-26.67c-.73-.56-1.79-.13-1.92.78Z"/>
        <path class="cls-9" d="m758.92,171.11c-3.96,3.39-14.99,12.38-27.38,18.22-.84.4-.92,1.56-.15,2.08l36.22,24.61c.89.61,2.07-.17,1.86-1.23l-8.57-42.99c-.18-.9-1.26-1.28-1.96-.68Z"/>
        <path class="cls-9" d="m686.25,70.33c-4.32,2.91-15.92,11.16-24.84,21.56-.6.7-1.74.47-2.04-.4l-14.1-41.45c-.35-1.02.72-1.95,1.68-1.46l39.17,19.7c.82.41.9,1.56.14,2.07Z"/>
        <path class="cls-9" d="m656.87,97.04c-2.19,4.73-7.82,17.8-10.07,31.31-.15.91-1.25,1.31-1.96.71l-33.54-28.14c-.82-.69-.4-2.04.68-2.12l43.7-3.46c.92-.07,1.57.86,1.19,1.7Z"/>
        <path class="cls-9" d="m646.47,135.01c1.24,5.06,4.97,18.8,11.63,30.77.45.81-.16,1.8-1.09,1.78l-43.77-1.12c-1.08-.03-1.58-1.35-.79-2.08l32.03-29.93c.67-.63,1.77-.3,1.99.59Z"/>
        <path class="cls-9" d="m662.1,171.11c3.96,3.39,14.99,12.38,27.38,18.22.84.4.92,1.56.15,2.08l-36.22,24.61c-.89.61-2.07-.17-1.86-1.23l8.57-42.99c.18-.9,1.26-1.28,1.96-.68Z"/>
        <path class="cls-9" d="m727.3,190.98c-5.17.66-19.33,2.09-32.89.15-.92-.13-1.62.79-1.27,1.65l16.7,40.48c.41,1,1.82.99,2.23,0l16.49-40.62c.35-.85-.35-1.76-1.26-1.65Z"/>
      </g>
    </g>
  </g>
</svg>